M48
; DRILL file {KiCad 5.1.10} date Thu Jun 10 23:11:37 2021
; FORMAT={-:-/ absolute / inch / decimal}
; #@! TF.CreationDate,2021-06-10T23:11:37+02:00
; #@! TF.GenerationSoftware,Kicad,Pcbnew,5.1.10
; #@! TF.FileFunction,Plated,1,2,PTH
FMAT,2
INCH
T1C0.0157
T2C0.0295
T3C0.0315
T4C0.0374
T5C0.0394
T6C0.0591
T7C0.0591
T8C0.0787
T9C0.1181
%
G90
G05
T1
X6.7418Y-4.8632
X6.755Y-4.285
X6.8055Y-4.415
X6.825Y-3.525
X6.845Y-3.93
X6.8754Y-4.7304
X6.8757Y-4.3343
X6.905Y-4.58
X6.96Y-4.585
X6.98Y-3.19
X6.985Y-3.91
X7.005Y-4.37
X7.025Y-2.385
X7.025Y-4.75
X7.04Y-4.6
X7.045Y-5.035
X7.05Y-3.48
X7.055Y-4.38
X7.055Y-4.89
X7.08Y-2.99
X7.11Y-5.025
X7.13Y-2.45
X7.13Y-4.96
X7.14Y-4.77
X7.15Y-2.92
X7.1528Y-5.1602
X7.17Y-5.43
X7.21Y-4.3
X7.22Y-4.77
X7.225Y-4.35
X7.225Y-4.35
X7.2274Y-4.2647
X7.23Y-3.06
X7.25Y-5.16
X7.255Y-4.41
X7.2866Y-5.2154
X7.29Y-3.41
X7.3Y-4.41
X7.315Y-2.385
X7.32Y-4.77
X7.3282Y-3.95
X7.34Y-4.075
X7.35Y-3.73
X7.3621Y-4.3489
X7.37Y-3.67
X7.37Y-4.12
X7.42Y-4.77
X7.4275Y-5.0525
X7.43Y-4.92
X7.43Y-4.96
X7.45Y-3.15
X7.5Y-3.78
X7.52Y-4.77
X7.5434Y-4.5416
X7.55Y-4.35
X7.58Y-4.58
X7.59Y-4.15
X7.59Y-5.29
X7.5965Y-4.9528
X7.62Y-4.77
X7.64Y-4.18
X7.66Y-2.095
X7.665Y-1.99
X7.69Y-5.41
X7.7Y-2.36
X7.72Y-4.77
X7.78Y-2.525
X7.78Y-5.37
X7.825Y-3.25
X7.875Y-3.45
X7.975Y-3.45
X7.975Y-4.45
X8.025Y-1.97
X8.0625Y-2.8075
X8.07Y-2.09
X8.072Y-4.652
X8.09Y-5.2
X8.125Y-3.4
X8.145Y-2.32
X8.15Y-5.09
X8.18Y-4.44
X8.22Y-3.92
X8.24Y-4.72
X8.2779Y-3.7421
X8.2779Y-3.9179
X8.2779Y-4.1879
X8.29Y-5.44
X8.3Y-5.26
X8.31Y-3.275
X8.31Y-3.645
X8.3299Y-3.8453
X8.33Y-4.58
X8.35Y-4.645
X8.375Y-3.66
X8.38Y-5.37
X8.4Y-1.72
X8.43Y-4.7
X8.48Y-4.595
X8.49Y-1.815
X8.54Y-3.85
X8.57Y-1.78
X8.615Y-4.375
X8.637Y-4.8689
X8.6726Y-3.6326
X8.695Y-4.59
X8.695Y-4.7
X8.8Y-3.15
X8.83Y-3.85
X8.841Y-1.761
X8.847Y-1.646
X8.915Y-4.38
X8.9526Y-3.6326
X8.955Y-4.705
X8.9559Y-4.861
X8.96Y-4.58
X9.06Y-2.97
X9.11Y-2.1
X9.11Y-2.34
X9.13Y-3.85
X9.2Y-3.34
X9.22Y-4.37
X9.2526Y-3.6326
X9.2551Y-4.8335
X9.27Y-4.585
X9.27Y-4.705
X9.28Y-3.21
X9.319Y-1.656
X9.32Y-3.46
X9.325Y-1.764
X9.35Y-2.48
X9.44Y-3.85
X9.45Y-3.21
X9.47Y-2.59
X9.515Y-3.375
X9.52Y-4.38
X9.525Y-3.46
X9.525Y-4.585
X9.53Y-4.7
X9.5374Y-3.6326
X9.5588Y-3.2462
X9.58Y-4.85
X9.59Y-4.955
X9.715Y-2.025
X9.74Y-3.85
X9.75Y-4.7
X9.79Y-3.465
X9.84Y-4.385
X9.84Y-4.85
X9.845Y-1.835
X9.851Y-1.657
X9.854Y-1.744
X9.8774Y-3.6326
X9.885Y-4.955
X9.925Y-4.58
X10.03Y-3.27
X10.03Y-3.41
X10.05Y-3.85
X10.12Y-4.375
X10.125Y-4.22
X10.14Y-4.01
X10.17Y-4.85
X10.185Y-4.525
X10.185Y-4.955
X10.21Y-3.265
X10.315Y-4.715
X10.328Y-2.639
X10.3328Y-2.1392
X10.3378Y-3.8453
X10.34Y-3.41
X10.345Y-4.275
X10.355Y-3.585
X10.36Y-4.485
X10.365Y-2.6
X10.375Y-3.29
X10.4Y-3.945
X10.4028Y-3.85
X10.42Y-3.405
X10.475Y-3.63
X10.48Y-3.015
X10.505Y-4.41
X10.5051Y-3.5849
X10.51Y-3.195
X10.57Y-3.559
X10.572Y-2.412
T2
X8.47Y-1.645
X8.52Y-1.645
X8.57Y-1.645
T3
X8.655Y-3.03
X10.145Y-3.47
X10.1474Y-3.6326
T4
X6.861Y-2.737
X6.861Y-2.8354
X6.861Y-2.9339
X7.5247Y-5.07
X7.6231Y-5.07
X7.7216Y-5.07
X7.82Y-5.07
X8.45Y-4.9031
X8.45Y-5.0016
X8.45Y-5.1
X8.75Y-4.9031
X8.75Y-5.0016
X8.75Y-5.1
X9.05Y-4.9031
X9.05Y-5.0016
X9.05Y-5.1
X9.35Y-4.9031
X9.35Y-5.0016
X9.35Y-5.1
X9.65Y-4.9031
X9.65Y-5.0016
X9.65Y-5.1
X9.95Y-4.9031
X9.95Y-5.0016
X9.95Y-5.1
X10.25Y-4.9031
X10.25Y-5.0016
X10.25Y-5.1
T5
X6.95Y-3.4
X7.1381Y-2.805
X7.1469Y-3.4
X7.335Y-2.805
X7.5781Y-2.795
X7.775Y-2.795
X7.825Y-3.775
X7.825Y-3.875
X7.9Y-4.55
X7.925Y-3.775
X7.925Y-3.875
X8.0Y-4.55
X8.025Y-3.775
X8.025Y-3.875
X8.1Y-4.55
X8.125Y-3.775
X8.125Y-3.875
X8.39Y-3.4
X8.45Y-4.3516
X8.45Y-4.45
X8.5869Y-3.4
X8.707Y-2.665
X8.75Y-4.3516
X8.75Y-4.45
X8.807Y-2.665
X8.85Y-3.4
X8.902Y-2.412
X8.907Y-2.665
X9.0004Y-2.412
X9.007Y-2.665
X9.0469Y-3.4
X9.05Y-4.3516
X9.05Y-4.45
X9.35Y-4.3516
X9.35Y-4.45
X9.65Y-4.3516
X9.65Y-4.45
X9.95Y-4.3516
X9.95Y-4.45
X10.225Y-2.815
X10.225Y-2.915
X10.225Y-3.015
X10.225Y-3.115
X10.25Y-4.3516
X10.25Y-4.45
T6
X9.1502Y-2.8
X10.04Y-2.8
T7
X9.448Y-2.107
X9.448Y-2.307
T8
X6.9321Y-2.146
X10.029Y-2.146
T9
X6.85Y-1.75
X6.85Y-5.34
X10.45Y-1.75
X10.45Y-5.34
T0
M30
