G04 #@! TF.GenerationSoftware,KiCad,Pcbnew,7.0.8*
G04 #@! TF.CreationDate,2023-10-26T23:06:53+02:00*
G04 #@! TF.ProjectId,PlantCtrlESP32,506c616e-7443-4747-926c-45535033322e,rev?*
G04 #@! TF.SameCoordinates,Original*
G04 #@! TF.FileFunction,Paste,Top*
G04 #@! TF.FilePolarity,Positive*
%FSLAX46Y46*%
G04 Gerber Fmt 4.6, Leading zero omitted, Abs format (unit mm)*
G04 Created by KiCad (PCBNEW 7.0.8) date 2023-10-26 23:06:53*
%MOMM*%
%LPD*%
G01*
G04 APERTURE LIST*
G04 Aperture macros list*
%AMRoundRect*
0 Rectangle with rounded corners*
0 $1 Rounding radius*
0 $2 $3 $4 $5 $6 $7 $8 $9 X,Y pos of 4 corners*
0 Add a 4 corners polygon primitive as box body*
4,1,4,$2,$3,$4,$5,$6,$7,$8,$9,$2,$3,0*
0 Add four circle primitives for the rounded corners*
1,1,$1+$1,$2,$3*
1,1,$1+$1,$4,$5*
1,1,$1+$1,$6,$7*
1,1,$1+$1,$8,$9*
0 Add four rect primitives between the rounded corners*
20,1,$1+$1,$2,$3,$4,$5,0*
20,1,$1+$1,$4,$5,$6,$7,0*
20,1,$1+$1,$6,$7,$8,$9,0*
20,1,$1+$1,$8,$9,$2,$3,0*%
G04 Aperture macros list end*
%ADD10R,1.500000X1.500000*%
%ADD11RoundRect,0.243750X0.456250X-0.243750X0.456250X0.243750X-0.456250X0.243750X-0.456250X-0.243750X0*%
%ADD12RoundRect,0.243750X0.243750X0.456250X-0.243750X0.456250X-0.243750X-0.456250X0.243750X-0.456250X0*%
%ADD13RoundRect,0.250000X2.500000X-0.250000X2.500000X0.250000X-2.500000X0.250000X-2.500000X-0.250000X0*%
%ADD14RoundRect,0.250000X1.250000X-0.550000X1.250000X0.550000X-1.250000X0.550000X-1.250000X-0.550000X0*%
G04 APERTURE END LIST*
D10*
X172330000Y-56570000D03*
X172330000Y-48770000D03*
D11*
X228830000Y-85820000D03*
X228830000Y-83945000D03*
X233830000Y-80820000D03*
X233830000Y-78945000D03*
D12*
X200467500Y-74957500D03*
X198592500Y-74957500D03*
D10*
X172330000Y-59920000D03*
X172330000Y-67720000D03*
D11*
X218830000Y-75820000D03*
X218830000Y-73945000D03*
D13*
X225330000Y-120170000D03*
X225330000Y-118170000D03*
D14*
X223080000Y-122570000D03*
X223080000Y-115770000D03*
D11*
X228830000Y-75857500D03*
X228830000Y-73982500D03*
D13*
X245330000Y-99170000D03*
X245330000Y-97170000D03*
D14*
X243080000Y-101570000D03*
X243080000Y-94770000D03*
D11*
X218830000Y-80820000D03*
X218830000Y-78945000D03*
X223830000Y-80857500D03*
X223830000Y-78982500D03*
D13*
X255330000Y-109670000D03*
X255330000Y-107670000D03*
D14*
X253080000Y-112070000D03*
X253080000Y-105270000D03*
D13*
X195080000Y-99170000D03*
X195080000Y-97170000D03*
D14*
X192830000Y-101570000D03*
X192830000Y-94770000D03*
D11*
X238830000Y-85857500D03*
X238830000Y-83982500D03*
D12*
X200367500Y-69657500D03*
X198492500Y-69657500D03*
D11*
X243830000Y-70820000D03*
X243830000Y-68945000D03*
D13*
X245330000Y-120170000D03*
X245330000Y-118170000D03*
D14*
X243080000Y-122570000D03*
X243080000Y-115770000D03*
D11*
X233830000Y-75820000D03*
X233830000Y-73945000D03*
X233830000Y-85857500D03*
X233830000Y-83982500D03*
X243830000Y-75857500D03*
X243830000Y-73982500D03*
D13*
X225330000Y-109670000D03*
X225330000Y-107670000D03*
D14*
X223080000Y-112070000D03*
X223080000Y-105270000D03*
D11*
X218830000Y-85820000D03*
X218830000Y-83945000D03*
X224080000Y-70820000D03*
X224080000Y-68945000D03*
D12*
X200317500Y-59757500D03*
X198442500Y-59757500D03*
D13*
X184830000Y-120170000D03*
X184830000Y-118170000D03*
D14*
X182580000Y-122570000D03*
X182580000Y-115770000D03*
D11*
X218830000Y-90820000D03*
X218830000Y-88945000D03*
X248830000Y-85820000D03*
X248830000Y-83945000D03*
X253830000Y-90857500D03*
X253830000Y-88982500D03*
X218830000Y-70820000D03*
X218830000Y-68945000D03*
X228830000Y-80820000D03*
X228830000Y-78945000D03*
D12*
X200517500Y-89957500D03*
X198642500Y-89957500D03*
D13*
X255330000Y-120170000D03*
X255330000Y-118170000D03*
D14*
X253080000Y-122570000D03*
X253080000Y-115770000D03*
D11*
X243830000Y-85857500D03*
X243830000Y-83982500D03*
X223830000Y-90857500D03*
X223830000Y-88982500D03*
D13*
X184830000Y-109670000D03*
X184830000Y-107670000D03*
D14*
X182580000Y-112070000D03*
X182580000Y-105270000D03*
D11*
X233830000Y-70857500D03*
X233830000Y-68982500D03*
D13*
X235330000Y-99170000D03*
X235330000Y-97170000D03*
D14*
X233080000Y-101570000D03*
X233080000Y-94770000D03*
D11*
X238830000Y-80857500D03*
X238830000Y-78982500D03*
X228830000Y-90857500D03*
X228830000Y-88982500D03*
X238830000Y-90820000D03*
X238830000Y-88945000D03*
D13*
X195080000Y-120170000D03*
X195080000Y-118170000D03*
D14*
X192830000Y-122570000D03*
X192830000Y-115770000D03*
D12*
X200317500Y-54870000D03*
X198442500Y-54870000D03*
D11*
X243830000Y-80857500D03*
X243830000Y-78982500D03*
X248830000Y-70857500D03*
X248830000Y-68982500D03*
X238830000Y-75895000D03*
X238830000Y-74020000D03*
X223830000Y-75857500D03*
X223830000Y-73982500D03*
X234080000Y-90895000D03*
X234080000Y-89020000D03*
D13*
X255330000Y-99170000D03*
X255330000Y-97170000D03*
D14*
X253080000Y-101570000D03*
X253080000Y-94770000D03*
D13*
X215330000Y-120170000D03*
X215330000Y-118170000D03*
D14*
X213080000Y-122570000D03*
X213080000Y-115770000D03*
D12*
X200217500Y-64782500D03*
X198342500Y-64782500D03*
D13*
X205330000Y-120170000D03*
X205330000Y-118170000D03*
D14*
X203080000Y-122570000D03*
X203080000Y-115770000D03*
D13*
X184830000Y-99170000D03*
X184830000Y-97170000D03*
D14*
X182580000Y-101570000D03*
X182580000Y-94770000D03*
D13*
X215330000Y-109670000D03*
X215330000Y-107670000D03*
D14*
X213080000Y-112070000D03*
X213080000Y-105270000D03*
D13*
X225330000Y-99170000D03*
X225330000Y-97170000D03*
D14*
X223080000Y-101570000D03*
X223080000Y-94770000D03*
D11*
X228830000Y-70857500D03*
X228830000Y-68982500D03*
X253830000Y-75820000D03*
X253830000Y-73945000D03*
D12*
X200567500Y-79857500D03*
X198692500Y-79857500D03*
D13*
X175430000Y-127070000D03*
X175430000Y-125070000D03*
D14*
X173180000Y-129470000D03*
X173180000Y-122670000D03*
D13*
X205330000Y-109670000D03*
X205330000Y-107670000D03*
D14*
X203080000Y-112070000D03*
X203080000Y-105270000D03*
D13*
X235330000Y-109670000D03*
X235330000Y-107670000D03*
D14*
X233080000Y-112070000D03*
X233080000Y-105270000D03*
D13*
X195080000Y-109670000D03*
X195080000Y-107670000D03*
D14*
X192830000Y-112070000D03*
X192830000Y-105270000D03*
D12*
X200517500Y-84920000D03*
X198642500Y-84920000D03*
D11*
X238830000Y-70895000D03*
X238830000Y-69020000D03*
X253830000Y-70857500D03*
X253830000Y-68982500D03*
X253830000Y-80895000D03*
X253830000Y-79020000D03*
X253830000Y-85857500D03*
X253830000Y-83982500D03*
D13*
X215330000Y-99170000D03*
X215330000Y-97170000D03*
D14*
X213080000Y-101570000D03*
X213080000Y-94770000D03*
D11*
X223830000Y-85820000D03*
X223830000Y-83945000D03*
D13*
X245330000Y-109670000D03*
X245330000Y-107670000D03*
D14*
X243080000Y-112070000D03*
X243080000Y-105270000D03*
D13*
X235330000Y-120170000D03*
X235330000Y-118170000D03*
D14*
X233080000Y-122570000D03*
X233080000Y-115770000D03*
D11*
X248830000Y-75820000D03*
X248830000Y-73945000D03*
X248830000Y-90857500D03*
X248830000Y-88982500D03*
X243830000Y-90857500D03*
X243830000Y-88982500D03*
D13*
X205330000Y-99170000D03*
X205330000Y-97170000D03*
D14*
X203080000Y-101570000D03*
X203080000Y-94770000D03*
D11*
X248830000Y-80857500D03*
X248830000Y-78982500D03*
M02*
