G04 #@! TF.GenerationSoftware,KiCad,Pcbnew,5.1.10*
G04 #@! TF.CreationDate,2021-06-10T23:09:58+02:00*
G04 #@! TF.ProjectId,PlantCtrlESP32,506c616e-7443-4747-926c-45535033322e,rev?*
G04 #@! TF.SameCoordinates,Original*
G04 #@! TF.FileFunction,Paste,Top*
G04 #@! TF.FilePolarity,Positive*
%FSLAX46Y46*%
G04 Gerber Fmt 4.6, Leading zero omitted, Abs format (unit mm)*
G04 Created by KiCad (PCBNEW 5.1.10) date 2021-06-10 23:09:58*
%MOMM*%
%LPD*%
G01*
G04 APERTURE LIST*
%ADD10C,0.010000*%
%ADD11R,0.900000X0.800000*%
%ADD12R,0.800000X0.900000*%
%ADD13R,1.500000X1.500000*%
%ADD14R,0.533400X1.460500*%
%ADD15R,1.100000X1.100000*%
%ADD16R,0.550000X1.000000*%
%ADD17R,2.220000X0.960000*%
%ADD18R,5.400000X2.900000*%
%ADD19R,5.000000X5.000000*%
%ADD20R,0.900000X2.000000*%
%ADD21R,2.000000X0.900000*%
G04 APERTURE END LIST*
D10*
G36*
X177049000Y-125341000D02*
G01*
X175929000Y-125341000D01*
X175929000Y-124191000D01*
X177049000Y-124191000D01*
X177049000Y-125341000D01*
G37*
X177049000Y-125341000D02*
X175929000Y-125341000D01*
X175929000Y-124191000D01*
X177049000Y-124191000D01*
X177049000Y-125341000D01*
G36*
X177049000Y-126661000D02*
G01*
X175929000Y-126661000D01*
X175929000Y-125511000D01*
X177049000Y-125511000D01*
X177049000Y-126661000D01*
G37*
X177049000Y-126661000D02*
X175929000Y-126661000D01*
X175929000Y-125511000D01*
X177049000Y-125511000D01*
X177049000Y-126661000D01*
G36*
X177049000Y-127981000D02*
G01*
X175929000Y-127981000D01*
X175929000Y-126831000D01*
X177049000Y-126831000D01*
X177049000Y-127981000D01*
G37*
X177049000Y-127981000D02*
X175929000Y-127981000D01*
X175929000Y-126831000D01*
X177049000Y-126831000D01*
X177049000Y-127981000D01*
G36*
X175699000Y-125341000D02*
G01*
X174579000Y-125341000D01*
X174579000Y-124191000D01*
X175699000Y-124191000D01*
X175699000Y-125341000D01*
G37*
X175699000Y-125341000D02*
X174579000Y-125341000D01*
X174579000Y-124191000D01*
X175699000Y-124191000D01*
X175699000Y-125341000D01*
G36*
X175699000Y-126661000D02*
G01*
X174579000Y-126661000D01*
X174579000Y-125511000D01*
X175699000Y-125511000D01*
X175699000Y-126661000D01*
G37*
X175699000Y-126661000D02*
X174579000Y-126661000D01*
X174579000Y-125511000D01*
X175699000Y-125511000D01*
X175699000Y-126661000D01*
G36*
X175699000Y-127981000D02*
G01*
X174579000Y-127981000D01*
X174579000Y-126831000D01*
X175699000Y-126831000D01*
X175699000Y-127981000D01*
G37*
X175699000Y-127981000D02*
X174579000Y-127981000D01*
X174579000Y-126831000D01*
X175699000Y-126831000D01*
X175699000Y-127981000D01*
G36*
X174349000Y-125341000D02*
G01*
X173229000Y-125341000D01*
X173229000Y-124191000D01*
X174349000Y-124191000D01*
X174349000Y-125341000D01*
G37*
X174349000Y-125341000D02*
X173229000Y-125341000D01*
X173229000Y-124191000D01*
X174349000Y-124191000D01*
X174349000Y-125341000D01*
G36*
X174349000Y-126661000D02*
G01*
X173229000Y-126661000D01*
X173229000Y-125511000D01*
X174349000Y-125511000D01*
X174349000Y-126661000D01*
G37*
X174349000Y-126661000D02*
X173229000Y-126661000D01*
X173229000Y-125511000D01*
X174349000Y-125511000D01*
X174349000Y-126661000D01*
G36*
X174349000Y-127981000D02*
G01*
X173229000Y-127981000D01*
X173229000Y-126831000D01*
X174349000Y-126831000D01*
X174349000Y-127981000D01*
G37*
X174349000Y-127981000D02*
X173229000Y-127981000D01*
X173229000Y-126831000D01*
X174349000Y-126831000D01*
X174349000Y-127981000D01*
G36*
X172999000Y-125341000D02*
G01*
X171879000Y-125341000D01*
X171879000Y-124191000D01*
X172999000Y-124191000D01*
X172999000Y-125341000D01*
G37*
X172999000Y-125341000D02*
X171879000Y-125341000D01*
X171879000Y-124191000D01*
X172999000Y-124191000D01*
X172999000Y-125341000D01*
G36*
X172999000Y-126661000D02*
G01*
X171879000Y-126661000D01*
X171879000Y-125511000D01*
X172999000Y-125511000D01*
X172999000Y-126661000D01*
G37*
X172999000Y-126661000D02*
X171879000Y-126661000D01*
X171879000Y-125511000D01*
X172999000Y-125511000D01*
X172999000Y-126661000D01*
G36*
X172999000Y-127981000D02*
G01*
X171879000Y-127981000D01*
X171879000Y-126831000D01*
X172999000Y-126831000D01*
X172999000Y-127981000D01*
G37*
X172999000Y-127981000D02*
X171879000Y-127981000D01*
X171879000Y-126831000D01*
X172999000Y-126831000D01*
X172999000Y-127981000D01*
G36*
X172999000Y-129301000D02*
G01*
X171879000Y-129301000D01*
X171879000Y-128151000D01*
X172999000Y-128151000D01*
X172999000Y-129301000D01*
G37*
X172999000Y-129301000D02*
X171879000Y-129301000D01*
X171879000Y-128151000D01*
X172999000Y-128151000D01*
X172999000Y-129301000D01*
G36*
X174349000Y-129301000D02*
G01*
X173229000Y-129301000D01*
X173229000Y-128151000D01*
X174349000Y-128151000D01*
X174349000Y-129301000D01*
G37*
X174349000Y-129301000D02*
X173229000Y-129301000D01*
X173229000Y-128151000D01*
X174349000Y-128151000D01*
X174349000Y-129301000D01*
G36*
X175699000Y-129301000D02*
G01*
X174579000Y-129301000D01*
X174579000Y-128151000D01*
X175699000Y-128151000D01*
X175699000Y-129301000D01*
G37*
X175699000Y-129301000D02*
X174579000Y-129301000D01*
X174579000Y-128151000D01*
X175699000Y-128151000D01*
X175699000Y-129301000D01*
G36*
X177049000Y-129301000D02*
G01*
X175929000Y-129301000D01*
X175929000Y-128151000D01*
X177049000Y-128151000D01*
X177049000Y-129301000D01*
G37*
X177049000Y-129301000D02*
X175929000Y-129301000D01*
X175929000Y-128151000D01*
X177049000Y-128151000D01*
X177049000Y-129301000D01*
D11*
X203565000Y-81915000D03*
X201565000Y-82865000D03*
X201565000Y-80965000D03*
G36*
G01*
X192589999Y-83585000D02*
X193490001Y-83585000D01*
G75*
G02*
X193740000Y-83834999I0J-249999D01*
G01*
X193740000Y-84360001D01*
G75*
G02*
X193490001Y-84610000I-249999J0D01*
G01*
X192589999Y-84610000D01*
G75*
G02*
X192340000Y-84360001I0J249999D01*
G01*
X192340000Y-83834999D01*
G75*
G02*
X192589999Y-83585000I249999J0D01*
G01*
G37*
G36*
G01*
X192589999Y-81760000D02*
X193490001Y-81760000D01*
G75*
G02*
X193740000Y-82009999I0J-249999D01*
G01*
X193740000Y-82535001D01*
G75*
G02*
X193490001Y-82785000I-249999J0D01*
G01*
X192589999Y-82785000D01*
G75*
G02*
X192340000Y-82535001I0J249999D01*
G01*
X192340000Y-82009999D01*
G75*
G02*
X192589999Y-81760000I249999J0D01*
G01*
G37*
G36*
G01*
X193275000Y-85909999D02*
X193275000Y-86810001D01*
G75*
G02*
X193025001Y-87060000I-249999J0D01*
G01*
X192499999Y-87060000D01*
G75*
G02*
X192250000Y-86810001I0J249999D01*
G01*
X192250000Y-85909999D01*
G75*
G02*
X192499999Y-85660000I249999J0D01*
G01*
X193025001Y-85660000D01*
G75*
G02*
X193275000Y-85909999I0J-249999D01*
G01*
G37*
G36*
G01*
X195100000Y-85909999D02*
X195100000Y-86810001D01*
G75*
G02*
X194850001Y-87060000I-249999J0D01*
G01*
X194324999Y-87060000D01*
G75*
G02*
X194075000Y-86810001I0J249999D01*
G01*
X194075000Y-85909999D01*
G75*
G02*
X194324999Y-85660000I249999J0D01*
G01*
X194850001Y-85660000D01*
G75*
G02*
X195100000Y-85909999I0J-249999D01*
G01*
G37*
G36*
G01*
X188002500Y-83000001D02*
X188002500Y-82099999D01*
G75*
G02*
X188252499Y-81850000I249999J0D01*
G01*
X188777501Y-81850000D01*
G75*
G02*
X189027500Y-82099999I0J-249999D01*
G01*
X189027500Y-83000001D01*
G75*
G02*
X188777501Y-83250000I-249999J0D01*
G01*
X188252499Y-83250000D01*
G75*
G02*
X188002500Y-83000001I0J249999D01*
G01*
G37*
G36*
G01*
X186177500Y-83000001D02*
X186177500Y-82099999D01*
G75*
G02*
X186427499Y-81850000I249999J0D01*
G01*
X186952501Y-81850000D01*
G75*
G02*
X187202500Y-82099999I0J-249999D01*
G01*
X187202500Y-83000001D01*
G75*
G02*
X186952501Y-83250000I-249999J0D01*
G01*
X186427499Y-83250000D01*
G75*
G02*
X186177500Y-83000001I0J249999D01*
G01*
G37*
G36*
G01*
X186303499Y-86125000D02*
X187203501Y-86125000D01*
G75*
G02*
X187453500Y-86374999I0J-249999D01*
G01*
X187453500Y-86900001D01*
G75*
G02*
X187203501Y-87150000I-249999J0D01*
G01*
X186303499Y-87150000D01*
G75*
G02*
X186053500Y-86900001I0J249999D01*
G01*
X186053500Y-86374999D01*
G75*
G02*
X186303499Y-86125000I249999J0D01*
G01*
G37*
G36*
G01*
X186303499Y-84300000D02*
X187203501Y-84300000D01*
G75*
G02*
X187453500Y-84549999I0J-249999D01*
G01*
X187453500Y-85075001D01*
G75*
G02*
X187203501Y-85325000I-249999J0D01*
G01*
X186303499Y-85325000D01*
G75*
G02*
X186053500Y-85075001I0J249999D01*
G01*
X186053500Y-84549999D01*
G75*
G02*
X186303499Y-84300000I249999J0D01*
G01*
G37*
G36*
G01*
X197161999Y-104286000D02*
X198062001Y-104286000D01*
G75*
G02*
X198312000Y-104535999I0J-249999D01*
G01*
X198312000Y-105061001D01*
G75*
G02*
X198062001Y-105311000I-249999J0D01*
G01*
X197161999Y-105311000D01*
G75*
G02*
X196912000Y-105061001I0J249999D01*
G01*
X196912000Y-104535999D01*
G75*
G02*
X197161999Y-104286000I249999J0D01*
G01*
G37*
G36*
G01*
X197161999Y-102461000D02*
X198062001Y-102461000D01*
G75*
G02*
X198312000Y-102710999I0J-249999D01*
G01*
X198312000Y-103236001D01*
G75*
G02*
X198062001Y-103486000I-249999J0D01*
G01*
X197161999Y-103486000D01*
G75*
G02*
X196912000Y-103236001I0J249999D01*
G01*
X196912000Y-102710999D01*
G75*
G02*
X197161999Y-102461000I249999J0D01*
G01*
G37*
G36*
G01*
X193910000Y-102419999D02*
X193910000Y-103320001D01*
G75*
G02*
X193660001Y-103570000I-249999J0D01*
G01*
X193134999Y-103570000D01*
G75*
G02*
X192885000Y-103320001I0J249999D01*
G01*
X192885000Y-102419999D01*
G75*
G02*
X193134999Y-102170000I249999J0D01*
G01*
X193660001Y-102170000D01*
G75*
G02*
X193910000Y-102419999I0J-249999D01*
G01*
G37*
G36*
G01*
X195735000Y-102419999D02*
X195735000Y-103320001D01*
G75*
G02*
X195485001Y-103570000I-249999J0D01*
G01*
X194959999Y-103570000D01*
G75*
G02*
X194710000Y-103320001I0J249999D01*
G01*
X194710000Y-102419999D01*
G75*
G02*
X194959999Y-102170000I249999J0D01*
G01*
X195485001Y-102170000D01*
G75*
G02*
X195735000Y-102419999I0J-249999D01*
G01*
G37*
G36*
G01*
X193910000Y-93783999D02*
X193910000Y-94684001D01*
G75*
G02*
X193660001Y-94934000I-249999J0D01*
G01*
X193134999Y-94934000D01*
G75*
G02*
X192885000Y-94684001I0J249999D01*
G01*
X192885000Y-93783999D01*
G75*
G02*
X193134999Y-93534000I249999J0D01*
G01*
X193660001Y-93534000D01*
G75*
G02*
X193910000Y-93783999I0J-249999D01*
G01*
G37*
G36*
G01*
X195735000Y-93783999D02*
X195735000Y-94684001D01*
G75*
G02*
X195485001Y-94934000I-249999J0D01*
G01*
X194959999Y-94934000D01*
G75*
G02*
X194710000Y-94684001I0J249999D01*
G01*
X194710000Y-93783999D01*
G75*
G02*
X194959999Y-93534000I249999J0D01*
G01*
X195485001Y-93534000D01*
G75*
G02*
X195735000Y-93783999I0J-249999D01*
G01*
G37*
G36*
G01*
X193910000Y-100133999D02*
X193910000Y-101034001D01*
G75*
G02*
X193660001Y-101284000I-249999J0D01*
G01*
X193134999Y-101284000D01*
G75*
G02*
X192885000Y-101034001I0J249999D01*
G01*
X192885000Y-100133999D01*
G75*
G02*
X193134999Y-99884000I249999J0D01*
G01*
X193660001Y-99884000D01*
G75*
G02*
X193910000Y-100133999I0J-249999D01*
G01*
G37*
G36*
G01*
X195735000Y-100133999D02*
X195735000Y-101034001D01*
G75*
G02*
X195485001Y-101284000I-249999J0D01*
G01*
X194959999Y-101284000D01*
G75*
G02*
X194710000Y-101034001I0J249999D01*
G01*
X194710000Y-100133999D01*
G75*
G02*
X194959999Y-99884000I249999J0D01*
G01*
X195485001Y-99884000D01*
G75*
G02*
X195735000Y-100133999I0J-249999D01*
G01*
G37*
D12*
X196215000Y-82185000D03*
X197165000Y-84185000D03*
X195265000Y-84185000D03*
D11*
X201660000Y-103886000D03*
X199660000Y-104836000D03*
X199660000Y-102936000D03*
D12*
X189801500Y-86725000D03*
X188851500Y-84725000D03*
X190751500Y-84725000D03*
X194310000Y-98282000D03*
X193360000Y-96282000D03*
X195260000Y-96282000D03*
X198120000Y-110125000D03*
X199070000Y-112125000D03*
X197170000Y-112125000D03*
X204978000Y-104886000D03*
X204028000Y-102886000D03*
X205928000Y-102886000D03*
X194310000Y-110125000D03*
X195260000Y-112125000D03*
X193360000Y-112125000D03*
D11*
X184928000Y-129540000D03*
X186928000Y-128590000D03*
X186928000Y-130490000D03*
G36*
G01*
X204362000Y-136594001D02*
X204362000Y-135693999D01*
G75*
G02*
X204611999Y-135444000I249999J0D01*
G01*
X205137001Y-135444000D01*
G75*
G02*
X205387000Y-135693999I0J-249999D01*
G01*
X205387000Y-136594001D01*
G75*
G02*
X205137001Y-136844000I-249999J0D01*
G01*
X204611999Y-136844000D01*
G75*
G02*
X204362000Y-136594001I0J249999D01*
G01*
G37*
G36*
G01*
X202537000Y-136594001D02*
X202537000Y-135693999D01*
G75*
G02*
X202786999Y-135444000I249999J0D01*
G01*
X203312001Y-135444000D01*
G75*
G02*
X203562000Y-135693999I0J-249999D01*
G01*
X203562000Y-136594001D01*
G75*
G02*
X203312001Y-136844000I-249999J0D01*
G01*
X202786999Y-136844000D01*
G75*
G02*
X202537000Y-136594001I0J249999D01*
G01*
G37*
G36*
G01*
X204362000Y-138880001D02*
X204362000Y-137979999D01*
G75*
G02*
X204611999Y-137730000I249999J0D01*
G01*
X205137001Y-137730000D01*
G75*
G02*
X205387000Y-137979999I0J-249999D01*
G01*
X205387000Y-138880001D01*
G75*
G02*
X205137001Y-139130000I-249999J0D01*
G01*
X204611999Y-139130000D01*
G75*
G02*
X204362000Y-138880001I0J249999D01*
G01*
G37*
G36*
G01*
X202537000Y-138880001D02*
X202537000Y-137979999D01*
G75*
G02*
X202786999Y-137730000I249999J0D01*
G01*
X203312001Y-137730000D01*
G75*
G02*
X203562000Y-137979999I0J-249999D01*
G01*
X203562000Y-138880001D01*
G75*
G02*
X203312001Y-139130000I-249999J0D01*
G01*
X202786999Y-139130000D01*
G75*
G02*
X202537000Y-138880001I0J249999D01*
G01*
G37*
G36*
G01*
X207626000Y-134169999D02*
X207626000Y-135070001D01*
G75*
G02*
X207376001Y-135320000I-249999J0D01*
G01*
X206850999Y-135320000D01*
G75*
G02*
X206601000Y-135070001I0J249999D01*
G01*
X206601000Y-134169999D01*
G75*
G02*
X206850999Y-133920000I249999J0D01*
G01*
X207376001Y-133920000D01*
G75*
G02*
X207626000Y-134169999I0J-249999D01*
G01*
G37*
G36*
G01*
X209451000Y-134169999D02*
X209451000Y-135070001D01*
G75*
G02*
X209201001Y-135320000I-249999J0D01*
G01*
X208675999Y-135320000D01*
G75*
G02*
X208426000Y-135070001I0J249999D01*
G01*
X208426000Y-134169999D01*
G75*
G02*
X208675999Y-133920000I249999J0D01*
G01*
X209201001Y-133920000D01*
G75*
G02*
X209451000Y-134169999I0J-249999D01*
G01*
G37*
G36*
G01*
X207626000Y-131883999D02*
X207626000Y-132784001D01*
G75*
G02*
X207376001Y-133034000I-249999J0D01*
G01*
X206850999Y-133034000D01*
G75*
G02*
X206601000Y-132784001I0J249999D01*
G01*
X206601000Y-131883999D01*
G75*
G02*
X206850999Y-131634000I249999J0D01*
G01*
X207376001Y-131634000D01*
G75*
G02*
X207626000Y-131883999I0J-249999D01*
G01*
G37*
G36*
G01*
X209451000Y-131883999D02*
X209451000Y-132784001D01*
G75*
G02*
X209201001Y-133034000I-249999J0D01*
G01*
X208675999Y-133034000D01*
G75*
G02*
X208426000Y-132784001I0J249999D01*
G01*
X208426000Y-131883999D01*
G75*
G02*
X208675999Y-131634000I249999J0D01*
G01*
X209201001Y-131634000D01*
G75*
G02*
X209451000Y-131883999I0J-249999D01*
G01*
G37*
G36*
G01*
X186493999Y-126130000D02*
X187394001Y-126130000D01*
G75*
G02*
X187644000Y-126379999I0J-249999D01*
G01*
X187644000Y-126905001D01*
G75*
G02*
X187394001Y-127155000I-249999J0D01*
G01*
X186493999Y-127155000D01*
G75*
G02*
X186244000Y-126905001I0J249999D01*
G01*
X186244000Y-126379999D01*
G75*
G02*
X186493999Y-126130000I249999J0D01*
G01*
G37*
G36*
G01*
X186493999Y-124305000D02*
X187394001Y-124305000D01*
G75*
G02*
X187644000Y-124554999I0J-249999D01*
G01*
X187644000Y-125080001D01*
G75*
G02*
X187394001Y-125330000I-249999J0D01*
G01*
X186493999Y-125330000D01*
G75*
G02*
X186244000Y-125080001I0J249999D01*
G01*
X186244000Y-124554999D01*
G75*
G02*
X186493999Y-124305000I249999J0D01*
G01*
G37*
G36*
G01*
X183953999Y-126130000D02*
X184854001Y-126130000D01*
G75*
G02*
X185104000Y-126379999I0J-249999D01*
G01*
X185104000Y-126905001D01*
G75*
G02*
X184854001Y-127155000I-249999J0D01*
G01*
X183953999Y-127155000D01*
G75*
G02*
X183704000Y-126905001I0J249999D01*
G01*
X183704000Y-126379999D01*
G75*
G02*
X183953999Y-126130000I249999J0D01*
G01*
G37*
G36*
G01*
X183953999Y-124305000D02*
X184854001Y-124305000D01*
G75*
G02*
X185104000Y-124554999I0J-249999D01*
G01*
X185104000Y-125080001D01*
G75*
G02*
X184854001Y-125330000I-249999J0D01*
G01*
X183953999Y-125330000D01*
G75*
G02*
X183704000Y-125080001I0J249999D01*
G01*
X183704000Y-124554999D01*
G75*
G02*
X183953999Y-124305000I249999J0D01*
G01*
G37*
D12*
X203962000Y-132096000D03*
X204912000Y-134096000D03*
X203012000Y-134096000D03*
X208026000Y-138668000D03*
X207076000Y-136668000D03*
X208976000Y-136668000D03*
X203962000Y-130540000D03*
X203012000Y-128540000D03*
X204912000Y-128540000D03*
G36*
G01*
X199180000Y-132620001D02*
X199180000Y-131719999D01*
G75*
G02*
X199429999Y-131470000I249999J0D01*
G01*
X199955001Y-131470000D01*
G75*
G02*
X200205000Y-131719999I0J-249999D01*
G01*
X200205000Y-132620001D01*
G75*
G02*
X199955001Y-132870000I-249999J0D01*
G01*
X199429999Y-132870000D01*
G75*
G02*
X199180000Y-132620001I0J249999D01*
G01*
G37*
G36*
G01*
X197355000Y-132620001D02*
X197355000Y-131719999D01*
G75*
G02*
X197604999Y-131470000I249999J0D01*
G01*
X198130001Y-131470000D01*
G75*
G02*
X198380000Y-131719999I0J-249999D01*
G01*
X198380000Y-132620001D01*
G75*
G02*
X198130001Y-132870000I-249999J0D01*
G01*
X197604999Y-132870000D01*
G75*
G02*
X197355000Y-132620001I0J249999D01*
G01*
G37*
G36*
G01*
X224460750Y-72967000D02*
X225373250Y-72967000D01*
G75*
G02*
X225617000Y-73210750I0J-243750D01*
G01*
X225617000Y-73698250D01*
G75*
G02*
X225373250Y-73942000I-243750J0D01*
G01*
X224460750Y-73942000D01*
G75*
G02*
X224217000Y-73698250I0J243750D01*
G01*
X224217000Y-73210750D01*
G75*
G02*
X224460750Y-72967000I243750J0D01*
G01*
G37*
G36*
G01*
X224460750Y-71092000D02*
X225373250Y-71092000D01*
G75*
G02*
X225617000Y-71335750I0J-243750D01*
G01*
X225617000Y-71823250D01*
G75*
G02*
X225373250Y-72067000I-243750J0D01*
G01*
X224460750Y-72067000D01*
G75*
G02*
X224217000Y-71823250I0J243750D01*
G01*
X224217000Y-71335750D01*
G75*
G02*
X224460750Y-71092000I243750J0D01*
G01*
G37*
G36*
G01*
X223214250Y-72067000D02*
X222301750Y-72067000D01*
G75*
G02*
X222058000Y-71823250I0J243750D01*
G01*
X222058000Y-71335750D01*
G75*
G02*
X222301750Y-71092000I243750J0D01*
G01*
X223214250Y-71092000D01*
G75*
G02*
X223458000Y-71335750I0J-243750D01*
G01*
X223458000Y-71823250D01*
G75*
G02*
X223214250Y-72067000I-243750J0D01*
G01*
G37*
G36*
G01*
X223214250Y-73942000D02*
X222301750Y-73942000D01*
G75*
G02*
X222058000Y-73698250I0J243750D01*
G01*
X222058000Y-73210750D01*
G75*
G02*
X222301750Y-72967000I243750J0D01*
G01*
X223214250Y-72967000D01*
G75*
G02*
X223458000Y-73210750I0J-243750D01*
G01*
X223458000Y-73698250D01*
G75*
G02*
X223214250Y-73942000I-243750J0D01*
G01*
G37*
G36*
G01*
X223214250Y-75750000D02*
X222301750Y-75750000D01*
G75*
G02*
X222058000Y-75506250I0J243750D01*
G01*
X222058000Y-75018750D01*
G75*
G02*
X222301750Y-74775000I243750J0D01*
G01*
X223214250Y-74775000D01*
G75*
G02*
X223458000Y-75018750I0J-243750D01*
G01*
X223458000Y-75506250D01*
G75*
G02*
X223214250Y-75750000I-243750J0D01*
G01*
G37*
G36*
G01*
X223214250Y-77625000D02*
X222301750Y-77625000D01*
G75*
G02*
X222058000Y-77381250I0J243750D01*
G01*
X222058000Y-76893750D01*
G75*
G02*
X222301750Y-76650000I243750J0D01*
G01*
X223214250Y-76650000D01*
G75*
G02*
X223458000Y-76893750I0J-243750D01*
G01*
X223458000Y-77381250D01*
G75*
G02*
X223214250Y-77625000I-243750J0D01*
G01*
G37*
G36*
G01*
X207085250Y-125280000D02*
X206172750Y-125280000D01*
G75*
G02*
X205929000Y-125036250I0J243750D01*
G01*
X205929000Y-124548750D01*
G75*
G02*
X206172750Y-124305000I243750J0D01*
G01*
X207085250Y-124305000D01*
G75*
G02*
X207329000Y-124548750I0J-243750D01*
G01*
X207329000Y-125036250D01*
G75*
G02*
X207085250Y-125280000I-243750J0D01*
G01*
G37*
G36*
G01*
X207085250Y-127155000D02*
X206172750Y-127155000D01*
G75*
G02*
X205929000Y-126911250I0J243750D01*
G01*
X205929000Y-126423750D01*
G75*
G02*
X206172750Y-126180000I243750J0D01*
G01*
X207085250Y-126180000D01*
G75*
G02*
X207329000Y-126423750I0J-243750D01*
G01*
X207329000Y-126911250D01*
G75*
G02*
X207085250Y-127155000I-243750J0D01*
G01*
G37*
G36*
G01*
X181679000Y-78180250D02*
X181679000Y-77267750D01*
G75*
G02*
X181922750Y-77024000I243750J0D01*
G01*
X182410250Y-77024000D01*
G75*
G02*
X182654000Y-77267750I0J-243750D01*
G01*
X182654000Y-78180250D01*
G75*
G02*
X182410250Y-78424000I-243750J0D01*
G01*
X181922750Y-78424000D01*
G75*
G02*
X181679000Y-78180250I0J243750D01*
G01*
G37*
G36*
G01*
X179804000Y-78180250D02*
X179804000Y-77267750D01*
G75*
G02*
X180047750Y-77024000I243750J0D01*
G01*
X180535250Y-77024000D01*
G75*
G02*
X180779000Y-77267750I0J-243750D01*
G01*
X180779000Y-78180250D01*
G75*
G02*
X180535250Y-78424000I-243750J0D01*
G01*
X180047750Y-78424000D01*
G75*
G02*
X179804000Y-78180250I0J243750D01*
G01*
G37*
G36*
G01*
X203783250Y-125280000D02*
X202870750Y-125280000D01*
G75*
G02*
X202627000Y-125036250I0J243750D01*
G01*
X202627000Y-124548750D01*
G75*
G02*
X202870750Y-124305000I243750J0D01*
G01*
X203783250Y-124305000D01*
G75*
G02*
X204027000Y-124548750I0J-243750D01*
G01*
X204027000Y-125036250D01*
G75*
G02*
X203783250Y-125280000I-243750J0D01*
G01*
G37*
G36*
G01*
X203783250Y-127155000D02*
X202870750Y-127155000D01*
G75*
G02*
X202627000Y-126911250I0J243750D01*
G01*
X202627000Y-126423750D01*
G75*
G02*
X202870750Y-126180000I243750J0D01*
G01*
X203783250Y-126180000D01*
G75*
G02*
X204027000Y-126423750I0J-243750D01*
G01*
X204027000Y-126911250D01*
G75*
G02*
X203783250Y-127155000I-243750J0D01*
G01*
G37*
G36*
G01*
X178637250Y-76512000D02*
X177724750Y-76512000D01*
G75*
G02*
X177481000Y-76268250I0J243750D01*
G01*
X177481000Y-75780750D01*
G75*
G02*
X177724750Y-75537000I243750J0D01*
G01*
X178637250Y-75537000D01*
G75*
G02*
X178881000Y-75780750I0J-243750D01*
G01*
X178881000Y-76268250D01*
G75*
G02*
X178637250Y-76512000I-243750J0D01*
G01*
G37*
G36*
G01*
X178637250Y-78387000D02*
X177724750Y-78387000D01*
G75*
G02*
X177481000Y-78143250I0J243750D01*
G01*
X177481000Y-77655750D01*
G75*
G02*
X177724750Y-77412000I243750J0D01*
G01*
X178637250Y-77412000D01*
G75*
G02*
X178881000Y-77655750I0J-243750D01*
G01*
X178881000Y-78143250D01*
G75*
G02*
X178637250Y-78387000I-243750J0D01*
G01*
G37*
G36*
G01*
X264743250Y-129852000D02*
X263830750Y-129852000D01*
G75*
G02*
X263587000Y-129608250I0J243750D01*
G01*
X263587000Y-129120750D01*
G75*
G02*
X263830750Y-128877000I243750J0D01*
G01*
X264743250Y-128877000D01*
G75*
G02*
X264987000Y-129120750I0J-243750D01*
G01*
X264987000Y-129608250D01*
G75*
G02*
X264743250Y-129852000I-243750J0D01*
G01*
G37*
G36*
G01*
X264743250Y-131727000D02*
X263830750Y-131727000D01*
G75*
G02*
X263587000Y-131483250I0J243750D01*
G01*
X263587000Y-130995750D01*
G75*
G02*
X263830750Y-130752000I243750J0D01*
G01*
X264743250Y-130752000D01*
G75*
G02*
X264987000Y-130995750I0J-243750D01*
G01*
X264987000Y-131483250D01*
G75*
G02*
X264743250Y-131727000I-243750J0D01*
G01*
G37*
G36*
G01*
X257250250Y-129979000D02*
X256337750Y-129979000D01*
G75*
G02*
X256094000Y-129735250I0J243750D01*
G01*
X256094000Y-129247750D01*
G75*
G02*
X256337750Y-129004000I243750J0D01*
G01*
X257250250Y-129004000D01*
G75*
G02*
X257494000Y-129247750I0J-243750D01*
G01*
X257494000Y-129735250D01*
G75*
G02*
X257250250Y-129979000I-243750J0D01*
G01*
G37*
G36*
G01*
X257250250Y-131854000D02*
X256337750Y-131854000D01*
G75*
G02*
X256094000Y-131610250I0J243750D01*
G01*
X256094000Y-131122750D01*
G75*
G02*
X256337750Y-130879000I243750J0D01*
G01*
X257250250Y-130879000D01*
G75*
G02*
X257494000Y-131122750I0J-243750D01*
G01*
X257494000Y-131610250D01*
G75*
G02*
X257250250Y-131854000I-243750J0D01*
G01*
G37*
G36*
G01*
X249630250Y-129979000D02*
X248717750Y-129979000D01*
G75*
G02*
X248474000Y-129735250I0J243750D01*
G01*
X248474000Y-129247750D01*
G75*
G02*
X248717750Y-129004000I243750J0D01*
G01*
X249630250Y-129004000D01*
G75*
G02*
X249874000Y-129247750I0J-243750D01*
G01*
X249874000Y-129735250D01*
G75*
G02*
X249630250Y-129979000I-243750J0D01*
G01*
G37*
G36*
G01*
X249630250Y-131854000D02*
X248717750Y-131854000D01*
G75*
G02*
X248474000Y-131610250I0J243750D01*
G01*
X248474000Y-131122750D01*
G75*
G02*
X248717750Y-130879000I243750J0D01*
G01*
X249630250Y-130879000D01*
G75*
G02*
X249874000Y-131122750I0J-243750D01*
G01*
X249874000Y-131610250D01*
G75*
G02*
X249630250Y-131854000I-243750J0D01*
G01*
G37*
G36*
G01*
X242010250Y-129852000D02*
X241097750Y-129852000D01*
G75*
G02*
X240854000Y-129608250I0J243750D01*
G01*
X240854000Y-129120750D01*
G75*
G02*
X241097750Y-128877000I243750J0D01*
G01*
X242010250Y-128877000D01*
G75*
G02*
X242254000Y-129120750I0J-243750D01*
G01*
X242254000Y-129608250D01*
G75*
G02*
X242010250Y-129852000I-243750J0D01*
G01*
G37*
G36*
G01*
X242010250Y-131727000D02*
X241097750Y-131727000D01*
G75*
G02*
X240854000Y-131483250I0J243750D01*
G01*
X240854000Y-130995750D01*
G75*
G02*
X241097750Y-130752000I243750J0D01*
G01*
X242010250Y-130752000D01*
G75*
G02*
X242254000Y-130995750I0J-243750D01*
G01*
X242254000Y-131483250D01*
G75*
G02*
X242010250Y-131727000I-243750J0D01*
G01*
G37*
G36*
G01*
X234517250Y-129852000D02*
X233604750Y-129852000D01*
G75*
G02*
X233361000Y-129608250I0J243750D01*
G01*
X233361000Y-129120750D01*
G75*
G02*
X233604750Y-128877000I243750J0D01*
G01*
X234517250Y-128877000D01*
G75*
G02*
X234761000Y-129120750I0J-243750D01*
G01*
X234761000Y-129608250D01*
G75*
G02*
X234517250Y-129852000I-243750J0D01*
G01*
G37*
G36*
G01*
X234517250Y-131727000D02*
X233604750Y-131727000D01*
G75*
G02*
X233361000Y-131483250I0J243750D01*
G01*
X233361000Y-130995750D01*
G75*
G02*
X233604750Y-130752000I243750J0D01*
G01*
X234517250Y-130752000D01*
G75*
G02*
X234761000Y-130995750I0J-243750D01*
G01*
X234761000Y-131483250D01*
G75*
G02*
X234517250Y-131727000I-243750J0D01*
G01*
G37*
G36*
G01*
X226897250Y-129852000D02*
X225984750Y-129852000D01*
G75*
G02*
X225741000Y-129608250I0J243750D01*
G01*
X225741000Y-129120750D01*
G75*
G02*
X225984750Y-128877000I243750J0D01*
G01*
X226897250Y-128877000D01*
G75*
G02*
X227141000Y-129120750I0J-243750D01*
G01*
X227141000Y-129608250D01*
G75*
G02*
X226897250Y-129852000I-243750J0D01*
G01*
G37*
G36*
G01*
X226897250Y-131727000D02*
X225984750Y-131727000D01*
G75*
G02*
X225741000Y-131483250I0J243750D01*
G01*
X225741000Y-130995750D01*
G75*
G02*
X225984750Y-130752000I243750J0D01*
G01*
X226897250Y-130752000D01*
G75*
G02*
X227141000Y-130995750I0J-243750D01*
G01*
X227141000Y-131483250D01*
G75*
G02*
X226897250Y-131727000I-243750J0D01*
G01*
G37*
G36*
G01*
X219150250Y-129852000D02*
X218237750Y-129852000D01*
G75*
G02*
X217994000Y-129608250I0J243750D01*
G01*
X217994000Y-129120750D01*
G75*
G02*
X218237750Y-128877000I243750J0D01*
G01*
X219150250Y-128877000D01*
G75*
G02*
X219394000Y-129120750I0J-243750D01*
G01*
X219394000Y-129608250D01*
G75*
G02*
X219150250Y-129852000I-243750J0D01*
G01*
G37*
G36*
G01*
X219150250Y-131727000D02*
X218237750Y-131727000D01*
G75*
G02*
X217994000Y-131483250I0J243750D01*
G01*
X217994000Y-130995750D01*
G75*
G02*
X218237750Y-130752000I243750J0D01*
G01*
X219150250Y-130752000D01*
G75*
G02*
X219394000Y-130995750I0J-243750D01*
G01*
X219394000Y-131483250D01*
G75*
G02*
X219150250Y-131727000I-243750J0D01*
G01*
G37*
D13*
X180080000Y-137470000D03*
X187880000Y-137470000D03*
X192124500Y-137515600D03*
X199924500Y-137515600D03*
D11*
X174355000Y-80010000D03*
X172355000Y-80960000D03*
X172355000Y-79060000D03*
G36*
G01*
X252400750Y-82873000D02*
X253313250Y-82873000D01*
G75*
G02*
X253557000Y-83116750I0J-243750D01*
G01*
X253557000Y-83604250D01*
G75*
G02*
X253313250Y-83848000I-243750J0D01*
G01*
X252400750Y-83848000D01*
G75*
G02*
X252157000Y-83604250I0J243750D01*
G01*
X252157000Y-83116750D01*
G75*
G02*
X252400750Y-82873000I243750J0D01*
G01*
G37*
G36*
G01*
X252400750Y-80998000D02*
X253313250Y-80998000D01*
G75*
G02*
X253557000Y-81241750I0J-243750D01*
G01*
X253557000Y-81729250D01*
G75*
G02*
X253313250Y-81973000I-243750J0D01*
G01*
X252400750Y-81973000D01*
G75*
G02*
X252157000Y-81729250I0J243750D01*
G01*
X252157000Y-81241750D01*
G75*
G02*
X252400750Y-80998000I243750J0D01*
G01*
G37*
G36*
G01*
X247828750Y-78428000D02*
X248741250Y-78428000D01*
G75*
G02*
X248985000Y-78671750I0J-243750D01*
G01*
X248985000Y-79159250D01*
G75*
G02*
X248741250Y-79403000I-243750J0D01*
G01*
X247828750Y-79403000D01*
G75*
G02*
X247585000Y-79159250I0J243750D01*
G01*
X247585000Y-78671750D01*
G75*
G02*
X247828750Y-78428000I243750J0D01*
G01*
G37*
G36*
G01*
X247828750Y-76553000D02*
X248741250Y-76553000D01*
G75*
G02*
X248985000Y-76796750I0J-243750D01*
G01*
X248985000Y-77284250D01*
G75*
G02*
X248741250Y-77528000I-243750J0D01*
G01*
X247828750Y-77528000D01*
G75*
G02*
X247585000Y-77284250I0J243750D01*
G01*
X247585000Y-76796750D01*
G75*
G02*
X247828750Y-76553000I243750J0D01*
G01*
G37*
G36*
G01*
X242772250Y-77655000D02*
X241859750Y-77655000D01*
G75*
G02*
X241616000Y-77411250I0J243750D01*
G01*
X241616000Y-76923750D01*
G75*
G02*
X241859750Y-76680000I243750J0D01*
G01*
X242772250Y-76680000D01*
G75*
G02*
X243016000Y-76923750I0J-243750D01*
G01*
X243016000Y-77411250D01*
G75*
G02*
X242772250Y-77655000I-243750J0D01*
G01*
G37*
G36*
G01*
X242772250Y-79530000D02*
X241859750Y-79530000D01*
G75*
G02*
X241616000Y-79286250I0J243750D01*
G01*
X241616000Y-78798750D01*
G75*
G02*
X241859750Y-78555000I243750J0D01*
G01*
X242772250Y-78555000D01*
G75*
G02*
X243016000Y-78798750I0J-243750D01*
G01*
X243016000Y-79286250D01*
G75*
G02*
X242772250Y-79530000I-243750J0D01*
G01*
G37*
G36*
G01*
X200845000Y-78283750D02*
X200845000Y-79196250D01*
G75*
G02*
X200601250Y-79440000I-243750J0D01*
G01*
X200113750Y-79440000D01*
G75*
G02*
X199870000Y-79196250I0J243750D01*
G01*
X199870000Y-78283750D01*
G75*
G02*
X200113750Y-78040000I243750J0D01*
G01*
X200601250Y-78040000D01*
G75*
G02*
X200845000Y-78283750I0J-243750D01*
G01*
G37*
G36*
G01*
X202720000Y-78283750D02*
X202720000Y-79196250D01*
G75*
G02*
X202476250Y-79440000I-243750J0D01*
G01*
X201988750Y-79440000D01*
G75*
G02*
X201745000Y-79196250I0J243750D01*
G01*
X201745000Y-78283750D01*
G75*
G02*
X201988750Y-78040000I243750J0D01*
G01*
X202476250Y-78040000D01*
G75*
G02*
X202720000Y-78283750I0J-243750D01*
G01*
G37*
G36*
G01*
X267386750Y-108908000D02*
X268299250Y-108908000D01*
G75*
G02*
X268543000Y-109151750I0J-243750D01*
G01*
X268543000Y-109639250D01*
G75*
G02*
X268299250Y-109883000I-243750J0D01*
G01*
X267386750Y-109883000D01*
G75*
G02*
X267143000Y-109639250I0J243750D01*
G01*
X267143000Y-109151750D01*
G75*
G02*
X267386750Y-108908000I243750J0D01*
G01*
G37*
G36*
G01*
X267386750Y-107033000D02*
X268299250Y-107033000D01*
G75*
G02*
X268543000Y-107276750I0J-243750D01*
G01*
X268543000Y-107764250D01*
G75*
G02*
X268299250Y-108008000I-243750J0D01*
G01*
X267386750Y-108008000D01*
G75*
G02*
X267143000Y-107764250I0J243750D01*
G01*
X267143000Y-107276750D01*
G75*
G02*
X267386750Y-107033000I243750J0D01*
G01*
G37*
X246364000Y-82423000D03*
X244364000Y-83373000D03*
X244364000Y-81473000D03*
G36*
G01*
X248614250Y-81973000D02*
X247701750Y-81973000D01*
G75*
G02*
X247458000Y-81729250I0J243750D01*
G01*
X247458000Y-81241750D01*
G75*
G02*
X247701750Y-80998000I243750J0D01*
G01*
X248614250Y-80998000D01*
G75*
G02*
X248858000Y-81241750I0J-243750D01*
G01*
X248858000Y-81729250D01*
G75*
G02*
X248614250Y-81973000I-243750J0D01*
G01*
G37*
G36*
G01*
X248614250Y-83848000D02*
X247701750Y-83848000D01*
G75*
G02*
X247458000Y-83604250I0J243750D01*
G01*
X247458000Y-83116750D01*
G75*
G02*
X247701750Y-82873000I243750J0D01*
G01*
X248614250Y-82873000D01*
G75*
G02*
X248858000Y-83116750I0J-243750D01*
G01*
X248858000Y-83604250D01*
G75*
G02*
X248614250Y-83848000I-243750J0D01*
G01*
G37*
G36*
G01*
X210458000Y-127716000D02*
X209658000Y-127716000D01*
G75*
G02*
X209408000Y-127466000I0J250000D01*
G01*
X209408000Y-126641000D01*
G75*
G02*
X209658000Y-126391000I250000J0D01*
G01*
X210458000Y-126391000D01*
G75*
G02*
X210708000Y-126641000I0J-250000D01*
G01*
X210708000Y-127466000D01*
G75*
G02*
X210458000Y-127716000I-250000J0D01*
G01*
G37*
G36*
G01*
X210458000Y-129641000D02*
X209658000Y-129641000D01*
G75*
G02*
X209408000Y-129391000I0J250000D01*
G01*
X209408000Y-128566000D01*
G75*
G02*
X209658000Y-128316000I250000J0D01*
G01*
X210458000Y-128316000D01*
G75*
G02*
X210708000Y-128566000I0J-250000D01*
G01*
X210708000Y-129391000D01*
G75*
G02*
X210458000Y-129641000I-250000J0D01*
G01*
G37*
G36*
G01*
X255726250Y-78290000D02*
X254813750Y-78290000D01*
G75*
G02*
X254570000Y-78046250I0J243750D01*
G01*
X254570000Y-77558750D01*
G75*
G02*
X254813750Y-77315000I243750J0D01*
G01*
X255726250Y-77315000D01*
G75*
G02*
X255970000Y-77558750I0J-243750D01*
G01*
X255970000Y-78046250D01*
G75*
G02*
X255726250Y-78290000I-243750J0D01*
G01*
G37*
G36*
G01*
X255726250Y-80165000D02*
X254813750Y-80165000D01*
G75*
G02*
X254570000Y-79921250I0J243750D01*
G01*
X254570000Y-79433750D01*
G75*
G02*
X254813750Y-79190000I243750J0D01*
G01*
X255726250Y-79190000D01*
G75*
G02*
X255970000Y-79433750I0J-243750D01*
G01*
X255970000Y-79921250D01*
G75*
G02*
X255726250Y-80165000I-243750J0D01*
G01*
G37*
G36*
G01*
X248978000Y-116891750D02*
X248978000Y-117804250D01*
G75*
G02*
X248734250Y-118048000I-243750J0D01*
G01*
X248246750Y-118048000D01*
G75*
G02*
X248003000Y-117804250I0J243750D01*
G01*
X248003000Y-116891750D01*
G75*
G02*
X248246750Y-116648000I243750J0D01*
G01*
X248734250Y-116648000D01*
G75*
G02*
X248978000Y-116891750I0J-243750D01*
G01*
G37*
G36*
G01*
X250853000Y-116891750D02*
X250853000Y-117804250D01*
G75*
G02*
X250609250Y-118048000I-243750J0D01*
G01*
X250121750Y-118048000D01*
G75*
G02*
X249878000Y-117804250I0J243750D01*
G01*
X249878000Y-116891750D01*
G75*
G02*
X250121750Y-116648000I243750J0D01*
G01*
X250609250Y-116648000D01*
G75*
G02*
X250853000Y-116891750I0J-243750D01*
G01*
G37*
G36*
G01*
X190297750Y-79825000D02*
X191210250Y-79825000D01*
G75*
G02*
X191454000Y-80068750I0J-243750D01*
G01*
X191454000Y-80556250D01*
G75*
G02*
X191210250Y-80800000I-243750J0D01*
G01*
X190297750Y-80800000D01*
G75*
G02*
X190054000Y-80556250I0J243750D01*
G01*
X190054000Y-80068750D01*
G75*
G02*
X190297750Y-79825000I243750J0D01*
G01*
G37*
G36*
G01*
X190297750Y-77950000D02*
X191210250Y-77950000D01*
G75*
G02*
X191454000Y-78193750I0J-243750D01*
G01*
X191454000Y-78681250D01*
G75*
G02*
X191210250Y-78925000I-243750J0D01*
G01*
X190297750Y-78925000D01*
G75*
G02*
X190054000Y-78681250I0J243750D01*
G01*
X190054000Y-78193750D01*
G75*
G02*
X190297750Y-77950000I243750J0D01*
G01*
G37*
G36*
G01*
X264743250Y-125788000D02*
X263830750Y-125788000D01*
G75*
G02*
X263587000Y-125544250I0J243750D01*
G01*
X263587000Y-125056750D01*
G75*
G02*
X263830750Y-124813000I243750J0D01*
G01*
X264743250Y-124813000D01*
G75*
G02*
X264987000Y-125056750I0J-243750D01*
G01*
X264987000Y-125544250D01*
G75*
G02*
X264743250Y-125788000I-243750J0D01*
G01*
G37*
G36*
G01*
X264743250Y-127663000D02*
X263830750Y-127663000D01*
G75*
G02*
X263587000Y-127419250I0J243750D01*
G01*
X263587000Y-126931750D01*
G75*
G02*
X263830750Y-126688000I243750J0D01*
G01*
X264743250Y-126688000D01*
G75*
G02*
X264987000Y-126931750I0J-243750D01*
G01*
X264987000Y-127419250D01*
G75*
G02*
X264743250Y-127663000I-243750J0D01*
G01*
G37*
G36*
G01*
X266300800Y-70739950D02*
X266300800Y-71652450D01*
G75*
G02*
X266057050Y-71896200I-243750J0D01*
G01*
X265569550Y-71896200D01*
G75*
G02*
X265325800Y-71652450I0J243750D01*
G01*
X265325800Y-70739950D01*
G75*
G02*
X265569550Y-70496200I243750J0D01*
G01*
X266057050Y-70496200D01*
G75*
G02*
X266300800Y-70739950I0J-243750D01*
G01*
G37*
G36*
G01*
X268175800Y-70739950D02*
X268175800Y-71652450D01*
G75*
G02*
X267932050Y-71896200I-243750J0D01*
G01*
X267444550Y-71896200D01*
G75*
G02*
X267200800Y-71652450I0J243750D01*
G01*
X267200800Y-70739950D01*
G75*
G02*
X267444550Y-70496200I243750J0D01*
G01*
X267932050Y-70496200D01*
G75*
G02*
X268175800Y-70739950I0J-243750D01*
G01*
G37*
G36*
G01*
X262179750Y-95700000D02*
X263092250Y-95700000D01*
G75*
G02*
X263336000Y-95943750I0J-243750D01*
G01*
X263336000Y-96431250D01*
G75*
G02*
X263092250Y-96675000I-243750J0D01*
G01*
X262179750Y-96675000D01*
G75*
G02*
X261936000Y-96431250I0J243750D01*
G01*
X261936000Y-95943750D01*
G75*
G02*
X262179750Y-95700000I243750J0D01*
G01*
G37*
G36*
G01*
X262179750Y-93825000D02*
X263092250Y-93825000D01*
G75*
G02*
X263336000Y-94068750I0J-243750D01*
G01*
X263336000Y-94556250D01*
G75*
G02*
X263092250Y-94800000I-243750J0D01*
G01*
X262179750Y-94800000D01*
G75*
G02*
X261936000Y-94556250I0J243750D01*
G01*
X261936000Y-94068750D01*
G75*
G02*
X262179750Y-93825000I243750J0D01*
G01*
G37*
G36*
G01*
X257250250Y-125915000D02*
X256337750Y-125915000D01*
G75*
G02*
X256094000Y-125671250I0J243750D01*
G01*
X256094000Y-125183750D01*
G75*
G02*
X256337750Y-124940000I243750J0D01*
G01*
X257250250Y-124940000D01*
G75*
G02*
X257494000Y-125183750I0J-243750D01*
G01*
X257494000Y-125671250D01*
G75*
G02*
X257250250Y-125915000I-243750J0D01*
G01*
G37*
G36*
G01*
X257250250Y-127790000D02*
X256337750Y-127790000D01*
G75*
G02*
X256094000Y-127546250I0J243750D01*
G01*
X256094000Y-127058750D01*
G75*
G02*
X256337750Y-126815000I243750J0D01*
G01*
X257250250Y-126815000D01*
G75*
G02*
X257494000Y-127058750I0J-243750D01*
G01*
X257494000Y-127546250D01*
G75*
G02*
X257250250Y-127790000I-243750J0D01*
G01*
G37*
G36*
G01*
X254813750Y-95700000D02*
X255726250Y-95700000D01*
G75*
G02*
X255970000Y-95943750I0J-243750D01*
G01*
X255970000Y-96431250D01*
G75*
G02*
X255726250Y-96675000I-243750J0D01*
G01*
X254813750Y-96675000D01*
G75*
G02*
X254570000Y-96431250I0J243750D01*
G01*
X254570000Y-95943750D01*
G75*
G02*
X254813750Y-95700000I243750J0D01*
G01*
G37*
G36*
G01*
X254813750Y-93825000D02*
X255726250Y-93825000D01*
G75*
G02*
X255970000Y-94068750I0J-243750D01*
G01*
X255970000Y-94556250D01*
G75*
G02*
X255726250Y-94800000I-243750J0D01*
G01*
X254813750Y-94800000D01*
G75*
G02*
X254570000Y-94556250I0J243750D01*
G01*
X254570000Y-94068750D01*
G75*
G02*
X254813750Y-93825000I243750J0D01*
G01*
G37*
G36*
G01*
X249630250Y-125915000D02*
X248717750Y-125915000D01*
G75*
G02*
X248474000Y-125671250I0J243750D01*
G01*
X248474000Y-125183750D01*
G75*
G02*
X248717750Y-124940000I243750J0D01*
G01*
X249630250Y-124940000D01*
G75*
G02*
X249874000Y-125183750I0J-243750D01*
G01*
X249874000Y-125671250D01*
G75*
G02*
X249630250Y-125915000I-243750J0D01*
G01*
G37*
G36*
G01*
X249630250Y-127790000D02*
X248717750Y-127790000D01*
G75*
G02*
X248474000Y-127546250I0J243750D01*
G01*
X248474000Y-127058750D01*
G75*
G02*
X248717750Y-126815000I243750J0D01*
G01*
X249630250Y-126815000D01*
G75*
G02*
X249874000Y-127058750I0J-243750D01*
G01*
X249874000Y-127546250D01*
G75*
G02*
X249630250Y-127790000I-243750J0D01*
G01*
G37*
G36*
G01*
X246939750Y-95700000D02*
X247852250Y-95700000D01*
G75*
G02*
X248096000Y-95943750I0J-243750D01*
G01*
X248096000Y-96431250D01*
G75*
G02*
X247852250Y-96675000I-243750J0D01*
G01*
X246939750Y-96675000D01*
G75*
G02*
X246696000Y-96431250I0J243750D01*
G01*
X246696000Y-95943750D01*
G75*
G02*
X246939750Y-95700000I243750J0D01*
G01*
G37*
G36*
G01*
X246939750Y-93825000D02*
X247852250Y-93825000D01*
G75*
G02*
X248096000Y-94068750I0J-243750D01*
G01*
X248096000Y-94556250D01*
G75*
G02*
X247852250Y-94800000I-243750J0D01*
G01*
X246939750Y-94800000D01*
G75*
G02*
X246696000Y-94556250I0J243750D01*
G01*
X246696000Y-94068750D01*
G75*
G02*
X246939750Y-93825000I243750J0D01*
G01*
G37*
G36*
G01*
X242010250Y-125915000D02*
X241097750Y-125915000D01*
G75*
G02*
X240854000Y-125671250I0J243750D01*
G01*
X240854000Y-125183750D01*
G75*
G02*
X241097750Y-124940000I243750J0D01*
G01*
X242010250Y-124940000D01*
G75*
G02*
X242254000Y-125183750I0J-243750D01*
G01*
X242254000Y-125671250D01*
G75*
G02*
X242010250Y-125915000I-243750J0D01*
G01*
G37*
G36*
G01*
X242010250Y-127790000D02*
X241097750Y-127790000D01*
G75*
G02*
X240854000Y-127546250I0J243750D01*
G01*
X240854000Y-127058750D01*
G75*
G02*
X241097750Y-126815000I243750J0D01*
G01*
X242010250Y-126815000D01*
G75*
G02*
X242254000Y-127058750I0J-243750D01*
G01*
X242254000Y-127546250D01*
G75*
G02*
X242010250Y-127790000I-243750J0D01*
G01*
G37*
G36*
G01*
X239319750Y-95716000D02*
X240232250Y-95716000D01*
G75*
G02*
X240476000Y-95959750I0J-243750D01*
G01*
X240476000Y-96447250D01*
G75*
G02*
X240232250Y-96691000I-243750J0D01*
G01*
X239319750Y-96691000D01*
G75*
G02*
X239076000Y-96447250I0J243750D01*
G01*
X239076000Y-95959750D01*
G75*
G02*
X239319750Y-95716000I243750J0D01*
G01*
G37*
G36*
G01*
X239319750Y-93841000D02*
X240232250Y-93841000D01*
G75*
G02*
X240476000Y-94084750I0J-243750D01*
G01*
X240476000Y-94572250D01*
G75*
G02*
X240232250Y-94816000I-243750J0D01*
G01*
X239319750Y-94816000D01*
G75*
G02*
X239076000Y-94572250I0J243750D01*
G01*
X239076000Y-94084750D01*
G75*
G02*
X239319750Y-93841000I243750J0D01*
G01*
G37*
G36*
G01*
X234517250Y-125915000D02*
X233604750Y-125915000D01*
G75*
G02*
X233361000Y-125671250I0J243750D01*
G01*
X233361000Y-125183750D01*
G75*
G02*
X233604750Y-124940000I243750J0D01*
G01*
X234517250Y-124940000D01*
G75*
G02*
X234761000Y-125183750I0J-243750D01*
G01*
X234761000Y-125671250D01*
G75*
G02*
X234517250Y-125915000I-243750J0D01*
G01*
G37*
G36*
G01*
X234517250Y-127790000D02*
X233604750Y-127790000D01*
G75*
G02*
X233361000Y-127546250I0J243750D01*
G01*
X233361000Y-127058750D01*
G75*
G02*
X233604750Y-126815000I243750J0D01*
G01*
X234517250Y-126815000D01*
G75*
G02*
X234761000Y-127058750I0J-243750D01*
G01*
X234761000Y-127546250D01*
G75*
G02*
X234517250Y-127790000I-243750J0D01*
G01*
G37*
G36*
G01*
X231445750Y-95716000D02*
X232358250Y-95716000D01*
G75*
G02*
X232602000Y-95959750I0J-243750D01*
G01*
X232602000Y-96447250D01*
G75*
G02*
X232358250Y-96691000I-243750J0D01*
G01*
X231445750Y-96691000D01*
G75*
G02*
X231202000Y-96447250I0J243750D01*
G01*
X231202000Y-95959750D01*
G75*
G02*
X231445750Y-95716000I243750J0D01*
G01*
G37*
G36*
G01*
X231445750Y-93841000D02*
X232358250Y-93841000D01*
G75*
G02*
X232602000Y-94084750I0J-243750D01*
G01*
X232602000Y-94572250D01*
G75*
G02*
X232358250Y-94816000I-243750J0D01*
G01*
X231445750Y-94816000D01*
G75*
G02*
X231202000Y-94572250I0J243750D01*
G01*
X231202000Y-94084750D01*
G75*
G02*
X231445750Y-93841000I243750J0D01*
G01*
G37*
G36*
G01*
X226897250Y-125899000D02*
X225984750Y-125899000D01*
G75*
G02*
X225741000Y-125655250I0J243750D01*
G01*
X225741000Y-125167750D01*
G75*
G02*
X225984750Y-124924000I243750J0D01*
G01*
X226897250Y-124924000D01*
G75*
G02*
X227141000Y-125167750I0J-243750D01*
G01*
X227141000Y-125655250D01*
G75*
G02*
X226897250Y-125899000I-243750J0D01*
G01*
G37*
G36*
G01*
X226897250Y-127774000D02*
X225984750Y-127774000D01*
G75*
G02*
X225741000Y-127530250I0J243750D01*
G01*
X225741000Y-127042750D01*
G75*
G02*
X225984750Y-126799000I243750J0D01*
G01*
X226897250Y-126799000D01*
G75*
G02*
X227141000Y-127042750I0J-243750D01*
G01*
X227141000Y-127530250D01*
G75*
G02*
X226897250Y-127774000I-243750J0D01*
G01*
G37*
G36*
G01*
X223825750Y-95716000D02*
X224738250Y-95716000D01*
G75*
G02*
X224982000Y-95959750I0J-243750D01*
G01*
X224982000Y-96447250D01*
G75*
G02*
X224738250Y-96691000I-243750J0D01*
G01*
X223825750Y-96691000D01*
G75*
G02*
X223582000Y-96447250I0J243750D01*
G01*
X223582000Y-95959750D01*
G75*
G02*
X223825750Y-95716000I243750J0D01*
G01*
G37*
G36*
G01*
X223825750Y-93841000D02*
X224738250Y-93841000D01*
G75*
G02*
X224982000Y-94084750I0J-243750D01*
G01*
X224982000Y-94572250D01*
G75*
G02*
X224738250Y-94816000I-243750J0D01*
G01*
X223825750Y-94816000D01*
G75*
G02*
X223582000Y-94572250I0J243750D01*
G01*
X223582000Y-94084750D01*
G75*
G02*
X223825750Y-93841000I243750J0D01*
G01*
G37*
G36*
G01*
X219150250Y-125899000D02*
X218237750Y-125899000D01*
G75*
G02*
X217994000Y-125655250I0J243750D01*
G01*
X217994000Y-125167750D01*
G75*
G02*
X218237750Y-124924000I243750J0D01*
G01*
X219150250Y-124924000D01*
G75*
G02*
X219394000Y-125167750I0J-243750D01*
G01*
X219394000Y-125655250D01*
G75*
G02*
X219150250Y-125899000I-243750J0D01*
G01*
G37*
G36*
G01*
X219150250Y-127774000D02*
X218237750Y-127774000D01*
G75*
G02*
X217994000Y-127530250I0J243750D01*
G01*
X217994000Y-127042750D01*
G75*
G02*
X218237750Y-126799000I243750J0D01*
G01*
X219150250Y-126799000D01*
G75*
G02*
X219394000Y-127042750I0J-243750D01*
G01*
X219394000Y-127530250D01*
G75*
G02*
X219150250Y-127774000I-243750J0D01*
G01*
G37*
G36*
G01*
X216459750Y-95700000D02*
X217372250Y-95700000D01*
G75*
G02*
X217616000Y-95943750I0J-243750D01*
G01*
X217616000Y-96431250D01*
G75*
G02*
X217372250Y-96675000I-243750J0D01*
G01*
X216459750Y-96675000D01*
G75*
G02*
X216216000Y-96431250I0J243750D01*
G01*
X216216000Y-95943750D01*
G75*
G02*
X216459750Y-95700000I243750J0D01*
G01*
G37*
G36*
G01*
X216459750Y-93825000D02*
X217372250Y-93825000D01*
G75*
G02*
X217616000Y-94068750I0J-243750D01*
G01*
X217616000Y-94556250D01*
G75*
G02*
X217372250Y-94800000I-243750J0D01*
G01*
X216459750Y-94800000D01*
G75*
G02*
X216216000Y-94556250I0J243750D01*
G01*
X216216000Y-94068750D01*
G75*
G02*
X216459750Y-93825000I243750J0D01*
G01*
G37*
G36*
G01*
X175819750Y-119576000D02*
X176732250Y-119576000D01*
G75*
G02*
X176976000Y-119819750I0J-243750D01*
G01*
X176976000Y-120307250D01*
G75*
G02*
X176732250Y-120551000I-243750J0D01*
G01*
X175819750Y-120551000D01*
G75*
G02*
X175576000Y-120307250I0J243750D01*
G01*
X175576000Y-119819750D01*
G75*
G02*
X175819750Y-119576000I243750J0D01*
G01*
G37*
G36*
G01*
X175819750Y-117701000D02*
X176732250Y-117701000D01*
G75*
G02*
X176976000Y-117944750I0J-243750D01*
G01*
X176976000Y-118432250D01*
G75*
G02*
X176732250Y-118676000I-243750J0D01*
G01*
X175819750Y-118676000D01*
G75*
G02*
X175576000Y-118432250I0J243750D01*
G01*
X175576000Y-117944750D01*
G75*
G02*
X175819750Y-117701000I243750J0D01*
G01*
G37*
G36*
G01*
X183330000Y-134822250D02*
X183330000Y-133909750D01*
G75*
G02*
X183573750Y-133666000I243750J0D01*
G01*
X184061250Y-133666000D01*
G75*
G02*
X184305000Y-133909750I0J-243750D01*
G01*
X184305000Y-134822250D01*
G75*
G02*
X184061250Y-135066000I-243750J0D01*
G01*
X183573750Y-135066000D01*
G75*
G02*
X183330000Y-134822250I0J243750D01*
G01*
G37*
G36*
G01*
X181455000Y-134822250D02*
X181455000Y-133909750D01*
G75*
G02*
X181698750Y-133666000I243750J0D01*
G01*
X182186250Y-133666000D01*
G75*
G02*
X182430000Y-133909750I0J-243750D01*
G01*
X182430000Y-134822250D01*
G75*
G02*
X182186250Y-135066000I-243750J0D01*
G01*
X181698750Y-135066000D01*
G75*
G02*
X181455000Y-134822250I0J243750D01*
G01*
G37*
G36*
G01*
X210363750Y-103320000D02*
X211276250Y-103320000D01*
G75*
G02*
X211520000Y-103563750I0J-243750D01*
G01*
X211520000Y-104051250D01*
G75*
G02*
X211276250Y-104295000I-243750J0D01*
G01*
X210363750Y-104295000D01*
G75*
G02*
X210120000Y-104051250I0J243750D01*
G01*
X210120000Y-103563750D01*
G75*
G02*
X210363750Y-103320000I243750J0D01*
G01*
G37*
G36*
G01*
X210363750Y-101445000D02*
X211276250Y-101445000D01*
G75*
G02*
X211520000Y-101688750I0J-243750D01*
G01*
X211520000Y-102176250D01*
G75*
G02*
X211276250Y-102420000I-243750J0D01*
G01*
X210363750Y-102420000D01*
G75*
G02*
X210120000Y-102176250I0J243750D01*
G01*
X210120000Y-101688750D01*
G75*
G02*
X210363750Y-101445000I243750J0D01*
G01*
G37*
G36*
G01*
X266377000Y-98730750D02*
X266377000Y-99643250D01*
G75*
G02*
X266133250Y-99887000I-243750J0D01*
G01*
X265645750Y-99887000D01*
G75*
G02*
X265402000Y-99643250I0J243750D01*
G01*
X265402000Y-98730750D01*
G75*
G02*
X265645750Y-98487000I243750J0D01*
G01*
X266133250Y-98487000D01*
G75*
G02*
X266377000Y-98730750I0J-243750D01*
G01*
G37*
G36*
G01*
X268252000Y-98730750D02*
X268252000Y-99643250D01*
G75*
G02*
X268008250Y-99887000I-243750J0D01*
G01*
X267520750Y-99887000D01*
G75*
G02*
X267277000Y-99643250I0J243750D01*
G01*
X267277000Y-98730750D01*
G75*
G02*
X267520750Y-98487000I243750J0D01*
G01*
X268008250Y-98487000D01*
G75*
G02*
X268252000Y-98730750I0J-243750D01*
G01*
G37*
G36*
G01*
X202761000Y-76656250D02*
X202761000Y-75743750D01*
G75*
G02*
X203004750Y-75500000I243750J0D01*
G01*
X203492250Y-75500000D01*
G75*
G02*
X203736000Y-75743750I0J-243750D01*
G01*
X203736000Y-76656250D01*
G75*
G02*
X203492250Y-76900000I-243750J0D01*
G01*
X203004750Y-76900000D01*
G75*
G02*
X202761000Y-76656250I0J243750D01*
G01*
G37*
G36*
G01*
X200886000Y-76656250D02*
X200886000Y-75743750D01*
G75*
G02*
X201129750Y-75500000I243750J0D01*
G01*
X201617250Y-75500000D01*
G75*
G02*
X201861000Y-75743750I0J-243750D01*
G01*
X201861000Y-76656250D01*
G75*
G02*
X201617250Y-76900000I-243750J0D01*
G01*
X201129750Y-76900000D01*
G75*
G02*
X200886000Y-76656250I0J243750D01*
G01*
G37*
G36*
G01*
X251910000Y-119836250D02*
X251910000Y-118923750D01*
G75*
G02*
X252153750Y-118680000I243750J0D01*
G01*
X252641250Y-118680000D01*
G75*
G02*
X252885000Y-118923750I0J-243750D01*
G01*
X252885000Y-119836250D01*
G75*
G02*
X252641250Y-120080000I-243750J0D01*
G01*
X252153750Y-120080000D01*
G75*
G02*
X251910000Y-119836250I0J243750D01*
G01*
G37*
G36*
G01*
X250035000Y-119836250D02*
X250035000Y-118923750D01*
G75*
G02*
X250278750Y-118680000I243750J0D01*
G01*
X250766250Y-118680000D01*
G75*
G02*
X251010000Y-118923750I0J-243750D01*
G01*
X251010000Y-119836250D01*
G75*
G02*
X250766250Y-120080000I-243750J0D01*
G01*
X250278750Y-120080000D01*
G75*
G02*
X250035000Y-119836250I0J243750D01*
G01*
G37*
G36*
G01*
X192710750Y-79825000D02*
X193623250Y-79825000D01*
G75*
G02*
X193867000Y-80068750I0J-243750D01*
G01*
X193867000Y-80556250D01*
G75*
G02*
X193623250Y-80800000I-243750J0D01*
G01*
X192710750Y-80800000D01*
G75*
G02*
X192467000Y-80556250I0J243750D01*
G01*
X192467000Y-80068750D01*
G75*
G02*
X192710750Y-79825000I243750J0D01*
G01*
G37*
G36*
G01*
X192710750Y-77950000D02*
X193623250Y-77950000D01*
G75*
G02*
X193867000Y-78193750I0J-243750D01*
G01*
X193867000Y-78681250D01*
G75*
G02*
X193623250Y-78925000I-243750J0D01*
G01*
X192710750Y-78925000D01*
G75*
G02*
X192467000Y-78681250I0J243750D01*
G01*
X192467000Y-78193750D01*
G75*
G02*
X192710750Y-77950000I243750J0D01*
G01*
G37*
G36*
G01*
X259122000Y-95809750D02*
X259122000Y-96722250D01*
G75*
G02*
X258878250Y-96966000I-243750J0D01*
G01*
X258390750Y-96966000D01*
G75*
G02*
X258147000Y-96722250I0J243750D01*
G01*
X258147000Y-95809750D01*
G75*
G02*
X258390750Y-95566000I243750J0D01*
G01*
X258878250Y-95566000D01*
G75*
G02*
X259122000Y-95809750I0J-243750D01*
G01*
G37*
G36*
G01*
X260997000Y-95809750D02*
X260997000Y-96722250D01*
G75*
G02*
X260753250Y-96966000I-243750J0D01*
G01*
X260265750Y-96966000D01*
G75*
G02*
X260022000Y-96722250I0J243750D01*
G01*
X260022000Y-95809750D01*
G75*
G02*
X260265750Y-95566000I243750J0D01*
G01*
X260753250Y-95566000D01*
G75*
G02*
X260997000Y-95809750I0J-243750D01*
G01*
G37*
G36*
G01*
X262179750Y-100764000D02*
X263092250Y-100764000D01*
G75*
G02*
X263336000Y-101007750I0J-243750D01*
G01*
X263336000Y-101495250D01*
G75*
G02*
X263092250Y-101739000I-243750J0D01*
G01*
X262179750Y-101739000D01*
G75*
G02*
X261936000Y-101495250I0J243750D01*
G01*
X261936000Y-101007750D01*
G75*
G02*
X262179750Y-100764000I243750J0D01*
G01*
G37*
G36*
G01*
X262179750Y-98889000D02*
X263092250Y-98889000D01*
G75*
G02*
X263336000Y-99132750I0J-243750D01*
G01*
X263336000Y-99620250D01*
G75*
G02*
X263092250Y-99864000I-243750J0D01*
G01*
X262179750Y-99864000D01*
G75*
G02*
X261936000Y-99620250I0J243750D01*
G01*
X261936000Y-99132750D01*
G75*
G02*
X262179750Y-98889000I243750J0D01*
G01*
G37*
G36*
G01*
X236262000Y-95809750D02*
X236262000Y-96722250D01*
G75*
G02*
X236018250Y-96966000I-243750J0D01*
G01*
X235530750Y-96966000D01*
G75*
G02*
X235287000Y-96722250I0J243750D01*
G01*
X235287000Y-95809750D01*
G75*
G02*
X235530750Y-95566000I243750J0D01*
G01*
X236018250Y-95566000D01*
G75*
G02*
X236262000Y-95809750I0J-243750D01*
G01*
G37*
G36*
G01*
X238137000Y-95809750D02*
X238137000Y-96722250D01*
G75*
G02*
X237893250Y-96966000I-243750J0D01*
G01*
X237405750Y-96966000D01*
G75*
G02*
X237162000Y-96722250I0J243750D01*
G01*
X237162000Y-95809750D01*
G75*
G02*
X237405750Y-95566000I243750J0D01*
G01*
X237893250Y-95566000D01*
G75*
G02*
X238137000Y-95809750I0J-243750D01*
G01*
G37*
G36*
G01*
X239319750Y-100796000D02*
X240232250Y-100796000D01*
G75*
G02*
X240476000Y-101039750I0J-243750D01*
G01*
X240476000Y-101527250D01*
G75*
G02*
X240232250Y-101771000I-243750J0D01*
G01*
X239319750Y-101771000D01*
G75*
G02*
X239076000Y-101527250I0J243750D01*
G01*
X239076000Y-101039750D01*
G75*
G02*
X239319750Y-100796000I243750J0D01*
G01*
G37*
G36*
G01*
X239319750Y-98921000D02*
X240232250Y-98921000D01*
G75*
G02*
X240476000Y-99164750I0J-243750D01*
G01*
X240476000Y-99652250D01*
G75*
G02*
X240232250Y-99896000I-243750J0D01*
G01*
X239319750Y-99896000D01*
G75*
G02*
X239076000Y-99652250I0J243750D01*
G01*
X239076000Y-99164750D01*
G75*
G02*
X239319750Y-98921000I243750J0D01*
G01*
G37*
G36*
G01*
X251772000Y-95809750D02*
X251772000Y-96722250D01*
G75*
G02*
X251528250Y-96966000I-243750J0D01*
G01*
X251040750Y-96966000D01*
G75*
G02*
X250797000Y-96722250I0J243750D01*
G01*
X250797000Y-95809750D01*
G75*
G02*
X251040750Y-95566000I243750J0D01*
G01*
X251528250Y-95566000D01*
G75*
G02*
X251772000Y-95809750I0J-243750D01*
G01*
G37*
G36*
G01*
X253647000Y-95809750D02*
X253647000Y-96722250D01*
G75*
G02*
X253403250Y-96966000I-243750J0D01*
G01*
X252915750Y-96966000D01*
G75*
G02*
X252672000Y-96722250I0J243750D01*
G01*
X252672000Y-95809750D01*
G75*
G02*
X252915750Y-95566000I243750J0D01*
G01*
X253403250Y-95566000D01*
G75*
G02*
X253647000Y-95809750I0J-243750D01*
G01*
G37*
G36*
G01*
X254813750Y-100780000D02*
X255726250Y-100780000D01*
G75*
G02*
X255970000Y-101023750I0J-243750D01*
G01*
X255970000Y-101511250D01*
G75*
G02*
X255726250Y-101755000I-243750J0D01*
G01*
X254813750Y-101755000D01*
G75*
G02*
X254570000Y-101511250I0J243750D01*
G01*
X254570000Y-101023750D01*
G75*
G02*
X254813750Y-100780000I243750J0D01*
G01*
G37*
G36*
G01*
X254813750Y-98905000D02*
X255726250Y-98905000D01*
G75*
G02*
X255970000Y-99148750I0J-243750D01*
G01*
X255970000Y-99636250D01*
G75*
G02*
X255726250Y-99880000I-243750J0D01*
G01*
X254813750Y-99880000D01*
G75*
G02*
X254570000Y-99636250I0J243750D01*
G01*
X254570000Y-99148750D01*
G75*
G02*
X254813750Y-98905000I243750J0D01*
G01*
G37*
G36*
G01*
X228388000Y-95809750D02*
X228388000Y-96722250D01*
G75*
G02*
X228144250Y-96966000I-243750J0D01*
G01*
X227656750Y-96966000D01*
G75*
G02*
X227413000Y-96722250I0J243750D01*
G01*
X227413000Y-95809750D01*
G75*
G02*
X227656750Y-95566000I243750J0D01*
G01*
X228144250Y-95566000D01*
G75*
G02*
X228388000Y-95809750I0J-243750D01*
G01*
G37*
G36*
G01*
X230263000Y-95809750D02*
X230263000Y-96722250D01*
G75*
G02*
X230019250Y-96966000I-243750J0D01*
G01*
X229531750Y-96966000D01*
G75*
G02*
X229288000Y-96722250I0J243750D01*
G01*
X229288000Y-95809750D01*
G75*
G02*
X229531750Y-95566000I243750J0D01*
G01*
X230019250Y-95566000D01*
G75*
G02*
X230263000Y-95809750I0J-243750D01*
G01*
G37*
G36*
G01*
X231445750Y-100653000D02*
X232358250Y-100653000D01*
G75*
G02*
X232602000Y-100896750I0J-243750D01*
G01*
X232602000Y-101384250D01*
G75*
G02*
X232358250Y-101628000I-243750J0D01*
G01*
X231445750Y-101628000D01*
G75*
G02*
X231202000Y-101384250I0J243750D01*
G01*
X231202000Y-100896750D01*
G75*
G02*
X231445750Y-100653000I243750J0D01*
G01*
G37*
G36*
G01*
X231445750Y-98778000D02*
X232358250Y-98778000D01*
G75*
G02*
X232602000Y-99021750I0J-243750D01*
G01*
X232602000Y-99509250D01*
G75*
G02*
X232358250Y-99753000I-243750J0D01*
G01*
X231445750Y-99753000D01*
G75*
G02*
X231202000Y-99509250I0J243750D01*
G01*
X231202000Y-99021750D01*
G75*
G02*
X231445750Y-98778000I243750J0D01*
G01*
G37*
G36*
G01*
X243898000Y-95809750D02*
X243898000Y-96722250D01*
G75*
G02*
X243654250Y-96966000I-243750J0D01*
G01*
X243166750Y-96966000D01*
G75*
G02*
X242923000Y-96722250I0J243750D01*
G01*
X242923000Y-95809750D01*
G75*
G02*
X243166750Y-95566000I243750J0D01*
G01*
X243654250Y-95566000D01*
G75*
G02*
X243898000Y-95809750I0J-243750D01*
G01*
G37*
G36*
G01*
X245773000Y-95809750D02*
X245773000Y-96722250D01*
G75*
G02*
X245529250Y-96966000I-243750J0D01*
G01*
X245041750Y-96966000D01*
G75*
G02*
X244798000Y-96722250I0J243750D01*
G01*
X244798000Y-95809750D01*
G75*
G02*
X245041750Y-95566000I243750J0D01*
G01*
X245529250Y-95566000D01*
G75*
G02*
X245773000Y-95809750I0J-243750D01*
G01*
G37*
G36*
G01*
X246939750Y-100780000D02*
X247852250Y-100780000D01*
G75*
G02*
X248096000Y-101023750I0J-243750D01*
G01*
X248096000Y-101511250D01*
G75*
G02*
X247852250Y-101755000I-243750J0D01*
G01*
X246939750Y-101755000D01*
G75*
G02*
X246696000Y-101511250I0J243750D01*
G01*
X246696000Y-101023750D01*
G75*
G02*
X246939750Y-100780000I243750J0D01*
G01*
G37*
G36*
G01*
X246939750Y-98905000D02*
X247852250Y-98905000D01*
G75*
G02*
X248096000Y-99148750I0J-243750D01*
G01*
X248096000Y-99636250D01*
G75*
G02*
X247852250Y-99880000I-243750J0D01*
G01*
X246939750Y-99880000D01*
G75*
G02*
X246696000Y-99636250I0J243750D01*
G01*
X246696000Y-99148750D01*
G75*
G02*
X246939750Y-98905000I243750J0D01*
G01*
G37*
G36*
G01*
X221684000Y-96722250D02*
X221684000Y-95809750D01*
G75*
G02*
X221927750Y-95566000I243750J0D01*
G01*
X222415250Y-95566000D01*
G75*
G02*
X222659000Y-95809750I0J-243750D01*
G01*
X222659000Y-96722250D01*
G75*
G02*
X222415250Y-96966000I-243750J0D01*
G01*
X221927750Y-96966000D01*
G75*
G02*
X221684000Y-96722250I0J243750D01*
G01*
G37*
G36*
G01*
X219809000Y-96722250D02*
X219809000Y-95809750D01*
G75*
G02*
X220052750Y-95566000I243750J0D01*
G01*
X220540250Y-95566000D01*
G75*
G02*
X220784000Y-95809750I0J-243750D01*
G01*
X220784000Y-96722250D01*
G75*
G02*
X220540250Y-96966000I-243750J0D01*
G01*
X220052750Y-96966000D01*
G75*
G02*
X219809000Y-96722250I0J243750D01*
G01*
G37*
G36*
G01*
X223825750Y-100780000D02*
X224738250Y-100780000D01*
G75*
G02*
X224982000Y-101023750I0J-243750D01*
G01*
X224982000Y-101511250D01*
G75*
G02*
X224738250Y-101755000I-243750J0D01*
G01*
X223825750Y-101755000D01*
G75*
G02*
X223582000Y-101511250I0J243750D01*
G01*
X223582000Y-101023750D01*
G75*
G02*
X223825750Y-100780000I243750J0D01*
G01*
G37*
G36*
G01*
X223825750Y-98905000D02*
X224738250Y-98905000D01*
G75*
G02*
X224982000Y-99148750I0J-243750D01*
G01*
X224982000Y-99636250D01*
G75*
G02*
X224738250Y-99880000I-243750J0D01*
G01*
X223825750Y-99880000D01*
G75*
G02*
X223582000Y-99636250I0J243750D01*
G01*
X223582000Y-99148750D01*
G75*
G02*
X223825750Y-98905000I243750J0D01*
G01*
G37*
G36*
G01*
X213418000Y-95809750D02*
X213418000Y-96722250D01*
G75*
G02*
X213174250Y-96966000I-243750J0D01*
G01*
X212686750Y-96966000D01*
G75*
G02*
X212443000Y-96722250I0J243750D01*
G01*
X212443000Y-95809750D01*
G75*
G02*
X212686750Y-95566000I243750J0D01*
G01*
X213174250Y-95566000D01*
G75*
G02*
X213418000Y-95809750I0J-243750D01*
G01*
G37*
G36*
G01*
X215293000Y-95809750D02*
X215293000Y-96722250D01*
G75*
G02*
X215049250Y-96966000I-243750J0D01*
G01*
X214561750Y-96966000D01*
G75*
G02*
X214318000Y-96722250I0J243750D01*
G01*
X214318000Y-95809750D01*
G75*
G02*
X214561750Y-95566000I243750J0D01*
G01*
X215049250Y-95566000D01*
G75*
G02*
X215293000Y-95809750I0J-243750D01*
G01*
G37*
G36*
G01*
X216459750Y-100780000D02*
X217372250Y-100780000D01*
G75*
G02*
X217616000Y-101023750I0J-243750D01*
G01*
X217616000Y-101511250D01*
G75*
G02*
X217372250Y-101755000I-243750J0D01*
G01*
X216459750Y-101755000D01*
G75*
G02*
X216216000Y-101511250I0J243750D01*
G01*
X216216000Y-101023750D01*
G75*
G02*
X216459750Y-100780000I243750J0D01*
G01*
G37*
G36*
G01*
X216459750Y-98905000D02*
X217372250Y-98905000D01*
G75*
G02*
X217616000Y-99148750I0J-243750D01*
G01*
X217616000Y-99636250D01*
G75*
G02*
X217372250Y-99880000I-243750J0D01*
G01*
X216459750Y-99880000D01*
G75*
G02*
X216216000Y-99636250I0J243750D01*
G01*
X216216000Y-99148750D01*
G75*
G02*
X216459750Y-98905000I243750J0D01*
G01*
G37*
G36*
G01*
X263830750Y-77031000D02*
X264743250Y-77031000D01*
G75*
G02*
X264987000Y-77274750I0J-243750D01*
G01*
X264987000Y-77762250D01*
G75*
G02*
X264743250Y-78006000I-243750J0D01*
G01*
X263830750Y-78006000D01*
G75*
G02*
X263587000Y-77762250I0J243750D01*
G01*
X263587000Y-77274750D01*
G75*
G02*
X263830750Y-77031000I243750J0D01*
G01*
G37*
G36*
G01*
X263830750Y-75156000D02*
X264743250Y-75156000D01*
G75*
G02*
X264987000Y-75399750I0J-243750D01*
G01*
X264987000Y-75887250D01*
G75*
G02*
X264743250Y-76131000I-243750J0D01*
G01*
X263830750Y-76131000D01*
G75*
G02*
X263587000Y-75887250I0J243750D01*
G01*
X263587000Y-75399750D01*
G75*
G02*
X263830750Y-75156000I243750J0D01*
G01*
G37*
G36*
G01*
X264618150Y-57685200D02*
X265530650Y-57685200D01*
G75*
G02*
X265774400Y-57928950I0J-243750D01*
G01*
X265774400Y-58416450D01*
G75*
G02*
X265530650Y-58660200I-243750J0D01*
G01*
X264618150Y-58660200D01*
G75*
G02*
X264374400Y-58416450I0J243750D01*
G01*
X264374400Y-57928950D01*
G75*
G02*
X264618150Y-57685200I243750J0D01*
G01*
G37*
G36*
G01*
X264618150Y-55810200D02*
X265530650Y-55810200D01*
G75*
G02*
X265774400Y-56053950I0J-243750D01*
G01*
X265774400Y-56541450D01*
G75*
G02*
X265530650Y-56785200I-243750J0D01*
G01*
X264618150Y-56785200D01*
G75*
G02*
X264374400Y-56541450I0J243750D01*
G01*
X264374400Y-56053950D01*
G75*
G02*
X264618150Y-55810200I243750J0D01*
G01*
G37*
G36*
G01*
X195530000Y-132626250D02*
X195530000Y-131713750D01*
G75*
G02*
X195773750Y-131470000I243750J0D01*
G01*
X196261250Y-131470000D01*
G75*
G02*
X196505000Y-131713750I0J-243750D01*
G01*
X196505000Y-132626250D01*
G75*
G02*
X196261250Y-132870000I-243750J0D01*
G01*
X195773750Y-132870000D01*
G75*
G02*
X195530000Y-132626250I0J243750D01*
G01*
G37*
G36*
G01*
X193655000Y-132626250D02*
X193655000Y-131713750D01*
G75*
G02*
X193898750Y-131470000I243750J0D01*
G01*
X194386250Y-131470000D01*
G75*
G02*
X194630000Y-131713750I0J-243750D01*
G01*
X194630000Y-132626250D01*
G75*
G02*
X194386250Y-132870000I-243750J0D01*
G01*
X193898750Y-132870000D01*
G75*
G02*
X193655000Y-132626250I0J243750D01*
G01*
G37*
G36*
G01*
X195522000Y-134822250D02*
X195522000Y-133909750D01*
G75*
G02*
X195765750Y-133666000I243750J0D01*
G01*
X196253250Y-133666000D01*
G75*
G02*
X196497000Y-133909750I0J-243750D01*
G01*
X196497000Y-134822250D01*
G75*
G02*
X196253250Y-135066000I-243750J0D01*
G01*
X195765750Y-135066000D01*
G75*
G02*
X195522000Y-134822250I0J243750D01*
G01*
G37*
G36*
G01*
X193647000Y-134822250D02*
X193647000Y-133909750D01*
G75*
G02*
X193890750Y-133666000I243750J0D01*
G01*
X194378250Y-133666000D01*
G75*
G02*
X194622000Y-133909750I0J-243750D01*
G01*
X194622000Y-134822250D01*
G75*
G02*
X194378250Y-135066000I-243750J0D01*
G01*
X193890750Y-135066000D01*
G75*
G02*
X193647000Y-134822250I0J243750D01*
G01*
G37*
X250460000Y-78740000D03*
X252460000Y-77790000D03*
X252460000Y-79690000D03*
D12*
X266827000Y-104124000D03*
X265877000Y-102124000D03*
X267777000Y-102124000D03*
X202311000Y-71136000D03*
X203261000Y-73136000D03*
X201361000Y-73136000D03*
D11*
X257794000Y-118364000D03*
X255794000Y-119314000D03*
X255794000Y-117414000D03*
X198231000Y-79375000D03*
X196231000Y-80325000D03*
X196231000Y-78425000D03*
D12*
X259588000Y-101076000D03*
X258638000Y-99076000D03*
X260538000Y-99076000D03*
X236728000Y-101076000D03*
X235778000Y-99076000D03*
X237678000Y-99076000D03*
X252222000Y-101076000D03*
X251272000Y-99076000D03*
X253172000Y-99076000D03*
X228854000Y-101076000D03*
X227904000Y-99076000D03*
X229804000Y-99076000D03*
X244348000Y-101076000D03*
X243398000Y-99076000D03*
X245298000Y-99076000D03*
X221234000Y-101076000D03*
X220284000Y-99076000D03*
X222184000Y-99076000D03*
X213868000Y-101076000D03*
X212918000Y-99076000D03*
X214818000Y-99076000D03*
G36*
G01*
X208680000Y-102316000D02*
X207880000Y-102316000D01*
G75*
G02*
X207630000Y-102066000I0J250000D01*
G01*
X207630000Y-101241000D01*
G75*
G02*
X207880000Y-100991000I250000J0D01*
G01*
X208680000Y-100991000D01*
G75*
G02*
X208930000Y-101241000I0J-250000D01*
G01*
X208930000Y-102066000D01*
G75*
G02*
X208680000Y-102316000I-250000J0D01*
G01*
G37*
G36*
G01*
X208680000Y-104241000D02*
X207880000Y-104241000D01*
G75*
G02*
X207630000Y-103991000I0J250000D01*
G01*
X207630000Y-103166000D01*
G75*
G02*
X207880000Y-102916000I250000J0D01*
G01*
X208680000Y-102916000D01*
G75*
G02*
X208930000Y-103166000I0J-250000D01*
G01*
X208930000Y-103991000D01*
G75*
G02*
X208680000Y-104241000I-250000J0D01*
G01*
G37*
G36*
G01*
X263036000Y-104602000D02*
X262236000Y-104602000D01*
G75*
G02*
X261986000Y-104352000I0J250000D01*
G01*
X261986000Y-103527000D01*
G75*
G02*
X262236000Y-103277000I250000J0D01*
G01*
X263036000Y-103277000D01*
G75*
G02*
X263286000Y-103527000I0J-250000D01*
G01*
X263286000Y-104352000D01*
G75*
G02*
X263036000Y-104602000I-250000J0D01*
G01*
G37*
G36*
G01*
X263036000Y-106527000D02*
X262236000Y-106527000D01*
G75*
G02*
X261986000Y-106277000I0J250000D01*
G01*
X261986000Y-105452000D01*
G75*
G02*
X262236000Y-105202000I250000J0D01*
G01*
X263036000Y-105202000D01*
G75*
G02*
X263286000Y-105452000I0J-250000D01*
G01*
X263286000Y-106277000D01*
G75*
G02*
X263036000Y-106527000I-250000J0D01*
G01*
G37*
G36*
G01*
X240176000Y-104565500D02*
X239376000Y-104565500D01*
G75*
G02*
X239126000Y-104315500I0J250000D01*
G01*
X239126000Y-103490500D01*
G75*
G02*
X239376000Y-103240500I250000J0D01*
G01*
X240176000Y-103240500D01*
G75*
G02*
X240426000Y-103490500I0J-250000D01*
G01*
X240426000Y-104315500D01*
G75*
G02*
X240176000Y-104565500I-250000J0D01*
G01*
G37*
G36*
G01*
X240176000Y-106490500D02*
X239376000Y-106490500D01*
G75*
G02*
X239126000Y-106240500I0J250000D01*
G01*
X239126000Y-105415500D01*
G75*
G02*
X239376000Y-105165500I250000J0D01*
G01*
X240176000Y-105165500D01*
G75*
G02*
X240426000Y-105415500I0J-250000D01*
G01*
X240426000Y-106240500D01*
G75*
G02*
X240176000Y-106490500I-250000J0D01*
G01*
G37*
G36*
G01*
X255670000Y-104602000D02*
X254870000Y-104602000D01*
G75*
G02*
X254620000Y-104352000I0J250000D01*
G01*
X254620000Y-103527000D01*
G75*
G02*
X254870000Y-103277000I250000J0D01*
G01*
X255670000Y-103277000D01*
G75*
G02*
X255920000Y-103527000I0J-250000D01*
G01*
X255920000Y-104352000D01*
G75*
G02*
X255670000Y-104602000I-250000J0D01*
G01*
G37*
G36*
G01*
X255670000Y-106527000D02*
X254870000Y-106527000D01*
G75*
G02*
X254620000Y-106277000I0J250000D01*
G01*
X254620000Y-105452000D01*
G75*
G02*
X254870000Y-105202000I250000J0D01*
G01*
X255670000Y-105202000D01*
G75*
G02*
X255920000Y-105452000I0J-250000D01*
G01*
X255920000Y-106277000D01*
G75*
G02*
X255670000Y-106527000I-250000J0D01*
G01*
G37*
G36*
G01*
X232302000Y-104565500D02*
X231502000Y-104565500D01*
G75*
G02*
X231252000Y-104315500I0J250000D01*
G01*
X231252000Y-103490500D01*
G75*
G02*
X231502000Y-103240500I250000J0D01*
G01*
X232302000Y-103240500D01*
G75*
G02*
X232552000Y-103490500I0J-250000D01*
G01*
X232552000Y-104315500D01*
G75*
G02*
X232302000Y-104565500I-250000J0D01*
G01*
G37*
G36*
G01*
X232302000Y-106490500D02*
X231502000Y-106490500D01*
G75*
G02*
X231252000Y-106240500I0J250000D01*
G01*
X231252000Y-105415500D01*
G75*
G02*
X231502000Y-105165500I250000J0D01*
G01*
X232302000Y-105165500D01*
G75*
G02*
X232552000Y-105415500I0J-250000D01*
G01*
X232552000Y-106240500D01*
G75*
G02*
X232302000Y-106490500I-250000J0D01*
G01*
G37*
G36*
G01*
X247796000Y-104602000D02*
X246996000Y-104602000D01*
G75*
G02*
X246746000Y-104352000I0J250000D01*
G01*
X246746000Y-103527000D01*
G75*
G02*
X246996000Y-103277000I250000J0D01*
G01*
X247796000Y-103277000D01*
G75*
G02*
X248046000Y-103527000I0J-250000D01*
G01*
X248046000Y-104352000D01*
G75*
G02*
X247796000Y-104602000I-250000J0D01*
G01*
G37*
G36*
G01*
X247796000Y-106527000D02*
X246996000Y-106527000D01*
G75*
G02*
X246746000Y-106277000I0J250000D01*
G01*
X246746000Y-105452000D01*
G75*
G02*
X246996000Y-105202000I250000J0D01*
G01*
X247796000Y-105202000D01*
G75*
G02*
X248046000Y-105452000I0J-250000D01*
G01*
X248046000Y-106277000D01*
G75*
G02*
X247796000Y-106527000I-250000J0D01*
G01*
G37*
G36*
G01*
X224682000Y-104565500D02*
X223882000Y-104565500D01*
G75*
G02*
X223632000Y-104315500I0J250000D01*
G01*
X223632000Y-103490500D01*
G75*
G02*
X223882000Y-103240500I250000J0D01*
G01*
X224682000Y-103240500D01*
G75*
G02*
X224932000Y-103490500I0J-250000D01*
G01*
X224932000Y-104315500D01*
G75*
G02*
X224682000Y-104565500I-250000J0D01*
G01*
G37*
G36*
G01*
X224682000Y-106490500D02*
X223882000Y-106490500D01*
G75*
G02*
X223632000Y-106240500I0J250000D01*
G01*
X223632000Y-105415500D01*
G75*
G02*
X223882000Y-105165500I250000J0D01*
G01*
X224682000Y-105165500D01*
G75*
G02*
X224932000Y-105415500I0J-250000D01*
G01*
X224932000Y-106240500D01*
G75*
G02*
X224682000Y-106490500I-250000J0D01*
G01*
G37*
G36*
G01*
X217316000Y-104602000D02*
X216516000Y-104602000D01*
G75*
G02*
X216266000Y-104352000I0J250000D01*
G01*
X216266000Y-103527000D01*
G75*
G02*
X216516000Y-103277000I250000J0D01*
G01*
X217316000Y-103277000D01*
G75*
G02*
X217566000Y-103527000I0J-250000D01*
G01*
X217566000Y-104352000D01*
G75*
G02*
X217316000Y-104602000I-250000J0D01*
G01*
G37*
G36*
G01*
X217316000Y-106527000D02*
X216516000Y-106527000D01*
G75*
G02*
X216266000Y-106277000I0J250000D01*
G01*
X216266000Y-105452000D01*
G75*
G02*
X216516000Y-105202000I250000J0D01*
G01*
X217316000Y-105202000D01*
G75*
G02*
X217566000Y-105452000I0J-250000D01*
G01*
X217566000Y-106277000D01*
G75*
G02*
X217316000Y-106527000I-250000J0D01*
G01*
G37*
G36*
G01*
X260340800Y-62357950D02*
X260340800Y-63270450D01*
G75*
G02*
X260097050Y-63514200I-243750J0D01*
G01*
X259609550Y-63514200D01*
G75*
G02*
X259365800Y-63270450I0J243750D01*
G01*
X259365800Y-62357950D01*
G75*
G02*
X259609550Y-62114200I243750J0D01*
G01*
X260097050Y-62114200D01*
G75*
G02*
X260340800Y-62357950I0J-243750D01*
G01*
G37*
G36*
G01*
X262215800Y-62357950D02*
X262215800Y-63270450D01*
G75*
G02*
X261972050Y-63514200I-243750J0D01*
G01*
X261484550Y-63514200D01*
G75*
G02*
X261240800Y-63270450I0J243750D01*
G01*
X261240800Y-62357950D01*
G75*
G02*
X261484550Y-62114200I243750J0D01*
G01*
X261972050Y-62114200D01*
G75*
G02*
X262215800Y-62357950I0J-243750D01*
G01*
G37*
G36*
G01*
X266515000Y-60654250D02*
X266515000Y-59741750D01*
G75*
G02*
X266758750Y-59498000I243750J0D01*
G01*
X267246250Y-59498000D01*
G75*
G02*
X267490000Y-59741750I0J-243750D01*
G01*
X267490000Y-60654250D01*
G75*
G02*
X267246250Y-60898000I-243750J0D01*
G01*
X266758750Y-60898000D01*
G75*
G02*
X266515000Y-60654250I0J243750D01*
G01*
G37*
G36*
G01*
X264640000Y-60654250D02*
X264640000Y-59741750D01*
G75*
G02*
X264883750Y-59498000I243750J0D01*
G01*
X265371250Y-59498000D01*
G75*
G02*
X265615000Y-59741750I0J-243750D01*
G01*
X265615000Y-60654250D01*
G75*
G02*
X265371250Y-60898000I-243750J0D01*
G01*
X264883750Y-60898000D01*
G75*
G02*
X264640000Y-60654250I0J243750D01*
G01*
G37*
G36*
G01*
X179774000Y-122630250D02*
X179774000Y-121717750D01*
G75*
G02*
X180017750Y-121474000I243750J0D01*
G01*
X180505250Y-121474000D01*
G75*
G02*
X180749000Y-121717750I0J-243750D01*
G01*
X180749000Y-122630250D01*
G75*
G02*
X180505250Y-122874000I-243750J0D01*
G01*
X180017750Y-122874000D01*
G75*
G02*
X179774000Y-122630250I0J243750D01*
G01*
G37*
G36*
G01*
X177899000Y-122630250D02*
X177899000Y-121717750D01*
G75*
G02*
X178142750Y-121474000I243750J0D01*
G01*
X178630250Y-121474000D01*
G75*
G02*
X178874000Y-121717750I0J-243750D01*
G01*
X178874000Y-122630250D01*
G75*
G02*
X178630250Y-122874000I-243750J0D01*
G01*
X178142750Y-122874000D01*
G75*
G02*
X177899000Y-122630250I0J243750D01*
G01*
G37*
G36*
G01*
X178236250Y-136964000D02*
X177323750Y-136964000D01*
G75*
G02*
X177080000Y-136720250I0J243750D01*
G01*
X177080000Y-136232750D01*
G75*
G02*
X177323750Y-135989000I243750J0D01*
G01*
X178236250Y-135989000D01*
G75*
G02*
X178480000Y-136232750I0J-243750D01*
G01*
X178480000Y-136720250D01*
G75*
G02*
X178236250Y-136964000I-243750J0D01*
G01*
G37*
G36*
G01*
X178236250Y-138839000D02*
X177323750Y-138839000D01*
G75*
G02*
X177080000Y-138595250I0J243750D01*
G01*
X177080000Y-138107750D01*
G75*
G02*
X177323750Y-137864000I243750J0D01*
G01*
X178236250Y-137864000D01*
G75*
G02*
X178480000Y-138107750I0J-243750D01*
G01*
X178480000Y-138595250D01*
G75*
G02*
X178236250Y-138839000I-243750J0D01*
G01*
G37*
G36*
G01*
X172662000Y-117804250D02*
X172662000Y-116891750D01*
G75*
G02*
X172905750Y-116648000I243750J0D01*
G01*
X173393250Y-116648000D01*
G75*
G02*
X173637000Y-116891750I0J-243750D01*
G01*
X173637000Y-117804250D01*
G75*
G02*
X173393250Y-118048000I-243750J0D01*
G01*
X172905750Y-118048000D01*
G75*
G02*
X172662000Y-117804250I0J243750D01*
G01*
G37*
G36*
G01*
X170787000Y-117804250D02*
X170787000Y-116891750D01*
G75*
G02*
X171030750Y-116648000I243750J0D01*
G01*
X171518250Y-116648000D01*
G75*
G02*
X171762000Y-116891750I0J-243750D01*
G01*
X171762000Y-117804250D01*
G75*
G02*
X171518250Y-118048000I-243750J0D01*
G01*
X171030750Y-118048000D01*
G75*
G02*
X170787000Y-117804250I0J243750D01*
G01*
G37*
G36*
G01*
X256337750Y-114496000D02*
X257250250Y-114496000D01*
G75*
G02*
X257494000Y-114739750I0J-243750D01*
G01*
X257494000Y-115227250D01*
G75*
G02*
X257250250Y-115471000I-243750J0D01*
G01*
X256337750Y-115471000D01*
G75*
G02*
X256094000Y-115227250I0J243750D01*
G01*
X256094000Y-114739750D01*
G75*
G02*
X256337750Y-114496000I243750J0D01*
G01*
G37*
G36*
G01*
X256337750Y-112621000D02*
X257250250Y-112621000D01*
G75*
G02*
X257494000Y-112864750I0J-243750D01*
G01*
X257494000Y-113352250D01*
G75*
G02*
X257250250Y-113596000I-243750J0D01*
G01*
X256337750Y-113596000D01*
G75*
G02*
X256094000Y-113352250I0J243750D01*
G01*
X256094000Y-112864750D01*
G75*
G02*
X256337750Y-112621000I243750J0D01*
G01*
G37*
G36*
G01*
X171762000Y-119050750D02*
X171762000Y-119963250D01*
G75*
G02*
X171518250Y-120207000I-243750J0D01*
G01*
X171030750Y-120207000D01*
G75*
G02*
X170787000Y-119963250I0J243750D01*
G01*
X170787000Y-119050750D01*
G75*
G02*
X171030750Y-118807000I243750J0D01*
G01*
X171518250Y-118807000D01*
G75*
G02*
X171762000Y-119050750I0J-243750D01*
G01*
G37*
G36*
G01*
X173637000Y-119050750D02*
X173637000Y-119963250D01*
G75*
G02*
X173393250Y-120207000I-243750J0D01*
G01*
X172905750Y-120207000D01*
G75*
G02*
X172662000Y-119963250I0J243750D01*
G01*
X172662000Y-119050750D01*
G75*
G02*
X172905750Y-118807000I243750J0D01*
G01*
X173393250Y-118807000D01*
G75*
G02*
X173637000Y-119050750I0J-243750D01*
G01*
G37*
G36*
G01*
X218237750Y-114496000D02*
X219150250Y-114496000D01*
G75*
G02*
X219394000Y-114739750I0J-243750D01*
G01*
X219394000Y-115227250D01*
G75*
G02*
X219150250Y-115471000I-243750J0D01*
G01*
X218237750Y-115471000D01*
G75*
G02*
X217994000Y-115227250I0J243750D01*
G01*
X217994000Y-114739750D01*
G75*
G02*
X218237750Y-114496000I243750J0D01*
G01*
G37*
G36*
G01*
X218237750Y-112621000D02*
X219150250Y-112621000D01*
G75*
G02*
X219394000Y-112864750I0J-243750D01*
G01*
X219394000Y-113352250D01*
G75*
G02*
X219150250Y-113596000I-243750J0D01*
G01*
X218237750Y-113596000D01*
G75*
G02*
X217994000Y-113352250I0J243750D01*
G01*
X217994000Y-112864750D01*
G75*
G02*
X218237750Y-112621000I243750J0D01*
G01*
G37*
G36*
G01*
X171762000Y-121209750D02*
X171762000Y-122122250D01*
G75*
G02*
X171518250Y-122366000I-243750J0D01*
G01*
X171030750Y-122366000D01*
G75*
G02*
X170787000Y-122122250I0J243750D01*
G01*
X170787000Y-121209750D01*
G75*
G02*
X171030750Y-120966000I243750J0D01*
G01*
X171518250Y-120966000D01*
G75*
G02*
X171762000Y-121209750I0J-243750D01*
G01*
G37*
G36*
G01*
X173637000Y-121209750D02*
X173637000Y-122122250D01*
G75*
G02*
X173393250Y-122366000I-243750J0D01*
G01*
X172905750Y-122366000D01*
G75*
G02*
X172662000Y-122122250I0J243750D01*
G01*
X172662000Y-121209750D01*
G75*
G02*
X172905750Y-120966000I243750J0D01*
G01*
X173393250Y-120966000D01*
G75*
G02*
X173637000Y-121209750I0J-243750D01*
G01*
G37*
G36*
G01*
X225373250Y-75750000D02*
X224460750Y-75750000D01*
G75*
G02*
X224217000Y-75506250I0J243750D01*
G01*
X224217000Y-75018750D01*
G75*
G02*
X224460750Y-74775000I243750J0D01*
G01*
X225373250Y-74775000D01*
G75*
G02*
X225617000Y-75018750I0J-243750D01*
G01*
X225617000Y-75506250D01*
G75*
G02*
X225373250Y-75750000I-243750J0D01*
G01*
G37*
G36*
G01*
X225373250Y-77625000D02*
X224460750Y-77625000D01*
G75*
G02*
X224217000Y-77381250I0J243750D01*
G01*
X224217000Y-76893750D01*
G75*
G02*
X224460750Y-76650000I243750J0D01*
G01*
X225373250Y-76650000D01*
G75*
G02*
X225617000Y-76893750I0J-243750D01*
G01*
X225617000Y-77381250D01*
G75*
G02*
X225373250Y-77625000I-243750J0D01*
G01*
G37*
G36*
G01*
X202767250Y-66860000D02*
X201854750Y-66860000D01*
G75*
G02*
X201611000Y-66616250I0J243750D01*
G01*
X201611000Y-66128750D01*
G75*
G02*
X201854750Y-65885000I243750J0D01*
G01*
X202767250Y-65885000D01*
G75*
G02*
X203011000Y-66128750I0J-243750D01*
G01*
X203011000Y-66616250D01*
G75*
G02*
X202767250Y-66860000I-243750J0D01*
G01*
G37*
G36*
G01*
X202767250Y-68735000D02*
X201854750Y-68735000D01*
G75*
G02*
X201611000Y-68491250I0J243750D01*
G01*
X201611000Y-68003750D01*
G75*
G02*
X201854750Y-67760000I243750J0D01*
G01*
X202767250Y-67760000D01*
G75*
G02*
X203011000Y-68003750I0J-243750D01*
G01*
X203011000Y-68491250D01*
G75*
G02*
X202767250Y-68735000I-243750J0D01*
G01*
G37*
G36*
G01*
X196544250Y-118168000D02*
X195631750Y-118168000D01*
G75*
G02*
X195388000Y-117924250I0J243750D01*
G01*
X195388000Y-117436750D01*
G75*
G02*
X195631750Y-117193000I243750J0D01*
G01*
X196544250Y-117193000D01*
G75*
G02*
X196788000Y-117436750I0J-243750D01*
G01*
X196788000Y-117924250D01*
G75*
G02*
X196544250Y-118168000I-243750J0D01*
G01*
G37*
G36*
G01*
X196544250Y-120043000D02*
X195631750Y-120043000D01*
G75*
G02*
X195388000Y-119799250I0J243750D01*
G01*
X195388000Y-119311750D01*
G75*
G02*
X195631750Y-119068000I243750J0D01*
G01*
X196544250Y-119068000D01*
G75*
G02*
X196788000Y-119311750I0J-243750D01*
G01*
X196788000Y-119799250D01*
G75*
G02*
X196544250Y-120043000I-243750J0D01*
G01*
G37*
G36*
G01*
X194004250Y-118168000D02*
X193091750Y-118168000D01*
G75*
G02*
X192848000Y-117924250I0J243750D01*
G01*
X192848000Y-117436750D01*
G75*
G02*
X193091750Y-117193000I243750J0D01*
G01*
X194004250Y-117193000D01*
G75*
G02*
X194248000Y-117436750I0J-243750D01*
G01*
X194248000Y-117924250D01*
G75*
G02*
X194004250Y-118168000I-243750J0D01*
G01*
G37*
G36*
G01*
X194004250Y-120043000D02*
X193091750Y-120043000D01*
G75*
G02*
X192848000Y-119799250I0J243750D01*
G01*
X192848000Y-119311750D01*
G75*
G02*
X193091750Y-119068000I243750J0D01*
G01*
X194004250Y-119068000D01*
G75*
G02*
X194248000Y-119311750I0J-243750D01*
G01*
X194248000Y-119799250D01*
G75*
G02*
X194004250Y-120043000I-243750J0D01*
G01*
G37*
G36*
G01*
X191464250Y-118168000D02*
X190551750Y-118168000D01*
G75*
G02*
X190308000Y-117924250I0J243750D01*
G01*
X190308000Y-117436750D01*
G75*
G02*
X190551750Y-117193000I243750J0D01*
G01*
X191464250Y-117193000D01*
G75*
G02*
X191708000Y-117436750I0J-243750D01*
G01*
X191708000Y-117924250D01*
G75*
G02*
X191464250Y-118168000I-243750J0D01*
G01*
G37*
G36*
G01*
X191464250Y-120043000D02*
X190551750Y-120043000D01*
G75*
G02*
X190308000Y-119799250I0J243750D01*
G01*
X190308000Y-119311750D01*
G75*
G02*
X190551750Y-119068000I243750J0D01*
G01*
X191464250Y-119068000D01*
G75*
G02*
X191708000Y-119311750I0J-243750D01*
G01*
X191708000Y-119799250D01*
G75*
G02*
X191464250Y-120043000I-243750J0D01*
G01*
G37*
G36*
G01*
X188924250Y-118168000D02*
X188011750Y-118168000D01*
G75*
G02*
X187768000Y-117924250I0J243750D01*
G01*
X187768000Y-117436750D01*
G75*
G02*
X188011750Y-117193000I243750J0D01*
G01*
X188924250Y-117193000D01*
G75*
G02*
X189168000Y-117436750I0J-243750D01*
G01*
X189168000Y-117924250D01*
G75*
G02*
X188924250Y-118168000I-243750J0D01*
G01*
G37*
G36*
G01*
X188924250Y-120043000D02*
X188011750Y-120043000D01*
G75*
G02*
X187768000Y-119799250I0J243750D01*
G01*
X187768000Y-119311750D01*
G75*
G02*
X188011750Y-119068000I243750J0D01*
G01*
X188924250Y-119068000D01*
G75*
G02*
X189168000Y-119311750I0J-243750D01*
G01*
X189168000Y-119799250D01*
G75*
G02*
X188924250Y-120043000I-243750J0D01*
G01*
G37*
G36*
G01*
X186384250Y-118177000D02*
X185471750Y-118177000D01*
G75*
G02*
X185228000Y-117933250I0J243750D01*
G01*
X185228000Y-117445750D01*
G75*
G02*
X185471750Y-117202000I243750J0D01*
G01*
X186384250Y-117202000D01*
G75*
G02*
X186628000Y-117445750I0J-243750D01*
G01*
X186628000Y-117933250D01*
G75*
G02*
X186384250Y-118177000I-243750J0D01*
G01*
G37*
G36*
G01*
X186384250Y-120052000D02*
X185471750Y-120052000D01*
G75*
G02*
X185228000Y-119808250I0J243750D01*
G01*
X185228000Y-119320750D01*
G75*
G02*
X185471750Y-119077000I243750J0D01*
G01*
X186384250Y-119077000D01*
G75*
G02*
X186628000Y-119320750I0J-243750D01*
G01*
X186628000Y-119808250D01*
G75*
G02*
X186384250Y-120052000I-243750J0D01*
G01*
G37*
G36*
G01*
X183844250Y-118168000D02*
X182931750Y-118168000D01*
G75*
G02*
X182688000Y-117924250I0J243750D01*
G01*
X182688000Y-117436750D01*
G75*
G02*
X182931750Y-117193000I243750J0D01*
G01*
X183844250Y-117193000D01*
G75*
G02*
X184088000Y-117436750I0J-243750D01*
G01*
X184088000Y-117924250D01*
G75*
G02*
X183844250Y-118168000I-243750J0D01*
G01*
G37*
G36*
G01*
X183844250Y-120043000D02*
X182931750Y-120043000D01*
G75*
G02*
X182688000Y-119799250I0J243750D01*
G01*
X182688000Y-119311750D01*
G75*
G02*
X182931750Y-119068000I243750J0D01*
G01*
X183844250Y-119068000D01*
G75*
G02*
X184088000Y-119311750I0J-243750D01*
G01*
X184088000Y-119799250D01*
G75*
G02*
X183844250Y-120043000I-243750J0D01*
G01*
G37*
G36*
G01*
X181304250Y-118168000D02*
X180391750Y-118168000D01*
G75*
G02*
X180148000Y-117924250I0J243750D01*
G01*
X180148000Y-117436750D01*
G75*
G02*
X180391750Y-117193000I243750J0D01*
G01*
X181304250Y-117193000D01*
G75*
G02*
X181548000Y-117436750I0J-243750D01*
G01*
X181548000Y-117924250D01*
G75*
G02*
X181304250Y-118168000I-243750J0D01*
G01*
G37*
G36*
G01*
X181304250Y-120043000D02*
X180391750Y-120043000D01*
G75*
G02*
X180148000Y-119799250I0J243750D01*
G01*
X180148000Y-119311750D01*
G75*
G02*
X180391750Y-119068000I243750J0D01*
G01*
X181304250Y-119068000D01*
G75*
G02*
X181548000Y-119311750I0J-243750D01*
G01*
X181548000Y-119799250D01*
G75*
G02*
X181304250Y-120043000I-243750J0D01*
G01*
G37*
G36*
G01*
X190061000Y-93102750D02*
X190061000Y-92190250D01*
G75*
G02*
X190304750Y-91946500I243750J0D01*
G01*
X190792250Y-91946500D01*
G75*
G02*
X191036000Y-92190250I0J-243750D01*
G01*
X191036000Y-93102750D01*
G75*
G02*
X190792250Y-93346500I-243750J0D01*
G01*
X190304750Y-93346500D01*
G75*
G02*
X190061000Y-93102750I0J243750D01*
G01*
G37*
G36*
G01*
X188186000Y-93102750D02*
X188186000Y-92190250D01*
G75*
G02*
X188429750Y-91946500I243750J0D01*
G01*
X188917250Y-91946500D01*
G75*
G02*
X189161000Y-92190250I0J-243750D01*
G01*
X189161000Y-93102750D01*
G75*
G02*
X188917250Y-93346500I-243750J0D01*
G01*
X188429750Y-93346500D01*
G75*
G02*
X188186000Y-93102750I0J243750D01*
G01*
G37*
G36*
G01*
X190448250Y-136964000D02*
X189535750Y-136964000D01*
G75*
G02*
X189292000Y-136720250I0J243750D01*
G01*
X189292000Y-136232750D01*
G75*
G02*
X189535750Y-135989000I243750J0D01*
G01*
X190448250Y-135989000D01*
G75*
G02*
X190692000Y-136232750I0J-243750D01*
G01*
X190692000Y-136720250D01*
G75*
G02*
X190448250Y-136964000I-243750J0D01*
G01*
G37*
G36*
G01*
X190448250Y-138839000D02*
X189535750Y-138839000D01*
G75*
G02*
X189292000Y-138595250I0J243750D01*
G01*
X189292000Y-138107750D01*
G75*
G02*
X189535750Y-137864000I243750J0D01*
G01*
X190448250Y-137864000D01*
G75*
G02*
X190692000Y-138107750I0J-243750D01*
G01*
X190692000Y-138595250D01*
G75*
G02*
X190448250Y-138839000I-243750J0D01*
G01*
G37*
D11*
X246364000Y-77978000D03*
X244364000Y-78928000D03*
X244364000Y-77028000D03*
D14*
X267843000Y-68383150D03*
X266573000Y-68383150D03*
X265303000Y-68383150D03*
X264033000Y-68383150D03*
X264033000Y-62934850D03*
X265303000Y-62934850D03*
X266573000Y-62934850D03*
X267843000Y-62934850D03*
G36*
G01*
X263623999Y-47860000D02*
X266474001Y-47860000D01*
G75*
G02*
X266724000Y-48109999I0J-249999D01*
G01*
X266724000Y-48960001D01*
G75*
G02*
X266474001Y-49210000I-249999J0D01*
G01*
X263623999Y-49210000D01*
G75*
G02*
X263374000Y-48960001I0J249999D01*
G01*
X263374000Y-48109999D01*
G75*
G02*
X263623999Y-47860000I249999J0D01*
G01*
G37*
G36*
G01*
X263623999Y-53660000D02*
X266474001Y-53660000D01*
G75*
G02*
X266724000Y-53909999I0J-249999D01*
G01*
X266724000Y-54760001D01*
G75*
G02*
X266474001Y-55010000I-249999J0D01*
G01*
X263623999Y-55010000D01*
G75*
G02*
X263374000Y-54760001I0J249999D01*
G01*
X263374000Y-53909999D01*
G75*
G02*
X263623999Y-53660000I249999J0D01*
G01*
G37*
D15*
X267081000Y-84833000D03*
X267081000Y-87633000D03*
D16*
X219837000Y-72818000D03*
X218887000Y-72818000D03*
X220787000Y-72818000D03*
X220787000Y-75518000D03*
X218887000Y-75518000D03*
X219837000Y-75518000D03*
D17*
X181234000Y-124461000D03*
X181234000Y-129031000D03*
D18*
X211201000Y-78610000D03*
X211201000Y-68710000D03*
D15*
X227073000Y-77216000D03*
X229873000Y-77216000D03*
D12*
X266827000Y-96885000D03*
X265877000Y-94885000D03*
X267777000Y-94885000D03*
D15*
X218945000Y-79502000D03*
X221745000Y-79502000D03*
D11*
X261731000Y-135128000D03*
X259731000Y-136078000D03*
X259731000Y-134178000D03*
X254619000Y-135128000D03*
X252619000Y-136078000D03*
X252619000Y-134178000D03*
X246999000Y-135128000D03*
X244999000Y-136078000D03*
X244999000Y-134178000D03*
X239506000Y-135128000D03*
X237506000Y-136078000D03*
X237506000Y-134178000D03*
X231886000Y-135128000D03*
X229886000Y-136078000D03*
X229886000Y-134178000D03*
X224266000Y-135128000D03*
X222266000Y-136078000D03*
X222266000Y-134178000D03*
X216646000Y-135128000D03*
X214646000Y-136078000D03*
X214646000Y-134178000D03*
X214868000Y-104902000D03*
X212868000Y-105852000D03*
X212868000Y-103952000D03*
X220234000Y-103952000D03*
X220234000Y-105852000D03*
X222234000Y-104902000D03*
X229854000Y-104902000D03*
X227854000Y-105852000D03*
X227854000Y-103952000D03*
X237728000Y-104902000D03*
X235728000Y-105852000D03*
X235728000Y-103952000D03*
X243348000Y-103952000D03*
X243348000Y-105852000D03*
X245348000Y-104902000D03*
X251222000Y-103952000D03*
X251222000Y-105852000D03*
X253222000Y-104902000D03*
X258588000Y-103952000D03*
X258588000Y-105852000D03*
X260588000Y-104902000D03*
D19*
X179077000Y-106918000D03*
D20*
X171577000Y-114418000D03*
X172847000Y-114418000D03*
X174117000Y-114418000D03*
X175387000Y-114418000D03*
X176657000Y-114418000D03*
X177927000Y-114418000D03*
X179197000Y-114418000D03*
X180467000Y-114418000D03*
X181737000Y-114418000D03*
X183007000Y-114418000D03*
X184277000Y-114418000D03*
X185547000Y-114418000D03*
X186817000Y-114418000D03*
X188087000Y-114418000D03*
D21*
X189087000Y-111633000D03*
X189087000Y-110363000D03*
X189087000Y-109093000D03*
X189087000Y-107823000D03*
X189087000Y-106553000D03*
X189087000Y-105283000D03*
X189087000Y-104013000D03*
X189087000Y-102743000D03*
X189087000Y-101473000D03*
X189087000Y-100203000D03*
D20*
X188087000Y-97418000D03*
X186817000Y-97418000D03*
X185547000Y-97418000D03*
X184277000Y-97418000D03*
X183007000Y-97418000D03*
X181737000Y-97418000D03*
X180467000Y-97418000D03*
X179197000Y-97418000D03*
X177927000Y-97418000D03*
X176657000Y-97418000D03*
X175387000Y-97418000D03*
X174117000Y-97418000D03*
X172847000Y-97418000D03*
X171577000Y-97418000D03*
M02*
