G04 #@! TF.GenerationSoftware,KiCad,Pcbnew,5.1.10*
G04 #@! TF.CreationDate,2021-06-10T23:09:58+02:00*
G04 #@! TF.ProjectId,PlantCtrlESP32,506c616e-7443-4747-926c-45535033322e,rev?*
G04 #@! TF.SameCoordinates,Original*
G04 #@! TF.FileFunction,Other,User*
%FSLAX46Y46*%
G04 Gerber Fmt 4.6, Leading zero omitted, Abs format (unit mm)*
G04 Created by KiCad (PCBNEW 5.1.10) date 2021-06-10 23:09:58*
%MOMM*%
%LPD*%
G01*
G04 APERTURE LIST*
%ADD10C,0.050000*%
%ADD11C,0.152400*%
G04 APERTURE END LIST*
D10*
X200865000Y-83665000D02*
X200865000Y-80165000D01*
X204265000Y-83665000D02*
X200865000Y-83665000D01*
X204265000Y-80165000D02*
X204265000Y-83665000D01*
X200865000Y-80165000D02*
X204265000Y-80165000D01*
X196955000Y-94075000D02*
X196955000Y-100225000D01*
X208155000Y-94075000D02*
X196955000Y-94075000D01*
X208155000Y-100225000D02*
X208155000Y-94075000D01*
X196955000Y-100225000D02*
X208155000Y-100225000D01*
X203855000Y-87375000D02*
X203855000Y-84075000D01*
X203855000Y-87375000D02*
X206355000Y-87375000D01*
X206355000Y-84075000D02*
X203855000Y-84075000D01*
X206355000Y-84075000D02*
X206355000Y-87375000D01*
X198775000Y-87360000D02*
X198775000Y-84060000D01*
X198775000Y-87360000D02*
X201275000Y-87360000D01*
X201275000Y-84060000D02*
X198775000Y-84060000D01*
X201275000Y-84060000D02*
X201275000Y-87360000D01*
X201315000Y-87375000D02*
X201315000Y-84075000D01*
X201315000Y-87375000D02*
X203815000Y-87375000D01*
X203815000Y-84075000D02*
X201315000Y-84075000D01*
X203815000Y-84075000D02*
X203815000Y-87375000D01*
X206395000Y-110870000D02*
X206395000Y-107570000D01*
X206395000Y-110870000D02*
X208895000Y-110870000D01*
X208895000Y-107570000D02*
X206395000Y-107570000D01*
X208895000Y-107570000D02*
X208895000Y-110870000D01*
X201315000Y-110870000D02*
X201315000Y-107570000D01*
X201315000Y-110870000D02*
X203815000Y-110870000D01*
X203815000Y-107570000D02*
X201315000Y-107570000D01*
X203815000Y-107570000D02*
X203815000Y-110870000D01*
X203855000Y-110870000D02*
X203855000Y-107570000D01*
X203855000Y-110870000D02*
X206355000Y-110870000D01*
X206355000Y-107570000D02*
X203855000Y-107570000D01*
X206355000Y-107570000D02*
X206355000Y-110870000D01*
X192090000Y-84865000D02*
X192090000Y-81505000D01*
X193990000Y-84865000D02*
X192090000Y-84865000D01*
X193990000Y-81505000D02*
X193990000Y-84865000D01*
X192090000Y-81505000D02*
X193990000Y-81505000D01*
X191995000Y-85410000D02*
X195355000Y-85410000D01*
X191995000Y-87310000D02*
X191995000Y-85410000D01*
X195355000Y-87310000D02*
X191995000Y-87310000D01*
X195355000Y-85410000D02*
X195355000Y-87310000D01*
X189282500Y-83500000D02*
X185922500Y-83500000D01*
X189282500Y-81600000D02*
X189282500Y-83500000D01*
X185922500Y-81600000D02*
X189282500Y-81600000D01*
X185922500Y-83500000D02*
X185922500Y-81600000D01*
X185803500Y-87405000D02*
X185803500Y-84045000D01*
X187703500Y-87405000D02*
X185803500Y-87405000D01*
X187703500Y-84045000D02*
X187703500Y-87405000D01*
X185803500Y-84045000D02*
X187703500Y-84045000D01*
X196662000Y-105566000D02*
X196662000Y-102206000D01*
X198562000Y-105566000D02*
X196662000Y-105566000D01*
X198562000Y-102206000D02*
X198562000Y-105566000D01*
X196662000Y-102206000D02*
X198562000Y-102206000D01*
X192630000Y-101920000D02*
X195990000Y-101920000D01*
X192630000Y-103820000D02*
X192630000Y-101920000D01*
X195990000Y-103820000D02*
X192630000Y-103820000D01*
X195990000Y-101920000D02*
X195990000Y-103820000D01*
X192630000Y-93284000D02*
X195990000Y-93284000D01*
X192630000Y-95184000D02*
X192630000Y-93284000D01*
X195990000Y-95184000D02*
X192630000Y-95184000D01*
X195990000Y-93284000D02*
X195990000Y-95184000D01*
X192630000Y-99634000D02*
X195990000Y-99634000D01*
X192630000Y-101534000D02*
X192630000Y-99634000D01*
X195990000Y-101534000D02*
X192630000Y-101534000D01*
X195990000Y-99634000D02*
X195990000Y-101534000D01*
X197965000Y-84885000D02*
X194465000Y-84885000D01*
X197965000Y-81485000D02*
X197965000Y-84885000D01*
X194465000Y-81485000D02*
X197965000Y-81485000D01*
X194465000Y-84885000D02*
X194465000Y-81485000D01*
X198960000Y-105636000D02*
X198960000Y-102136000D01*
X202360000Y-105636000D02*
X198960000Y-105636000D01*
X202360000Y-102136000D02*
X202360000Y-105636000D01*
X198960000Y-102136000D02*
X202360000Y-102136000D01*
X188051500Y-84025000D02*
X191551500Y-84025000D01*
X188051500Y-87425000D02*
X188051500Y-84025000D01*
X191551500Y-87425000D02*
X188051500Y-87425000D01*
X191551500Y-84025000D02*
X191551500Y-87425000D01*
X192560000Y-95582000D02*
X196060000Y-95582000D01*
X192560000Y-98982000D02*
X192560000Y-95582000D01*
X196060000Y-98982000D02*
X192560000Y-98982000D01*
X196060000Y-95582000D02*
X196060000Y-98982000D01*
X199870000Y-112825000D02*
X196370000Y-112825000D01*
X199870000Y-109425000D02*
X199870000Y-112825000D01*
X196370000Y-109425000D02*
X199870000Y-109425000D01*
X196370000Y-112825000D02*
X196370000Y-109425000D01*
X203228000Y-102186000D02*
X206728000Y-102186000D01*
X203228000Y-105586000D02*
X203228000Y-102186000D01*
X206728000Y-105586000D02*
X203228000Y-105586000D01*
X206728000Y-102186000D02*
X206728000Y-105586000D01*
X196060000Y-112825000D02*
X192560000Y-112825000D01*
X196060000Y-109425000D02*
X196060000Y-112825000D01*
X192560000Y-109425000D02*
X196060000Y-109425000D01*
X192560000Y-112825000D02*
X192560000Y-109425000D01*
X187628000Y-127790000D02*
X187628000Y-131290000D01*
X184228000Y-127790000D02*
X187628000Y-127790000D01*
X184228000Y-131290000D02*
X184228000Y-127790000D01*
X187628000Y-131290000D02*
X184228000Y-131290000D01*
X205642000Y-137094000D02*
X202282000Y-137094000D01*
X205642000Y-135194000D02*
X205642000Y-137094000D01*
X202282000Y-135194000D02*
X205642000Y-135194000D01*
X202282000Y-137094000D02*
X202282000Y-135194000D01*
X205642000Y-139380000D02*
X202282000Y-139380000D01*
X205642000Y-137480000D02*
X205642000Y-139380000D01*
X202282000Y-137480000D02*
X205642000Y-137480000D01*
X202282000Y-139380000D02*
X202282000Y-137480000D01*
X206346000Y-133670000D02*
X209706000Y-133670000D01*
X206346000Y-135570000D02*
X206346000Y-133670000D01*
X209706000Y-135570000D02*
X206346000Y-135570000D01*
X209706000Y-133670000D02*
X209706000Y-135570000D01*
X206346000Y-131384000D02*
X209706000Y-131384000D01*
X206346000Y-133284000D02*
X206346000Y-131384000D01*
X209706000Y-133284000D02*
X206346000Y-133284000D01*
X209706000Y-131384000D02*
X209706000Y-133284000D01*
X185994000Y-127410000D02*
X185994000Y-124050000D01*
X187894000Y-127410000D02*
X185994000Y-127410000D01*
X187894000Y-124050000D02*
X187894000Y-127410000D01*
X185994000Y-124050000D02*
X187894000Y-124050000D01*
X183454000Y-127410000D02*
X183454000Y-124050000D01*
X185354000Y-127410000D02*
X183454000Y-127410000D01*
X185354000Y-124050000D02*
X185354000Y-127410000D01*
X183454000Y-124050000D02*
X185354000Y-124050000D01*
X205712000Y-134796000D02*
X202212000Y-134796000D01*
X205712000Y-131396000D02*
X205712000Y-134796000D01*
X202212000Y-131396000D02*
X205712000Y-131396000D01*
X202212000Y-134796000D02*
X202212000Y-131396000D01*
X206276000Y-135968000D02*
X209776000Y-135968000D01*
X206276000Y-139368000D02*
X206276000Y-135968000D01*
X209776000Y-139368000D02*
X206276000Y-139368000D01*
X209776000Y-135968000D02*
X209776000Y-139368000D01*
X202212000Y-127840000D02*
X205712000Y-127840000D01*
X202212000Y-131240000D02*
X202212000Y-127840000D01*
X205712000Y-131240000D02*
X202212000Y-131240000D01*
X205712000Y-127840000D02*
X205712000Y-131240000D01*
X188128000Y-130878000D02*
X201628000Y-130878000D01*
X188128000Y-126078000D02*
X188128000Y-130878000D01*
X201628000Y-126078000D02*
X188128000Y-126078000D01*
X201628000Y-130878000D02*
X201628000Y-126078000D01*
X197100000Y-133120000D02*
X197100000Y-131220000D01*
X197100000Y-131220000D02*
X200460000Y-131220000D01*
X200460000Y-131220000D02*
X200460000Y-133120000D01*
X200460000Y-133120000D02*
X197100000Y-133120000D01*
X223967000Y-70837000D02*
X225867000Y-70837000D01*
X225867000Y-70837000D02*
X225867000Y-74197000D01*
X225867000Y-74197000D02*
X223967000Y-74197000D01*
X223967000Y-74197000D02*
X223967000Y-70837000D01*
X223708000Y-74197000D02*
X221808000Y-74197000D01*
X221808000Y-74197000D02*
X221808000Y-70837000D01*
X221808000Y-70837000D02*
X223708000Y-70837000D01*
X223708000Y-70837000D02*
X223708000Y-74197000D01*
X223708000Y-77880000D02*
X221808000Y-77880000D01*
X221808000Y-77880000D02*
X221808000Y-74520000D01*
X221808000Y-74520000D02*
X223708000Y-74520000D01*
X223708000Y-74520000D02*
X223708000Y-77880000D01*
X207579000Y-127410000D02*
X205679000Y-127410000D01*
X205679000Y-127410000D02*
X205679000Y-124050000D01*
X205679000Y-124050000D02*
X207579000Y-124050000D01*
X207579000Y-124050000D02*
X207579000Y-127410000D01*
X179549000Y-78674000D02*
X179549000Y-76774000D01*
X179549000Y-76774000D02*
X182909000Y-76774000D01*
X182909000Y-76774000D02*
X182909000Y-78674000D01*
X182909000Y-78674000D02*
X179549000Y-78674000D01*
X204277000Y-127410000D02*
X202377000Y-127410000D01*
X202377000Y-127410000D02*
X202377000Y-124050000D01*
X202377000Y-124050000D02*
X204277000Y-124050000D01*
X204277000Y-124050000D02*
X204277000Y-127410000D01*
X179131000Y-78642000D02*
X177231000Y-78642000D01*
X177231000Y-78642000D02*
X177231000Y-75282000D01*
X177231000Y-75282000D02*
X179131000Y-75282000D01*
X179131000Y-75282000D02*
X179131000Y-78642000D01*
X265237000Y-131982000D02*
X263337000Y-131982000D01*
X263337000Y-131982000D02*
X263337000Y-128622000D01*
X263337000Y-128622000D02*
X265237000Y-128622000D01*
X265237000Y-128622000D02*
X265237000Y-131982000D01*
X257744000Y-132109000D02*
X255844000Y-132109000D01*
X255844000Y-132109000D02*
X255844000Y-128749000D01*
X255844000Y-128749000D02*
X257744000Y-128749000D01*
X257744000Y-128749000D02*
X257744000Y-132109000D01*
X250124000Y-132109000D02*
X248224000Y-132109000D01*
X248224000Y-132109000D02*
X248224000Y-128749000D01*
X248224000Y-128749000D02*
X250124000Y-128749000D01*
X250124000Y-128749000D02*
X250124000Y-132109000D01*
X242504000Y-131982000D02*
X240604000Y-131982000D01*
X240604000Y-131982000D02*
X240604000Y-128622000D01*
X240604000Y-128622000D02*
X242504000Y-128622000D01*
X242504000Y-128622000D02*
X242504000Y-131982000D01*
X235011000Y-131982000D02*
X233111000Y-131982000D01*
X233111000Y-131982000D02*
X233111000Y-128622000D01*
X233111000Y-128622000D02*
X235011000Y-128622000D01*
X235011000Y-128622000D02*
X235011000Y-131982000D01*
X227391000Y-131982000D02*
X225491000Y-131982000D01*
X225491000Y-131982000D02*
X225491000Y-128622000D01*
X225491000Y-128622000D02*
X227391000Y-128622000D01*
X227391000Y-128622000D02*
X227391000Y-131982000D01*
X219644000Y-131982000D02*
X217744000Y-131982000D01*
X217744000Y-131982000D02*
X217744000Y-128622000D01*
X217744000Y-128622000D02*
X219644000Y-128622000D01*
X219644000Y-128622000D02*
X219644000Y-131982000D01*
X220150000Y-132540000D02*
X224950000Y-132540000D01*
X224950000Y-132540000D02*
X224950000Y-121540000D01*
X224950000Y-121540000D02*
X220150000Y-121540000D01*
X220150000Y-121540000D02*
X220150000Y-132540000D01*
X207540000Y-113770000D02*
X198890000Y-113770000D01*
X198890000Y-113770000D02*
X198890000Y-117370000D01*
X198890000Y-117370000D02*
X207540000Y-117370000D01*
X207540000Y-117370000D02*
X207540000Y-113770000D01*
X188880000Y-139520000D02*
X179080000Y-139520000D01*
X179080000Y-139520000D02*
X179080000Y-135420000D01*
X179080000Y-135420000D02*
X188880000Y-135420000D01*
X188880000Y-135420000D02*
X188880000Y-139520000D01*
X200924500Y-139565600D02*
X191124500Y-139565600D01*
X191124500Y-139565600D02*
X191124500Y-135465600D01*
X191124500Y-135465600D02*
X200924500Y-135465600D01*
X200924500Y-135465600D02*
X200924500Y-139565600D01*
X220856000Y-86360000D02*
G75*
G03*
X220856000Y-86360000I-5250000J0D01*
G01*
X171655000Y-81760000D02*
X171655000Y-78260000D01*
X175055000Y-81760000D02*
X171655000Y-81760000D01*
X175055000Y-78260000D02*
X175055000Y-81760000D01*
X171655000Y-78260000D02*
X175055000Y-78260000D01*
X263545000Y-83184000D02*
X263545000Y-79884000D01*
X263545000Y-83184000D02*
X266045000Y-83184000D01*
X266045000Y-79884000D02*
X263545000Y-79884000D01*
X266045000Y-79884000D02*
X266045000Y-83184000D01*
X257915000Y-80901000D02*
X257915000Y-69701000D01*
X261465000Y-80901000D02*
X257915000Y-80901000D01*
X261465000Y-69701000D02*
X261465000Y-80901000D01*
X257915000Y-69701000D02*
X261465000Y-69701000D01*
X251907000Y-80743000D02*
X253807000Y-80743000D01*
X253807000Y-80743000D02*
X253807000Y-84103000D01*
X253807000Y-84103000D02*
X251907000Y-84103000D01*
X251907000Y-84103000D02*
X251907000Y-80743000D01*
X247335000Y-76298000D02*
X249235000Y-76298000D01*
X249235000Y-76298000D02*
X249235000Y-79658000D01*
X249235000Y-79658000D02*
X247335000Y-79658000D01*
X247335000Y-79658000D02*
X247335000Y-76298000D01*
X243266000Y-79785000D02*
X241366000Y-79785000D01*
X241366000Y-79785000D02*
X241366000Y-76425000D01*
X241366000Y-76425000D02*
X243266000Y-76425000D01*
X243266000Y-76425000D02*
X243266000Y-79785000D01*
X202975000Y-77790000D02*
X202975000Y-79690000D01*
X202975000Y-79690000D02*
X199615000Y-79690000D01*
X199615000Y-79690000D02*
X199615000Y-77790000D01*
X199615000Y-77790000D02*
X202975000Y-77790000D01*
X266893000Y-106778000D02*
X268793000Y-106778000D01*
X268793000Y-106778000D02*
X268793000Y-110138000D01*
X268793000Y-110138000D02*
X266893000Y-110138000D01*
X266893000Y-110138000D02*
X266893000Y-106778000D01*
X243664000Y-80673000D02*
X247064000Y-80673000D01*
X247064000Y-80673000D02*
X247064000Y-84173000D01*
X247064000Y-84173000D02*
X243664000Y-84173000D01*
X243664000Y-84173000D02*
X243664000Y-80673000D01*
X184280000Y-86360000D02*
G75*
G03*
X184280000Y-86360000I-5250000J0D01*
G01*
X249108000Y-84103000D02*
X247208000Y-84103000D01*
X247208000Y-84103000D02*
X247208000Y-80743000D01*
X247208000Y-80743000D02*
X249108000Y-80743000D01*
X249108000Y-80743000D02*
X249108000Y-84103000D01*
X210958000Y-129896000D02*
X209158000Y-129896000D01*
X209158000Y-129896000D02*
X209158000Y-126136000D01*
X209158000Y-126136000D02*
X210958000Y-126136000D01*
X210958000Y-126136000D02*
X210958000Y-129896000D01*
X256220000Y-80420000D02*
X254320000Y-80420000D01*
X254320000Y-80420000D02*
X254320000Y-77060000D01*
X254320000Y-77060000D02*
X256220000Y-77060000D01*
X256220000Y-77060000D02*
X256220000Y-80420000D01*
X251108000Y-116398000D02*
X251108000Y-118298000D01*
X251108000Y-118298000D02*
X247748000Y-118298000D01*
X247748000Y-118298000D02*
X247748000Y-116398000D01*
X247748000Y-116398000D02*
X251108000Y-116398000D01*
X189804000Y-77695000D02*
X191704000Y-77695000D01*
X191704000Y-77695000D02*
X191704000Y-81055000D01*
X191704000Y-81055000D02*
X189804000Y-81055000D01*
X189804000Y-81055000D02*
X189804000Y-77695000D01*
X265237000Y-127918000D02*
X263337000Y-127918000D01*
X263337000Y-127918000D02*
X263337000Y-124558000D01*
X263337000Y-124558000D02*
X265237000Y-124558000D01*
X265237000Y-124558000D02*
X265237000Y-127918000D01*
X268430800Y-70246200D02*
X268430800Y-72146200D01*
X268430800Y-72146200D02*
X265070800Y-72146200D01*
X265070800Y-72146200D02*
X265070800Y-70246200D01*
X265070800Y-70246200D02*
X268430800Y-70246200D01*
X261686000Y-93570000D02*
X263586000Y-93570000D01*
X263586000Y-93570000D02*
X263586000Y-96930000D01*
X263586000Y-96930000D02*
X261686000Y-96930000D01*
X261686000Y-96930000D02*
X261686000Y-93570000D01*
X257744000Y-128045000D02*
X255844000Y-128045000D01*
X255844000Y-128045000D02*
X255844000Y-124685000D01*
X255844000Y-124685000D02*
X257744000Y-124685000D01*
X257744000Y-124685000D02*
X257744000Y-128045000D01*
X254320000Y-93570000D02*
X256220000Y-93570000D01*
X256220000Y-93570000D02*
X256220000Y-96930000D01*
X256220000Y-96930000D02*
X254320000Y-96930000D01*
X254320000Y-96930000D02*
X254320000Y-93570000D01*
X250124000Y-128045000D02*
X248224000Y-128045000D01*
X248224000Y-128045000D02*
X248224000Y-124685000D01*
X248224000Y-124685000D02*
X250124000Y-124685000D01*
X250124000Y-124685000D02*
X250124000Y-128045000D01*
X246446000Y-93570000D02*
X248346000Y-93570000D01*
X248346000Y-93570000D02*
X248346000Y-96930000D01*
X248346000Y-96930000D02*
X246446000Y-96930000D01*
X246446000Y-96930000D02*
X246446000Y-93570000D01*
X242504000Y-128045000D02*
X240604000Y-128045000D01*
X240604000Y-128045000D02*
X240604000Y-124685000D01*
X240604000Y-124685000D02*
X242504000Y-124685000D01*
X242504000Y-124685000D02*
X242504000Y-128045000D01*
X238826000Y-93586000D02*
X240726000Y-93586000D01*
X240726000Y-93586000D02*
X240726000Y-96946000D01*
X240726000Y-96946000D02*
X238826000Y-96946000D01*
X238826000Y-96946000D02*
X238826000Y-93586000D01*
X235011000Y-128045000D02*
X233111000Y-128045000D01*
X233111000Y-128045000D02*
X233111000Y-124685000D01*
X233111000Y-124685000D02*
X235011000Y-124685000D01*
X235011000Y-124685000D02*
X235011000Y-128045000D01*
X230952000Y-93586000D02*
X232852000Y-93586000D01*
X232852000Y-93586000D02*
X232852000Y-96946000D01*
X232852000Y-96946000D02*
X230952000Y-96946000D01*
X230952000Y-96946000D02*
X230952000Y-93586000D01*
X227391000Y-128029000D02*
X225491000Y-128029000D01*
X225491000Y-128029000D02*
X225491000Y-124669000D01*
X225491000Y-124669000D02*
X227391000Y-124669000D01*
X227391000Y-124669000D02*
X227391000Y-128029000D01*
X223332000Y-93586000D02*
X225232000Y-93586000D01*
X225232000Y-93586000D02*
X225232000Y-96946000D01*
X225232000Y-96946000D02*
X223332000Y-96946000D01*
X223332000Y-96946000D02*
X223332000Y-93586000D01*
X219644000Y-128029000D02*
X217744000Y-128029000D01*
X217744000Y-128029000D02*
X217744000Y-124669000D01*
X217744000Y-124669000D02*
X219644000Y-124669000D01*
X219644000Y-124669000D02*
X219644000Y-128029000D01*
X215966000Y-93570000D02*
X217866000Y-93570000D01*
X217866000Y-93570000D02*
X217866000Y-96930000D01*
X217866000Y-96930000D02*
X215966000Y-96930000D01*
X215966000Y-96930000D02*
X215966000Y-93570000D01*
X175326000Y-117446000D02*
X177226000Y-117446000D01*
X177226000Y-117446000D02*
X177226000Y-120806000D01*
X177226000Y-120806000D02*
X175326000Y-120806000D01*
X175326000Y-120806000D02*
X175326000Y-117446000D01*
X181200000Y-135316000D02*
X181200000Y-133416000D01*
X181200000Y-133416000D02*
X184560000Y-133416000D01*
X184560000Y-133416000D02*
X184560000Y-135316000D01*
X184560000Y-135316000D02*
X181200000Y-135316000D01*
X209870000Y-101190000D02*
X211770000Y-101190000D01*
X211770000Y-101190000D02*
X211770000Y-104550000D01*
X211770000Y-104550000D02*
X209870000Y-104550000D01*
X209870000Y-104550000D02*
X209870000Y-101190000D01*
X268507000Y-98237000D02*
X268507000Y-100137000D01*
X268507000Y-100137000D02*
X265147000Y-100137000D01*
X265147000Y-100137000D02*
X265147000Y-98237000D01*
X265147000Y-98237000D02*
X268507000Y-98237000D01*
X200631000Y-77150000D02*
X200631000Y-75250000D01*
X200631000Y-75250000D02*
X203991000Y-75250000D01*
X203991000Y-75250000D02*
X203991000Y-77150000D01*
X203991000Y-77150000D02*
X200631000Y-77150000D01*
X249780000Y-120330000D02*
X249780000Y-118430000D01*
X249780000Y-118430000D02*
X253140000Y-118430000D01*
X253140000Y-118430000D02*
X253140000Y-120330000D01*
X253140000Y-120330000D02*
X249780000Y-120330000D01*
X192217000Y-77695000D02*
X194117000Y-77695000D01*
X194117000Y-77695000D02*
X194117000Y-81055000D01*
X194117000Y-81055000D02*
X192217000Y-81055000D01*
X192217000Y-81055000D02*
X192217000Y-77695000D01*
X261252000Y-95316000D02*
X261252000Y-97216000D01*
X261252000Y-97216000D02*
X257892000Y-97216000D01*
X257892000Y-97216000D02*
X257892000Y-95316000D01*
X257892000Y-95316000D02*
X261252000Y-95316000D01*
X261686000Y-98634000D02*
X263586000Y-98634000D01*
X263586000Y-98634000D02*
X263586000Y-101994000D01*
X263586000Y-101994000D02*
X261686000Y-101994000D01*
X261686000Y-101994000D02*
X261686000Y-98634000D01*
X238392000Y-95316000D02*
X238392000Y-97216000D01*
X238392000Y-97216000D02*
X235032000Y-97216000D01*
X235032000Y-97216000D02*
X235032000Y-95316000D01*
X235032000Y-95316000D02*
X238392000Y-95316000D01*
X238826000Y-98666000D02*
X240726000Y-98666000D01*
X240726000Y-98666000D02*
X240726000Y-102026000D01*
X240726000Y-102026000D02*
X238826000Y-102026000D01*
X238826000Y-102026000D02*
X238826000Y-98666000D01*
X253902000Y-95316000D02*
X253902000Y-97216000D01*
X253902000Y-97216000D02*
X250542000Y-97216000D01*
X250542000Y-97216000D02*
X250542000Y-95316000D01*
X250542000Y-95316000D02*
X253902000Y-95316000D01*
X254320000Y-98650000D02*
X256220000Y-98650000D01*
X256220000Y-98650000D02*
X256220000Y-102010000D01*
X256220000Y-102010000D02*
X254320000Y-102010000D01*
X254320000Y-102010000D02*
X254320000Y-98650000D01*
X230518000Y-95316000D02*
X230518000Y-97216000D01*
X230518000Y-97216000D02*
X227158000Y-97216000D01*
X227158000Y-97216000D02*
X227158000Y-95316000D01*
X227158000Y-95316000D02*
X230518000Y-95316000D01*
X230952000Y-98523000D02*
X232852000Y-98523000D01*
X232852000Y-98523000D02*
X232852000Y-101883000D01*
X232852000Y-101883000D02*
X230952000Y-101883000D01*
X230952000Y-101883000D02*
X230952000Y-98523000D01*
X246028000Y-95316000D02*
X246028000Y-97216000D01*
X246028000Y-97216000D02*
X242668000Y-97216000D01*
X242668000Y-97216000D02*
X242668000Y-95316000D01*
X242668000Y-95316000D02*
X246028000Y-95316000D01*
X246446000Y-98650000D02*
X248346000Y-98650000D01*
X248346000Y-98650000D02*
X248346000Y-102010000D01*
X248346000Y-102010000D02*
X246446000Y-102010000D01*
X246446000Y-102010000D02*
X246446000Y-98650000D01*
X219554000Y-97216000D02*
X219554000Y-95316000D01*
X219554000Y-95316000D02*
X222914000Y-95316000D01*
X222914000Y-95316000D02*
X222914000Y-97216000D01*
X222914000Y-97216000D02*
X219554000Y-97216000D01*
X223332000Y-98650000D02*
X225232000Y-98650000D01*
X225232000Y-98650000D02*
X225232000Y-102010000D01*
X225232000Y-102010000D02*
X223332000Y-102010000D01*
X223332000Y-102010000D02*
X223332000Y-98650000D01*
X215548000Y-95316000D02*
X215548000Y-97216000D01*
X215548000Y-97216000D02*
X212188000Y-97216000D01*
X212188000Y-97216000D02*
X212188000Y-95316000D01*
X212188000Y-95316000D02*
X215548000Y-95316000D01*
X215966000Y-98650000D02*
X217866000Y-98650000D01*
X217866000Y-98650000D02*
X217866000Y-102010000D01*
X217866000Y-102010000D02*
X215966000Y-102010000D01*
X215966000Y-102010000D02*
X215966000Y-98650000D01*
X263337000Y-74901000D02*
X265237000Y-74901000D01*
X265237000Y-74901000D02*
X265237000Y-78261000D01*
X265237000Y-78261000D02*
X263337000Y-78261000D01*
X263337000Y-78261000D02*
X263337000Y-74901000D01*
X264124400Y-55555200D02*
X266024400Y-55555200D01*
X266024400Y-55555200D02*
X266024400Y-58915200D01*
X266024400Y-58915200D02*
X264124400Y-58915200D01*
X264124400Y-58915200D02*
X264124400Y-55555200D01*
X193400000Y-133120000D02*
X193400000Y-131220000D01*
X193400000Y-131220000D02*
X196760000Y-131220000D01*
X196760000Y-131220000D02*
X196760000Y-133120000D01*
X196760000Y-133120000D02*
X193400000Y-133120000D01*
X193392000Y-135316000D02*
X193392000Y-133416000D01*
X193392000Y-133416000D02*
X196752000Y-133416000D01*
X196752000Y-133416000D02*
X196752000Y-135316000D01*
X196752000Y-135316000D02*
X193392000Y-135316000D01*
X253160000Y-80490000D02*
X249760000Y-80490000D01*
X249760000Y-80490000D02*
X249760000Y-76990000D01*
X249760000Y-76990000D02*
X253160000Y-76990000D01*
X253160000Y-76990000D02*
X253160000Y-80490000D01*
X268577000Y-101424000D02*
X268577000Y-104824000D01*
X268577000Y-104824000D02*
X265077000Y-104824000D01*
X265077000Y-104824000D02*
X265077000Y-101424000D01*
X265077000Y-101424000D02*
X268577000Y-101424000D01*
X200561000Y-73836000D02*
X200561000Y-70436000D01*
X200561000Y-70436000D02*
X204061000Y-70436000D01*
X204061000Y-70436000D02*
X204061000Y-73836000D01*
X204061000Y-73836000D02*
X200561000Y-73836000D01*
X255094000Y-116614000D02*
X258494000Y-116614000D01*
X258494000Y-116614000D02*
X258494000Y-120114000D01*
X258494000Y-120114000D02*
X255094000Y-120114000D01*
X255094000Y-120114000D02*
X255094000Y-116614000D01*
X195531000Y-77625000D02*
X198931000Y-77625000D01*
X198931000Y-77625000D02*
X198931000Y-81125000D01*
X198931000Y-81125000D02*
X195531000Y-81125000D01*
X195531000Y-81125000D02*
X195531000Y-77625000D01*
X261338000Y-98376000D02*
X261338000Y-101776000D01*
X261338000Y-101776000D02*
X257838000Y-101776000D01*
X257838000Y-101776000D02*
X257838000Y-98376000D01*
X257838000Y-98376000D02*
X261338000Y-98376000D01*
X238478000Y-98376000D02*
X238478000Y-101776000D01*
X238478000Y-101776000D02*
X234978000Y-101776000D01*
X234978000Y-101776000D02*
X234978000Y-98376000D01*
X234978000Y-98376000D02*
X238478000Y-98376000D01*
X253972000Y-98376000D02*
X253972000Y-101776000D01*
X253972000Y-101776000D02*
X250472000Y-101776000D01*
X250472000Y-101776000D02*
X250472000Y-98376000D01*
X250472000Y-98376000D02*
X253972000Y-98376000D01*
X230604000Y-98376000D02*
X230604000Y-101776000D01*
X230604000Y-101776000D02*
X227104000Y-101776000D01*
X227104000Y-101776000D02*
X227104000Y-98376000D01*
X227104000Y-98376000D02*
X230604000Y-98376000D01*
X246098000Y-98376000D02*
X246098000Y-101776000D01*
X246098000Y-101776000D02*
X242598000Y-101776000D01*
X242598000Y-101776000D02*
X242598000Y-98376000D01*
X242598000Y-98376000D02*
X246098000Y-98376000D01*
X222984000Y-98376000D02*
X222984000Y-101776000D01*
X222984000Y-101776000D02*
X219484000Y-101776000D01*
X219484000Y-101776000D02*
X219484000Y-98376000D01*
X219484000Y-98376000D02*
X222984000Y-98376000D01*
X215618000Y-98376000D02*
X215618000Y-101776000D01*
X215618000Y-101776000D02*
X212118000Y-101776000D01*
X212118000Y-101776000D02*
X212118000Y-98376000D01*
X212118000Y-98376000D02*
X215618000Y-98376000D01*
X209180000Y-104496000D02*
X207380000Y-104496000D01*
X207380000Y-104496000D02*
X207380000Y-100736000D01*
X207380000Y-100736000D02*
X209180000Y-100736000D01*
X209180000Y-100736000D02*
X209180000Y-104496000D01*
X263536000Y-106782000D02*
X261736000Y-106782000D01*
X261736000Y-106782000D02*
X261736000Y-103022000D01*
X261736000Y-103022000D02*
X263536000Y-103022000D01*
X263536000Y-103022000D02*
X263536000Y-106782000D01*
X240676000Y-106745500D02*
X238876000Y-106745500D01*
X238876000Y-106745500D02*
X238876000Y-102985500D01*
X238876000Y-102985500D02*
X240676000Y-102985500D01*
X240676000Y-102985500D02*
X240676000Y-106745500D01*
X256170000Y-106782000D02*
X254370000Y-106782000D01*
X254370000Y-106782000D02*
X254370000Y-103022000D01*
X254370000Y-103022000D02*
X256170000Y-103022000D01*
X256170000Y-103022000D02*
X256170000Y-106782000D01*
X232802000Y-106745500D02*
X231002000Y-106745500D01*
X231002000Y-106745500D02*
X231002000Y-102985500D01*
X231002000Y-102985500D02*
X232802000Y-102985500D01*
X232802000Y-102985500D02*
X232802000Y-106745500D01*
X248296000Y-106782000D02*
X246496000Y-106782000D01*
X246496000Y-106782000D02*
X246496000Y-103022000D01*
X246496000Y-103022000D02*
X248296000Y-103022000D01*
X248296000Y-103022000D02*
X248296000Y-106782000D01*
X225182000Y-106745500D02*
X223382000Y-106745500D01*
X223382000Y-106745500D02*
X223382000Y-102985500D01*
X223382000Y-102985500D02*
X225182000Y-102985500D01*
X225182000Y-102985500D02*
X225182000Y-106745500D01*
X217816000Y-106782000D02*
X216016000Y-106782000D01*
X216016000Y-106782000D02*
X216016000Y-103022000D01*
X216016000Y-103022000D02*
X217816000Y-103022000D01*
X217816000Y-103022000D02*
X217816000Y-106782000D01*
X262470800Y-61864200D02*
X262470800Y-63764200D01*
X262470800Y-63764200D02*
X259110800Y-63764200D01*
X259110800Y-63764200D02*
X259110800Y-61864200D01*
X259110800Y-61864200D02*
X262470800Y-61864200D01*
X264385000Y-61148000D02*
X264385000Y-59248000D01*
X264385000Y-59248000D02*
X267745000Y-59248000D01*
X267745000Y-59248000D02*
X267745000Y-61148000D01*
X267745000Y-61148000D02*
X264385000Y-61148000D01*
X177644000Y-123124000D02*
X177644000Y-121224000D01*
X177644000Y-121224000D02*
X181004000Y-121224000D01*
X181004000Y-121224000D02*
X181004000Y-123124000D01*
X181004000Y-123124000D02*
X177644000Y-123124000D01*
X178730000Y-139094000D02*
X176830000Y-139094000D01*
X176830000Y-139094000D02*
X176830000Y-135734000D01*
X176830000Y-135734000D02*
X178730000Y-135734000D01*
X178730000Y-135734000D02*
X178730000Y-139094000D01*
X170532000Y-118298000D02*
X170532000Y-116398000D01*
X170532000Y-116398000D02*
X173892000Y-116398000D01*
X173892000Y-116398000D02*
X173892000Y-118298000D01*
X173892000Y-118298000D02*
X170532000Y-118298000D01*
X255844000Y-112366000D02*
X257744000Y-112366000D01*
X257744000Y-112366000D02*
X257744000Y-115726000D01*
X257744000Y-115726000D02*
X255844000Y-115726000D01*
X255844000Y-115726000D02*
X255844000Y-112366000D01*
X173892000Y-118557000D02*
X173892000Y-120457000D01*
X173892000Y-120457000D02*
X170532000Y-120457000D01*
X170532000Y-120457000D02*
X170532000Y-118557000D01*
X170532000Y-118557000D02*
X173892000Y-118557000D01*
X217744000Y-112366000D02*
X219644000Y-112366000D01*
X219644000Y-112366000D02*
X219644000Y-115726000D01*
X219644000Y-115726000D02*
X217744000Y-115726000D01*
X217744000Y-115726000D02*
X217744000Y-112366000D01*
X173892000Y-120716000D02*
X173892000Y-122616000D01*
X173892000Y-122616000D02*
X170532000Y-122616000D01*
X170532000Y-122616000D02*
X170532000Y-120716000D01*
X170532000Y-120716000D02*
X173892000Y-120716000D01*
X225867000Y-77880000D02*
X223967000Y-77880000D01*
X223967000Y-77880000D02*
X223967000Y-74520000D01*
X223967000Y-74520000D02*
X225867000Y-74520000D01*
X225867000Y-74520000D02*
X225867000Y-77880000D01*
X203261000Y-68990000D02*
X201361000Y-68990000D01*
X201361000Y-68990000D02*
X201361000Y-65630000D01*
X201361000Y-65630000D02*
X203261000Y-65630000D01*
X203261000Y-65630000D02*
X203261000Y-68990000D01*
X197038000Y-120298000D02*
X195138000Y-120298000D01*
X195138000Y-120298000D02*
X195138000Y-116938000D01*
X195138000Y-116938000D02*
X197038000Y-116938000D01*
X197038000Y-116938000D02*
X197038000Y-120298000D01*
X194498000Y-120298000D02*
X192598000Y-120298000D01*
X192598000Y-120298000D02*
X192598000Y-116938000D01*
X192598000Y-116938000D02*
X194498000Y-116938000D01*
X194498000Y-116938000D02*
X194498000Y-120298000D01*
X191958000Y-120298000D02*
X190058000Y-120298000D01*
X190058000Y-120298000D02*
X190058000Y-116938000D01*
X190058000Y-116938000D02*
X191958000Y-116938000D01*
X191958000Y-116938000D02*
X191958000Y-120298000D01*
X189418000Y-120298000D02*
X187518000Y-120298000D01*
X187518000Y-120298000D02*
X187518000Y-116938000D01*
X187518000Y-116938000D02*
X189418000Y-116938000D01*
X189418000Y-116938000D02*
X189418000Y-120298000D01*
X186878000Y-120307000D02*
X184978000Y-120307000D01*
X184978000Y-120307000D02*
X184978000Y-116947000D01*
X184978000Y-116947000D02*
X186878000Y-116947000D01*
X186878000Y-116947000D02*
X186878000Y-120307000D01*
X184338000Y-120298000D02*
X182438000Y-120298000D01*
X182438000Y-120298000D02*
X182438000Y-116938000D01*
X182438000Y-116938000D02*
X184338000Y-116938000D01*
X184338000Y-116938000D02*
X184338000Y-120298000D01*
X181798000Y-120298000D02*
X179898000Y-120298000D01*
X179898000Y-120298000D02*
X179898000Y-116938000D01*
X179898000Y-116938000D02*
X181798000Y-116938000D01*
X181798000Y-116938000D02*
X181798000Y-120298000D01*
X187931000Y-93596500D02*
X187931000Y-91696500D01*
X187931000Y-91696500D02*
X191291000Y-91696500D01*
X191291000Y-91696500D02*
X191291000Y-93596500D01*
X191291000Y-93596500D02*
X187931000Y-93596500D01*
X190942000Y-139094000D02*
X189042000Y-139094000D01*
X189042000Y-139094000D02*
X189042000Y-135734000D01*
X189042000Y-135734000D02*
X190942000Y-135734000D01*
X190942000Y-135734000D02*
X190942000Y-139094000D01*
X243664000Y-76228000D02*
X247064000Y-76228000D01*
X247064000Y-76228000D02*
X247064000Y-79728000D01*
X247064000Y-79728000D02*
X243664000Y-79728000D01*
X243664000Y-79728000D02*
X243664000Y-76228000D01*
X189059000Y-71247000D02*
G75*
G03*
X189059000Y-71247000I-5250000J0D01*
G01*
X232540000Y-86360000D02*
G75*
G03*
X232540000Y-86360000I-5250000J0D01*
G01*
X200235000Y-70993000D02*
G75*
G03*
X200235000Y-70993000I-5250000J0D01*
G01*
X171906600Y-50828400D02*
X171906600Y-58188400D01*
X176376600Y-43678400D02*
X176376600Y-50828400D01*
X254436600Y-43678400D02*
X176376600Y-43678400D01*
X254436600Y-65338400D02*
X176376600Y-65338400D01*
X176376600Y-65338400D02*
X176376600Y-58188400D01*
X254436600Y-43678400D02*
X254436600Y-50828400D01*
X254436600Y-65338400D02*
X254436600Y-58188400D01*
X176376600Y-50828400D02*
X171906600Y-50828400D01*
X171906600Y-58188400D02*
X176376600Y-58188400D01*
X258906600Y-58188400D02*
X254436600Y-58188400D01*
X258906600Y-50828400D02*
X258906600Y-58188400D01*
X254436600Y-50828400D02*
X258906600Y-50828400D01*
X235838000Y-79228000D02*
X232538000Y-79228000D01*
X235838000Y-79228000D02*
X235838000Y-76728000D01*
X232538000Y-76728000D02*
X232538000Y-79228000D01*
X232538000Y-76728000D02*
X235838000Y-76728000D01*
X230557800Y-69491000D02*
X219357800Y-69491000D01*
X230557800Y-65941000D02*
X230557800Y-69491000D01*
X219357800Y-65941000D02*
X230557800Y-65941000D01*
X219357800Y-69491000D02*
X219357800Y-65941000D01*
X176369400Y-77519800D02*
X176369400Y-66519800D01*
X171569400Y-77519800D02*
X176369400Y-77519800D01*
X171569400Y-66519800D02*
X171569400Y-77519800D01*
X176369400Y-66519800D02*
X171569400Y-66519800D01*
D11*
X263512300Y-63411100D02*
X263512300Y-61950600D01*
X263182100Y-63411100D02*
X263512300Y-63411100D01*
X263182100Y-67906900D02*
X263182100Y-63411100D01*
X263512300Y-67906900D02*
X263182100Y-67906900D01*
X263512300Y-69367400D02*
X263512300Y-67906900D01*
X268363700Y-69367400D02*
X263512300Y-69367400D01*
X268363700Y-67906900D02*
X268363700Y-69367400D01*
X268693900Y-67906900D02*
X268363700Y-67906900D01*
X268693900Y-63411100D02*
X268693900Y-67906900D01*
X268363700Y-63411100D02*
X268693900Y-63411100D01*
X268363700Y-61950600D02*
X268363700Y-63411100D01*
X263512300Y-61950600D02*
X268363700Y-61950600D01*
D10*
X263129000Y-47615000D02*
X266969000Y-47615000D01*
X266969000Y-47615000D02*
X266969000Y-55255000D01*
X266969000Y-55255000D02*
X263129000Y-55255000D01*
X263129000Y-55255000D02*
X263129000Y-47615000D01*
X265931000Y-88433000D02*
X268231000Y-88433000D01*
X268231000Y-84033000D02*
X268231000Y-88433000D01*
X265931000Y-84033000D02*
X268231000Y-84033000D01*
X265931000Y-88433000D02*
X265931000Y-84033000D01*
X182599000Y-123131000D02*
X182599000Y-130361000D01*
X170969000Y-123131000D02*
X182599000Y-123131000D01*
X170969000Y-130361000D02*
X170969000Y-123131000D01*
X182599000Y-130361000D02*
X170969000Y-130361000D01*
X204601000Y-66800000D02*
X217801000Y-66800000D01*
X204601000Y-80520000D02*
X204601000Y-66800000D01*
X217801000Y-80520000D02*
X204601000Y-80520000D01*
X217801000Y-66800000D02*
X217801000Y-80520000D01*
X230673000Y-78366000D02*
X230673000Y-76066000D01*
X226273000Y-76066000D02*
X230673000Y-76066000D01*
X226273000Y-78366000D02*
X226273000Y-76066000D01*
X230673000Y-78366000D02*
X226273000Y-78366000D01*
X265077000Y-94185000D02*
X268577000Y-94185000D01*
X265077000Y-97585000D02*
X265077000Y-94185000D01*
X268577000Y-97585000D02*
X265077000Y-97585000D01*
X268577000Y-94185000D02*
X268577000Y-97585000D01*
X222545000Y-80652000D02*
X222545000Y-78352000D01*
X218145000Y-78352000D02*
X222545000Y-78352000D01*
X218145000Y-80652000D02*
X218145000Y-78352000D01*
X222545000Y-80652000D02*
X218145000Y-80652000D01*
X256866000Y-71570000D02*
X256466000Y-72370000D01*
X256466000Y-69870000D02*
X256866000Y-70670000D01*
X255416000Y-69270000D02*
X255166000Y-69270000D01*
X255766000Y-69370000D02*
X255416000Y-69270000D01*
X256466000Y-69870000D02*
X255766000Y-69370000D01*
X256866000Y-71570000D02*
X256866000Y-70670000D01*
X255766000Y-72870000D02*
X256466000Y-72370000D01*
X255416000Y-72970000D02*
X255766000Y-72870000D01*
X255166000Y-72970000D02*
X255416000Y-72970000D01*
X230966000Y-69870000D02*
X230566000Y-70670000D01*
X231666000Y-69370000D02*
X230966000Y-69870000D01*
X232016000Y-69270000D02*
X231666000Y-69370000D01*
X232266000Y-69270000D02*
X232016000Y-69270000D01*
X231666000Y-72870000D02*
X232016000Y-72970000D01*
X230966000Y-72370000D02*
X231666000Y-72870000D01*
X230566000Y-71570000D02*
X230966000Y-72370000D01*
X230566000Y-70670000D02*
X230566000Y-71570000D01*
X232266000Y-72970000D02*
X232016000Y-72970000D01*
X232266000Y-69270000D02*
X232266000Y-66170000D01*
X232266000Y-72970000D02*
X232266000Y-76070000D01*
X255166000Y-72970000D02*
X255166000Y-76070000D01*
X255166000Y-76070000D02*
X232266000Y-76070000D01*
X232266000Y-66170000D02*
X255166000Y-66170000D01*
X255166000Y-66170000D02*
X255166000Y-69270000D01*
X259031000Y-133378000D02*
X262431000Y-133378000D01*
X262431000Y-133378000D02*
X262431000Y-136878000D01*
X262431000Y-136878000D02*
X259031000Y-136878000D01*
X259031000Y-136878000D02*
X259031000Y-133378000D01*
X251919000Y-133378000D02*
X255319000Y-133378000D01*
X255319000Y-133378000D02*
X255319000Y-136878000D01*
X255319000Y-136878000D02*
X251919000Y-136878000D01*
X251919000Y-136878000D02*
X251919000Y-133378000D01*
X244299000Y-133378000D02*
X247699000Y-133378000D01*
X247699000Y-133378000D02*
X247699000Y-136878000D01*
X247699000Y-136878000D02*
X244299000Y-136878000D01*
X244299000Y-136878000D02*
X244299000Y-133378000D01*
X236806000Y-133378000D02*
X240206000Y-133378000D01*
X240206000Y-133378000D02*
X240206000Y-136878000D01*
X240206000Y-136878000D02*
X236806000Y-136878000D01*
X236806000Y-136878000D02*
X236806000Y-133378000D01*
X229186000Y-133378000D02*
X232586000Y-133378000D01*
X232586000Y-133378000D02*
X232586000Y-136878000D01*
X232586000Y-136878000D02*
X229186000Y-136878000D01*
X229186000Y-136878000D02*
X229186000Y-133378000D01*
X221566000Y-133378000D02*
X224966000Y-133378000D01*
X224966000Y-133378000D02*
X224966000Y-136878000D01*
X224966000Y-136878000D02*
X221566000Y-136878000D01*
X221566000Y-136878000D02*
X221566000Y-133378000D01*
X213946000Y-133378000D02*
X217346000Y-133378000D01*
X217346000Y-133378000D02*
X217346000Y-136878000D01*
X217346000Y-136878000D02*
X213946000Y-136878000D01*
X213946000Y-136878000D02*
X213946000Y-133378000D01*
X213678000Y-39053000D02*
X219138000Y-39053000D01*
X213678000Y-39053000D02*
X213678000Y-43793000D01*
X219138000Y-43793000D02*
X219138000Y-39053000D01*
X219138000Y-43793000D02*
X213678000Y-43793000D01*
X258250000Y-132540000D02*
X263050000Y-132540000D01*
X263050000Y-132540000D02*
X263050000Y-121540000D01*
X263050000Y-121540000D02*
X258250000Y-121540000D01*
X258250000Y-121540000D02*
X258250000Y-132540000D01*
X250630000Y-132540000D02*
X255430000Y-132540000D01*
X255430000Y-132540000D02*
X255430000Y-121540000D01*
X255430000Y-121540000D02*
X250630000Y-121540000D01*
X250630000Y-121540000D02*
X250630000Y-132540000D01*
X243010000Y-132540000D02*
X247810000Y-132540000D01*
X247810000Y-132540000D02*
X247810000Y-121540000D01*
X247810000Y-121540000D02*
X243010000Y-121540000D01*
X243010000Y-121540000D02*
X243010000Y-132540000D01*
X235390000Y-132540000D02*
X240190000Y-132540000D01*
X240190000Y-132540000D02*
X240190000Y-121540000D01*
X240190000Y-121540000D02*
X235390000Y-121540000D01*
X235390000Y-121540000D02*
X235390000Y-132540000D01*
X227770000Y-132540000D02*
X232570000Y-132540000D01*
X232570000Y-132540000D02*
X232570000Y-121540000D01*
X232570000Y-121540000D02*
X227770000Y-121540000D01*
X227770000Y-121540000D02*
X227770000Y-132540000D01*
X212530000Y-132540000D02*
X217330000Y-132540000D01*
X217330000Y-132540000D02*
X217330000Y-121540000D01*
X217330000Y-121540000D02*
X212530000Y-121540000D01*
X212530000Y-121540000D02*
X212530000Y-132540000D01*
X258250000Y-116030000D02*
X263050000Y-116030000D01*
X263050000Y-116030000D02*
X263050000Y-107530000D01*
X263050000Y-107530000D02*
X258250000Y-107530000D01*
X258250000Y-107530000D02*
X258250000Y-116030000D01*
X250630000Y-116030000D02*
X255430000Y-116030000D01*
X255430000Y-116030000D02*
X255430000Y-107530000D01*
X255430000Y-107530000D02*
X250630000Y-107530000D01*
X250630000Y-107530000D02*
X250630000Y-116030000D01*
X243010000Y-116030000D02*
X247810000Y-116030000D01*
X247810000Y-116030000D02*
X247810000Y-107530000D01*
X247810000Y-107530000D02*
X243010000Y-107530000D01*
X243010000Y-107530000D02*
X243010000Y-116030000D01*
X235390000Y-116030000D02*
X240190000Y-116030000D01*
X240190000Y-116030000D02*
X240190000Y-107530000D01*
X240190000Y-107530000D02*
X235390000Y-107530000D01*
X235390000Y-107530000D02*
X235390000Y-116030000D01*
X227770000Y-116030000D02*
X232570000Y-116030000D01*
X232570000Y-116030000D02*
X232570000Y-107530000D01*
X232570000Y-107530000D02*
X227770000Y-107530000D01*
X227770000Y-107530000D02*
X227770000Y-116030000D01*
X220150000Y-116030000D02*
X224950000Y-116030000D01*
X224950000Y-116030000D02*
X224950000Y-107530000D01*
X224950000Y-107530000D02*
X220150000Y-107530000D01*
X220150000Y-107530000D02*
X220150000Y-116030000D01*
X212530000Y-116030000D02*
X217330000Y-116030000D01*
X217330000Y-116030000D02*
X217330000Y-107530000D01*
X217330000Y-107530000D02*
X212530000Y-107530000D01*
X212530000Y-107530000D02*
X212530000Y-116030000D01*
X212168000Y-106652000D02*
X212168000Y-103152000D01*
X215568000Y-106652000D02*
X212168000Y-106652000D01*
X215568000Y-103152000D02*
X215568000Y-106652000D01*
X212168000Y-103152000D02*
X215568000Y-103152000D01*
X219534000Y-103152000D02*
X222934000Y-103152000D01*
X222934000Y-103152000D02*
X222934000Y-106652000D01*
X222934000Y-106652000D02*
X219534000Y-106652000D01*
X219534000Y-106652000D02*
X219534000Y-103152000D01*
X227154000Y-106652000D02*
X227154000Y-103152000D01*
X230554000Y-106652000D02*
X227154000Y-106652000D01*
X230554000Y-103152000D02*
X230554000Y-106652000D01*
X227154000Y-103152000D02*
X230554000Y-103152000D01*
X235028000Y-106652000D02*
X235028000Y-103152000D01*
X238428000Y-106652000D02*
X235028000Y-106652000D01*
X238428000Y-103152000D02*
X238428000Y-106652000D01*
X235028000Y-103152000D02*
X238428000Y-103152000D01*
X242648000Y-103152000D02*
X246048000Y-103152000D01*
X246048000Y-103152000D02*
X246048000Y-106652000D01*
X246048000Y-106652000D02*
X242648000Y-106652000D01*
X242648000Y-106652000D02*
X242648000Y-103152000D01*
X250522000Y-103152000D02*
X253922000Y-103152000D01*
X253922000Y-103152000D02*
X253922000Y-106652000D01*
X253922000Y-106652000D02*
X250522000Y-106652000D01*
X250522000Y-106652000D02*
X250522000Y-103152000D01*
X257888000Y-103152000D02*
X261288000Y-103152000D01*
X261288000Y-103152000D02*
X261288000Y-106652000D01*
X261288000Y-106652000D02*
X257888000Y-106652000D01*
X257888000Y-106652000D02*
X257888000Y-103152000D01*
X190332000Y-115668000D02*
X170112000Y-115668000D01*
X190332000Y-115668000D02*
X190332000Y-96168000D01*
X170112000Y-96168000D02*
X190332000Y-96168000D01*
X158832000Y-120168000D02*
X158832000Y-91668000D01*
X158832000Y-120168000D02*
X170112000Y-120168000D01*
X158832000Y-91668000D02*
X170112000Y-91668000D01*
X170112000Y-120168000D02*
X170112000Y-115668000D01*
X170112000Y-96168000D02*
X170112000Y-91668000D01*
M02*
