M48
; DRILL file {KiCad 7.0.8} date Thu 26 Oct 2023 11:06:57 PM CEST
; FORMAT={-:-/ absolute / inch / decimal}
; #@! TF.CreationDate,2023-10-26T23:06:57+02:00
; #@! TF.GenerationSoftware,Kicad,Pcbnew,7.0.8
; #@! TF.FileFunction,Plated,1,4,PTH
FMAT,2
INCH
; #@! TA.AperFunction,Plated,PTH,ComponentDrill
T1C0.0079
; #@! TA.AperFunction,Plated,PTH,ViaDrill
T2C0.0157
; #@! TA.AperFunction,Plated,PTH,ComponentDrill
T3C0.0315
; #@! TA.AperFunction,Plated,PTH,ComponentDrill
T4C0.0374
; #@! TA.AperFunction,Plated,PTH,ComponentDrill
T5C0.0394
; #@! TA.AperFunction,Plated,PTH,ComponentDrill
T6C0.0512
; #@! TA.AperFunction,Plated,PTH,ComponentDrill
T7C0.0709
; #@! TA.AperFunction,Plated,PTH,ViaDrill
T8C0.1181
%
G90
G05
T1
X6.9913Y-2.2592
X6.9913Y-2.3192
X7.0214Y-2.2291
X7.0214Y-2.2892
X7.0214Y-2.3492
X7.0514Y-2.2592
X7.0514Y-2.3192
X7.0814Y-2.2291
X7.0814Y-2.2892
X7.0814Y-2.3492
X7.1114Y-2.2592
X7.1114Y-2.3192
T2
X6.7624Y-2.2941
X6.7945Y-2.7665
X6.7965Y-4.9634
X6.8102Y-2.6091
X6.8614Y-2.6091
X6.885Y-4.6957
X6.889Y-5.0657
X6.9047Y-3.0106
X6.9165Y-2.6091
X6.9441Y-4.6898
X6.9598Y-2.0343
X6.9638Y-2.6051
X6.9756Y-2.735
X6.9835Y-3.6878
X7.0071Y-1.7705
X7.0075Y-4.6606
X7.011Y-2.6051
X7.0602Y-5.1839
X7.0937Y-3.8768
X7.0937Y-4.2469
X7.0937Y-4.6602
X7.0996Y-3.2252
X7.1016Y-3.0579
X7.1134Y-2.6051
X7.137Y-2.4791
X7.1409Y-3.0579
X7.1488Y-2.8807
X7.1488Y-3.2252
X7.1488Y-3.8256
X7.1488Y-3.9339
X7.1488Y-4.239
X7.1488Y-4.3571
X7.1488Y-4.7665
X7.1587Y-4.6524
X7.1646Y-2.6051
X7.1783Y-2.8413
X7.1843Y-2.4791
X7.1882Y-1.672
X7.198Y-3.5402
X7.2039Y-2.8846
X7.2079Y-3.2154
X7.2472Y-2.8807
X7.263Y-2.0421
X7.263Y-2.4476
X7.2669Y-3.2803
X7.2787Y-3.9634
X7.2787Y-3.5303
X7.2787Y-3.5795
X7.2787Y-3.6287
X7.2805Y-4.3758
X7.2843Y-4.7877
X7.2965Y-2.8807
X7.2984Y-2.5815
X7.3142Y-2.0421
X7.322Y-1.8374
X7.324Y-3.2252
X7.3555Y-2.8807
X7.3614Y-1.9004
X7.4047Y-2.8807
X7.4087Y-2.5933
X7.4205Y-4.3217
X7.4244Y-3.9043
X7.4323Y-4.7035
X7.4638Y-5.1839
X7.5031Y-3.7961
X7.5071Y-4.2075
X7.5071Y-4.6327
X7.5216Y-2.8223
X7.5327Y-3.8256
X7.5389Y-4.7678
X7.5396Y-4.2488
X7.5445Y-4.3472
X7.5465Y-3.9437
X7.5524Y-4.6524
X7.572Y-2.8807
X7.572Y-3.2055
X7.5829Y-3.5014
X7.6213Y-3.0283
X7.6213Y-3.2055
X7.6252Y-1.6645
X7.6646Y-3.9535
X7.6705Y-2.8768
X7.6742Y-4.3758
X7.6764Y-2.798
X7.6764Y-4.7902
X7.6902Y-3.5205
X7.6902Y-3.5697
X7.6902Y-3.6189
X7.7138Y-3.048
X7.7197Y-3.2055
X7.7536Y-2.4063
X7.763Y-2.6839
X7.763Y-2.7331
X7.7689Y-3.0185
X7.7709Y-3.302
X7.7984Y-3.4614
X7.8122Y-3.9043
X7.826Y-4.7193
X7.828Y-4.3079
X7.8575Y-2.8217
X7.8575Y-5.1839
X7.887Y-3.7961
X7.8988Y-4.2094
X7.9008Y-4.6327
X7.9047Y-3.0283
X7.934Y-3.9481
X7.9342Y-4.3592
X7.9342Y-3.4358
X7.9362Y-3.2232
X7.9362Y-4.2488
X7.9362Y-4.6524
X7.9362Y-4.7705
X7.9445Y-3.8338
X7.947Y-2.5844
X7.9756Y-2.0657
X7.9854Y-3.0382
X7.9953Y-3.1268
X8.0071Y-2.2508
X8.0346Y-2.861
X8.0346Y-3.0185
X8.0346Y-3.2055
X8.0681Y-3.9549
X8.0681Y-4.3669
X8.0701Y-2.2744
X8.0728Y-4.7862
X8.074Y-2.861
X8.0839Y-3.3039
X8.0937Y-3.2055
X8.0937Y-3.5106
X8.0937Y-3.5598
X8.0937Y-3.6091
X8.1232Y-2.861
X8.1331Y-1.987
X8.1724Y-2.4713
X8.1724Y-2.6484
X8.1823Y-2.7232
X8.1843Y-2.2862
X8.1843Y-2.3256
X8.1882Y-3.4516
X8.1921Y-3.2055
X8.2039Y-1.6917
X8.214Y-4.7016
X8.2157Y-4.3177
X8.2217Y-3.9043
X8.2276Y-3.4516
X8.2413Y-2.6445
X8.2512Y-2.7724
X8.2512Y-5.1839
X8.2807Y-3.0776
X8.2807Y-4.2094
X8.2807Y-4.9742
X8.2827Y-2.861
X8.2906Y-3.7941
X8.3004Y-4.6228
X8.3102Y-2.7823
X8.3299Y-3.9339
X8.3299Y-4.2488
X8.3339Y-4.6524
X8.3398Y-2.8709
X8.3398Y-3.8256
X8.3398Y-4.3472
X8.3398Y-4.7606
X8.3594Y-3.0185
X8.3653Y-3.5303
X8.4087Y-3.3217
X8.4185Y-2.9076
X8.4264Y-3.6066
X8.448Y-2.8512
X8.4621Y-4.7806
X8.4717Y-3.9476
X8.4717Y-4.3733
X8.4972Y-3.5106
X8.4972Y-3.5598
X8.5169Y-2.8709
X8.5169Y-3.2154
X8.5248Y-2.2961
X8.5465Y-2.5844
X8.5563Y-3.2941
X8.5661Y-3.054
X8.5661Y-3.2154
X8.5661Y-3.4909
X8.6094Y-4.3177
X8.6094Y-4.7311
X8.6134Y-2.861
X8.6154Y-3.9043
X8.6449Y-5.1839
X8.6646Y-2.8709
X8.6646Y-3.2311
X8.6725Y-2.7528
X8.6843Y-3.7941
X8.6843Y-4.2075
X8.6843Y-4.6209
X8.6843Y-4.9772
X8.6843Y-5.0264
X8.7138Y-2.674
X8.7236Y-2.7921
X8.7236Y-3.8256
X8.7236Y-3.9437
X8.7236Y-4.2331
X8.7236Y-4.3472
X8.7236Y-4.6622
X8.7374Y-4.7705
X8.7531Y-2.7528
X8.7531Y-3.0776
X8.7532Y-3.2941
X8.7728Y-3.5106
X8.7787Y-2.8413
X8.8024Y-2.8709
X8.822Y-3.6341
X8.8417Y-2.6543
X8.8597Y-3.0464
X8.8597Y-4.7854
X8.8612Y-3.9534
X8.8713Y-2.5844
X8.8713Y-2.8413
X8.8713Y-4.3768
X8.8752Y-3.4732
X8.8853Y-3.3138
X8.9008Y-2.989
X8.9008Y-3.5106
X8.9008Y-3.6091
X8.9205Y-3.2055
X8.9303Y-2.8413
X8.9303Y-3.1465
X8.9402Y-2.8906
X8.95Y-3.2941
X8.9598Y-3.5106
X8.9677Y-2.7473
X8.9894Y-3.054
X8.9894Y-3.2311
X9.0031Y-3.9043
X9.0031Y-4.7311
X9.0071Y-4.3177
X9.0091Y-2.8709
X9.0386Y-2.8315
X9.0386Y-3.2311
X9.0386Y-5.1839
X9.0583Y-3.048
X9.0681Y-4.6228
X9.0764Y-4.9767
X9.078Y-2.8118
X9.078Y-3.7862
X9.078Y-4.2094
X9.0878Y-2.8709
X9.1075Y-3.2843
X9.1151Y-3.9481
X9.1173Y-4.239
X9.1173Y-4.3571
X9.1173Y-4.6524
X9.1173Y-4.7606
X9.1252Y-1.987
X9.1272Y-3.8354
X9.137Y-3.2154
X9.1469Y-2.7823
X9.1567Y-3.2941
X9.1587Y-2.1346
X9.1646Y-3.0188
X9.1665Y-2.861
X9.1665Y-3.5106
X9.2157Y-2.861
X9.2354Y-3.2311
X9.2551Y-2.861
X9.2551Y-3.0185
X9.2589Y-4.7892
X9.2634Y-4.3729
X9.265Y-3.4319
X9.265Y-3.9535
X9.2748Y-2.5844
X9.2748Y-3.3039
X9.2748Y-3.5067
X9.2748Y-3.6091
X9.2945Y-2.861
X9.3142Y-2.6445
X9.3142Y-3.0283
X9.3142Y-3.5106
X9.3339Y-3.2154
X9.3535Y-3.3039
X9.3535Y-3.5106
X9.3634Y-2.674
X9.3634Y-3.048
X9.3752Y-4.977
X9.3929Y-5.0264
X9.3968Y-3.9043
X9.3968Y-4.7311
X9.3969Y-2.0894
X9.4047Y-2.1642
X9.4047Y-4.3177
X9.4126Y-2.8531
X9.4224Y-3.048
X9.4323Y-5.1839
X9.452Y-3.1268
X9.4618Y-2.7528
X9.4618Y-4.9772
X9.4717Y-2.9594
X9.4717Y-3.7862
X9.4717Y-4.6209
X9.4815Y-4.2075
X9.5012Y-2.7626
X9.5031Y-2.6563
X9.511Y-4.6524
X9.5179Y-3.8256
X9.5189Y-2.489
X9.5209Y-3.9437
X9.5209Y-4.2488
X9.5209Y-4.3571
X9.5209Y-4.7705
X9.5406Y-2.922
X9.5429Y-3.0457
X9.5504Y-3.3039
X9.5602Y-3.5106
X9.5996Y-2.5844
X9.6449Y-2.9791
X9.6469Y-3.048
X9.6476Y-4.7862
X9.6488Y-2.7823
X9.6488Y-2.8906
X9.6488Y-3.9634
X9.6488Y-4.3669
X9.6547Y-3.5396
X9.6587Y-3.422
X9.6764Y-2.0815
X9.6783Y-3.5106
X9.6783Y-3.6091
X9.6921Y-2.4909
X9.6921Y-2.6563
X9.698Y-3.0579
X9.7157Y-2.9169
X9.7276Y-2.6937
X9.7374Y-2.9791
X9.7472Y-2.7626
X9.7472Y-3.3039
X9.7571Y-3.5106
X9.7709Y-2.9555
X9.7768Y-2.3591
X9.7905Y-4.7311
X9.7965Y-3.9043
X9.7965Y-4.3177
X9.826Y-5.1839
X9.8358Y-2.7626
X9.8555Y-4.6327
X9.8575Y-3.0273
X9.8732Y-3.7823
X9.8752Y-2.7626
X9.8752Y-2.8315
X9.8752Y-4.2094
X9.8897Y-2.797
X9.9047Y-4.6563
X9.9047Y-4.7587
X9.9126Y-4.239
X9.913Y-2.7622
X9.9185Y-3.9398
X9.9185Y-4.3492
X9.9185Y-3.8217
X9.9288Y-3.5161
X9.9421Y-1.8472
X9.9441Y-3.3039
X10.0217Y-2.1087
X10.0327Y-3.6248
X10.0413Y-4.7862
X10.0425Y-3.5008
X10.0524Y-2.7035
X10.0533Y-2.1287
X10.0543Y-3.5539
X10.0571Y-3.3583
X10.0587Y-3.0894
X10.0622Y-3.9555
X10.0646Y-4.3674
X10.1016Y-1.8925
X10.1213Y-3.6287
X10.1445Y-4.9118
X10.1449Y-1.8925
X10.1842Y-4.7311
X10.1902Y-3.9043
X10.1902Y-4.3177
X10.202Y-2.1248
X10.3181Y-3.6091
X10.3378Y-4.9378
X10.3417Y-2.5441
X10.3575Y-2.7921
X10.4711Y-2.2941
T3
X7.0654Y-1.6823
X7.0654Y-1.7823
X7.3654Y-1.6823
X7.3654Y-1.7823
X8.385Y-2.5067
X8.385Y-2.5854
X8.6331Y-1.7232
X8.6331Y-1.802
X9.4953Y-1.6935
X9.4953Y-1.7722
X9.9244Y-2.1295
X9.9244Y-2.2295
X9.9244Y-2.3295
T4
X6.7945Y-3.8256
X6.7945Y-3.924
X6.7945Y-4.0224
T5
X6.7945Y-3.2252
X6.7945Y-3.3252
X6.7945Y-3.4252
X10.4559Y-4.4161
X10.4559Y-4.5161
X10.4559Y-4.6161
X10.4559Y-4.7161
X10.4559Y-4.8161
X10.4559Y-4.9161
X10.4559Y-5.0161
T6
X7.1685Y-5.2982
X7.3654Y-5.2982
X7.5622Y-5.2982
X7.7591Y-5.2982
X7.9559Y-5.2982
X8.1528Y-5.2982
X8.3496Y-5.2982
X8.5465Y-5.2982
X8.7433Y-5.2982
X8.9402Y-5.2982
X9.137Y-5.2982
X9.3339Y-5.2982
X9.5307Y-5.2982
X9.7276Y-5.2982
X9.9244Y-5.2982
X10.1213Y-5.2982
X10.3772Y-2.9043
X10.3772Y-3.1012
X10.3772Y-3.298
X10.3772Y-3.4949
T7
X7.8299Y-1.7508
X7.8299Y-1.9476
X9.7354Y-1.735
X9.7354Y-1.9319
X10.4047Y-3.9634
X10.4047Y-4.1602
T8
X6.85Y-5.34
X6.8575Y-1.7587
X10.45Y-1.75
X10.45Y-5.34
T0
M30
