G04 #@! TF.GenerationSoftware,KiCad,Pcbnew,5.1.10*
G04 #@! TF.CreationDate,2021-06-10T23:09:58+02:00*
G04 #@! TF.ProjectId,PlantCtrlESP32,506c616e-7443-4747-926c-45535033322e,rev?*
G04 #@! TF.SameCoordinates,Original*
G04 #@! TF.FileFunction,Other,Fab,Bot*
%FSLAX46Y46*%
G04 Gerber Fmt 4.6, Leading zero omitted, Abs format (unit mm)*
G04 Created by KiCad (PCBNEW 5.1.10) date 2021-06-10 23:09:58*
%MOMM*%
%LPD*%
G01*
G04 APERTURE LIST*
%ADD10C,0.100000*%
%ADD11C,0.150000*%
G04 APERTURE END LIST*
D10*
X226110800Y-62614800D02*
X226735800Y-63614800D01*
X225485800Y-63614800D02*
X226110800Y-62614800D01*
X231060800Y-63614800D02*
X223660800Y-63614800D01*
X231060800Y-57864800D02*
X231060800Y-63614800D01*
X223660800Y-57864800D02*
X231060800Y-57864800D01*
X223660800Y-63614800D02*
X223660800Y-57864800D01*
D11*
X235812057Y-62843514D02*
X235764438Y-62891133D01*
X235716819Y-63033990D01*
X235716819Y-63129228D01*
X235764438Y-63272085D01*
X235859676Y-63367323D01*
X235954914Y-63414942D01*
X236145390Y-63462561D01*
X236288247Y-63462561D01*
X236478723Y-63414942D01*
X236573961Y-63367323D01*
X236669200Y-63272085D01*
X236716819Y-63129228D01*
X236716819Y-63033990D01*
X236669200Y-62891133D01*
X236621580Y-62843514D01*
X235716819Y-62272085D02*
X235764438Y-62367323D01*
X235812057Y-62414942D01*
X235907295Y-62462561D01*
X236193009Y-62462561D01*
X236288247Y-62414942D01*
X236335866Y-62367323D01*
X236383485Y-62272085D01*
X236383485Y-62129228D01*
X236335866Y-62033990D01*
X236288247Y-61986371D01*
X236193009Y-61938752D01*
X235907295Y-61938752D01*
X235812057Y-61986371D01*
X235764438Y-62033990D01*
X235716819Y-62129228D01*
X235716819Y-62272085D01*
X236383485Y-61510180D02*
X235716819Y-61510180D01*
X236288247Y-61510180D02*
X236335866Y-61462561D01*
X236383485Y-61367323D01*
X236383485Y-61224466D01*
X236335866Y-61129228D01*
X236240628Y-61081609D01*
X235716819Y-61081609D01*
X236383485Y-60605419D02*
X235716819Y-60605419D01*
X236288247Y-60605419D02*
X236335866Y-60557800D01*
X236383485Y-60462561D01*
X236383485Y-60319704D01*
X236335866Y-60224466D01*
X236240628Y-60176847D01*
X235716819Y-60176847D01*
X235621580Y-59938752D02*
X235621580Y-59176847D01*
X236716819Y-58748276D02*
X236716819Y-58653038D01*
X236669200Y-58557800D01*
X236621580Y-58510180D01*
X236526342Y-58462561D01*
X236335866Y-58414942D01*
X236097771Y-58414942D01*
X235907295Y-58462561D01*
X235812057Y-58510180D01*
X235764438Y-58557800D01*
X235716819Y-58653038D01*
X235716819Y-58748276D01*
X235764438Y-58843514D01*
X235812057Y-58891133D01*
X235907295Y-58938752D01*
X236097771Y-58986371D01*
X236335866Y-58986371D01*
X236526342Y-58938752D01*
X236621580Y-58891133D01*
X236669200Y-58843514D01*
X236716819Y-58748276D01*
X235716819Y-57462561D02*
X235716819Y-58033990D01*
X235716819Y-57748276D02*
X236716819Y-57748276D01*
X236573961Y-57843514D01*
X236478723Y-57938752D01*
X236431104Y-58033990D01*
X235716819Y-57129228D02*
X236383485Y-56605419D01*
X236383485Y-57129228D02*
X235716819Y-56605419D01*
X236716819Y-56033990D02*
X236716819Y-55938752D01*
X236669200Y-55843514D01*
X236621580Y-55795895D01*
X236526342Y-55748276D01*
X236335866Y-55700657D01*
X236097771Y-55700657D01*
X235907295Y-55748276D01*
X235812057Y-55795895D01*
X235764438Y-55843514D01*
X235716819Y-55938752D01*
X235716819Y-56033990D01*
X235764438Y-56129228D01*
X235812057Y-56176847D01*
X235907295Y-56224466D01*
X236097771Y-56272085D01*
X236335866Y-56272085D01*
X236526342Y-56224466D01*
X236621580Y-56176847D01*
X236669200Y-56129228D01*
X236716819Y-56033990D01*
X236621580Y-55319704D02*
X236669200Y-55272085D01*
X236716819Y-55176847D01*
X236716819Y-54938752D01*
X236669200Y-54843514D01*
X236621580Y-54795895D01*
X236526342Y-54748276D01*
X236431104Y-54748276D01*
X236288247Y-54795895D01*
X235716819Y-55367323D01*
X235716819Y-54748276D01*
X235621580Y-54557800D02*
X235621580Y-53795895D01*
X236240628Y-53224466D02*
X236240628Y-53557800D01*
X235716819Y-53557800D02*
X236716819Y-53557800D01*
X236716819Y-53081609D01*
X235764438Y-52319704D02*
X235716819Y-52414942D01*
X235716819Y-52605419D01*
X235764438Y-52700657D01*
X235859676Y-52748276D01*
X236240628Y-52748276D01*
X236335866Y-52700657D01*
X236383485Y-52605419D01*
X236383485Y-52414942D01*
X236335866Y-52319704D01*
X236240628Y-52272085D01*
X236145390Y-52272085D01*
X236050152Y-52748276D01*
X235716819Y-51843514D02*
X236383485Y-51843514D01*
X236288247Y-51843514D02*
X236335866Y-51795895D01*
X236383485Y-51700657D01*
X236383485Y-51557800D01*
X236335866Y-51462561D01*
X236240628Y-51414942D01*
X235716819Y-51414942D01*
X236240628Y-51414942D02*
X236335866Y-51367323D01*
X236383485Y-51272085D01*
X236383485Y-51129228D01*
X236335866Y-51033990D01*
X236240628Y-50986371D01*
X235716819Y-50986371D01*
X235716819Y-50081609D02*
X236240628Y-50081609D01*
X236335866Y-50129228D01*
X236383485Y-50224466D01*
X236383485Y-50414942D01*
X236335866Y-50510180D01*
X235764438Y-50081609D02*
X235716819Y-50176847D01*
X235716819Y-50414942D01*
X235764438Y-50510180D01*
X235859676Y-50557800D01*
X235954914Y-50557800D01*
X236050152Y-50510180D01*
X236097771Y-50414942D01*
X236097771Y-50176847D01*
X236145390Y-50081609D01*
X235716819Y-49462561D02*
X235764438Y-49557800D01*
X235859676Y-49605419D01*
X236716819Y-49605419D01*
X235764438Y-48700657D02*
X235716819Y-48795895D01*
X235716819Y-48986371D01*
X235764438Y-49081609D01*
X235859676Y-49129228D01*
X236240628Y-49129228D01*
X236335866Y-49081609D01*
X236383485Y-48986371D01*
X236383485Y-48795895D01*
X236335866Y-48700657D01*
X236240628Y-48653038D01*
X236145390Y-48653038D01*
X236050152Y-49129228D01*
X239526819Y-57486371D02*
X239526819Y-57962561D01*
X240526819Y-57962561D01*
X239526819Y-57153038D02*
X240526819Y-57153038D01*
X239526819Y-56676847D02*
X240526819Y-56676847D01*
X240526819Y-56295895D01*
X240479200Y-56200657D01*
X240431580Y-56153038D01*
X240336342Y-56105419D01*
X240193485Y-56105419D01*
X240098247Y-56153038D01*
X240050628Y-56200657D01*
X240003009Y-56295895D01*
X240003009Y-56676847D01*
X240526819Y-55486371D02*
X240526819Y-55295895D01*
X240479200Y-55200657D01*
X240383961Y-55105419D01*
X240193485Y-55057800D01*
X239860152Y-55057800D01*
X239669676Y-55105419D01*
X239574438Y-55200657D01*
X239526819Y-55295895D01*
X239526819Y-55486371D01*
X239574438Y-55581609D01*
X239669676Y-55676847D01*
X239860152Y-55724466D01*
X240193485Y-55724466D01*
X240383961Y-55676847D01*
X240479200Y-55581609D01*
X240526819Y-55486371D01*
X239526819Y-54105419D02*
X239526819Y-54676847D01*
X239526819Y-54391133D02*
X240526819Y-54391133D01*
X240383961Y-54486371D01*
X240288723Y-54581609D01*
X240241104Y-54676847D01*
X231098895Y-57021942D02*
X231146514Y-57069561D01*
X231289371Y-57117180D01*
X231384609Y-57117180D01*
X231527466Y-57069561D01*
X231622704Y-56974323D01*
X231670323Y-56879085D01*
X231717942Y-56688609D01*
X231717942Y-56545752D01*
X231670323Y-56355276D01*
X231622704Y-56260038D01*
X231527466Y-56164800D01*
X231384609Y-56117180D01*
X231289371Y-56117180D01*
X231146514Y-56164800D01*
X231098895Y-56212419D01*
X230527466Y-57117180D02*
X230622704Y-57069561D01*
X230670323Y-57021942D01*
X230717942Y-56926704D01*
X230717942Y-56640990D01*
X230670323Y-56545752D01*
X230622704Y-56498133D01*
X230527466Y-56450514D01*
X230384609Y-56450514D01*
X230289371Y-56498133D01*
X230241752Y-56545752D01*
X230194133Y-56640990D01*
X230194133Y-56926704D01*
X230241752Y-57021942D01*
X230289371Y-57069561D01*
X230384609Y-57117180D01*
X230527466Y-57117180D01*
X229765561Y-56450514D02*
X229765561Y-57117180D01*
X229765561Y-56545752D02*
X229717942Y-56498133D01*
X229622704Y-56450514D01*
X229479847Y-56450514D01*
X229384609Y-56498133D01*
X229336990Y-56593371D01*
X229336990Y-57117180D01*
X228860800Y-56450514D02*
X228860800Y-57117180D01*
X228860800Y-56545752D02*
X228813180Y-56498133D01*
X228717942Y-56450514D01*
X228575085Y-56450514D01*
X228479847Y-56498133D01*
X228432228Y-56593371D01*
X228432228Y-57117180D01*
X228194133Y-57212419D02*
X227432228Y-57212419D01*
X227003657Y-56117180D02*
X226908419Y-56117180D01*
X226813180Y-56164800D01*
X226765561Y-56212419D01*
X226717942Y-56307657D01*
X226670323Y-56498133D01*
X226670323Y-56736228D01*
X226717942Y-56926704D01*
X226765561Y-57021942D01*
X226813180Y-57069561D01*
X226908419Y-57117180D01*
X227003657Y-57117180D01*
X227098895Y-57069561D01*
X227146514Y-57021942D01*
X227194133Y-56926704D01*
X227241752Y-56736228D01*
X227241752Y-56498133D01*
X227194133Y-56307657D01*
X227146514Y-56212419D01*
X227098895Y-56164800D01*
X227003657Y-56117180D01*
X225717942Y-57117180D02*
X226289371Y-57117180D01*
X226003657Y-57117180D02*
X226003657Y-56117180D01*
X226098895Y-56260038D01*
X226194133Y-56355276D01*
X226289371Y-56402895D01*
X225384609Y-57117180D02*
X224860800Y-56450514D01*
X225384609Y-56450514D02*
X224860800Y-57117180D01*
X224289371Y-56117180D02*
X224194133Y-56117180D01*
X224098895Y-56164800D01*
X224051276Y-56212419D01*
X224003657Y-56307657D01*
X223956038Y-56498133D01*
X223956038Y-56736228D01*
X224003657Y-56926704D01*
X224051276Y-57021942D01*
X224098895Y-57069561D01*
X224194133Y-57117180D01*
X224289371Y-57117180D01*
X224384609Y-57069561D01*
X224432228Y-57021942D01*
X224479847Y-56926704D01*
X224527466Y-56736228D01*
X224527466Y-56498133D01*
X224479847Y-56307657D01*
X224432228Y-56212419D01*
X224384609Y-56164800D01*
X224289371Y-56117180D01*
X223575085Y-56212419D02*
X223527466Y-56164800D01*
X223432228Y-56117180D01*
X223194133Y-56117180D01*
X223098895Y-56164800D01*
X223051276Y-56212419D01*
X223003657Y-56307657D01*
X223003657Y-56402895D01*
X223051276Y-56545752D01*
X223622704Y-57117180D01*
X223003657Y-57117180D01*
X230860800Y-58493371D02*
X230527466Y-58493371D01*
X230384609Y-59017180D02*
X230860800Y-59017180D01*
X230860800Y-58017180D01*
X230384609Y-58017180D01*
X230051276Y-58017180D02*
X229384609Y-59017180D01*
X229384609Y-58017180D02*
X230051276Y-59017180D01*
X229146514Y-58017180D02*
X228575085Y-58017180D01*
X228860800Y-59017180D02*
X228860800Y-58017180D01*
X228479847Y-59112419D02*
X227717942Y-59112419D01*
X227479847Y-59017180D02*
X227479847Y-58017180D01*
X227098895Y-58017180D01*
X227003657Y-58064800D01*
X226956038Y-58112419D01*
X226908419Y-58207657D01*
X226908419Y-58350514D01*
X226956038Y-58445752D01*
X227003657Y-58493371D01*
X227098895Y-58540990D01*
X227479847Y-58540990D01*
X226575085Y-58017180D02*
X226336990Y-59017180D01*
X226146514Y-58302895D01*
X225956038Y-59017180D01*
X225717942Y-58017180D01*
X224765561Y-59017180D02*
X225098895Y-58540990D01*
X225336990Y-59017180D02*
X225336990Y-58017180D01*
X224956038Y-58017180D01*
X224860800Y-58064800D01*
X224813180Y-58112419D01*
X224765561Y-58207657D01*
X224765561Y-58350514D01*
X224813180Y-58445752D01*
X224860800Y-58493371D01*
X224956038Y-58540990D01*
X225336990Y-58540990D01*
X223813180Y-59017180D02*
X224384609Y-59017180D01*
X224098895Y-59017180D02*
X224098895Y-58017180D01*
X224194133Y-58160038D01*
X224289371Y-58255276D01*
X224384609Y-58302895D01*
M02*
