G04 #@! TF.GenerationSoftware,KiCad,Pcbnew,5.1.10*
G04 #@! TF.CreationDate,2021-06-10T23:09:58+02:00*
G04 #@! TF.ProjectId,PlantCtrlESP32,506c616e-7443-4747-926c-45535033322e,rev?*
G04 #@! TF.SameCoordinates,Original*
G04 #@! TF.FileFunction,OtherDrawing,Comment*
%FSLAX46Y46*%
G04 Gerber Fmt 4.6, Leading zero omitted, Abs format (unit mm)*
G04 Created by KiCad (PCBNEW 5.1.10) date 2021-06-10 23:09:58*
%MOMM*%
%LPD*%
G01*
G04 APERTURE LIST*
%ADD10C,0.100000*%
%ADD11C,0.150000*%
G04 APERTURE END LIST*
D10*
X169862000Y-119918000D02*
X159082000Y-119918000D01*
X169862000Y-91918000D02*
X169862000Y-119918000D01*
X169862000Y-91918000D02*
X159082000Y-91918000D01*
X159082000Y-91918000D02*
X159082000Y-119918000D01*
X159082000Y-118443000D02*
X160172000Y-119918000D01*
X159082000Y-116443000D02*
X161787000Y-119918000D01*
X159082000Y-114443000D02*
X163402000Y-119918000D01*
X159082000Y-112443000D02*
X165017000Y-119918000D01*
X159082000Y-110443000D02*
X166632000Y-119918000D01*
X159082000Y-108443000D02*
X168247000Y-119918000D01*
X159082000Y-106443000D02*
X169862000Y-119918000D01*
X159082000Y-104443000D02*
X169862000Y-117918000D01*
X159082000Y-102443000D02*
X169862000Y-115918000D01*
X169862000Y-113918000D02*
X159082000Y-100443000D01*
X159082000Y-98443000D02*
X169862000Y-111918000D01*
X159082000Y-96443000D02*
X169862000Y-109918000D01*
X159082000Y-94443000D02*
X169862000Y-107918000D01*
X159082000Y-92443000D02*
X169862000Y-105918000D01*
X160172000Y-91918000D02*
X169862000Y-103918000D01*
X161787000Y-91918000D02*
X169862000Y-101918000D01*
X163402000Y-91918000D02*
X169862000Y-99918000D01*
X165017000Y-91918000D02*
X169862000Y-97918000D01*
X166632000Y-91918000D02*
X169862000Y-95918000D01*
X168247000Y-91918000D02*
X169862000Y-93918000D01*
D11*
X260475480Y-68863421D02*
X260475480Y-68768183D01*
X260523100Y-68672945D01*
X260570719Y-68625326D01*
X260665957Y-68577707D01*
X260856433Y-68530088D01*
X261094528Y-68530088D01*
X261285004Y-68577707D01*
X261380242Y-68625326D01*
X261427861Y-68672945D01*
X261475480Y-68768183D01*
X261475480Y-68863421D01*
X261427861Y-68958659D01*
X261380242Y-69006278D01*
X261285004Y-69053897D01*
X261094528Y-69101516D01*
X260856433Y-69101516D01*
X260665957Y-69053897D01*
X260570719Y-69006278D01*
X260523100Y-68958659D01*
X260475480Y-68863421D01*
X261380242Y-68101516D02*
X261427861Y-68053897D01*
X261475480Y-68101516D01*
X261427861Y-68149135D01*
X261380242Y-68101516D01*
X261475480Y-68101516D01*
X260475480Y-67434850D02*
X260475480Y-67339611D01*
X260523100Y-67244373D01*
X260570719Y-67196754D01*
X260665957Y-67149135D01*
X260856433Y-67101516D01*
X261094528Y-67101516D01*
X261285004Y-67149135D01*
X261380242Y-67196754D01*
X261427861Y-67244373D01*
X261475480Y-67339611D01*
X261475480Y-67434850D01*
X261427861Y-67530088D01*
X261380242Y-67577707D01*
X261285004Y-67625326D01*
X261094528Y-67672945D01*
X260856433Y-67672945D01*
X260665957Y-67625326D01*
X260570719Y-67577707D01*
X260523100Y-67530088D01*
X260475480Y-67434850D01*
X260475480Y-66196754D02*
X260475480Y-66672945D01*
X260951671Y-66720564D01*
X260904052Y-66672945D01*
X260856433Y-66577707D01*
X260856433Y-66339611D01*
X260904052Y-66244373D01*
X260951671Y-66196754D01*
X261046909Y-66149135D01*
X261285004Y-66149135D01*
X261380242Y-66196754D01*
X261427861Y-66244373D01*
X261475480Y-66339611D01*
X261475480Y-66577707D01*
X261427861Y-66672945D01*
X261380242Y-66720564D01*
X260904052Y-65577707D02*
X260856433Y-65672945D01*
X260808814Y-65720564D01*
X260713576Y-65768183D01*
X260665957Y-65768183D01*
X260570719Y-65720564D01*
X260523100Y-65672945D01*
X260475480Y-65577707D01*
X260475480Y-65387230D01*
X260523100Y-65291992D01*
X260570719Y-65244373D01*
X260665957Y-65196754D01*
X260713576Y-65196754D01*
X260808814Y-65244373D01*
X260856433Y-65291992D01*
X260904052Y-65387230D01*
X260904052Y-65577707D01*
X260951671Y-65672945D01*
X260999290Y-65720564D01*
X261094528Y-65768183D01*
X261285004Y-65768183D01*
X261380242Y-65720564D01*
X261427861Y-65672945D01*
X261475480Y-65577707D01*
X261475480Y-65387230D01*
X261427861Y-65291992D01*
X261380242Y-65244373D01*
X261285004Y-65196754D01*
X261094528Y-65196754D01*
X260999290Y-65244373D01*
X260951671Y-65291992D01*
X260904052Y-65387230D01*
X261475480Y-64768183D02*
X260808814Y-64768183D01*
X260475480Y-64768183D02*
X260523100Y-64815802D01*
X260570719Y-64768183D01*
X260523100Y-64720564D01*
X260475480Y-64768183D01*
X260570719Y-64768183D01*
X260808814Y-64291992D02*
X261475480Y-64291992D01*
X260904052Y-64291992D02*
X260856433Y-64244373D01*
X260808814Y-64149135D01*
X260808814Y-64006278D01*
X260856433Y-63911040D01*
X260951671Y-63863421D01*
X261475480Y-63863421D01*
X260427861Y-62672945D02*
X261713576Y-63530088D01*
X261475480Y-61815802D02*
X261475480Y-62387230D01*
X261475480Y-62101516D02*
X260475480Y-62101516D01*
X260618338Y-62196754D01*
X260713576Y-62291992D01*
X260761195Y-62387230D01*
X261380242Y-61387230D02*
X261427861Y-61339611D01*
X261475480Y-61387230D01*
X261427861Y-61434850D01*
X261380242Y-61387230D01*
X261475480Y-61387230D01*
X260808814Y-60482469D02*
X261475480Y-60482469D01*
X260427861Y-60720564D02*
X261142147Y-60958659D01*
X261142147Y-60339611D01*
X260475480Y-59530088D02*
X260475480Y-59720564D01*
X260523100Y-59815802D01*
X260570719Y-59863421D01*
X260713576Y-59958659D01*
X260904052Y-60006278D01*
X261285004Y-60006278D01*
X261380242Y-59958659D01*
X261427861Y-59911040D01*
X261475480Y-59815802D01*
X261475480Y-59625326D01*
X261427861Y-59530088D01*
X261380242Y-59482469D01*
X261285004Y-59434850D01*
X261046909Y-59434850D01*
X260951671Y-59482469D01*
X260904052Y-59530088D01*
X260856433Y-59625326D01*
X260856433Y-59815802D01*
X260904052Y-59911040D01*
X260951671Y-59958659D01*
X261046909Y-60006278D01*
X261475480Y-59006278D02*
X260808814Y-59006278D01*
X260904052Y-59006278D02*
X260856433Y-58958659D01*
X260808814Y-58863421D01*
X260808814Y-58720564D01*
X260856433Y-58625326D01*
X260951671Y-58577707D01*
X261475480Y-58577707D01*
X260951671Y-58577707D02*
X260856433Y-58530088D01*
X260808814Y-58434850D01*
X260808814Y-58291992D01*
X260856433Y-58196754D01*
X260951671Y-58149135D01*
X261475480Y-58149135D01*
X261475480Y-57672945D02*
X260808814Y-57672945D01*
X260904052Y-57672945D02*
X260856433Y-57625326D01*
X260808814Y-57530088D01*
X260808814Y-57387230D01*
X260856433Y-57291992D01*
X260951671Y-57244373D01*
X261475480Y-57244373D01*
X260951671Y-57244373D02*
X260856433Y-57196754D01*
X260808814Y-57101516D01*
X260808814Y-56958659D01*
X260856433Y-56863421D01*
X260951671Y-56815802D01*
X261475480Y-56815802D01*
X270305280Y-72063761D02*
X270305280Y-71968523D01*
X270352900Y-71873285D01*
X270400519Y-71825666D01*
X270495757Y-71778047D01*
X270686233Y-71730428D01*
X270924328Y-71730428D01*
X271114804Y-71778047D01*
X271210042Y-71825666D01*
X271257661Y-71873285D01*
X271305280Y-71968523D01*
X271305280Y-72063761D01*
X271257661Y-72159000D01*
X271210042Y-72206619D01*
X271114804Y-72254238D01*
X270924328Y-72301857D01*
X270686233Y-72301857D01*
X270495757Y-72254238D01*
X270400519Y-72206619D01*
X270352900Y-72159000D01*
X270305280Y-72063761D01*
X271210042Y-71301857D02*
X271257661Y-71254238D01*
X271305280Y-71301857D01*
X271257661Y-71349476D01*
X271210042Y-71301857D01*
X271305280Y-71301857D01*
X270400519Y-70873285D02*
X270352900Y-70825666D01*
X270305280Y-70730428D01*
X270305280Y-70492333D01*
X270352900Y-70397095D01*
X270400519Y-70349476D01*
X270495757Y-70301857D01*
X270590995Y-70301857D01*
X270733852Y-70349476D01*
X271305280Y-70920904D01*
X271305280Y-70301857D01*
X271305280Y-69349476D02*
X271305280Y-69920904D01*
X271305280Y-69635190D02*
X270305280Y-69635190D01*
X270448138Y-69730428D01*
X270543376Y-69825666D01*
X270590995Y-69920904D01*
X270638614Y-68492333D02*
X271305280Y-68492333D01*
X270257661Y-68730428D02*
X270971947Y-68968523D01*
X270971947Y-68349476D01*
X271305280Y-67968523D02*
X270638614Y-67968523D01*
X270305280Y-67968523D02*
X270352900Y-68016142D01*
X270400519Y-67968523D01*
X270352900Y-67920904D01*
X270305280Y-67968523D01*
X270400519Y-67968523D01*
X270638614Y-67492333D02*
X271305280Y-67492333D01*
X270733852Y-67492333D02*
X270686233Y-67444714D01*
X270638614Y-67349476D01*
X270638614Y-67206619D01*
X270686233Y-67111380D01*
X270781471Y-67063761D01*
X271305280Y-67063761D01*
X270257661Y-65873285D02*
X271543376Y-66730428D01*
X270305280Y-65063761D02*
X270305280Y-65539952D01*
X270781471Y-65587571D01*
X270733852Y-65539952D01*
X270686233Y-65444714D01*
X270686233Y-65206619D01*
X270733852Y-65111380D01*
X270781471Y-65063761D01*
X270876709Y-65016142D01*
X271114804Y-65016142D01*
X271210042Y-65063761D01*
X271257661Y-65111380D01*
X271305280Y-65206619D01*
X271305280Y-65444714D01*
X271257661Y-65539952D01*
X271210042Y-65587571D01*
X271210042Y-64587571D02*
X271257661Y-64539952D01*
X271305280Y-64587571D01*
X271257661Y-64635190D01*
X271210042Y-64587571D01*
X271305280Y-64587571D01*
X270638614Y-63682809D02*
X271305280Y-63682809D01*
X270257661Y-63920904D02*
X270971947Y-64159000D01*
X270971947Y-63539952D01*
X270638614Y-62730428D02*
X271305280Y-62730428D01*
X270257661Y-62968523D02*
X270971947Y-63206619D01*
X270971947Y-62587571D01*
X270733852Y-62063761D02*
X270686233Y-62159000D01*
X270638614Y-62206619D01*
X270543376Y-62254238D01*
X270495757Y-62254238D01*
X270400519Y-62206619D01*
X270352900Y-62159000D01*
X270305280Y-62063761D01*
X270305280Y-61873285D01*
X270352900Y-61778047D01*
X270400519Y-61730428D01*
X270495757Y-61682809D01*
X270543376Y-61682809D01*
X270638614Y-61730428D01*
X270686233Y-61778047D01*
X270733852Y-61873285D01*
X270733852Y-62063761D01*
X270781471Y-62159000D01*
X270829090Y-62206619D01*
X270924328Y-62254238D01*
X271114804Y-62254238D01*
X271210042Y-62206619D01*
X271257661Y-62159000D01*
X271305280Y-62063761D01*
X271305280Y-61873285D01*
X271257661Y-61778047D01*
X271210042Y-61730428D01*
X271114804Y-61682809D01*
X270924328Y-61682809D01*
X270829090Y-61730428D01*
X270781471Y-61778047D01*
X270733852Y-61873285D01*
X271305280Y-61254238D02*
X270638614Y-61254238D01*
X270733852Y-61254238D02*
X270686233Y-61206619D01*
X270638614Y-61111380D01*
X270638614Y-60968523D01*
X270686233Y-60873285D01*
X270781471Y-60825666D01*
X271305280Y-60825666D01*
X270781471Y-60825666D02*
X270686233Y-60778047D01*
X270638614Y-60682809D01*
X270638614Y-60539952D01*
X270686233Y-60444714D01*
X270781471Y-60397095D01*
X271305280Y-60397095D01*
X271305280Y-59920904D02*
X270638614Y-59920904D01*
X270733852Y-59920904D02*
X270686233Y-59873285D01*
X270638614Y-59778047D01*
X270638614Y-59635190D01*
X270686233Y-59539952D01*
X270781471Y-59492333D01*
X271305280Y-59492333D01*
X270781471Y-59492333D02*
X270686233Y-59444714D01*
X270638614Y-59349476D01*
X270638614Y-59206619D01*
X270686233Y-59111380D01*
X270781471Y-59063761D01*
X271305280Y-59063761D01*
X267295380Y-77835911D02*
X267295380Y-77740673D01*
X267343000Y-77645435D01*
X267390619Y-77597816D01*
X267485857Y-77550197D01*
X267676333Y-77502578D01*
X267914428Y-77502578D01*
X268104904Y-77550197D01*
X268200142Y-77597816D01*
X268247761Y-77645435D01*
X268295380Y-77740673D01*
X268295380Y-77835911D01*
X268247761Y-77931150D01*
X268200142Y-77978769D01*
X268104904Y-78026388D01*
X267914428Y-78074007D01*
X267676333Y-78074007D01*
X267485857Y-78026388D01*
X267390619Y-77978769D01*
X267343000Y-77931150D01*
X267295380Y-77835911D01*
X268200142Y-77074007D02*
X268247761Y-77026388D01*
X268295380Y-77074007D01*
X268247761Y-77121626D01*
X268200142Y-77074007D01*
X268295380Y-77074007D01*
X267295380Y-76407340D02*
X267295380Y-76312102D01*
X267343000Y-76216864D01*
X267390619Y-76169245D01*
X267485857Y-76121626D01*
X267676333Y-76074007D01*
X267914428Y-76074007D01*
X268104904Y-76121626D01*
X268200142Y-76169245D01*
X268247761Y-76216864D01*
X268295380Y-76312102D01*
X268295380Y-76407340D01*
X268247761Y-76502578D01*
X268200142Y-76550197D01*
X268104904Y-76597816D01*
X267914428Y-76645435D01*
X267676333Y-76645435D01*
X267485857Y-76597816D01*
X267390619Y-76550197D01*
X267343000Y-76502578D01*
X267295380Y-76407340D01*
X267390619Y-75693054D02*
X267343000Y-75645435D01*
X267295380Y-75550197D01*
X267295380Y-75312102D01*
X267343000Y-75216864D01*
X267390619Y-75169245D01*
X267485857Y-75121626D01*
X267581095Y-75121626D01*
X267723952Y-75169245D01*
X268295380Y-75740673D01*
X268295380Y-75121626D01*
X268295380Y-74169245D02*
X268295380Y-74740673D01*
X268295380Y-74454959D02*
X267295380Y-74454959D01*
X267438238Y-74550197D01*
X267533476Y-74645435D01*
X267581095Y-74740673D01*
X268295380Y-73740673D02*
X267628714Y-73740673D01*
X267295380Y-73740673D02*
X267343000Y-73788292D01*
X267390619Y-73740673D01*
X267343000Y-73693054D01*
X267295380Y-73740673D01*
X267390619Y-73740673D01*
X267628714Y-73264483D02*
X268295380Y-73264483D01*
X267723952Y-73264483D02*
X267676333Y-73216864D01*
X267628714Y-73121626D01*
X267628714Y-72978769D01*
X267676333Y-72883530D01*
X267771571Y-72835911D01*
X268295380Y-72835911D01*
X267247761Y-71645435D02*
X268533476Y-72502578D01*
X267295380Y-71121626D02*
X267295380Y-71026388D01*
X267343000Y-70931150D01*
X267390619Y-70883530D01*
X267485857Y-70835911D01*
X267676333Y-70788292D01*
X267914428Y-70788292D01*
X268104904Y-70835911D01*
X268200142Y-70883530D01*
X268247761Y-70931150D01*
X268295380Y-71026388D01*
X268295380Y-71121626D01*
X268247761Y-71216864D01*
X268200142Y-71264483D01*
X268104904Y-71312102D01*
X267914428Y-71359721D01*
X267676333Y-71359721D01*
X267485857Y-71312102D01*
X267390619Y-71264483D01*
X267343000Y-71216864D01*
X267295380Y-71121626D01*
X268200142Y-70359721D02*
X268247761Y-70312102D01*
X268295380Y-70359721D01*
X268247761Y-70407340D01*
X268200142Y-70359721D01*
X268295380Y-70359721D01*
X267295380Y-69407340D02*
X267295380Y-69883530D01*
X267771571Y-69931150D01*
X267723952Y-69883530D01*
X267676333Y-69788292D01*
X267676333Y-69550197D01*
X267723952Y-69454959D01*
X267771571Y-69407340D01*
X267866809Y-69359721D01*
X268104904Y-69359721D01*
X268200142Y-69407340D01*
X268247761Y-69454959D01*
X268295380Y-69550197D01*
X268295380Y-69788292D01*
X268247761Y-69883530D01*
X268200142Y-69931150D01*
X267295380Y-69026388D02*
X267295380Y-68407340D01*
X267676333Y-68740673D01*
X267676333Y-68597816D01*
X267723952Y-68502578D01*
X267771571Y-68454959D01*
X267866809Y-68407340D01*
X268104904Y-68407340D01*
X268200142Y-68454959D01*
X268247761Y-68502578D01*
X268295380Y-68597816D01*
X268295380Y-68883530D01*
X268247761Y-68978769D01*
X268200142Y-69026388D01*
X267295380Y-68074007D02*
X267295380Y-67454959D01*
X267676333Y-67788292D01*
X267676333Y-67645435D01*
X267723952Y-67550197D01*
X267771571Y-67502578D01*
X267866809Y-67454959D01*
X268104904Y-67454959D01*
X268200142Y-67502578D01*
X268247761Y-67550197D01*
X268295380Y-67645435D01*
X268295380Y-67931150D01*
X268247761Y-68026388D01*
X268200142Y-68074007D01*
X268295380Y-67026388D02*
X267628714Y-67026388D01*
X267723952Y-67026388D02*
X267676333Y-66978769D01*
X267628714Y-66883530D01*
X267628714Y-66740673D01*
X267676333Y-66645435D01*
X267771571Y-66597816D01*
X268295380Y-66597816D01*
X267771571Y-66597816D02*
X267676333Y-66550197D01*
X267628714Y-66454959D01*
X267628714Y-66312102D01*
X267676333Y-66216864D01*
X267771571Y-66169245D01*
X268295380Y-66169245D01*
X268295380Y-65693054D02*
X267628714Y-65693054D01*
X267723952Y-65693054D02*
X267676333Y-65645435D01*
X267628714Y-65550197D01*
X267628714Y-65407340D01*
X267676333Y-65312102D01*
X267771571Y-65264483D01*
X268295380Y-65264483D01*
X267771571Y-65264483D02*
X267676333Y-65216864D01*
X267628714Y-65121626D01*
X267628714Y-64978769D01*
X267676333Y-64883530D01*
X267771571Y-64835911D01*
X268295380Y-64835911D01*
X266660380Y-65339230D02*
X266660380Y-65243992D01*
X266708000Y-65148754D01*
X266755619Y-65101135D01*
X266850857Y-65053516D01*
X267041333Y-65005897D01*
X267279428Y-65005897D01*
X267469904Y-65053516D01*
X267565142Y-65101135D01*
X267612761Y-65148754D01*
X267660380Y-65243992D01*
X267660380Y-65339230D01*
X267612761Y-65434469D01*
X267565142Y-65482088D01*
X267469904Y-65529707D01*
X267279428Y-65577326D01*
X267041333Y-65577326D01*
X266850857Y-65529707D01*
X266755619Y-65482088D01*
X266708000Y-65434469D01*
X266660380Y-65339230D01*
X267565142Y-64577326D02*
X267612761Y-64529707D01*
X267660380Y-64577326D01*
X267612761Y-64624945D01*
X267565142Y-64577326D01*
X267660380Y-64577326D01*
X266660380Y-63910659D02*
X266660380Y-63815421D01*
X266708000Y-63720183D01*
X266755619Y-63672564D01*
X266850857Y-63624945D01*
X267041333Y-63577326D01*
X267279428Y-63577326D01*
X267469904Y-63624945D01*
X267565142Y-63672564D01*
X267612761Y-63720183D01*
X267660380Y-63815421D01*
X267660380Y-63910659D01*
X267612761Y-64005897D01*
X267565142Y-64053516D01*
X267469904Y-64101135D01*
X267279428Y-64148754D01*
X267041333Y-64148754D01*
X266850857Y-64101135D01*
X266755619Y-64053516D01*
X266708000Y-64005897D01*
X266660380Y-63910659D01*
X266660380Y-62672564D02*
X266660380Y-63148754D01*
X267136571Y-63196373D01*
X267088952Y-63148754D01*
X267041333Y-63053516D01*
X267041333Y-62815421D01*
X267088952Y-62720183D01*
X267136571Y-62672564D01*
X267231809Y-62624945D01*
X267469904Y-62624945D01*
X267565142Y-62672564D01*
X267612761Y-62720183D01*
X267660380Y-62815421D01*
X267660380Y-63053516D01*
X267612761Y-63148754D01*
X267565142Y-63196373D01*
X267660380Y-62196373D02*
X266993714Y-62196373D01*
X266660380Y-62196373D02*
X266708000Y-62243992D01*
X266755619Y-62196373D01*
X266708000Y-62148754D01*
X266660380Y-62196373D01*
X266755619Y-62196373D01*
X266993714Y-61720183D02*
X267660380Y-61720183D01*
X267088952Y-61720183D02*
X267041333Y-61672564D01*
X266993714Y-61577326D01*
X266993714Y-61434469D01*
X267041333Y-61339230D01*
X267136571Y-61291611D01*
X267660380Y-61291611D01*
X266612761Y-60101135D02*
X267898476Y-60958278D01*
X267660380Y-59243992D02*
X267660380Y-59815421D01*
X267660380Y-59529707D02*
X266660380Y-59529707D01*
X266803238Y-59624945D01*
X266898476Y-59720183D01*
X266946095Y-59815421D01*
X267565142Y-58815421D02*
X267612761Y-58767802D01*
X267660380Y-58815421D01*
X267612761Y-58863040D01*
X267565142Y-58815421D01*
X267660380Y-58815421D01*
X266755619Y-58386850D02*
X266708000Y-58339230D01*
X266660380Y-58243992D01*
X266660380Y-58005897D01*
X266708000Y-57910659D01*
X266755619Y-57863040D01*
X266850857Y-57815421D01*
X266946095Y-57815421D01*
X267088952Y-57863040D01*
X267660380Y-58434469D01*
X267660380Y-57815421D01*
X266660380Y-57482088D02*
X266660380Y-56815421D01*
X267660380Y-57243992D01*
X267660380Y-56434469D02*
X266993714Y-56434469D01*
X267088952Y-56434469D02*
X267041333Y-56386850D01*
X266993714Y-56291611D01*
X266993714Y-56148754D01*
X267041333Y-56053516D01*
X267136571Y-56005897D01*
X267660380Y-56005897D01*
X267136571Y-56005897D02*
X267041333Y-55958278D01*
X266993714Y-55863040D01*
X266993714Y-55720183D01*
X267041333Y-55624945D01*
X267136571Y-55577326D01*
X267660380Y-55577326D01*
X267660380Y-55101135D02*
X266993714Y-55101135D01*
X267088952Y-55101135D02*
X267041333Y-55053516D01*
X266993714Y-54958278D01*
X266993714Y-54815421D01*
X267041333Y-54720183D01*
X267136571Y-54672564D01*
X267660380Y-54672564D01*
X267136571Y-54672564D02*
X267041333Y-54624945D01*
X266993714Y-54529707D01*
X266993714Y-54386850D01*
X267041333Y-54291611D01*
X267136571Y-54243992D01*
X267660380Y-54243992D01*
M02*
