G04 #@! TF.GenerationSoftware,KiCad,Pcbnew,7.0.8*
G04 #@! TF.CreationDate,2023-10-26T23:06:53+02:00*
G04 #@! TF.ProjectId,PlantCtrlESP32,506c616e-7443-4747-926c-45535033322e,rev?*
G04 #@! TF.SameCoordinates,Original*
G04 #@! TF.FileFunction,Paste,Bot*
G04 #@! TF.FilePolarity,Positive*
%FSLAX46Y46*%
G04 Gerber Fmt 4.6, Leading zero omitted, Abs format (unit mm)*
G04 Created by KiCad (PCBNEW 7.0.8) date 2023-10-26 23:06:53*
%MOMM*%
%LPD*%
G01*
G04 APERTURE LIST*
G04 Aperture macros list*
%AMRoundRect*
0 Rectangle with rounded corners*
0 $1 Rounding radius*
0 $2 $3 $4 $5 $6 $7 $8 $9 X,Y pos of 4 corners*
0 Add a 4 corners polygon primitive as box body*
4,1,4,$2,$3,$4,$5,$6,$7,$8,$9,$2,$3,0*
0 Add four circle primitives for the rounded corners*
1,1,$1+$1,$2,$3*
1,1,$1+$1,$4,$5*
1,1,$1+$1,$6,$7*
1,1,$1+$1,$8,$9*
0 Add four rect primitives between the rounded corners*
20,1,$1+$1,$2,$3,$4,$5,0*
20,1,$1+$1,$4,$5,$6,$7,0*
20,1,$1+$1,$6,$7,$8,$9,0*
20,1,$1+$1,$8,$9,$2,$3,0*%
G04 Aperture macros list end*
%ADD10RoundRect,0.150000X-0.150000X0.587500X-0.150000X-0.587500X0.150000X-0.587500X0.150000X0.587500X0*%
%ADD11RoundRect,0.250000X-1.075000X0.375000X-1.075000X-0.375000X1.075000X-0.375000X1.075000X0.375000X0*%
%ADD12RoundRect,0.150000X0.150000X-0.725000X0.150000X0.725000X-0.150000X0.725000X-0.150000X-0.725000X0*%
%ADD13RoundRect,0.225000X0.225000X0.250000X-0.225000X0.250000X-0.225000X-0.250000X0.225000X-0.250000X0*%
%ADD14RoundRect,0.150000X0.150000X-0.587500X0.150000X0.587500X-0.150000X0.587500X-0.150000X-0.587500X0*%
%ADD15RoundRect,0.225000X-0.250000X0.225000X-0.250000X-0.225000X0.250000X-0.225000X0.250000X0.225000X0*%
%ADD16RoundRect,0.200000X0.275000X-0.200000X0.275000X0.200000X-0.275000X0.200000X-0.275000X-0.200000X0*%
%ADD17RoundRect,0.250000X-0.475000X0.250000X-0.475000X-0.250000X0.475000X-0.250000X0.475000X0.250000X0*%
%ADD18RoundRect,0.200000X0.200000X0.275000X-0.200000X0.275000X-0.200000X-0.275000X0.200000X-0.275000X0*%
%ADD19RoundRect,0.225000X-0.225000X-0.250000X0.225000X-0.250000X0.225000X0.250000X-0.225000X0.250000X0*%
%ADD20RoundRect,0.250000X0.250000X0.475000X-0.250000X0.475000X-0.250000X-0.475000X0.250000X-0.475000X0*%
%ADD21RoundRect,0.200000X-0.200000X-0.275000X0.200000X-0.275000X0.200000X0.275000X-0.200000X0.275000X0*%
%ADD22RoundRect,0.150000X-0.587500X-0.150000X0.587500X-0.150000X0.587500X0.150000X-0.587500X0.150000X0*%
%ADD23RoundRect,0.200000X-0.275000X0.200000X-0.275000X-0.200000X0.275000X-0.200000X0.275000X0.200000X0*%
%ADD24R,0.900000X1.500000*%
%ADD25R,1.500000X0.900000*%
%ADD26R,1.050000X1.050000*%
%ADD27RoundRect,0.150000X-0.150000X0.850000X-0.150000X-0.850000X0.150000X-0.850000X0.150000X0.850000X0*%
%ADD28RoundRect,0.243600X-0.771400X0.901400X-0.771400X-0.901400X0.771400X-0.901400X0.771400X0.901400X0*%
%ADD29RoundRect,0.091200X-0.288800X0.608800X-0.288800X-0.608800X0.288800X-0.608800X0.288800X0.608800X0*%
%ADD30RoundRect,0.190000X-0.190000X0.510000X-0.190000X-0.510000X0.190000X-0.510000X0.190000X0.510000X0*%
%ADD31RoundRect,0.250000X-0.325000X-0.650000X0.325000X-0.650000X0.325000X0.650000X-0.325000X0.650000X0*%
%ADD32RoundRect,0.150000X0.587500X0.150000X-0.587500X0.150000X-0.587500X-0.150000X0.587500X-0.150000X0*%
%ADD33RoundRect,0.250000X0.325000X0.650000X-0.325000X0.650000X-0.325000X-0.650000X0.325000X-0.650000X0*%
%ADD34RoundRect,0.250000X0.375000X1.075000X-0.375000X1.075000X-0.375000X-1.075000X0.375000X-1.075000X0*%
%ADD35RoundRect,0.243600X0.771400X-0.901400X0.771400X0.901400X-0.771400X0.901400X-0.771400X-0.901400X0*%
%ADD36RoundRect,0.091200X0.288800X-0.608800X0.288800X0.608800X-0.288800X0.608800X-0.288800X-0.608800X0*%
%ADD37RoundRect,0.190000X0.190000X-0.510000X0.190000X0.510000X-0.190000X0.510000X-0.190000X-0.510000X0*%
%ADD38RoundRect,0.225000X0.250000X-0.225000X0.250000X0.225000X-0.250000X0.225000X-0.250000X-0.225000X0*%
%ADD39RoundRect,0.225000X-0.225000X-0.375000X0.225000X-0.375000X0.225000X0.375000X-0.225000X0.375000X0*%
%ADD40RoundRect,0.250000X0.650000X-0.325000X0.650000X0.325000X-0.650000X0.325000X-0.650000X-0.325000X0*%
%ADD41R,2.200000X0.600000*%
%ADD42RoundRect,0.250000X-0.650000X0.325000X-0.650000X-0.325000X0.650000X-0.325000X0.650000X0.325000X0*%
%ADD43RoundRect,0.250000X-0.250000X-0.475000X0.250000X-0.475000X0.250000X0.475000X-0.250000X0.475000X0*%
%ADD44RoundRect,0.150000X-0.150000X0.512500X-0.150000X-0.512500X0.150000X-0.512500X0.150000X0.512500X0*%
%ADD45RoundRect,0.020500X-0.184500X0.764500X-0.184500X-0.764500X0.184500X-0.764500X0.184500X0.764500X0*%
%ADD46R,1.750000X0.600000*%
%ADD47R,5.400000X2.900000*%
%ADD48RoundRect,0.250000X1.000000X0.900000X-1.000000X0.900000X-1.000000X-0.900000X1.000000X-0.900000X0*%
%ADD49RoundRect,0.250000X-0.650000X1.000000X-0.650000X-1.000000X0.650000X-1.000000X0.650000X1.000000X0*%
%ADD50RoundRect,0.150000X0.512500X0.150000X-0.512500X0.150000X-0.512500X-0.150000X0.512500X-0.150000X0*%
G04 APERTURE END LIST*
D10*
X215130000Y-129045000D03*
X217030000Y-129045000D03*
X216080000Y-130920000D03*
X210630000Y-104982500D03*
X212530000Y-104982500D03*
X211580000Y-106857500D03*
X211380000Y-129045000D03*
X213280000Y-129045000D03*
X212330000Y-130920000D03*
D11*
X253740000Y-75595000D03*
X253740000Y-78395000D03*
D12*
X198735000Y-122745000D03*
X197465000Y-122745000D03*
X196195000Y-122745000D03*
X194925000Y-122745000D03*
X194925000Y-117595000D03*
X196195000Y-117595000D03*
X197465000Y-117595000D03*
X198735000Y-117595000D03*
D13*
X255880000Y-115170000D03*
X254330000Y-115170000D03*
D14*
X192530000Y-87357500D03*
X190630000Y-87357500D03*
X191580000Y-85482500D03*
D15*
X177180000Y-41895000D03*
X177180000Y-43445000D03*
D16*
X184180000Y-71695000D03*
X184180000Y-70045000D03*
D17*
X189480000Y-45720000D03*
X189480000Y-47620000D03*
D18*
X257555000Y-44070000D03*
X255905000Y-44070000D03*
D12*
X238985000Y-101495000D03*
X237715000Y-101495000D03*
X236445000Y-101495000D03*
X235175000Y-101495000D03*
X235175000Y-96345000D03*
X236445000Y-96345000D03*
X237715000Y-96345000D03*
X238985000Y-96345000D03*
D13*
X256130000Y-94170000D03*
X254580000Y-94170000D03*
D16*
X250980000Y-79395000D03*
X250980000Y-77745000D03*
D10*
X190580000Y-120870000D03*
X192480000Y-120870000D03*
X191530000Y-122745000D03*
D19*
X247555000Y-94170000D03*
X249105000Y-94170000D03*
X204305000Y-104670000D03*
X205855000Y-104670000D03*
D20*
X197530000Y-126670000D03*
X195630000Y-126670000D03*
D21*
X221755000Y-126920000D03*
X223405000Y-126920000D03*
D10*
X220880000Y-121232500D03*
X222780000Y-121232500D03*
X221830000Y-123107500D03*
X220630000Y-115295000D03*
X222530000Y-115295000D03*
X221580000Y-117170000D03*
D19*
X257805000Y-94170000D03*
X259355000Y-94170000D03*
D22*
X261455000Y-123620000D03*
X261455000Y-121720000D03*
X263330000Y-122670000D03*
D16*
X219580000Y-130495000D03*
X219580000Y-128845000D03*
D23*
X237630000Y-57745000D03*
X237630000Y-59395000D03*
D16*
X184780000Y-47995000D03*
X184780000Y-46345000D03*
D14*
X182280000Y-91482500D03*
X180380000Y-91482500D03*
X181330000Y-89607500D03*
D10*
X200630000Y-94295000D03*
X202530000Y-94295000D03*
X201580000Y-96170000D03*
D24*
X171765000Y-50075000D03*
X173035000Y-50075000D03*
X174305000Y-50075000D03*
X175575000Y-50075000D03*
X176845000Y-50075000D03*
X178115000Y-50075000D03*
X179385000Y-50075000D03*
X180655000Y-50075000D03*
X181925000Y-50075000D03*
X183195000Y-50075000D03*
X184465000Y-50075000D03*
X185735000Y-50075000D03*
X187005000Y-50075000D03*
X188275000Y-50075000D03*
D25*
X189525000Y-53115000D03*
X189525000Y-54385000D03*
X189525000Y-55655000D03*
X189525000Y-56925000D03*
X189525000Y-58195000D03*
X189525000Y-59465000D03*
X189525000Y-60735000D03*
X189525000Y-62005000D03*
X189525000Y-63275000D03*
X189525000Y-64545000D03*
D24*
X188275000Y-67575000D03*
X187005000Y-67575000D03*
X185735000Y-67575000D03*
X184465000Y-67575000D03*
X183195000Y-67575000D03*
X181925000Y-67575000D03*
X180655000Y-67575000D03*
X179385000Y-67575000D03*
X178115000Y-67575000D03*
X176845000Y-67575000D03*
X175575000Y-67575000D03*
X174305000Y-67575000D03*
X173035000Y-67575000D03*
X171765000Y-67575000D03*
D26*
X180630000Y-56620000D03*
X179105000Y-56620000D03*
X177580000Y-56620000D03*
X180630000Y-58145000D03*
X179105000Y-58145000D03*
X177580000Y-58145000D03*
X180630000Y-59670000D03*
X179105000Y-59670000D03*
X177580000Y-59670000D03*
D13*
X235855000Y-94170000D03*
X234305000Y-94170000D03*
D19*
X227555000Y-94170000D03*
X229105000Y-94170000D03*
D14*
X206280000Y-87357500D03*
X204380000Y-87357500D03*
X205330000Y-85482500D03*
D18*
X193180000Y-119070000D03*
X191530000Y-119070000D03*
D13*
X265080000Y-59170000D03*
X263530000Y-59170000D03*
D27*
X192255000Y-74920000D03*
X193525000Y-74920000D03*
X194795000Y-74920000D03*
X196065000Y-74920000D03*
X197335000Y-74920000D03*
X198605000Y-74920000D03*
X199875000Y-74920000D03*
X201145000Y-74920000D03*
X201145000Y-79920000D03*
X199875000Y-79920000D03*
X198605000Y-79920000D03*
X197335000Y-79920000D03*
X196065000Y-79920000D03*
X194795000Y-79920000D03*
X193525000Y-79920000D03*
X192255000Y-79920000D03*
D16*
X179305000Y-130495000D03*
X179305000Y-128845000D03*
D19*
X214305000Y-114920000D03*
X215855000Y-114920000D03*
X247830000Y-104670000D03*
X249380000Y-104670000D03*
D13*
X215855000Y-94170000D03*
X214305000Y-94170000D03*
D28*
X267515000Y-49785000D03*
D29*
X265610000Y-49340000D03*
D30*
X265610000Y-56200000D03*
D28*
X267515000Y-55755000D03*
D23*
X235680000Y-69145000D03*
X235680000Y-70795000D03*
D19*
X197555000Y-104670000D03*
X199105000Y-104670000D03*
D27*
X180385000Y-74920000D03*
X181655000Y-74920000D03*
X182925000Y-74920000D03*
X184195000Y-74920000D03*
X185465000Y-74920000D03*
X186735000Y-74920000D03*
X188005000Y-74920000D03*
X189275000Y-74920000D03*
X189275000Y-79920000D03*
X188005000Y-79920000D03*
X186735000Y-79920000D03*
X185465000Y-79920000D03*
X184195000Y-79920000D03*
X182925000Y-79920000D03*
X181655000Y-79920000D03*
X180385000Y-79920000D03*
D10*
X240880000Y-100232500D03*
X242780000Y-100232500D03*
X241830000Y-102107500D03*
X235130000Y-129045000D03*
X237030000Y-129045000D03*
X236080000Y-130920000D03*
D14*
X222530000Y-87357500D03*
X220630000Y-87357500D03*
X221580000Y-85482500D03*
D31*
X195967500Y-65120000D03*
X198917500Y-65120000D03*
D21*
X201505000Y-126920000D03*
X203155000Y-126920000D03*
D22*
X261455000Y-131120000D03*
X261455000Y-129220000D03*
X263330000Y-130170000D03*
D14*
X222530000Y-91607500D03*
X220630000Y-91607500D03*
X221580000Y-89732500D03*
D32*
X213580000Y-44970000D03*
X213580000Y-46870000D03*
X211705000Y-45920000D03*
D18*
X223155000Y-108420000D03*
X221505000Y-108420000D03*
D20*
X256780000Y-82170000D03*
X254880000Y-82170000D03*
D18*
X213405000Y-98170000D03*
X211755000Y-98170000D03*
X243405000Y-98170000D03*
X241755000Y-98170000D03*
D16*
X257080000Y-88745000D03*
X257080000Y-87095000D03*
D18*
X177205000Y-126670000D03*
X175555000Y-126670000D03*
D10*
X250630000Y-121232500D03*
X252530000Y-121232500D03*
X251580000Y-123107500D03*
D12*
X238985000Y-122745000D03*
X237715000Y-122745000D03*
X236445000Y-122745000D03*
X235175000Y-122745000D03*
X235175000Y-117595000D03*
X236445000Y-117595000D03*
X237715000Y-117595000D03*
X238985000Y-117595000D03*
D22*
X261455000Y-119870000D03*
X261455000Y-117970000D03*
X263330000Y-118920000D03*
D10*
X231380000Y-129045000D03*
X233280000Y-129045000D03*
X232330000Y-130920000D03*
D12*
X218890000Y-101670000D03*
X217620000Y-101670000D03*
X216350000Y-101670000D03*
X215080000Y-101670000D03*
X215080000Y-96520000D03*
X216350000Y-96520000D03*
X217620000Y-96520000D03*
X218890000Y-96520000D03*
D19*
X227555000Y-104920000D03*
X229105000Y-104920000D03*
D18*
X223405000Y-98170000D03*
X221755000Y-98170000D03*
D16*
X189580000Y-130245000D03*
X189580000Y-128595000D03*
X203692500Y-67195000D03*
X203692500Y-65545000D03*
D18*
X250005000Y-61270000D03*
X248355000Y-61270000D03*
D12*
X208735000Y-112245000D03*
X207465000Y-112245000D03*
X206195000Y-112245000D03*
X204925000Y-112245000D03*
X204925000Y-107095000D03*
X206195000Y-107095000D03*
X207465000Y-107095000D03*
X208735000Y-107095000D03*
D20*
X227280000Y-126670000D03*
X225380000Y-126670000D03*
D23*
X246180000Y-64645000D03*
X246180000Y-66295000D03*
D16*
X247580000Y-79395000D03*
X247580000Y-77745000D03*
D14*
X173580000Y-124470000D03*
X171680000Y-124470000D03*
X172630000Y-122595000D03*
D33*
X203917500Y-62620000D03*
X200967500Y-62620000D03*
D34*
X198842500Y-59370000D03*
X196042500Y-59370000D03*
D35*
X213345000Y-57955000D03*
D36*
X215250000Y-58400000D03*
D37*
X215250000Y-51540000D03*
D35*
X213345000Y-51985000D03*
D18*
X253155000Y-119170000D03*
X251505000Y-119170000D03*
D21*
X181680000Y-127070000D03*
X183330000Y-127070000D03*
D10*
X220630000Y-110420000D03*
X222530000Y-110420000D03*
X221580000Y-112295000D03*
D27*
X216235000Y-74920000D03*
X217505000Y-74920000D03*
X218775000Y-74920000D03*
X220045000Y-74920000D03*
X221315000Y-74920000D03*
X222585000Y-74920000D03*
X223855000Y-74920000D03*
X225125000Y-74920000D03*
X225125000Y-79920000D03*
X223855000Y-79920000D03*
X222585000Y-79920000D03*
X221315000Y-79920000D03*
X220045000Y-79920000D03*
X218775000Y-79920000D03*
X217505000Y-79920000D03*
X216235000Y-79920000D03*
D14*
X185880000Y-87420000D03*
X183980000Y-87420000D03*
X184930000Y-85545000D03*
D23*
X232280000Y-57745000D03*
X232280000Y-59395000D03*
D16*
X261980000Y-95220000D03*
X261980000Y-93570000D03*
D27*
X204125000Y-74920000D03*
X205395000Y-74920000D03*
X206665000Y-74920000D03*
X207935000Y-74920000D03*
X209205000Y-74920000D03*
X210475000Y-74920000D03*
X211745000Y-74920000D03*
X213015000Y-74920000D03*
X213015000Y-79920000D03*
X211745000Y-79920000D03*
X210475000Y-79920000D03*
X209205000Y-79920000D03*
X207935000Y-79920000D03*
X206665000Y-79920000D03*
X205395000Y-79920000D03*
X204125000Y-79920000D03*
D23*
X263380000Y-61245000D03*
X263380000Y-62895000D03*
D12*
X228985000Y-112245000D03*
X227715000Y-112245000D03*
X226445000Y-112245000D03*
X225175000Y-112245000D03*
X225175000Y-107095000D03*
X226445000Y-107095000D03*
X227715000Y-107095000D03*
X228985000Y-107095000D03*
D10*
X251380000Y-129045000D03*
X253280000Y-129045000D03*
X252330000Y-130920000D03*
D21*
X251505000Y-126920000D03*
X253155000Y-126920000D03*
D12*
X218985000Y-112245000D03*
X217715000Y-112245000D03*
X216445000Y-112245000D03*
X215175000Y-112245000D03*
X215175000Y-107095000D03*
X216445000Y-107095000D03*
X217715000Y-107095000D03*
X218985000Y-107095000D03*
D20*
X238530000Y-48970000D03*
X236630000Y-48970000D03*
D10*
X230580000Y-121170000D03*
X232480000Y-121170000D03*
X231530000Y-123045000D03*
D22*
X175642500Y-100620000D03*
X175642500Y-98720000D03*
X177517500Y-99670000D03*
D19*
X187380000Y-115070000D03*
X188930000Y-115070000D03*
D12*
X198735000Y-112245000D03*
X197465000Y-112245000D03*
X196195000Y-112245000D03*
X194925000Y-112245000D03*
X194925000Y-107095000D03*
X196195000Y-107095000D03*
X197465000Y-107095000D03*
X198735000Y-107095000D03*
D18*
X178705000Y-73870000D03*
X177055000Y-73870000D03*
D14*
X251280000Y-87407500D03*
X249380000Y-87407500D03*
X250330000Y-85532500D03*
D10*
X180680000Y-120920000D03*
X182580000Y-120920000D03*
X181630000Y-122795000D03*
D19*
X257555000Y-115170000D03*
X259105000Y-115170000D03*
D10*
X230630000Y-110732500D03*
X232530000Y-110732500D03*
X231580000Y-112607500D03*
D38*
X235830000Y-59345000D03*
X235830000Y-57795000D03*
D10*
X221630000Y-129045000D03*
X223530000Y-129045000D03*
X222580000Y-130920000D03*
X241380000Y-129045000D03*
X243280000Y-129045000D03*
X242330000Y-130920000D03*
D19*
X194305000Y-94170000D03*
X195855000Y-94170000D03*
D16*
X209580000Y-130570000D03*
X209580000Y-128920000D03*
D10*
X185892500Y-129170000D03*
X187792500Y-129170000D03*
X186842500Y-131045000D03*
D12*
X259235000Y-112245000D03*
X257965000Y-112245000D03*
X256695000Y-112245000D03*
X255425000Y-112245000D03*
X255425000Y-107095000D03*
X256695000Y-107095000D03*
X257965000Y-107095000D03*
X259235000Y-107095000D03*
D19*
X217530000Y-104670000D03*
X219080000Y-104670000D03*
D18*
X177605000Y-120470000D03*
X175955000Y-120470000D03*
D16*
X183080000Y-47995000D03*
X183080000Y-46345000D03*
D21*
X211505000Y-126920000D03*
X213155000Y-126920000D03*
D18*
X253655000Y-98170000D03*
X252005000Y-98170000D03*
D12*
X208735000Y-101745000D03*
X207465000Y-101745000D03*
X206195000Y-101745000D03*
X204925000Y-101745000D03*
X204925000Y-96595000D03*
X206195000Y-96595000D03*
X207465000Y-96595000D03*
X208735000Y-96595000D03*
D18*
X260655000Y-91670000D03*
X259005000Y-91670000D03*
D38*
X171880000Y-73145000D03*
X171880000Y-71595000D03*
D20*
X257030000Y-126670000D03*
X255130000Y-126670000D03*
D18*
X203155000Y-119170000D03*
X201505000Y-119170000D03*
D12*
X188735000Y-112245000D03*
X187465000Y-112245000D03*
X186195000Y-112245000D03*
X184925000Y-112245000D03*
X184925000Y-107095000D03*
X186195000Y-107095000D03*
X187465000Y-107095000D03*
X188735000Y-107095000D03*
D21*
X179355000Y-48070000D03*
X181005000Y-48070000D03*
D38*
X259280000Y-44070000D03*
X259280000Y-42520000D03*
D39*
X181530000Y-44270000D03*
X184830000Y-44270000D03*
D10*
X190630000Y-104982500D03*
X192530000Y-104982500D03*
X191580000Y-106857500D03*
D14*
X182280000Y-87420000D03*
X180380000Y-87420000D03*
X181330000Y-85545000D03*
D12*
X258735000Y-122745000D03*
X257465000Y-122745000D03*
X256195000Y-122745000D03*
X254925000Y-122745000D03*
X254925000Y-117595000D03*
X256195000Y-117595000D03*
X257465000Y-117595000D03*
X258735000Y-117595000D03*
D21*
X175755000Y-96870000D03*
X177405000Y-96870000D03*
D10*
X230630000Y-100170000D03*
X232530000Y-100170000D03*
X231580000Y-102045000D03*
D14*
X242530000Y-91607500D03*
X240630000Y-91607500D03*
X241580000Y-89732500D03*
D19*
X207555000Y-114920000D03*
X209105000Y-114920000D03*
D14*
X251280000Y-91607500D03*
X249380000Y-91607500D03*
X250330000Y-89732500D03*
D10*
X200630000Y-104982500D03*
X202530000Y-104982500D03*
X201580000Y-106857500D03*
D27*
X228175000Y-74920000D03*
X229445000Y-74920000D03*
X230715000Y-74920000D03*
X231985000Y-74920000D03*
X233255000Y-74920000D03*
X234525000Y-74920000D03*
X235795000Y-74920000D03*
X237065000Y-74920000D03*
X237065000Y-79920000D03*
X235795000Y-79920000D03*
X234525000Y-79920000D03*
X233255000Y-79920000D03*
X231985000Y-79920000D03*
X230715000Y-79920000D03*
X229445000Y-79920000D03*
X228175000Y-79920000D03*
D40*
X256990000Y-78470000D03*
X256990000Y-75520000D03*
D18*
X213155000Y-119170000D03*
X211505000Y-119170000D03*
D19*
X224305000Y-104920000D03*
X225855000Y-104920000D03*
D10*
X200580000Y-100232500D03*
X202480000Y-100232500D03*
X201530000Y-102107500D03*
X230630000Y-115232500D03*
X232530000Y-115232500D03*
X231580000Y-117107500D03*
D20*
X173730000Y-47870000D03*
X171830000Y-47870000D03*
D10*
X240880000Y-110732500D03*
X242780000Y-110732500D03*
X241830000Y-112607500D03*
D41*
X230480000Y-42065000D03*
X230480000Y-43335000D03*
X230480000Y-44605000D03*
X230480000Y-45875000D03*
X237480000Y-45875000D03*
X237480000Y-42065000D03*
X237480000Y-43335000D03*
X237480000Y-44605000D03*
D10*
X180630000Y-94295000D03*
X182530000Y-94295000D03*
X181580000Y-96170000D03*
D18*
X233405000Y-49070000D03*
X231755000Y-49070000D03*
D12*
X248735000Y-122745000D03*
X247465000Y-122745000D03*
X246195000Y-122745000D03*
X244925000Y-122745000D03*
X244925000Y-117595000D03*
X246195000Y-117595000D03*
X247465000Y-117595000D03*
X248735000Y-117595000D03*
D10*
X191630000Y-129045000D03*
X193530000Y-129045000D03*
X192580000Y-130920000D03*
D18*
X203155000Y-108670000D03*
X201505000Y-108670000D03*
D23*
X203980000Y-69745000D03*
X203980000Y-71395000D03*
D10*
X240680000Y-94170000D03*
X242580000Y-94170000D03*
X241630000Y-96045000D03*
D38*
X261380000Y-44070000D03*
X261380000Y-42520000D03*
D23*
X234080000Y-57745000D03*
X234080000Y-59395000D03*
D10*
X180630000Y-100232500D03*
X182530000Y-100232500D03*
X181580000Y-102107500D03*
D21*
X258665000Y-60545000D03*
X260315000Y-60545000D03*
D10*
X190630000Y-110545000D03*
X192530000Y-110545000D03*
X191580000Y-112420000D03*
D14*
X255080000Y-87407500D03*
X253180000Y-87407500D03*
X254130000Y-85532500D03*
D19*
X184205000Y-115070000D03*
X185755000Y-115070000D03*
D22*
X254865000Y-60495000D03*
X254865000Y-58595000D03*
X256740000Y-59545000D03*
X258955000Y-85120000D03*
X258955000Y-83220000D03*
X260830000Y-84170000D03*
D12*
X208735000Y-122420000D03*
X207465000Y-122420000D03*
X206195000Y-122420000D03*
X204925000Y-122420000D03*
X204925000Y-117270000D03*
X206195000Y-117270000D03*
X207465000Y-117270000D03*
X208735000Y-117270000D03*
D10*
X180630000Y-115332500D03*
X182530000Y-115332500D03*
X181580000Y-117207500D03*
D16*
X249580000Y-130495000D03*
X249580000Y-128845000D03*
D42*
X251080000Y-41970000D03*
X251080000Y-44920000D03*
D19*
X237555000Y-104670000D03*
X239105000Y-104670000D03*
D14*
X236280000Y-87345000D03*
X234380000Y-87345000D03*
X235330000Y-85470000D03*
D10*
X225380000Y-129045000D03*
X227280000Y-129045000D03*
X226330000Y-130920000D03*
X200630000Y-110482500D03*
X202530000Y-110482500D03*
X201580000Y-112357500D03*
X255130000Y-129045000D03*
X257030000Y-129045000D03*
X256080000Y-130920000D03*
D14*
X202530000Y-91607500D03*
X200630000Y-91607500D03*
X201580000Y-89732500D03*
D10*
X190630000Y-100232500D03*
X192530000Y-100232500D03*
X191580000Y-102107500D03*
D21*
X241505000Y-126920000D03*
X243155000Y-126920000D03*
D12*
X248985000Y-101745000D03*
X247715000Y-101745000D03*
X246445000Y-101745000D03*
X245175000Y-101745000D03*
X245175000Y-96595000D03*
X246445000Y-96595000D03*
X247715000Y-96595000D03*
X248985000Y-96595000D03*
D18*
X183180000Y-108670000D03*
X181530000Y-108670000D03*
D12*
X248985000Y-112245000D03*
X247715000Y-112245000D03*
X246445000Y-112245000D03*
X245175000Y-112245000D03*
X245175000Y-107095000D03*
X246445000Y-107095000D03*
X247715000Y-107095000D03*
X248985000Y-107095000D03*
X239100000Y-112170000D03*
X237830000Y-112170000D03*
X236560000Y-112170000D03*
X235290000Y-112170000D03*
X235290000Y-107020000D03*
X236560000Y-107020000D03*
X237830000Y-107020000D03*
X239100000Y-107020000D03*
D16*
X229580000Y-130495000D03*
X229580000Y-128845000D03*
D23*
X262480000Y-68245000D03*
X262480000Y-69895000D03*
D10*
X181755000Y-129232500D03*
X183655000Y-129232500D03*
X182705000Y-131107500D03*
D13*
X245855000Y-115170000D03*
X244305000Y-115170000D03*
D18*
X193155000Y-108670000D03*
X191505000Y-108670000D03*
D12*
X228830000Y-101570000D03*
X227560000Y-101570000D03*
X226290000Y-101570000D03*
X225020000Y-101570000D03*
X225020000Y-96420000D03*
X226290000Y-96420000D03*
X227560000Y-96420000D03*
X228830000Y-96420000D03*
D13*
X256080000Y-104670000D03*
X254530000Y-104670000D03*
X225855000Y-94170000D03*
X224305000Y-94170000D03*
D23*
X217080000Y-69045000D03*
X217080000Y-70695000D03*
D15*
X260380000Y-52920000D03*
X260380000Y-54470000D03*
D43*
X173605000Y-73370000D03*
X175505000Y-73370000D03*
D14*
X252580000Y-50195000D03*
X250680000Y-50195000D03*
X251630000Y-48320000D03*
D19*
X227555000Y-115170000D03*
X229105000Y-115170000D03*
D18*
X213405000Y-108670000D03*
X211755000Y-108670000D03*
D12*
X198640000Y-101670000D03*
X197370000Y-101670000D03*
X196100000Y-101670000D03*
X194830000Y-101670000D03*
X194830000Y-96520000D03*
X196100000Y-96520000D03*
X197370000Y-96520000D03*
X198640000Y-96520000D03*
D13*
X235855000Y-104670000D03*
X234305000Y-104670000D03*
D10*
X195630000Y-129045000D03*
X197530000Y-129045000D03*
X196580000Y-130920000D03*
D18*
X192905000Y-98170000D03*
X191255000Y-98170000D03*
D10*
X230680000Y-94170000D03*
X232580000Y-94170000D03*
X231630000Y-96045000D03*
D44*
X252590000Y-70970000D03*
X253540000Y-70970000D03*
X254490000Y-70970000D03*
X254490000Y-73245000D03*
X253540000Y-73245000D03*
X252590000Y-73245000D03*
D10*
X210880000Y-121170000D03*
X212780000Y-121170000D03*
X211830000Y-123045000D03*
X201380000Y-129045000D03*
X203280000Y-129045000D03*
X202330000Y-130920000D03*
D23*
X237280000Y-69145000D03*
X237280000Y-70795000D03*
D13*
X235855000Y-115170000D03*
X234305000Y-115170000D03*
X245855000Y-94170000D03*
X244305000Y-94170000D03*
D19*
X257830000Y-104670000D03*
X259380000Y-104670000D03*
D23*
X243180000Y-48145000D03*
X243180000Y-49795000D03*
D14*
X247730000Y-55145000D03*
X245830000Y-55145000D03*
X246780000Y-53270000D03*
D18*
X173230000Y-120670000D03*
X171580000Y-120670000D03*
D16*
X199580000Y-130495000D03*
X199580000Y-128845000D03*
D10*
X250680000Y-94170000D03*
X252580000Y-94170000D03*
X251630000Y-96045000D03*
X200630000Y-121232500D03*
X202530000Y-121232500D03*
X201580000Y-123107500D03*
X190630000Y-94295000D03*
X192530000Y-94295000D03*
X191580000Y-96170000D03*
D18*
X233155000Y-108670000D03*
X231505000Y-108670000D03*
D15*
X262180000Y-51995000D03*
X262180000Y-53545000D03*
D18*
X254315000Y-67995000D03*
X252665000Y-67995000D03*
D22*
X258967500Y-88870000D03*
X258967500Y-86970000D03*
X260842500Y-87920000D03*
D10*
X205130000Y-129045000D03*
X207030000Y-129045000D03*
X206080000Y-130920000D03*
D14*
X216280000Y-87357500D03*
X214380000Y-87357500D03*
X215330000Y-85482500D03*
D19*
X237555000Y-115170000D03*
X239105000Y-115170000D03*
D16*
X201180000Y-71395000D03*
X201180000Y-69745000D03*
D20*
X247030000Y-126670000D03*
X245130000Y-126670000D03*
D12*
X218600000Y-122670000D03*
X217330000Y-122670000D03*
X216060000Y-122670000D03*
X214790000Y-122670000D03*
X214790000Y-117520000D03*
X216060000Y-117520000D03*
X217330000Y-117520000D03*
X218600000Y-117520000D03*
D38*
X262180000Y-49645000D03*
X262180000Y-48095000D03*
D10*
X240630000Y-115295000D03*
X242530000Y-115295000D03*
X241580000Y-117170000D03*
D16*
X252740000Y-64320000D03*
X252740000Y-62670000D03*
D10*
X240880000Y-104732500D03*
X242780000Y-104732500D03*
X241830000Y-106607500D03*
D20*
X217030000Y-126920000D03*
X215130000Y-126920000D03*
D18*
X183080000Y-98170000D03*
X181430000Y-98170000D03*
D10*
X210630000Y-94295000D03*
X212530000Y-94295000D03*
X211580000Y-96170000D03*
D12*
X228735000Y-122745000D03*
X227465000Y-122745000D03*
X226195000Y-122745000D03*
X224925000Y-122745000D03*
X224925000Y-117595000D03*
X226195000Y-117595000D03*
X227465000Y-117595000D03*
X228735000Y-117595000D03*
D19*
X217555000Y-114920000D03*
X219105000Y-114920000D03*
D23*
X198330000Y-85270000D03*
X198330000Y-86920000D03*
D14*
X232530000Y-87345000D03*
X230630000Y-87345000D03*
X231580000Y-85470000D03*
D19*
X184305000Y-94170000D03*
X185855000Y-94170000D03*
D12*
X188830000Y-122670000D03*
X187560000Y-122670000D03*
X186290000Y-122670000D03*
X185020000Y-122670000D03*
X185020000Y-117520000D03*
X186290000Y-117520000D03*
X187560000Y-117520000D03*
X188830000Y-117520000D03*
D10*
X230630000Y-104732500D03*
X232530000Y-104732500D03*
X231580000Y-106607500D03*
D14*
X196280000Y-87357500D03*
X194380000Y-87357500D03*
X195330000Y-85482500D03*
D19*
X204305000Y-114920000D03*
X205855000Y-114920000D03*
D18*
X203155000Y-98170000D03*
X201505000Y-98170000D03*
D10*
X210880000Y-110482500D03*
X212780000Y-110482500D03*
X211830000Y-112357500D03*
X220630000Y-94232500D03*
X222530000Y-94232500D03*
X221580000Y-96107500D03*
D42*
X256990000Y-70270000D03*
X256990000Y-73220000D03*
D12*
X259235000Y-101745000D03*
X257965000Y-101745000D03*
X256695000Y-101745000D03*
X255425000Y-101745000D03*
X255425000Y-96595000D03*
X256695000Y-96595000D03*
X257965000Y-96595000D03*
X259235000Y-96595000D03*
D10*
X250630000Y-115295000D03*
X252530000Y-115295000D03*
X251580000Y-117170000D03*
D16*
X186080000Y-71695000D03*
X186080000Y-70045000D03*
D20*
X237030000Y-126670000D03*
X235130000Y-126670000D03*
D10*
X245130000Y-129045000D03*
X247030000Y-129045000D03*
X246080000Y-130920000D03*
D45*
X254630000Y-46500000D03*
X255280000Y-46500000D03*
X255930000Y-46500000D03*
X256580000Y-46500000D03*
X257230000Y-46500000D03*
X257880000Y-46500000D03*
X258530000Y-46500000D03*
X258530000Y-52240000D03*
X257880000Y-52240000D03*
X257230000Y-52240000D03*
X256580000Y-52240000D03*
X255930000Y-52240000D03*
X255280000Y-52240000D03*
X254630000Y-52240000D03*
D20*
X207030000Y-126670000D03*
X205130000Y-126670000D03*
D19*
X187580000Y-94170000D03*
X189130000Y-94170000D03*
D14*
X212530000Y-87357500D03*
X210630000Y-87357500D03*
X211580000Y-85482500D03*
D12*
X188735000Y-101745000D03*
X187465000Y-101745000D03*
X186195000Y-101745000D03*
X184925000Y-101745000D03*
X184925000Y-96595000D03*
X186195000Y-96595000D03*
X187465000Y-96595000D03*
X188735000Y-96595000D03*
D13*
X208955000Y-41670000D03*
X207405000Y-41670000D03*
D23*
X226880000Y-69045000D03*
X226880000Y-70695000D03*
D19*
X204305000Y-94170000D03*
X205855000Y-94170000D03*
D18*
X243155000Y-119170000D03*
X241505000Y-119170000D03*
D10*
X220680000Y-104670000D03*
X222580000Y-104670000D03*
X221630000Y-106545000D03*
D19*
X197580000Y-94170000D03*
X199130000Y-94170000D03*
D18*
X243405000Y-108670000D03*
X241755000Y-108670000D03*
D16*
X239580000Y-130495000D03*
X239580000Y-128845000D03*
D10*
X250880000Y-104732500D03*
X252780000Y-104732500D03*
X251830000Y-106607500D03*
D14*
X242530000Y-87407500D03*
X240630000Y-87407500D03*
X241580000Y-85532500D03*
D10*
X180630000Y-110532500D03*
X182530000Y-110532500D03*
X181580000Y-112407500D03*
X190630000Y-115395000D03*
X192530000Y-115395000D03*
X191580000Y-117270000D03*
D16*
X243180000Y-52995000D03*
X243180000Y-51345000D03*
D15*
X250740000Y-73470000D03*
X250740000Y-75020000D03*
D16*
X265180000Y-62870000D03*
X265180000Y-61220000D03*
D10*
X258540000Y-62420000D03*
X260440000Y-62420000D03*
X259490000Y-64295000D03*
D14*
X232530000Y-91607500D03*
X230630000Y-91607500D03*
X231580000Y-89732500D03*
D13*
X254265000Y-66245000D03*
X252715000Y-66245000D03*
D10*
X210580000Y-100295000D03*
X212480000Y-100295000D03*
X211530000Y-102170000D03*
D14*
X212530000Y-91607500D03*
X210630000Y-91607500D03*
X211580000Y-89732500D03*
D46*
X240380000Y-51970000D03*
X240380000Y-52970000D03*
X240380000Y-53970000D03*
X240380000Y-54970000D03*
X240380000Y-55970000D03*
X234780000Y-55970000D03*
X234780000Y-54970000D03*
X234780000Y-53970000D03*
X234780000Y-52970000D03*
X234780000Y-51970000D03*
D10*
X200680000Y-115170000D03*
X202580000Y-115170000D03*
X201630000Y-117045000D03*
D19*
X194305000Y-104670000D03*
X195855000Y-104670000D03*
D44*
X207430000Y-44332500D03*
X208380000Y-44332500D03*
X209330000Y-44332500D03*
X209330000Y-46607500D03*
X208380000Y-46607500D03*
X207430000Y-46607500D03*
D14*
X202530000Y-87357500D03*
X200630000Y-87357500D03*
X201580000Y-85482500D03*
D18*
X233480000Y-98170000D03*
X231830000Y-98170000D03*
D23*
X259490000Y-68420000D03*
X259490000Y-70070000D03*
D18*
X223155000Y-119170000D03*
X221505000Y-119170000D03*
D47*
X223780000Y-50220000D03*
X223780000Y-60120000D03*
D10*
X250880000Y-100295000D03*
X252780000Y-100295000D03*
X251830000Y-102170000D03*
D19*
X247555000Y-115170000D03*
X249105000Y-115170000D03*
D18*
X233405000Y-119170000D03*
X231755000Y-119170000D03*
D10*
X220630000Y-100170000D03*
X222530000Y-100170000D03*
X221580000Y-102045000D03*
D18*
X253405000Y-108670000D03*
X251755000Y-108670000D03*
D14*
X192530000Y-91545000D03*
X190630000Y-91545000D03*
X191580000Y-89670000D03*
D23*
X205580000Y-53645000D03*
X205580000Y-55295000D03*
D18*
X175380000Y-71170000D03*
X173730000Y-71170000D03*
D48*
X226530000Y-43970000D03*
X222230000Y-43970000D03*
D14*
X173580000Y-128807500D03*
X171680000Y-128807500D03*
X172630000Y-126932500D03*
D40*
X216380000Y-46720000D03*
X216380000Y-43770000D03*
D16*
X249280000Y-79395000D03*
X249280000Y-77745000D03*
D13*
X225855000Y-115170000D03*
X224305000Y-115170000D03*
D19*
X184005000Y-104670000D03*
X185555000Y-104670000D03*
D14*
X246330000Y-87407500D03*
X244430000Y-87407500D03*
X245380000Y-85532500D03*
D19*
X237555000Y-94170000D03*
X239105000Y-94170000D03*
D23*
X264080000Y-54545000D03*
X264080000Y-56195000D03*
D16*
X263980000Y-50995000D03*
X263980000Y-49345000D03*
D13*
X200467500Y-56620000D03*
X198917500Y-56620000D03*
D15*
X189580000Y-42495000D03*
X189580000Y-44045000D03*
D23*
X202580000Y-53645000D03*
X202580000Y-55295000D03*
D10*
X180630000Y-104995000D03*
X182530000Y-104995000D03*
X181580000Y-106870000D03*
X210830000Y-115232500D03*
X212730000Y-115232500D03*
X211780000Y-117107500D03*
D19*
X214280000Y-104670000D03*
X215830000Y-104670000D03*
D22*
X261455000Y-127370000D03*
X261455000Y-125470000D03*
X263330000Y-126420000D03*
D14*
X177480000Y-124470000D03*
X175580000Y-124470000D03*
X176530000Y-122595000D03*
D19*
X217555000Y-94170000D03*
X219105000Y-94170000D03*
D16*
X177280000Y-47895000D03*
X177280000Y-46245000D03*
D49*
X193780000Y-44970000D03*
X193780000Y-48970000D03*
D19*
X187180000Y-104670000D03*
X188730000Y-104670000D03*
D23*
X225280000Y-69045000D03*
X225280000Y-70695000D03*
D50*
X203330000Y-58420000D03*
X203330000Y-59370000D03*
X203330000Y-60320000D03*
X201055000Y-60320000D03*
X201055000Y-59370000D03*
X201055000Y-58420000D03*
D40*
X259740000Y-78470000D03*
X259740000Y-75520000D03*
D20*
X187855000Y-126870000D03*
X185955000Y-126870000D03*
D19*
X207580000Y-104670000D03*
X209130000Y-104670000D03*
D18*
X197830000Y-70870000D03*
X196180000Y-70870000D03*
D10*
X250880000Y-110732500D03*
X252780000Y-110732500D03*
X251830000Y-112607500D03*
X240930000Y-121170000D03*
X242830000Y-121170000D03*
X241880000Y-123045000D03*
D19*
X197430000Y-115070000D03*
X198980000Y-115070000D03*
X207555000Y-94170000D03*
X209105000Y-94170000D03*
D18*
X174205000Y-76470000D03*
X172555000Y-76470000D03*
D13*
X246105000Y-104670000D03*
X244555000Y-104670000D03*
D21*
X191755000Y-126920000D03*
X193405000Y-126920000D03*
D16*
X248980000Y-58695000D03*
X248980000Y-57045000D03*
D31*
X195967500Y-62620000D03*
X198917500Y-62620000D03*
D18*
X183180000Y-119070000D03*
X181530000Y-119070000D03*
D14*
X226280000Y-87357500D03*
X224380000Y-87357500D03*
X225330000Y-85482500D03*
D18*
X260365000Y-57545000D03*
X258715000Y-57545000D03*
D21*
X177055000Y-70970000D03*
X178705000Y-70970000D03*
X231505000Y-126920000D03*
X233155000Y-126920000D03*
D19*
X194230000Y-115070000D03*
X195780000Y-115070000D03*
M02*
