G04 #@! TF.GenerationSoftware,KiCad,Pcbnew,5.1.10*
G04 #@! TF.CreationDate,2021-06-10T23:09:58+02:00*
G04 #@! TF.ProjectId,PlantCtrlESP32,506c616e-7443-4747-926c-45535033322e,rev?*
G04 #@! TF.SameCoordinates,Original*
G04 #@! TF.FileFunction,Soldermask,Bot*
G04 #@! TF.FilePolarity,Negative*
%FSLAX46Y46*%
G04 Gerber Fmt 4.6, Leading zero omitted, Abs format (unit mm)*
G04 Created by KiCad (PCBNEW 5.1.10) date 2021-06-10 23:09:58*
%MOMM*%
%LPD*%
G01*
G04 APERTURE LIST*
%ADD10O,1.802000X1.802000*%
%ADD11O,1.802000X2.052000*%
%ADD12O,2.052000X1.802000*%
%ADD13C,2.102000*%
%ADD14C,3.602120*%
%ADD15C,3.552000*%
%ADD16C,2.492000*%
%ADD17O,1.802000X2.102000*%
%ADD18C,3.102000*%
%ADD19O,1.152000X1.602000*%
%ADD20O,2.102000X1.802000*%
%ADD21C,0.100000*%
G04 APERTURE END LIST*
D10*
X206375000Y-95885000D03*
X206375000Y-98425000D03*
X203835000Y-95885000D03*
X203835000Y-98425000D03*
X201295000Y-95885000D03*
X201295000Y-98425000D03*
X198755000Y-95885000D03*
G36*
G01*
X199605000Y-99326000D02*
X197905000Y-99326000D01*
G75*
G02*
X197854000Y-99275000I0J51000D01*
G01*
X197854000Y-97575000D01*
G75*
G02*
X197905000Y-97524000I51000J0D01*
G01*
X199605000Y-97524000D01*
G75*
G02*
X199656000Y-97575000I0J-51000D01*
G01*
X199656000Y-99275000D01*
G75*
G02*
X199605000Y-99326000I-51000J0D01*
G01*
G37*
D11*
X191128000Y-128778000D03*
X193628000Y-128778000D03*
X196128000Y-128778000D03*
G36*
G01*
X199529000Y-128017000D02*
X199529000Y-129539000D01*
G75*
G02*
X199264000Y-129804000I-265000J0D01*
G01*
X197992000Y-129804000D01*
G75*
G02*
X197727000Y-129539000I0J265000D01*
G01*
X197727000Y-128017000D01*
G75*
G02*
X197992000Y-127752000I265000J0D01*
G01*
X199264000Y-127752000D01*
G75*
G02*
X199529000Y-128017000I0J-265000D01*
G01*
G37*
D12*
X222250000Y-124540000D03*
X222250000Y-127040000D03*
G36*
G01*
X223011000Y-130441000D02*
X221489000Y-130441000D01*
G75*
G02*
X221224000Y-130176000I0J265000D01*
G01*
X221224000Y-128904000D01*
G75*
G02*
X221489000Y-128639000I265000J0D01*
G01*
X223011000Y-128639000D01*
G75*
G02*
X223276000Y-128904000I0J-265000D01*
G01*
X223276000Y-130176000D01*
G75*
G02*
X223011000Y-130441000I-265000J0D01*
G01*
G37*
D10*
X200660000Y-115570000D03*
X203200000Y-115570000D03*
G36*
G01*
X204890000Y-114669000D02*
X206590000Y-114669000D01*
G75*
G02*
X206641000Y-114720000I0J-51000D01*
G01*
X206641000Y-116420000D01*
G75*
G02*
X206590000Y-116471000I-51000J0D01*
G01*
X204890000Y-116471000D01*
G75*
G02*
X204839000Y-116420000I0J51000D01*
G01*
X204839000Y-114720000D01*
G75*
G02*
X204890000Y-114669000I51000J0D01*
G01*
G37*
D13*
X218106000Y-86360000D03*
G36*
G01*
X212055000Y-87360000D02*
X212055000Y-85360000D01*
G75*
G02*
X212106000Y-85309000I51000J0D01*
G01*
X214106000Y-85309000D01*
G75*
G02*
X214157000Y-85360000I0J-51000D01*
G01*
X214157000Y-87360000D01*
G75*
G02*
X214106000Y-87411000I-51000J0D01*
G01*
X212106000Y-87411000D01*
G75*
G02*
X212055000Y-87360000I0J51000D01*
G01*
G37*
D10*
X259715000Y-79121000D03*
X259715000Y-76581000D03*
X259715000Y-74041000D03*
G36*
G01*
X258814000Y-72351000D02*
X258814000Y-70651000D01*
G75*
G02*
X258865000Y-70600000I51000J0D01*
G01*
X260565000Y-70600000D01*
G75*
G02*
X260616000Y-70651000I0J-51000D01*
G01*
X260616000Y-72351000D01*
G75*
G02*
X260565000Y-72402000I-51000J0D01*
G01*
X258865000Y-72402000D01*
G75*
G02*
X258814000Y-72351000I0J51000D01*
G01*
G37*
D13*
X181530000Y-86360000D03*
G36*
G01*
X175479000Y-87360000D02*
X175479000Y-85360000D01*
G75*
G02*
X175530000Y-85309000I51000J0D01*
G01*
X177530000Y-85309000D01*
G75*
G02*
X177581000Y-85360000I0J-51000D01*
G01*
X177581000Y-87360000D01*
G75*
G02*
X177530000Y-87411000I-51000J0D01*
G01*
X175530000Y-87411000D01*
G75*
G02*
X175479000Y-87360000I0J51000D01*
G01*
G37*
X181309000Y-71247000D03*
G36*
G01*
X187360000Y-70247000D02*
X187360000Y-72247000D01*
G75*
G02*
X187309000Y-72298000I-51000J0D01*
G01*
X185309000Y-72298000D01*
G75*
G02*
X185258000Y-72247000I0J51000D01*
G01*
X185258000Y-70247000D01*
G75*
G02*
X185309000Y-70196000I51000J0D01*
G01*
X187309000Y-70196000D01*
G75*
G02*
X187360000Y-70247000I0J-51000D01*
G01*
G37*
X229790000Y-86360000D03*
G36*
G01*
X223739000Y-87360000D02*
X223739000Y-85360000D01*
G75*
G02*
X223790000Y-85309000I51000J0D01*
G01*
X225790000Y-85309000D01*
G75*
G02*
X225841000Y-85360000I0J-51000D01*
G01*
X225841000Y-87360000D01*
G75*
G02*
X225790000Y-87411000I-51000J0D01*
G01*
X223790000Y-87411000D01*
G75*
G02*
X223739000Y-87360000I0J51000D01*
G01*
G37*
X192485000Y-70993000D03*
G36*
G01*
X198536000Y-69993000D02*
X198536000Y-71993000D01*
G75*
G02*
X198485000Y-72044000I-51000J0D01*
G01*
X196485000Y-72044000D01*
G75*
G02*
X196434000Y-71993000I0J51000D01*
G01*
X196434000Y-69993000D01*
G75*
G02*
X196485000Y-69942000I51000J0D01*
G01*
X198485000Y-69942000D01*
G75*
G02*
X198536000Y-69993000I0J-51000D01*
G01*
G37*
D14*
X239979200Y-53517800D03*
G36*
G01*
X241729260Y-60398860D02*
X238229140Y-60398860D01*
G75*
G02*
X238178140Y-60347860I0J51000D01*
G01*
X238178140Y-56847740D01*
G75*
G02*
X238229140Y-56796740I51000J0D01*
G01*
X241729260Y-56796740D01*
G75*
G02*
X241780260Y-56847740I0J-51000D01*
G01*
X241780260Y-60347860D01*
G75*
G02*
X241729260Y-60398860I-51000J0D01*
G01*
G37*
G36*
G01*
X258457600Y-51333400D02*
X258457600Y-57683400D01*
G75*
G02*
X258406600Y-57734400I-51000J0D01*
G01*
X251066600Y-57734400D01*
G75*
G02*
X251015600Y-57683400I0J51000D01*
G01*
X251015600Y-51333400D01*
G75*
G02*
X251066600Y-51282400I51000J0D01*
G01*
X258406600Y-51282400D01*
G75*
G02*
X258457600Y-51333400I0J-51000D01*
G01*
G37*
G36*
G01*
X179797600Y-51333400D02*
X179797600Y-57683400D01*
G75*
G02*
X179746600Y-57734400I-51000J0D01*
G01*
X172406600Y-57734400D01*
G75*
G02*
X172355600Y-57683400I0J51000D01*
G01*
X172355600Y-51333400D01*
G75*
G02*
X172406600Y-51282400I51000J0D01*
G01*
X179746600Y-51282400D01*
G75*
G02*
X179797600Y-51333400I0J-51000D01*
G01*
G37*
D15*
X187806600Y-62508400D03*
X243006600Y-46508400D03*
D16*
X251336600Y-62508400D03*
D17*
X228610800Y-61264800D03*
G36*
G01*
X225209800Y-62050800D02*
X225209800Y-60478800D01*
G75*
G02*
X225474800Y-60213800I265000J0D01*
G01*
X226746800Y-60213800D01*
G75*
G02*
X227011800Y-60478800I0J-265000D01*
G01*
X227011800Y-62050800D01*
G75*
G02*
X226746800Y-62315800I-265000J0D01*
G01*
X225474800Y-62315800D01*
G75*
G02*
X225209800Y-62050800I0J265000D01*
G01*
G37*
D10*
X228777800Y-67691000D03*
X226237800Y-67691000D03*
X223697800Y-67691000D03*
G36*
G01*
X222007800Y-68592000D02*
X220307800Y-68592000D01*
G75*
G02*
X220256800Y-68541000I0J51000D01*
G01*
X220256800Y-66841000D01*
G75*
G02*
X220307800Y-66790000I51000J0D01*
G01*
X222007800Y-66790000D01*
G75*
G02*
X222058800Y-66841000I0J-51000D01*
G01*
X222058800Y-68541000D01*
G75*
G02*
X222007800Y-68592000I-51000J0D01*
G01*
G37*
D12*
X174269400Y-74519800D03*
X174269400Y-72019800D03*
G36*
G01*
X173508400Y-68618800D02*
X175030400Y-68618800D01*
G75*
G02*
X175295400Y-68883800I0J-265000D01*
G01*
X175295400Y-70155800D01*
G75*
G02*
X175030400Y-70420800I-265000J0D01*
G01*
X173508400Y-70420800D01*
G75*
G02*
X173243400Y-70155800I0J265000D01*
G01*
X173243400Y-68883800D01*
G75*
G02*
X173508400Y-68618800I265000J0D01*
G01*
G37*
D18*
X232416000Y-71120000D03*
X255016000Y-71120000D03*
G36*
G01*
X214562000Y-42533000D02*
X214562000Y-41033000D01*
G75*
G02*
X214613000Y-40982000I51000J0D01*
G01*
X215663000Y-40982000D01*
G75*
G02*
X215714000Y-41033000I0J-51000D01*
G01*
X215714000Y-42533000D01*
G75*
G02*
X215663000Y-42584000I-51000J0D01*
G01*
X214613000Y-42584000D01*
G75*
G02*
X214562000Y-42533000I0J51000D01*
G01*
G37*
D19*
X217678000Y-41783000D03*
X216408000Y-41783000D03*
D12*
X260350000Y-124540000D03*
X260350000Y-127040000D03*
G36*
G01*
X261111000Y-130441000D02*
X259589000Y-130441000D01*
G75*
G02*
X259324000Y-130176000I0J265000D01*
G01*
X259324000Y-128904000D01*
G75*
G02*
X259589000Y-128639000I265000J0D01*
G01*
X261111000Y-128639000D01*
G75*
G02*
X261376000Y-128904000I0J-265000D01*
G01*
X261376000Y-130176000D01*
G75*
G02*
X261111000Y-130441000I-265000J0D01*
G01*
G37*
X252730000Y-124540000D03*
X252730000Y-127040000D03*
G36*
G01*
X253491000Y-130441000D02*
X251969000Y-130441000D01*
G75*
G02*
X251704000Y-130176000I0J265000D01*
G01*
X251704000Y-128904000D01*
G75*
G02*
X251969000Y-128639000I265000J0D01*
G01*
X253491000Y-128639000D01*
G75*
G02*
X253756000Y-128904000I0J-265000D01*
G01*
X253756000Y-130176000D01*
G75*
G02*
X253491000Y-130441000I-265000J0D01*
G01*
G37*
X245110000Y-124540000D03*
X245110000Y-127040000D03*
G36*
G01*
X245871000Y-130441000D02*
X244349000Y-130441000D01*
G75*
G02*
X244084000Y-130176000I0J265000D01*
G01*
X244084000Y-128904000D01*
G75*
G02*
X244349000Y-128639000I265000J0D01*
G01*
X245871000Y-128639000D01*
G75*
G02*
X246136000Y-128904000I0J-265000D01*
G01*
X246136000Y-130176000D01*
G75*
G02*
X245871000Y-130441000I-265000J0D01*
G01*
G37*
X237490000Y-124540000D03*
X237490000Y-127040000D03*
G36*
G01*
X238251000Y-130441000D02*
X236729000Y-130441000D01*
G75*
G02*
X236464000Y-130176000I0J265000D01*
G01*
X236464000Y-128904000D01*
G75*
G02*
X236729000Y-128639000I265000J0D01*
G01*
X238251000Y-128639000D01*
G75*
G02*
X238516000Y-128904000I0J-265000D01*
G01*
X238516000Y-130176000D01*
G75*
G02*
X238251000Y-130441000I-265000J0D01*
G01*
G37*
X229870000Y-124540000D03*
X229870000Y-127040000D03*
G36*
G01*
X230631000Y-130441000D02*
X229109000Y-130441000D01*
G75*
G02*
X228844000Y-130176000I0J265000D01*
G01*
X228844000Y-128904000D01*
G75*
G02*
X229109000Y-128639000I265000J0D01*
G01*
X230631000Y-128639000D01*
G75*
G02*
X230896000Y-128904000I0J-265000D01*
G01*
X230896000Y-130176000D01*
G75*
G02*
X230631000Y-130441000I-265000J0D01*
G01*
G37*
X214630000Y-124540000D03*
X214630000Y-127040000D03*
G36*
G01*
X215391000Y-130441000D02*
X213869000Y-130441000D01*
G75*
G02*
X213604000Y-130176000I0J265000D01*
G01*
X213604000Y-128904000D01*
G75*
G02*
X213869000Y-128639000I265000J0D01*
G01*
X215391000Y-128639000D01*
G75*
G02*
X215656000Y-128904000I0J-265000D01*
G01*
X215656000Y-130176000D01*
G75*
G02*
X215391000Y-130441000I-265000J0D01*
G01*
G37*
D20*
X260350000Y-110530000D03*
G36*
G01*
X261136000Y-113931000D02*
X259564000Y-113931000D01*
G75*
G02*
X259299000Y-113666000I0J265000D01*
G01*
X259299000Y-112394000D01*
G75*
G02*
X259564000Y-112129000I265000J0D01*
G01*
X261136000Y-112129000D01*
G75*
G02*
X261401000Y-112394000I0J-265000D01*
G01*
X261401000Y-113666000D01*
G75*
G02*
X261136000Y-113931000I-265000J0D01*
G01*
G37*
X252730000Y-110530000D03*
G36*
G01*
X253516000Y-113931000D02*
X251944000Y-113931000D01*
G75*
G02*
X251679000Y-113666000I0J265000D01*
G01*
X251679000Y-112394000D01*
G75*
G02*
X251944000Y-112129000I265000J0D01*
G01*
X253516000Y-112129000D01*
G75*
G02*
X253781000Y-112394000I0J-265000D01*
G01*
X253781000Y-113666000D01*
G75*
G02*
X253516000Y-113931000I-265000J0D01*
G01*
G37*
X245110000Y-110530000D03*
G36*
G01*
X245896000Y-113931000D02*
X244324000Y-113931000D01*
G75*
G02*
X244059000Y-113666000I0J265000D01*
G01*
X244059000Y-112394000D01*
G75*
G02*
X244324000Y-112129000I265000J0D01*
G01*
X245896000Y-112129000D01*
G75*
G02*
X246161000Y-112394000I0J-265000D01*
G01*
X246161000Y-113666000D01*
G75*
G02*
X245896000Y-113931000I-265000J0D01*
G01*
G37*
X237490000Y-110530000D03*
G36*
G01*
X238276000Y-113931000D02*
X236704000Y-113931000D01*
G75*
G02*
X236439000Y-113666000I0J265000D01*
G01*
X236439000Y-112394000D01*
G75*
G02*
X236704000Y-112129000I265000J0D01*
G01*
X238276000Y-112129000D01*
G75*
G02*
X238541000Y-112394000I0J-265000D01*
G01*
X238541000Y-113666000D01*
G75*
G02*
X238276000Y-113931000I-265000J0D01*
G01*
G37*
X229870000Y-110530000D03*
G36*
G01*
X230656000Y-113931000D02*
X229084000Y-113931000D01*
G75*
G02*
X228819000Y-113666000I0J265000D01*
G01*
X228819000Y-112394000D01*
G75*
G02*
X229084000Y-112129000I265000J0D01*
G01*
X230656000Y-112129000D01*
G75*
G02*
X230921000Y-112394000I0J-265000D01*
G01*
X230921000Y-113666000D01*
G75*
G02*
X230656000Y-113931000I-265000J0D01*
G01*
G37*
X222250000Y-110530000D03*
G36*
G01*
X223036000Y-113931000D02*
X221464000Y-113931000D01*
G75*
G02*
X221199000Y-113666000I0J265000D01*
G01*
X221199000Y-112394000D01*
G75*
G02*
X221464000Y-112129000I265000J0D01*
G01*
X223036000Y-112129000D01*
G75*
G02*
X223301000Y-112394000I0J-265000D01*
G01*
X223301000Y-113666000D01*
G75*
G02*
X223036000Y-113931000I-265000J0D01*
G01*
G37*
X214630000Y-110530000D03*
G36*
G01*
X215416000Y-113931000D02*
X213844000Y-113931000D01*
G75*
G02*
X213579000Y-113666000I0J265000D01*
G01*
X213579000Y-112394000D01*
G75*
G02*
X213844000Y-112129000I265000J0D01*
G01*
X215416000Y-112129000D01*
G75*
G02*
X215681000Y-112394000I0J-265000D01*
G01*
X215681000Y-113666000D01*
G75*
G02*
X215416000Y-113931000I-265000J0D01*
G01*
G37*
D21*
G36*
X221225990Y-130175804D02*
G01*
X221231062Y-130227304D01*
X221246029Y-130276642D01*
X221270332Y-130322110D01*
X221303038Y-130361962D01*
X221342890Y-130394668D01*
X221388358Y-130418971D01*
X221437696Y-130433938D01*
X221489196Y-130439010D01*
X221490822Y-130440175D01*
X221490626Y-130442165D01*
X221489000Y-130443000D01*
X221406903Y-130443000D01*
X221406707Y-130442990D01*
X221366204Y-130439001D01*
X221365819Y-130438925D01*
X221332767Y-130428899D01*
X221332405Y-130428749D01*
X221301954Y-130412472D01*
X221301628Y-130412254D01*
X221274932Y-130390345D01*
X221274655Y-130390068D01*
X221252746Y-130363372D01*
X221252528Y-130363046D01*
X221236251Y-130332595D01*
X221236101Y-130332233D01*
X221226075Y-130299181D01*
X221225999Y-130298796D01*
X221222010Y-130258293D01*
X221222000Y-130258097D01*
X221222000Y-130176000D01*
X221223000Y-130174268D01*
X221225000Y-130174268D01*
X221225990Y-130175804D01*
G37*
G36*
X261377165Y-130174374D02*
G01*
X261378000Y-130176000D01*
X261378000Y-130258097D01*
X261377990Y-130258293D01*
X261374001Y-130298796D01*
X261373925Y-130299181D01*
X261363899Y-130332233D01*
X261363749Y-130332595D01*
X261347472Y-130363046D01*
X261347254Y-130363372D01*
X261325345Y-130390068D01*
X261325068Y-130390345D01*
X261298372Y-130412254D01*
X261298046Y-130412472D01*
X261267595Y-130428749D01*
X261267233Y-130428899D01*
X261234181Y-130438925D01*
X261233796Y-130439001D01*
X261193293Y-130442990D01*
X261193097Y-130443000D01*
X261111000Y-130443000D01*
X261109268Y-130442000D01*
X261109268Y-130440000D01*
X261110804Y-130439010D01*
X261162304Y-130433938D01*
X261211642Y-130418971D01*
X261257110Y-130394668D01*
X261296962Y-130361962D01*
X261329668Y-130322110D01*
X261353971Y-130276642D01*
X261368938Y-130227304D01*
X261374010Y-130175804D01*
X261375175Y-130174178D01*
X261377165Y-130174374D01*
G37*
G36*
X230897165Y-130174374D02*
G01*
X230898000Y-130176000D01*
X230898000Y-130258097D01*
X230897990Y-130258293D01*
X230894001Y-130298796D01*
X230893925Y-130299181D01*
X230883899Y-130332233D01*
X230883749Y-130332595D01*
X230867472Y-130363046D01*
X230867254Y-130363372D01*
X230845345Y-130390068D01*
X230845068Y-130390345D01*
X230818372Y-130412254D01*
X230818046Y-130412472D01*
X230787595Y-130428749D01*
X230787233Y-130428899D01*
X230754181Y-130438925D01*
X230753796Y-130439001D01*
X230713293Y-130442990D01*
X230713097Y-130443000D01*
X230631000Y-130443000D01*
X230629268Y-130442000D01*
X230629268Y-130440000D01*
X230630804Y-130439010D01*
X230682304Y-130433938D01*
X230731642Y-130418971D01*
X230777110Y-130394668D01*
X230816962Y-130361962D01*
X230849668Y-130322110D01*
X230873971Y-130276642D01*
X230888938Y-130227304D01*
X230894010Y-130175804D01*
X230895175Y-130174178D01*
X230897165Y-130174374D01*
G37*
G36*
X244085990Y-130175804D02*
G01*
X244091062Y-130227304D01*
X244106029Y-130276642D01*
X244130332Y-130322110D01*
X244163038Y-130361962D01*
X244202890Y-130394668D01*
X244248358Y-130418971D01*
X244297696Y-130433938D01*
X244349196Y-130439010D01*
X244350822Y-130440175D01*
X244350626Y-130442165D01*
X244349000Y-130443000D01*
X244266903Y-130443000D01*
X244266707Y-130442990D01*
X244226204Y-130439001D01*
X244225819Y-130438925D01*
X244192767Y-130428899D01*
X244192405Y-130428749D01*
X244161954Y-130412472D01*
X244161628Y-130412254D01*
X244134932Y-130390345D01*
X244134655Y-130390068D01*
X244112746Y-130363372D01*
X244112528Y-130363046D01*
X244096251Y-130332595D01*
X244096101Y-130332233D01*
X244086075Y-130299181D01*
X244085999Y-130298796D01*
X244082010Y-130258293D01*
X244082000Y-130258097D01*
X244082000Y-130176000D01*
X244083000Y-130174268D01*
X244085000Y-130174268D01*
X244085990Y-130175804D01*
G37*
G36*
X251705990Y-130175804D02*
G01*
X251711062Y-130227304D01*
X251726029Y-130276642D01*
X251750332Y-130322110D01*
X251783038Y-130361962D01*
X251822890Y-130394668D01*
X251868358Y-130418971D01*
X251917696Y-130433938D01*
X251969196Y-130439010D01*
X251970822Y-130440175D01*
X251970626Y-130442165D01*
X251969000Y-130443000D01*
X251886903Y-130443000D01*
X251886707Y-130442990D01*
X251846204Y-130439001D01*
X251845819Y-130438925D01*
X251812767Y-130428899D01*
X251812405Y-130428749D01*
X251781954Y-130412472D01*
X251781628Y-130412254D01*
X251754932Y-130390345D01*
X251754655Y-130390068D01*
X251732746Y-130363372D01*
X251732528Y-130363046D01*
X251716251Y-130332595D01*
X251716101Y-130332233D01*
X251706075Y-130299181D01*
X251705999Y-130298796D01*
X251702010Y-130258293D01*
X251702000Y-130258097D01*
X251702000Y-130176000D01*
X251703000Y-130174268D01*
X251705000Y-130174268D01*
X251705990Y-130175804D01*
G37*
G36*
X259325990Y-130175804D02*
G01*
X259331062Y-130227304D01*
X259346029Y-130276642D01*
X259370332Y-130322110D01*
X259403038Y-130361962D01*
X259442890Y-130394668D01*
X259488358Y-130418971D01*
X259537696Y-130433938D01*
X259589196Y-130439010D01*
X259590822Y-130440175D01*
X259590626Y-130442165D01*
X259589000Y-130443000D01*
X259506903Y-130443000D01*
X259506707Y-130442990D01*
X259466204Y-130439001D01*
X259465819Y-130438925D01*
X259432767Y-130428899D01*
X259432405Y-130428749D01*
X259401954Y-130412472D01*
X259401628Y-130412254D01*
X259374932Y-130390345D01*
X259374655Y-130390068D01*
X259352746Y-130363372D01*
X259352528Y-130363046D01*
X259336251Y-130332595D01*
X259336101Y-130332233D01*
X259326075Y-130299181D01*
X259325999Y-130298796D01*
X259322010Y-130258293D01*
X259322000Y-130258097D01*
X259322000Y-130176000D01*
X259323000Y-130174268D01*
X259325000Y-130174268D01*
X259325990Y-130175804D01*
G37*
G36*
X236465990Y-130175804D02*
G01*
X236471062Y-130227304D01*
X236486029Y-130276642D01*
X236510332Y-130322110D01*
X236543038Y-130361962D01*
X236582890Y-130394668D01*
X236628358Y-130418971D01*
X236677696Y-130433938D01*
X236729196Y-130439010D01*
X236730822Y-130440175D01*
X236730626Y-130442165D01*
X236729000Y-130443000D01*
X236646903Y-130443000D01*
X236646707Y-130442990D01*
X236606204Y-130439001D01*
X236605819Y-130438925D01*
X236572767Y-130428899D01*
X236572405Y-130428749D01*
X236541954Y-130412472D01*
X236541628Y-130412254D01*
X236514932Y-130390345D01*
X236514655Y-130390068D01*
X236492746Y-130363372D01*
X236492528Y-130363046D01*
X236476251Y-130332595D01*
X236476101Y-130332233D01*
X236466075Y-130299181D01*
X236465999Y-130298796D01*
X236462010Y-130258293D01*
X236462000Y-130258097D01*
X236462000Y-130176000D01*
X236463000Y-130174268D01*
X236465000Y-130174268D01*
X236465990Y-130175804D01*
G37*
G36*
X238517165Y-130174374D02*
G01*
X238518000Y-130176000D01*
X238518000Y-130258097D01*
X238517990Y-130258293D01*
X238514001Y-130298796D01*
X238513925Y-130299181D01*
X238503899Y-130332233D01*
X238503749Y-130332595D01*
X238487472Y-130363046D01*
X238487254Y-130363372D01*
X238465345Y-130390068D01*
X238465068Y-130390345D01*
X238438372Y-130412254D01*
X238438046Y-130412472D01*
X238407595Y-130428749D01*
X238407233Y-130428899D01*
X238374181Y-130438925D01*
X238373796Y-130439001D01*
X238333293Y-130442990D01*
X238333097Y-130443000D01*
X238251000Y-130443000D01*
X238249268Y-130442000D01*
X238249268Y-130440000D01*
X238250804Y-130439010D01*
X238302304Y-130433938D01*
X238351642Y-130418971D01*
X238397110Y-130394668D01*
X238436962Y-130361962D01*
X238469668Y-130322110D01*
X238493971Y-130276642D01*
X238508938Y-130227304D01*
X238514010Y-130175804D01*
X238515175Y-130174178D01*
X238517165Y-130174374D01*
G37*
G36*
X223277165Y-130174374D02*
G01*
X223278000Y-130176000D01*
X223278000Y-130258097D01*
X223277990Y-130258293D01*
X223274001Y-130298796D01*
X223273925Y-130299181D01*
X223263899Y-130332233D01*
X223263749Y-130332595D01*
X223247472Y-130363046D01*
X223247254Y-130363372D01*
X223225345Y-130390068D01*
X223225068Y-130390345D01*
X223198372Y-130412254D01*
X223198046Y-130412472D01*
X223167595Y-130428749D01*
X223167233Y-130428899D01*
X223134181Y-130438925D01*
X223133796Y-130439001D01*
X223093293Y-130442990D01*
X223093097Y-130443000D01*
X223011000Y-130443000D01*
X223009268Y-130442000D01*
X223009268Y-130440000D01*
X223010804Y-130439010D01*
X223062304Y-130433938D01*
X223111642Y-130418971D01*
X223157110Y-130394668D01*
X223196962Y-130361962D01*
X223229668Y-130322110D01*
X223253971Y-130276642D01*
X223268938Y-130227304D01*
X223274010Y-130175804D01*
X223275175Y-130174178D01*
X223277165Y-130174374D01*
G37*
G36*
X228845990Y-130175804D02*
G01*
X228851062Y-130227304D01*
X228866029Y-130276642D01*
X228890332Y-130322110D01*
X228923038Y-130361962D01*
X228962890Y-130394668D01*
X229008358Y-130418971D01*
X229057696Y-130433938D01*
X229109196Y-130439010D01*
X229110822Y-130440175D01*
X229110626Y-130442165D01*
X229109000Y-130443000D01*
X229026903Y-130443000D01*
X229026707Y-130442990D01*
X228986204Y-130439001D01*
X228985819Y-130438925D01*
X228952767Y-130428899D01*
X228952405Y-130428749D01*
X228921954Y-130412472D01*
X228921628Y-130412254D01*
X228894932Y-130390345D01*
X228894655Y-130390068D01*
X228872746Y-130363372D01*
X228872528Y-130363046D01*
X228856251Y-130332595D01*
X228856101Y-130332233D01*
X228846075Y-130299181D01*
X228845999Y-130298796D01*
X228842010Y-130258293D01*
X228842000Y-130258097D01*
X228842000Y-130176000D01*
X228843000Y-130174268D01*
X228845000Y-130174268D01*
X228845990Y-130175804D01*
G37*
G36*
X213605990Y-130175804D02*
G01*
X213611062Y-130227304D01*
X213626029Y-130276642D01*
X213650332Y-130322110D01*
X213683038Y-130361962D01*
X213722890Y-130394668D01*
X213768358Y-130418971D01*
X213817696Y-130433938D01*
X213869196Y-130439010D01*
X213870822Y-130440175D01*
X213870626Y-130442165D01*
X213869000Y-130443000D01*
X213786903Y-130443000D01*
X213786707Y-130442990D01*
X213746204Y-130439001D01*
X213745819Y-130438925D01*
X213712767Y-130428899D01*
X213712405Y-130428749D01*
X213681954Y-130412472D01*
X213681628Y-130412254D01*
X213654932Y-130390345D01*
X213654655Y-130390068D01*
X213632746Y-130363372D01*
X213632528Y-130363046D01*
X213616251Y-130332595D01*
X213616101Y-130332233D01*
X213606075Y-130299181D01*
X213605999Y-130298796D01*
X213602010Y-130258293D01*
X213602000Y-130258097D01*
X213602000Y-130176000D01*
X213603000Y-130174268D01*
X213605000Y-130174268D01*
X213605990Y-130175804D01*
G37*
G36*
X253757165Y-130174374D02*
G01*
X253758000Y-130176000D01*
X253758000Y-130258097D01*
X253757990Y-130258293D01*
X253754001Y-130298796D01*
X253753925Y-130299181D01*
X253743899Y-130332233D01*
X253743749Y-130332595D01*
X253727472Y-130363046D01*
X253727254Y-130363372D01*
X253705345Y-130390068D01*
X253705068Y-130390345D01*
X253678372Y-130412254D01*
X253678046Y-130412472D01*
X253647595Y-130428749D01*
X253647233Y-130428899D01*
X253614181Y-130438925D01*
X253613796Y-130439001D01*
X253573293Y-130442990D01*
X253573097Y-130443000D01*
X253491000Y-130443000D01*
X253489268Y-130442000D01*
X253489268Y-130440000D01*
X253490804Y-130439010D01*
X253542304Y-130433938D01*
X253591642Y-130418971D01*
X253637110Y-130394668D01*
X253676962Y-130361962D01*
X253709668Y-130322110D01*
X253733971Y-130276642D01*
X253748938Y-130227304D01*
X253754010Y-130175804D01*
X253755175Y-130174178D01*
X253757165Y-130174374D01*
G37*
G36*
X246137165Y-130174374D02*
G01*
X246138000Y-130176000D01*
X246138000Y-130258097D01*
X246137990Y-130258293D01*
X246134001Y-130298796D01*
X246133925Y-130299181D01*
X246123899Y-130332233D01*
X246123749Y-130332595D01*
X246107472Y-130363046D01*
X246107254Y-130363372D01*
X246085345Y-130390068D01*
X246085068Y-130390345D01*
X246058372Y-130412254D01*
X246058046Y-130412472D01*
X246027595Y-130428749D01*
X246027233Y-130428899D01*
X245994181Y-130438925D01*
X245993796Y-130439001D01*
X245953293Y-130442990D01*
X245953097Y-130443000D01*
X245871000Y-130443000D01*
X245869268Y-130442000D01*
X245869268Y-130440000D01*
X245870804Y-130439010D01*
X245922304Y-130433938D01*
X245971642Y-130418971D01*
X246017110Y-130394668D01*
X246056962Y-130361962D01*
X246089668Y-130322110D01*
X246113971Y-130276642D01*
X246128938Y-130227304D01*
X246134010Y-130175804D01*
X246135175Y-130174178D01*
X246137165Y-130174374D01*
G37*
G36*
X215657165Y-130174374D02*
G01*
X215658000Y-130176000D01*
X215658000Y-130258097D01*
X215657990Y-130258293D01*
X215654001Y-130298796D01*
X215653925Y-130299181D01*
X215643899Y-130332233D01*
X215643749Y-130332595D01*
X215627472Y-130363046D01*
X215627254Y-130363372D01*
X215605345Y-130390068D01*
X215605068Y-130390345D01*
X215578372Y-130412254D01*
X215578046Y-130412472D01*
X215547595Y-130428749D01*
X215547233Y-130428899D01*
X215514181Y-130438925D01*
X215513796Y-130439001D01*
X215473293Y-130442990D01*
X215473097Y-130443000D01*
X215391000Y-130443000D01*
X215389268Y-130442000D01*
X215389268Y-130440000D01*
X215390804Y-130439010D01*
X215442304Y-130433938D01*
X215491642Y-130418971D01*
X215537110Y-130394668D01*
X215576962Y-130361962D01*
X215609668Y-130322110D01*
X215633971Y-130276642D01*
X215648938Y-130227304D01*
X215654010Y-130175804D01*
X215655175Y-130174178D01*
X215657165Y-130174374D01*
G37*
G36*
X199530165Y-129537374D02*
G01*
X199531000Y-129539000D01*
X199531000Y-129621097D01*
X199530990Y-129621293D01*
X199527001Y-129661796D01*
X199526925Y-129662181D01*
X199516899Y-129695233D01*
X199516749Y-129695595D01*
X199500472Y-129726046D01*
X199500254Y-129726372D01*
X199478345Y-129753068D01*
X199478068Y-129753345D01*
X199451372Y-129775254D01*
X199451046Y-129775472D01*
X199420595Y-129791749D01*
X199420233Y-129791899D01*
X199387181Y-129801925D01*
X199386796Y-129802001D01*
X199346293Y-129805990D01*
X199346097Y-129806000D01*
X199264000Y-129806000D01*
X199262268Y-129805000D01*
X199262268Y-129803000D01*
X199263804Y-129802010D01*
X199315304Y-129796938D01*
X199364642Y-129781971D01*
X199410110Y-129757668D01*
X199449962Y-129724962D01*
X199482668Y-129685110D01*
X199506971Y-129639642D01*
X199521938Y-129590304D01*
X199527010Y-129538804D01*
X199528175Y-129537178D01*
X199530165Y-129537374D01*
G37*
G36*
X197728990Y-129538804D02*
G01*
X197734062Y-129590304D01*
X197749029Y-129639642D01*
X197773332Y-129685110D01*
X197806038Y-129724962D01*
X197845890Y-129757668D01*
X197891358Y-129781971D01*
X197940696Y-129796938D01*
X197992196Y-129802010D01*
X197993822Y-129803175D01*
X197993626Y-129805165D01*
X197992000Y-129806000D01*
X197909903Y-129806000D01*
X197909707Y-129805990D01*
X197869204Y-129802001D01*
X197868819Y-129801925D01*
X197835767Y-129791899D01*
X197835405Y-129791749D01*
X197804954Y-129775472D01*
X197804628Y-129775254D01*
X197777932Y-129753345D01*
X197777655Y-129753068D01*
X197755746Y-129726372D01*
X197755528Y-129726046D01*
X197739251Y-129695595D01*
X197739101Y-129695233D01*
X197729075Y-129662181D01*
X197728999Y-129661796D01*
X197725010Y-129621293D01*
X197725000Y-129621097D01*
X197725000Y-129539000D01*
X197726000Y-129537268D01*
X197728000Y-129537268D01*
X197728990Y-129538804D01*
G37*
G36*
X236730732Y-128638000D02*
G01*
X236730732Y-128640000D01*
X236729196Y-128640990D01*
X236677696Y-128646062D01*
X236628358Y-128661029D01*
X236582890Y-128685332D01*
X236543038Y-128718038D01*
X236510332Y-128757890D01*
X236486029Y-128803358D01*
X236471062Y-128852696D01*
X236465990Y-128904196D01*
X236464825Y-128905822D01*
X236462835Y-128905626D01*
X236462000Y-128904000D01*
X236462000Y-128821903D01*
X236462010Y-128821707D01*
X236465999Y-128781204D01*
X236466075Y-128780819D01*
X236476101Y-128747767D01*
X236476251Y-128747405D01*
X236492528Y-128716954D01*
X236492746Y-128716628D01*
X236514655Y-128689932D01*
X236514932Y-128689655D01*
X236541628Y-128667746D01*
X236541954Y-128667528D01*
X236572405Y-128651251D01*
X236572767Y-128651101D01*
X236605819Y-128641075D01*
X236606204Y-128640999D01*
X236646707Y-128637010D01*
X236646903Y-128637000D01*
X236729000Y-128637000D01*
X236730732Y-128638000D01*
G37*
G36*
X244350732Y-128638000D02*
G01*
X244350732Y-128640000D01*
X244349196Y-128640990D01*
X244297696Y-128646062D01*
X244248358Y-128661029D01*
X244202890Y-128685332D01*
X244163038Y-128718038D01*
X244130332Y-128757890D01*
X244106029Y-128803358D01*
X244091062Y-128852696D01*
X244085990Y-128904196D01*
X244084825Y-128905822D01*
X244082835Y-128905626D01*
X244082000Y-128904000D01*
X244082000Y-128821903D01*
X244082010Y-128821707D01*
X244085999Y-128781204D01*
X244086075Y-128780819D01*
X244096101Y-128747767D01*
X244096251Y-128747405D01*
X244112528Y-128716954D01*
X244112746Y-128716628D01*
X244134655Y-128689932D01*
X244134932Y-128689655D01*
X244161628Y-128667746D01*
X244161954Y-128667528D01*
X244192405Y-128651251D01*
X244192767Y-128651101D01*
X244225819Y-128641075D01*
X244226204Y-128640999D01*
X244266707Y-128637010D01*
X244266903Y-128637000D01*
X244349000Y-128637000D01*
X244350732Y-128638000D01*
G37*
G36*
X259590732Y-128638000D02*
G01*
X259590732Y-128640000D01*
X259589196Y-128640990D01*
X259537696Y-128646062D01*
X259488358Y-128661029D01*
X259442890Y-128685332D01*
X259403038Y-128718038D01*
X259370332Y-128757890D01*
X259346029Y-128803358D01*
X259331062Y-128852696D01*
X259325990Y-128904196D01*
X259324825Y-128905822D01*
X259322835Y-128905626D01*
X259322000Y-128904000D01*
X259322000Y-128821903D01*
X259322010Y-128821707D01*
X259325999Y-128781204D01*
X259326075Y-128780819D01*
X259336101Y-128747767D01*
X259336251Y-128747405D01*
X259352528Y-128716954D01*
X259352746Y-128716628D01*
X259374655Y-128689932D01*
X259374932Y-128689655D01*
X259401628Y-128667746D01*
X259401954Y-128667528D01*
X259432405Y-128651251D01*
X259432767Y-128651101D01*
X259465819Y-128641075D01*
X259466204Y-128640999D01*
X259506707Y-128637010D01*
X259506903Y-128637000D01*
X259589000Y-128637000D01*
X259590732Y-128638000D01*
G37*
G36*
X221490732Y-128638000D02*
G01*
X221490732Y-128640000D01*
X221489196Y-128640990D01*
X221437696Y-128646062D01*
X221388358Y-128661029D01*
X221342890Y-128685332D01*
X221303038Y-128718038D01*
X221270332Y-128757890D01*
X221246029Y-128803358D01*
X221231062Y-128852696D01*
X221225990Y-128904196D01*
X221224825Y-128905822D01*
X221222835Y-128905626D01*
X221222000Y-128904000D01*
X221222000Y-128821903D01*
X221222010Y-128821707D01*
X221225999Y-128781204D01*
X221226075Y-128780819D01*
X221236101Y-128747767D01*
X221236251Y-128747405D01*
X221252528Y-128716954D01*
X221252746Y-128716628D01*
X221274655Y-128689932D01*
X221274932Y-128689655D01*
X221301628Y-128667746D01*
X221301954Y-128667528D01*
X221332405Y-128651251D01*
X221332767Y-128651101D01*
X221365819Y-128641075D01*
X221366204Y-128640999D01*
X221406707Y-128637010D01*
X221406903Y-128637000D01*
X221489000Y-128637000D01*
X221490732Y-128638000D01*
G37*
G36*
X213870732Y-128638000D02*
G01*
X213870732Y-128640000D01*
X213869196Y-128640990D01*
X213817696Y-128646062D01*
X213768358Y-128661029D01*
X213722890Y-128685332D01*
X213683038Y-128718038D01*
X213650332Y-128757890D01*
X213626029Y-128803358D01*
X213611062Y-128852696D01*
X213605990Y-128904196D01*
X213604825Y-128905822D01*
X213602835Y-128905626D01*
X213602000Y-128904000D01*
X213602000Y-128821903D01*
X213602010Y-128821707D01*
X213605999Y-128781204D01*
X213606075Y-128780819D01*
X213616101Y-128747767D01*
X213616251Y-128747405D01*
X213632528Y-128716954D01*
X213632746Y-128716628D01*
X213654655Y-128689932D01*
X213654932Y-128689655D01*
X213681628Y-128667746D01*
X213681954Y-128667528D01*
X213712405Y-128651251D01*
X213712767Y-128651101D01*
X213745819Y-128641075D01*
X213746204Y-128640999D01*
X213786707Y-128637010D01*
X213786903Y-128637000D01*
X213869000Y-128637000D01*
X213870732Y-128638000D01*
G37*
G36*
X251970732Y-128638000D02*
G01*
X251970732Y-128640000D01*
X251969196Y-128640990D01*
X251917696Y-128646062D01*
X251868358Y-128661029D01*
X251822890Y-128685332D01*
X251783038Y-128718038D01*
X251750332Y-128757890D01*
X251726029Y-128803358D01*
X251711062Y-128852696D01*
X251705990Y-128904196D01*
X251704825Y-128905822D01*
X251702835Y-128905626D01*
X251702000Y-128904000D01*
X251702000Y-128821903D01*
X251702010Y-128821707D01*
X251705999Y-128781204D01*
X251706075Y-128780819D01*
X251716101Y-128747767D01*
X251716251Y-128747405D01*
X251732528Y-128716954D01*
X251732746Y-128716628D01*
X251754655Y-128689932D01*
X251754932Y-128689655D01*
X251781628Y-128667746D01*
X251781954Y-128667528D01*
X251812405Y-128651251D01*
X251812767Y-128651101D01*
X251845819Y-128641075D01*
X251846204Y-128640999D01*
X251886707Y-128637010D01*
X251886903Y-128637000D01*
X251969000Y-128637000D01*
X251970732Y-128638000D01*
G37*
G36*
X229110732Y-128638000D02*
G01*
X229110732Y-128640000D01*
X229109196Y-128640990D01*
X229057696Y-128646062D01*
X229008358Y-128661029D01*
X228962890Y-128685332D01*
X228923038Y-128718038D01*
X228890332Y-128757890D01*
X228866029Y-128803358D01*
X228851062Y-128852696D01*
X228845990Y-128904196D01*
X228844825Y-128905822D01*
X228842835Y-128905626D01*
X228842000Y-128904000D01*
X228842000Y-128821903D01*
X228842010Y-128821707D01*
X228845999Y-128781204D01*
X228846075Y-128780819D01*
X228856101Y-128747767D01*
X228856251Y-128747405D01*
X228872528Y-128716954D01*
X228872746Y-128716628D01*
X228894655Y-128689932D01*
X228894932Y-128689655D01*
X228921628Y-128667746D01*
X228921954Y-128667528D01*
X228952405Y-128651251D01*
X228952767Y-128651101D01*
X228985819Y-128641075D01*
X228986204Y-128640999D01*
X229026707Y-128637010D01*
X229026903Y-128637000D01*
X229109000Y-128637000D01*
X229110732Y-128638000D01*
G37*
G36*
X223093293Y-128637010D02*
G01*
X223133796Y-128640999D01*
X223134181Y-128641075D01*
X223167233Y-128651101D01*
X223167595Y-128651251D01*
X223198046Y-128667528D01*
X223198372Y-128667746D01*
X223225068Y-128689655D01*
X223225345Y-128689932D01*
X223247254Y-128716628D01*
X223247472Y-128716954D01*
X223263749Y-128747405D01*
X223263899Y-128747767D01*
X223273925Y-128780819D01*
X223274001Y-128781204D01*
X223277990Y-128821707D01*
X223278000Y-128821903D01*
X223278000Y-128904000D01*
X223277000Y-128905732D01*
X223275000Y-128905732D01*
X223274010Y-128904196D01*
X223268938Y-128852696D01*
X223253971Y-128803358D01*
X223229668Y-128757890D01*
X223196962Y-128718038D01*
X223157110Y-128685332D01*
X223111642Y-128661029D01*
X223062304Y-128646062D01*
X223010804Y-128640990D01*
X223009178Y-128639825D01*
X223009374Y-128637835D01*
X223011000Y-128637000D01*
X223093097Y-128637000D01*
X223093293Y-128637010D01*
G37*
G36*
X245953293Y-128637010D02*
G01*
X245993796Y-128640999D01*
X245994181Y-128641075D01*
X246027233Y-128651101D01*
X246027595Y-128651251D01*
X246058046Y-128667528D01*
X246058372Y-128667746D01*
X246085068Y-128689655D01*
X246085345Y-128689932D01*
X246107254Y-128716628D01*
X246107472Y-128716954D01*
X246123749Y-128747405D01*
X246123899Y-128747767D01*
X246133925Y-128780819D01*
X246134001Y-128781204D01*
X246137990Y-128821707D01*
X246138000Y-128821903D01*
X246138000Y-128904000D01*
X246137000Y-128905732D01*
X246135000Y-128905732D01*
X246134010Y-128904196D01*
X246128938Y-128852696D01*
X246113971Y-128803358D01*
X246089668Y-128757890D01*
X246056962Y-128718038D01*
X246017110Y-128685332D01*
X245971642Y-128661029D01*
X245922304Y-128646062D01*
X245870804Y-128640990D01*
X245869178Y-128639825D01*
X245869374Y-128637835D01*
X245871000Y-128637000D01*
X245953097Y-128637000D01*
X245953293Y-128637010D01*
G37*
G36*
X261193293Y-128637010D02*
G01*
X261233796Y-128640999D01*
X261234181Y-128641075D01*
X261267233Y-128651101D01*
X261267595Y-128651251D01*
X261298046Y-128667528D01*
X261298372Y-128667746D01*
X261325068Y-128689655D01*
X261325345Y-128689932D01*
X261347254Y-128716628D01*
X261347472Y-128716954D01*
X261363749Y-128747405D01*
X261363899Y-128747767D01*
X261373925Y-128780819D01*
X261374001Y-128781204D01*
X261377990Y-128821707D01*
X261378000Y-128821903D01*
X261378000Y-128904000D01*
X261377000Y-128905732D01*
X261375000Y-128905732D01*
X261374010Y-128904196D01*
X261368938Y-128852696D01*
X261353971Y-128803358D01*
X261329668Y-128757890D01*
X261296962Y-128718038D01*
X261257110Y-128685332D01*
X261211642Y-128661029D01*
X261162304Y-128646062D01*
X261110804Y-128640990D01*
X261109178Y-128639825D01*
X261109374Y-128637835D01*
X261111000Y-128637000D01*
X261193097Y-128637000D01*
X261193293Y-128637010D01*
G37*
G36*
X230713293Y-128637010D02*
G01*
X230753796Y-128640999D01*
X230754181Y-128641075D01*
X230787233Y-128651101D01*
X230787595Y-128651251D01*
X230818046Y-128667528D01*
X230818372Y-128667746D01*
X230845068Y-128689655D01*
X230845345Y-128689932D01*
X230867254Y-128716628D01*
X230867472Y-128716954D01*
X230883749Y-128747405D01*
X230883899Y-128747767D01*
X230893925Y-128780819D01*
X230894001Y-128781204D01*
X230897990Y-128821707D01*
X230898000Y-128821903D01*
X230898000Y-128904000D01*
X230897000Y-128905732D01*
X230895000Y-128905732D01*
X230894010Y-128904196D01*
X230888938Y-128852696D01*
X230873971Y-128803358D01*
X230849668Y-128757890D01*
X230816962Y-128718038D01*
X230777110Y-128685332D01*
X230731642Y-128661029D01*
X230682304Y-128646062D01*
X230630804Y-128640990D01*
X230629178Y-128639825D01*
X230629374Y-128637835D01*
X230631000Y-128637000D01*
X230713097Y-128637000D01*
X230713293Y-128637010D01*
G37*
G36*
X238333293Y-128637010D02*
G01*
X238373796Y-128640999D01*
X238374181Y-128641075D01*
X238407233Y-128651101D01*
X238407595Y-128651251D01*
X238438046Y-128667528D01*
X238438372Y-128667746D01*
X238465068Y-128689655D01*
X238465345Y-128689932D01*
X238487254Y-128716628D01*
X238487472Y-128716954D01*
X238503749Y-128747405D01*
X238503899Y-128747767D01*
X238513925Y-128780819D01*
X238514001Y-128781204D01*
X238517990Y-128821707D01*
X238518000Y-128821903D01*
X238518000Y-128904000D01*
X238517000Y-128905732D01*
X238515000Y-128905732D01*
X238514010Y-128904196D01*
X238508938Y-128852696D01*
X238493971Y-128803358D01*
X238469668Y-128757890D01*
X238436962Y-128718038D01*
X238397110Y-128685332D01*
X238351642Y-128661029D01*
X238302304Y-128646062D01*
X238250804Y-128640990D01*
X238249178Y-128639825D01*
X238249374Y-128637835D01*
X238251000Y-128637000D01*
X238333097Y-128637000D01*
X238333293Y-128637010D01*
G37*
G36*
X253573293Y-128637010D02*
G01*
X253613796Y-128640999D01*
X253614181Y-128641075D01*
X253647233Y-128651101D01*
X253647595Y-128651251D01*
X253678046Y-128667528D01*
X253678372Y-128667746D01*
X253705068Y-128689655D01*
X253705345Y-128689932D01*
X253727254Y-128716628D01*
X253727472Y-128716954D01*
X253743749Y-128747405D01*
X253743899Y-128747767D01*
X253753925Y-128780819D01*
X253754001Y-128781204D01*
X253757990Y-128821707D01*
X253758000Y-128821903D01*
X253758000Y-128904000D01*
X253757000Y-128905732D01*
X253755000Y-128905732D01*
X253754010Y-128904196D01*
X253748938Y-128852696D01*
X253733971Y-128803358D01*
X253709668Y-128757890D01*
X253676962Y-128718038D01*
X253637110Y-128685332D01*
X253591642Y-128661029D01*
X253542304Y-128646062D01*
X253490804Y-128640990D01*
X253489178Y-128639825D01*
X253489374Y-128637835D01*
X253491000Y-128637000D01*
X253573097Y-128637000D01*
X253573293Y-128637010D01*
G37*
G36*
X215473293Y-128637010D02*
G01*
X215513796Y-128640999D01*
X215514181Y-128641075D01*
X215547233Y-128651101D01*
X215547595Y-128651251D01*
X215578046Y-128667528D01*
X215578372Y-128667746D01*
X215605068Y-128689655D01*
X215605345Y-128689932D01*
X215627254Y-128716628D01*
X215627472Y-128716954D01*
X215643749Y-128747405D01*
X215643899Y-128747767D01*
X215653925Y-128780819D01*
X215654001Y-128781204D01*
X215657990Y-128821707D01*
X215658000Y-128821903D01*
X215658000Y-128904000D01*
X215657000Y-128905732D01*
X215655000Y-128905732D01*
X215654010Y-128904196D01*
X215648938Y-128852696D01*
X215633971Y-128803358D01*
X215609668Y-128757890D01*
X215576962Y-128718038D01*
X215537110Y-128685332D01*
X215491642Y-128661029D01*
X215442304Y-128646062D01*
X215390804Y-128640990D01*
X215389178Y-128639825D01*
X215389374Y-128637835D01*
X215391000Y-128637000D01*
X215473097Y-128637000D01*
X215473293Y-128637010D01*
G37*
G36*
X197993732Y-127751000D02*
G01*
X197993732Y-127753000D01*
X197992196Y-127753990D01*
X197940696Y-127759062D01*
X197891358Y-127774029D01*
X197845890Y-127798332D01*
X197806038Y-127831038D01*
X197773332Y-127870890D01*
X197749029Y-127916358D01*
X197734062Y-127965696D01*
X197728990Y-128017196D01*
X197727825Y-128018822D01*
X197725835Y-128018626D01*
X197725000Y-128017000D01*
X197725000Y-127934903D01*
X197725010Y-127934707D01*
X197728999Y-127894204D01*
X197729075Y-127893819D01*
X197739101Y-127860767D01*
X197739251Y-127860405D01*
X197755528Y-127829954D01*
X197755746Y-127829628D01*
X197777655Y-127802932D01*
X197777932Y-127802655D01*
X197804628Y-127780746D01*
X197804954Y-127780528D01*
X197835405Y-127764251D01*
X197835767Y-127764101D01*
X197868819Y-127754075D01*
X197869204Y-127753999D01*
X197909707Y-127750010D01*
X197909903Y-127750000D01*
X197992000Y-127750000D01*
X197993732Y-127751000D01*
G37*
G36*
X199346293Y-127750010D02*
G01*
X199386796Y-127753999D01*
X199387181Y-127754075D01*
X199420233Y-127764101D01*
X199420595Y-127764251D01*
X199451046Y-127780528D01*
X199451372Y-127780746D01*
X199478068Y-127802655D01*
X199478345Y-127802932D01*
X199500254Y-127829628D01*
X199500472Y-127829954D01*
X199516749Y-127860405D01*
X199516899Y-127860767D01*
X199526925Y-127893819D01*
X199527001Y-127894204D01*
X199530990Y-127934707D01*
X199531000Y-127934903D01*
X199531000Y-128017000D01*
X199530000Y-128018732D01*
X199528000Y-128018732D01*
X199527010Y-128017196D01*
X199521938Y-127965696D01*
X199506971Y-127916358D01*
X199482668Y-127870890D01*
X199449962Y-127831038D01*
X199410110Y-127798332D01*
X199364642Y-127774029D01*
X199315304Y-127759062D01*
X199263804Y-127753990D01*
X199262178Y-127752825D01*
X199262374Y-127750835D01*
X199264000Y-127750000D01*
X199346097Y-127750000D01*
X199346293Y-127750010D01*
G37*
G36*
X246162165Y-113664374D02*
G01*
X246163000Y-113666000D01*
X246163000Y-113748097D01*
X246162990Y-113748293D01*
X246159001Y-113788796D01*
X246158925Y-113789181D01*
X246148899Y-113822233D01*
X246148749Y-113822595D01*
X246132472Y-113853046D01*
X246132254Y-113853372D01*
X246110345Y-113880068D01*
X246110068Y-113880345D01*
X246083372Y-113902254D01*
X246083046Y-113902472D01*
X246052595Y-113918749D01*
X246052233Y-113918899D01*
X246019181Y-113928925D01*
X246018796Y-113929001D01*
X245978293Y-113932990D01*
X245978097Y-113933000D01*
X245896000Y-113933000D01*
X245894268Y-113932000D01*
X245894268Y-113930000D01*
X245895804Y-113929010D01*
X245947304Y-113923938D01*
X245996642Y-113908971D01*
X246042110Y-113884668D01*
X246081962Y-113851962D01*
X246114668Y-113812110D01*
X246138971Y-113766642D01*
X246153938Y-113717304D01*
X246159010Y-113665804D01*
X246160175Y-113664178D01*
X246162165Y-113664374D01*
G37*
G36*
X238542165Y-113664374D02*
G01*
X238543000Y-113666000D01*
X238543000Y-113748097D01*
X238542990Y-113748293D01*
X238539001Y-113788796D01*
X238538925Y-113789181D01*
X238528899Y-113822233D01*
X238528749Y-113822595D01*
X238512472Y-113853046D01*
X238512254Y-113853372D01*
X238490345Y-113880068D01*
X238490068Y-113880345D01*
X238463372Y-113902254D01*
X238463046Y-113902472D01*
X238432595Y-113918749D01*
X238432233Y-113918899D01*
X238399181Y-113928925D01*
X238398796Y-113929001D01*
X238358293Y-113932990D01*
X238358097Y-113933000D01*
X238276000Y-113933000D01*
X238274268Y-113932000D01*
X238274268Y-113930000D01*
X238275804Y-113929010D01*
X238327304Y-113923938D01*
X238376642Y-113908971D01*
X238422110Y-113884668D01*
X238461962Y-113851962D01*
X238494668Y-113812110D01*
X238518971Y-113766642D01*
X238533938Y-113717304D01*
X238539010Y-113665804D01*
X238540175Y-113664178D01*
X238542165Y-113664374D01*
G37*
G36*
X221200990Y-113665804D02*
G01*
X221206062Y-113717304D01*
X221221029Y-113766642D01*
X221245332Y-113812110D01*
X221278038Y-113851962D01*
X221317890Y-113884668D01*
X221363358Y-113908971D01*
X221412696Y-113923938D01*
X221464196Y-113929010D01*
X221465822Y-113930175D01*
X221465626Y-113932165D01*
X221464000Y-113933000D01*
X221381903Y-113933000D01*
X221381707Y-113932990D01*
X221341204Y-113929001D01*
X221340819Y-113928925D01*
X221307767Y-113918899D01*
X221307405Y-113918749D01*
X221276954Y-113902472D01*
X221276628Y-113902254D01*
X221249932Y-113880345D01*
X221249655Y-113880068D01*
X221227746Y-113853372D01*
X221227528Y-113853046D01*
X221211251Y-113822595D01*
X221211101Y-113822233D01*
X221201075Y-113789181D01*
X221200999Y-113788796D01*
X221197010Y-113748293D01*
X221197000Y-113748097D01*
X221197000Y-113666000D01*
X221198000Y-113664268D01*
X221200000Y-113664268D01*
X221200990Y-113665804D01*
G37*
G36*
X215682165Y-113664374D02*
G01*
X215683000Y-113666000D01*
X215683000Y-113748097D01*
X215682990Y-113748293D01*
X215679001Y-113788796D01*
X215678925Y-113789181D01*
X215668899Y-113822233D01*
X215668749Y-113822595D01*
X215652472Y-113853046D01*
X215652254Y-113853372D01*
X215630345Y-113880068D01*
X215630068Y-113880345D01*
X215603372Y-113902254D01*
X215603046Y-113902472D01*
X215572595Y-113918749D01*
X215572233Y-113918899D01*
X215539181Y-113928925D01*
X215538796Y-113929001D01*
X215498293Y-113932990D01*
X215498097Y-113933000D01*
X215416000Y-113933000D01*
X215414268Y-113932000D01*
X215414268Y-113930000D01*
X215415804Y-113929010D01*
X215467304Y-113923938D01*
X215516642Y-113908971D01*
X215562110Y-113884668D01*
X215601962Y-113851962D01*
X215634668Y-113812110D01*
X215658971Y-113766642D01*
X215673938Y-113717304D01*
X215679010Y-113665804D01*
X215680175Y-113664178D01*
X215682165Y-113664374D01*
G37*
G36*
X228820990Y-113665804D02*
G01*
X228826062Y-113717304D01*
X228841029Y-113766642D01*
X228865332Y-113812110D01*
X228898038Y-113851962D01*
X228937890Y-113884668D01*
X228983358Y-113908971D01*
X229032696Y-113923938D01*
X229084196Y-113929010D01*
X229085822Y-113930175D01*
X229085626Y-113932165D01*
X229084000Y-113933000D01*
X229001903Y-113933000D01*
X229001707Y-113932990D01*
X228961204Y-113929001D01*
X228960819Y-113928925D01*
X228927767Y-113918899D01*
X228927405Y-113918749D01*
X228896954Y-113902472D01*
X228896628Y-113902254D01*
X228869932Y-113880345D01*
X228869655Y-113880068D01*
X228847746Y-113853372D01*
X228847528Y-113853046D01*
X228831251Y-113822595D01*
X228831101Y-113822233D01*
X228821075Y-113789181D01*
X228820999Y-113788796D01*
X228817010Y-113748293D01*
X228817000Y-113748097D01*
X228817000Y-113666000D01*
X228818000Y-113664268D01*
X228820000Y-113664268D01*
X228820990Y-113665804D01*
G37*
G36*
X253782165Y-113664374D02*
G01*
X253783000Y-113666000D01*
X253783000Y-113748097D01*
X253782990Y-113748293D01*
X253779001Y-113788796D01*
X253778925Y-113789181D01*
X253768899Y-113822233D01*
X253768749Y-113822595D01*
X253752472Y-113853046D01*
X253752254Y-113853372D01*
X253730345Y-113880068D01*
X253730068Y-113880345D01*
X253703372Y-113902254D01*
X253703046Y-113902472D01*
X253672595Y-113918749D01*
X253672233Y-113918899D01*
X253639181Y-113928925D01*
X253638796Y-113929001D01*
X253598293Y-113932990D01*
X253598097Y-113933000D01*
X253516000Y-113933000D01*
X253514268Y-113932000D01*
X253514268Y-113930000D01*
X253515804Y-113929010D01*
X253567304Y-113923938D01*
X253616642Y-113908971D01*
X253662110Y-113884668D01*
X253701962Y-113851962D01*
X253734668Y-113812110D01*
X253758971Y-113766642D01*
X253773938Y-113717304D01*
X253779010Y-113665804D01*
X253780175Y-113664178D01*
X253782165Y-113664374D01*
G37*
G36*
X223302165Y-113664374D02*
G01*
X223303000Y-113666000D01*
X223303000Y-113748097D01*
X223302990Y-113748293D01*
X223299001Y-113788796D01*
X223298925Y-113789181D01*
X223288899Y-113822233D01*
X223288749Y-113822595D01*
X223272472Y-113853046D01*
X223272254Y-113853372D01*
X223250345Y-113880068D01*
X223250068Y-113880345D01*
X223223372Y-113902254D01*
X223223046Y-113902472D01*
X223192595Y-113918749D01*
X223192233Y-113918899D01*
X223159181Y-113928925D01*
X223158796Y-113929001D01*
X223118293Y-113932990D01*
X223118097Y-113933000D01*
X223036000Y-113933000D01*
X223034268Y-113932000D01*
X223034268Y-113930000D01*
X223035804Y-113929010D01*
X223087304Y-113923938D01*
X223136642Y-113908971D01*
X223182110Y-113884668D01*
X223221962Y-113851962D01*
X223254668Y-113812110D01*
X223278971Y-113766642D01*
X223293938Y-113717304D01*
X223299010Y-113665804D01*
X223300175Y-113664178D01*
X223302165Y-113664374D01*
G37*
G36*
X213580990Y-113665804D02*
G01*
X213586062Y-113717304D01*
X213601029Y-113766642D01*
X213625332Y-113812110D01*
X213658038Y-113851962D01*
X213697890Y-113884668D01*
X213743358Y-113908971D01*
X213792696Y-113923938D01*
X213844196Y-113929010D01*
X213845822Y-113930175D01*
X213845626Y-113932165D01*
X213844000Y-113933000D01*
X213761903Y-113933000D01*
X213761707Y-113932990D01*
X213721204Y-113929001D01*
X213720819Y-113928925D01*
X213687767Y-113918899D01*
X213687405Y-113918749D01*
X213656954Y-113902472D01*
X213656628Y-113902254D01*
X213629932Y-113880345D01*
X213629655Y-113880068D01*
X213607746Y-113853372D01*
X213607528Y-113853046D01*
X213591251Y-113822595D01*
X213591101Y-113822233D01*
X213581075Y-113789181D01*
X213580999Y-113788796D01*
X213577010Y-113748293D01*
X213577000Y-113748097D01*
X213577000Y-113666000D01*
X213578000Y-113664268D01*
X213580000Y-113664268D01*
X213580990Y-113665804D01*
G37*
G36*
X230922165Y-113664374D02*
G01*
X230923000Y-113666000D01*
X230923000Y-113748097D01*
X230922990Y-113748293D01*
X230919001Y-113788796D01*
X230918925Y-113789181D01*
X230908899Y-113822233D01*
X230908749Y-113822595D01*
X230892472Y-113853046D01*
X230892254Y-113853372D01*
X230870345Y-113880068D01*
X230870068Y-113880345D01*
X230843372Y-113902254D01*
X230843046Y-113902472D01*
X230812595Y-113918749D01*
X230812233Y-113918899D01*
X230779181Y-113928925D01*
X230778796Y-113929001D01*
X230738293Y-113932990D01*
X230738097Y-113933000D01*
X230656000Y-113933000D01*
X230654268Y-113932000D01*
X230654268Y-113930000D01*
X230655804Y-113929010D01*
X230707304Y-113923938D01*
X230756642Y-113908971D01*
X230802110Y-113884668D01*
X230841962Y-113851962D01*
X230874668Y-113812110D01*
X230898971Y-113766642D01*
X230913938Y-113717304D01*
X230919010Y-113665804D01*
X230920175Y-113664178D01*
X230922165Y-113664374D01*
G37*
G36*
X236440990Y-113665804D02*
G01*
X236446062Y-113717304D01*
X236461029Y-113766642D01*
X236485332Y-113812110D01*
X236518038Y-113851962D01*
X236557890Y-113884668D01*
X236603358Y-113908971D01*
X236652696Y-113923938D01*
X236704196Y-113929010D01*
X236705822Y-113930175D01*
X236705626Y-113932165D01*
X236704000Y-113933000D01*
X236621903Y-113933000D01*
X236621707Y-113932990D01*
X236581204Y-113929001D01*
X236580819Y-113928925D01*
X236547767Y-113918899D01*
X236547405Y-113918749D01*
X236516954Y-113902472D01*
X236516628Y-113902254D01*
X236489932Y-113880345D01*
X236489655Y-113880068D01*
X236467746Y-113853372D01*
X236467528Y-113853046D01*
X236451251Y-113822595D01*
X236451101Y-113822233D01*
X236441075Y-113789181D01*
X236440999Y-113788796D01*
X236437010Y-113748293D01*
X236437000Y-113748097D01*
X236437000Y-113666000D01*
X236438000Y-113664268D01*
X236440000Y-113664268D01*
X236440990Y-113665804D01*
G37*
G36*
X251680990Y-113665804D02*
G01*
X251686062Y-113717304D01*
X251701029Y-113766642D01*
X251725332Y-113812110D01*
X251758038Y-113851962D01*
X251797890Y-113884668D01*
X251843358Y-113908971D01*
X251892696Y-113923938D01*
X251944196Y-113929010D01*
X251945822Y-113930175D01*
X251945626Y-113932165D01*
X251944000Y-113933000D01*
X251861903Y-113933000D01*
X251861707Y-113932990D01*
X251821204Y-113929001D01*
X251820819Y-113928925D01*
X251787767Y-113918899D01*
X251787405Y-113918749D01*
X251756954Y-113902472D01*
X251756628Y-113902254D01*
X251729932Y-113880345D01*
X251729655Y-113880068D01*
X251707746Y-113853372D01*
X251707528Y-113853046D01*
X251691251Y-113822595D01*
X251691101Y-113822233D01*
X251681075Y-113789181D01*
X251680999Y-113788796D01*
X251677010Y-113748293D01*
X251677000Y-113748097D01*
X251677000Y-113666000D01*
X251678000Y-113664268D01*
X251680000Y-113664268D01*
X251680990Y-113665804D01*
G37*
G36*
X259300990Y-113665804D02*
G01*
X259306062Y-113717304D01*
X259321029Y-113766642D01*
X259345332Y-113812110D01*
X259378038Y-113851962D01*
X259417890Y-113884668D01*
X259463358Y-113908971D01*
X259512696Y-113923938D01*
X259564196Y-113929010D01*
X259565822Y-113930175D01*
X259565626Y-113932165D01*
X259564000Y-113933000D01*
X259481903Y-113933000D01*
X259481707Y-113932990D01*
X259441204Y-113929001D01*
X259440819Y-113928925D01*
X259407767Y-113918899D01*
X259407405Y-113918749D01*
X259376954Y-113902472D01*
X259376628Y-113902254D01*
X259349932Y-113880345D01*
X259349655Y-113880068D01*
X259327746Y-113853372D01*
X259327528Y-113853046D01*
X259311251Y-113822595D01*
X259311101Y-113822233D01*
X259301075Y-113789181D01*
X259300999Y-113788796D01*
X259297010Y-113748293D01*
X259297000Y-113748097D01*
X259297000Y-113666000D01*
X259298000Y-113664268D01*
X259300000Y-113664268D01*
X259300990Y-113665804D01*
G37*
G36*
X261402165Y-113664374D02*
G01*
X261403000Y-113666000D01*
X261403000Y-113748097D01*
X261402990Y-113748293D01*
X261399001Y-113788796D01*
X261398925Y-113789181D01*
X261388899Y-113822233D01*
X261388749Y-113822595D01*
X261372472Y-113853046D01*
X261372254Y-113853372D01*
X261350345Y-113880068D01*
X261350068Y-113880345D01*
X261323372Y-113902254D01*
X261323046Y-113902472D01*
X261292595Y-113918749D01*
X261292233Y-113918899D01*
X261259181Y-113928925D01*
X261258796Y-113929001D01*
X261218293Y-113932990D01*
X261218097Y-113933000D01*
X261136000Y-113933000D01*
X261134268Y-113932000D01*
X261134268Y-113930000D01*
X261135804Y-113929010D01*
X261187304Y-113923938D01*
X261236642Y-113908971D01*
X261282110Y-113884668D01*
X261321962Y-113851962D01*
X261354668Y-113812110D01*
X261378971Y-113766642D01*
X261393938Y-113717304D01*
X261399010Y-113665804D01*
X261400175Y-113664178D01*
X261402165Y-113664374D01*
G37*
G36*
X244060990Y-113665804D02*
G01*
X244066062Y-113717304D01*
X244081029Y-113766642D01*
X244105332Y-113812110D01*
X244138038Y-113851962D01*
X244177890Y-113884668D01*
X244223358Y-113908971D01*
X244272696Y-113923938D01*
X244324196Y-113929010D01*
X244325822Y-113930175D01*
X244325626Y-113932165D01*
X244324000Y-113933000D01*
X244241903Y-113933000D01*
X244241707Y-113932990D01*
X244201204Y-113929001D01*
X244200819Y-113928925D01*
X244167767Y-113918899D01*
X244167405Y-113918749D01*
X244136954Y-113902472D01*
X244136628Y-113902254D01*
X244109932Y-113880345D01*
X244109655Y-113880068D01*
X244087746Y-113853372D01*
X244087528Y-113853046D01*
X244071251Y-113822595D01*
X244071101Y-113822233D01*
X244061075Y-113789181D01*
X244060999Y-113788796D01*
X244057010Y-113748293D01*
X244057000Y-113748097D01*
X244057000Y-113666000D01*
X244058000Y-113664268D01*
X244060000Y-113664268D01*
X244060990Y-113665804D01*
G37*
G36*
X259565732Y-112128000D02*
G01*
X259565732Y-112130000D01*
X259564196Y-112130990D01*
X259512696Y-112136062D01*
X259463358Y-112151029D01*
X259417890Y-112175332D01*
X259378038Y-112208038D01*
X259345332Y-112247890D01*
X259321029Y-112293358D01*
X259306062Y-112342696D01*
X259300990Y-112394196D01*
X259299825Y-112395822D01*
X259297835Y-112395626D01*
X259297000Y-112394000D01*
X259297000Y-112311903D01*
X259297010Y-112311707D01*
X259300999Y-112271204D01*
X259301075Y-112270819D01*
X259311101Y-112237767D01*
X259311251Y-112237405D01*
X259327528Y-112206954D01*
X259327746Y-112206628D01*
X259349655Y-112179932D01*
X259349932Y-112179655D01*
X259376628Y-112157746D01*
X259376954Y-112157528D01*
X259407405Y-112141251D01*
X259407767Y-112141101D01*
X259440819Y-112131075D01*
X259441204Y-112130999D01*
X259481707Y-112127010D01*
X259481903Y-112127000D01*
X259564000Y-112127000D01*
X259565732Y-112128000D01*
G37*
G36*
X229085732Y-112128000D02*
G01*
X229085732Y-112130000D01*
X229084196Y-112130990D01*
X229032696Y-112136062D01*
X228983358Y-112151029D01*
X228937890Y-112175332D01*
X228898038Y-112208038D01*
X228865332Y-112247890D01*
X228841029Y-112293358D01*
X228826062Y-112342696D01*
X228820990Y-112394196D01*
X228819825Y-112395822D01*
X228817835Y-112395626D01*
X228817000Y-112394000D01*
X228817000Y-112311903D01*
X228817010Y-112311707D01*
X228820999Y-112271204D01*
X228821075Y-112270819D01*
X228831101Y-112237767D01*
X228831251Y-112237405D01*
X228847528Y-112206954D01*
X228847746Y-112206628D01*
X228869655Y-112179932D01*
X228869932Y-112179655D01*
X228896628Y-112157746D01*
X228896954Y-112157528D01*
X228927405Y-112141251D01*
X228927767Y-112141101D01*
X228960819Y-112131075D01*
X228961204Y-112130999D01*
X229001707Y-112127010D01*
X229001903Y-112127000D01*
X229084000Y-112127000D01*
X229085732Y-112128000D01*
G37*
G36*
X244325732Y-112128000D02*
G01*
X244325732Y-112130000D01*
X244324196Y-112130990D01*
X244272696Y-112136062D01*
X244223358Y-112151029D01*
X244177890Y-112175332D01*
X244138038Y-112208038D01*
X244105332Y-112247890D01*
X244081029Y-112293358D01*
X244066062Y-112342696D01*
X244060990Y-112394196D01*
X244059825Y-112395822D01*
X244057835Y-112395626D01*
X244057000Y-112394000D01*
X244057000Y-112311903D01*
X244057010Y-112311707D01*
X244060999Y-112271204D01*
X244061075Y-112270819D01*
X244071101Y-112237767D01*
X244071251Y-112237405D01*
X244087528Y-112206954D01*
X244087746Y-112206628D01*
X244109655Y-112179932D01*
X244109932Y-112179655D01*
X244136628Y-112157746D01*
X244136954Y-112157528D01*
X244167405Y-112141251D01*
X244167767Y-112141101D01*
X244200819Y-112131075D01*
X244201204Y-112130999D01*
X244241707Y-112127010D01*
X244241903Y-112127000D01*
X244324000Y-112127000D01*
X244325732Y-112128000D01*
G37*
G36*
X236705732Y-112128000D02*
G01*
X236705732Y-112130000D01*
X236704196Y-112130990D01*
X236652696Y-112136062D01*
X236603358Y-112151029D01*
X236557890Y-112175332D01*
X236518038Y-112208038D01*
X236485332Y-112247890D01*
X236461029Y-112293358D01*
X236446062Y-112342696D01*
X236440990Y-112394196D01*
X236439825Y-112395822D01*
X236437835Y-112395626D01*
X236437000Y-112394000D01*
X236437000Y-112311903D01*
X236437010Y-112311707D01*
X236440999Y-112271204D01*
X236441075Y-112270819D01*
X236451101Y-112237767D01*
X236451251Y-112237405D01*
X236467528Y-112206954D01*
X236467746Y-112206628D01*
X236489655Y-112179932D01*
X236489932Y-112179655D01*
X236516628Y-112157746D01*
X236516954Y-112157528D01*
X236547405Y-112141251D01*
X236547767Y-112141101D01*
X236580819Y-112131075D01*
X236581204Y-112130999D01*
X236621707Y-112127010D01*
X236621903Y-112127000D01*
X236704000Y-112127000D01*
X236705732Y-112128000D01*
G37*
G36*
X251945732Y-112128000D02*
G01*
X251945732Y-112130000D01*
X251944196Y-112130990D01*
X251892696Y-112136062D01*
X251843358Y-112151029D01*
X251797890Y-112175332D01*
X251758038Y-112208038D01*
X251725332Y-112247890D01*
X251701029Y-112293358D01*
X251686062Y-112342696D01*
X251680990Y-112394196D01*
X251679825Y-112395822D01*
X251677835Y-112395626D01*
X251677000Y-112394000D01*
X251677000Y-112311903D01*
X251677010Y-112311707D01*
X251680999Y-112271204D01*
X251681075Y-112270819D01*
X251691101Y-112237767D01*
X251691251Y-112237405D01*
X251707528Y-112206954D01*
X251707746Y-112206628D01*
X251729655Y-112179932D01*
X251729932Y-112179655D01*
X251756628Y-112157746D01*
X251756954Y-112157528D01*
X251787405Y-112141251D01*
X251787767Y-112141101D01*
X251820819Y-112131075D01*
X251821204Y-112130999D01*
X251861707Y-112127010D01*
X251861903Y-112127000D01*
X251944000Y-112127000D01*
X251945732Y-112128000D01*
G37*
G36*
X221465732Y-112128000D02*
G01*
X221465732Y-112130000D01*
X221464196Y-112130990D01*
X221412696Y-112136062D01*
X221363358Y-112151029D01*
X221317890Y-112175332D01*
X221278038Y-112208038D01*
X221245332Y-112247890D01*
X221221029Y-112293358D01*
X221206062Y-112342696D01*
X221200990Y-112394196D01*
X221199825Y-112395822D01*
X221197835Y-112395626D01*
X221197000Y-112394000D01*
X221197000Y-112311903D01*
X221197010Y-112311707D01*
X221200999Y-112271204D01*
X221201075Y-112270819D01*
X221211101Y-112237767D01*
X221211251Y-112237405D01*
X221227528Y-112206954D01*
X221227746Y-112206628D01*
X221249655Y-112179932D01*
X221249932Y-112179655D01*
X221276628Y-112157746D01*
X221276954Y-112157528D01*
X221307405Y-112141251D01*
X221307767Y-112141101D01*
X221340819Y-112131075D01*
X221341204Y-112130999D01*
X221381707Y-112127010D01*
X221381903Y-112127000D01*
X221464000Y-112127000D01*
X221465732Y-112128000D01*
G37*
G36*
X213845732Y-112128000D02*
G01*
X213845732Y-112130000D01*
X213844196Y-112130990D01*
X213792696Y-112136062D01*
X213743358Y-112151029D01*
X213697890Y-112175332D01*
X213658038Y-112208038D01*
X213625332Y-112247890D01*
X213601029Y-112293358D01*
X213586062Y-112342696D01*
X213580990Y-112394196D01*
X213579825Y-112395822D01*
X213577835Y-112395626D01*
X213577000Y-112394000D01*
X213577000Y-112311903D01*
X213577010Y-112311707D01*
X213580999Y-112271204D01*
X213581075Y-112270819D01*
X213591101Y-112237767D01*
X213591251Y-112237405D01*
X213607528Y-112206954D01*
X213607746Y-112206628D01*
X213629655Y-112179932D01*
X213629932Y-112179655D01*
X213656628Y-112157746D01*
X213656954Y-112157528D01*
X213687405Y-112141251D01*
X213687767Y-112141101D01*
X213720819Y-112131075D01*
X213721204Y-112130999D01*
X213761707Y-112127010D01*
X213761903Y-112127000D01*
X213844000Y-112127000D01*
X213845732Y-112128000D01*
G37*
G36*
X230738293Y-112127010D02*
G01*
X230778796Y-112130999D01*
X230779181Y-112131075D01*
X230812233Y-112141101D01*
X230812595Y-112141251D01*
X230843046Y-112157528D01*
X230843372Y-112157746D01*
X230870068Y-112179655D01*
X230870345Y-112179932D01*
X230892254Y-112206628D01*
X230892472Y-112206954D01*
X230908749Y-112237405D01*
X230908899Y-112237767D01*
X230918925Y-112270819D01*
X230919001Y-112271204D01*
X230922990Y-112311707D01*
X230923000Y-112311903D01*
X230923000Y-112394000D01*
X230922000Y-112395732D01*
X230920000Y-112395732D01*
X230919010Y-112394196D01*
X230913938Y-112342696D01*
X230898971Y-112293358D01*
X230874668Y-112247890D01*
X230841962Y-112208038D01*
X230802110Y-112175332D01*
X230756642Y-112151029D01*
X230707304Y-112136062D01*
X230655804Y-112130990D01*
X230654178Y-112129825D01*
X230654374Y-112127835D01*
X230656000Y-112127000D01*
X230738097Y-112127000D01*
X230738293Y-112127010D01*
G37*
G36*
X253598293Y-112127010D02*
G01*
X253638796Y-112130999D01*
X253639181Y-112131075D01*
X253672233Y-112141101D01*
X253672595Y-112141251D01*
X253703046Y-112157528D01*
X253703372Y-112157746D01*
X253730068Y-112179655D01*
X253730345Y-112179932D01*
X253752254Y-112206628D01*
X253752472Y-112206954D01*
X253768749Y-112237405D01*
X253768899Y-112237767D01*
X253778925Y-112270819D01*
X253779001Y-112271204D01*
X253782990Y-112311707D01*
X253783000Y-112311903D01*
X253783000Y-112394000D01*
X253782000Y-112395732D01*
X253780000Y-112395732D01*
X253779010Y-112394196D01*
X253773938Y-112342696D01*
X253758971Y-112293358D01*
X253734668Y-112247890D01*
X253701962Y-112208038D01*
X253662110Y-112175332D01*
X253616642Y-112151029D01*
X253567304Y-112136062D01*
X253515804Y-112130990D01*
X253514178Y-112129825D01*
X253514374Y-112127835D01*
X253516000Y-112127000D01*
X253598097Y-112127000D01*
X253598293Y-112127010D01*
G37*
G36*
X238358293Y-112127010D02*
G01*
X238398796Y-112130999D01*
X238399181Y-112131075D01*
X238432233Y-112141101D01*
X238432595Y-112141251D01*
X238463046Y-112157528D01*
X238463372Y-112157746D01*
X238490068Y-112179655D01*
X238490345Y-112179932D01*
X238512254Y-112206628D01*
X238512472Y-112206954D01*
X238528749Y-112237405D01*
X238528899Y-112237767D01*
X238538925Y-112270819D01*
X238539001Y-112271204D01*
X238542990Y-112311707D01*
X238543000Y-112311903D01*
X238543000Y-112394000D01*
X238542000Y-112395732D01*
X238540000Y-112395732D01*
X238539010Y-112394196D01*
X238533938Y-112342696D01*
X238518971Y-112293358D01*
X238494668Y-112247890D01*
X238461962Y-112208038D01*
X238422110Y-112175332D01*
X238376642Y-112151029D01*
X238327304Y-112136062D01*
X238275804Y-112130990D01*
X238274178Y-112129825D01*
X238274374Y-112127835D01*
X238276000Y-112127000D01*
X238358097Y-112127000D01*
X238358293Y-112127010D01*
G37*
G36*
X223118293Y-112127010D02*
G01*
X223158796Y-112130999D01*
X223159181Y-112131075D01*
X223192233Y-112141101D01*
X223192595Y-112141251D01*
X223223046Y-112157528D01*
X223223372Y-112157746D01*
X223250068Y-112179655D01*
X223250345Y-112179932D01*
X223272254Y-112206628D01*
X223272472Y-112206954D01*
X223288749Y-112237405D01*
X223288899Y-112237767D01*
X223298925Y-112270819D01*
X223299001Y-112271204D01*
X223302990Y-112311707D01*
X223303000Y-112311903D01*
X223303000Y-112394000D01*
X223302000Y-112395732D01*
X223300000Y-112395732D01*
X223299010Y-112394196D01*
X223293938Y-112342696D01*
X223278971Y-112293358D01*
X223254668Y-112247890D01*
X223221962Y-112208038D01*
X223182110Y-112175332D01*
X223136642Y-112151029D01*
X223087304Y-112136062D01*
X223035804Y-112130990D01*
X223034178Y-112129825D01*
X223034374Y-112127835D01*
X223036000Y-112127000D01*
X223118097Y-112127000D01*
X223118293Y-112127010D01*
G37*
G36*
X261218293Y-112127010D02*
G01*
X261258796Y-112130999D01*
X261259181Y-112131075D01*
X261292233Y-112141101D01*
X261292595Y-112141251D01*
X261323046Y-112157528D01*
X261323372Y-112157746D01*
X261350068Y-112179655D01*
X261350345Y-112179932D01*
X261372254Y-112206628D01*
X261372472Y-112206954D01*
X261388749Y-112237405D01*
X261388899Y-112237767D01*
X261398925Y-112270819D01*
X261399001Y-112271204D01*
X261402990Y-112311707D01*
X261403000Y-112311903D01*
X261403000Y-112394000D01*
X261402000Y-112395732D01*
X261400000Y-112395732D01*
X261399010Y-112394196D01*
X261393938Y-112342696D01*
X261378971Y-112293358D01*
X261354668Y-112247890D01*
X261321962Y-112208038D01*
X261282110Y-112175332D01*
X261236642Y-112151029D01*
X261187304Y-112136062D01*
X261135804Y-112130990D01*
X261134178Y-112129825D01*
X261134374Y-112127835D01*
X261136000Y-112127000D01*
X261218097Y-112127000D01*
X261218293Y-112127010D01*
G37*
G36*
X245978293Y-112127010D02*
G01*
X246018796Y-112130999D01*
X246019181Y-112131075D01*
X246052233Y-112141101D01*
X246052595Y-112141251D01*
X246083046Y-112157528D01*
X246083372Y-112157746D01*
X246110068Y-112179655D01*
X246110345Y-112179932D01*
X246132254Y-112206628D01*
X246132472Y-112206954D01*
X246148749Y-112237405D01*
X246148899Y-112237767D01*
X246158925Y-112270819D01*
X246159001Y-112271204D01*
X246162990Y-112311707D01*
X246163000Y-112311903D01*
X246163000Y-112394000D01*
X246162000Y-112395732D01*
X246160000Y-112395732D01*
X246159010Y-112394196D01*
X246153938Y-112342696D01*
X246138971Y-112293358D01*
X246114668Y-112247890D01*
X246081962Y-112208038D01*
X246042110Y-112175332D01*
X245996642Y-112151029D01*
X245947304Y-112136062D01*
X245895804Y-112130990D01*
X245894178Y-112129825D01*
X245894374Y-112127835D01*
X245896000Y-112127000D01*
X245978097Y-112127000D01*
X245978293Y-112127010D01*
G37*
G36*
X215498293Y-112127010D02*
G01*
X215538796Y-112130999D01*
X215539181Y-112131075D01*
X215572233Y-112141101D01*
X215572595Y-112141251D01*
X215603046Y-112157528D01*
X215603372Y-112157746D01*
X215630068Y-112179655D01*
X215630345Y-112179932D01*
X215652254Y-112206628D01*
X215652472Y-112206954D01*
X215668749Y-112237405D01*
X215668899Y-112237767D01*
X215678925Y-112270819D01*
X215679001Y-112271204D01*
X215682990Y-112311707D01*
X215683000Y-112311903D01*
X215683000Y-112394000D01*
X215682000Y-112395732D01*
X215680000Y-112395732D01*
X215679010Y-112394196D01*
X215673938Y-112342696D01*
X215658971Y-112293358D01*
X215634668Y-112247890D01*
X215601962Y-112208038D01*
X215562110Y-112175332D01*
X215516642Y-112151029D01*
X215467304Y-112136062D01*
X215415804Y-112130990D01*
X215414178Y-112129825D01*
X215414374Y-112127835D01*
X215416000Y-112127000D01*
X215498097Y-112127000D01*
X215498293Y-112127010D01*
G37*
G36*
X175296565Y-70154174D02*
G01*
X175297400Y-70155800D01*
X175297400Y-70237897D01*
X175297390Y-70238093D01*
X175293401Y-70278596D01*
X175293325Y-70278981D01*
X175283299Y-70312033D01*
X175283149Y-70312395D01*
X175266872Y-70342846D01*
X175266654Y-70343172D01*
X175244745Y-70369868D01*
X175244468Y-70370145D01*
X175217772Y-70392054D01*
X175217446Y-70392272D01*
X175186995Y-70408549D01*
X175186633Y-70408699D01*
X175153581Y-70418725D01*
X175153196Y-70418801D01*
X175112693Y-70422790D01*
X175112497Y-70422800D01*
X175030400Y-70422800D01*
X175028668Y-70421800D01*
X175028668Y-70419800D01*
X175030204Y-70418810D01*
X175081704Y-70413738D01*
X175131042Y-70398771D01*
X175176510Y-70374468D01*
X175216362Y-70341762D01*
X175249068Y-70301910D01*
X175273371Y-70256442D01*
X175288338Y-70207104D01*
X175293410Y-70155604D01*
X175294575Y-70153978D01*
X175296565Y-70154174D01*
G37*
G36*
X173245390Y-70155604D02*
G01*
X173250462Y-70207104D01*
X173265429Y-70256442D01*
X173289732Y-70301910D01*
X173322438Y-70341762D01*
X173362290Y-70374468D01*
X173407758Y-70398771D01*
X173457096Y-70413738D01*
X173508596Y-70418810D01*
X173510222Y-70419975D01*
X173510026Y-70421965D01*
X173508400Y-70422800D01*
X173426303Y-70422800D01*
X173426107Y-70422790D01*
X173385604Y-70418801D01*
X173385219Y-70418725D01*
X173352167Y-70408699D01*
X173351805Y-70408549D01*
X173321354Y-70392272D01*
X173321028Y-70392054D01*
X173294332Y-70370145D01*
X173294055Y-70369868D01*
X173272146Y-70343172D01*
X173271928Y-70342846D01*
X173255651Y-70312395D01*
X173255501Y-70312033D01*
X173245475Y-70278981D01*
X173245399Y-70278596D01*
X173241410Y-70238093D01*
X173241400Y-70237897D01*
X173241400Y-70155800D01*
X173242400Y-70154068D01*
X173244400Y-70154068D01*
X173245390Y-70155604D01*
G37*
G36*
X173510132Y-68617800D02*
G01*
X173510132Y-68619800D01*
X173508596Y-68620790D01*
X173457096Y-68625862D01*
X173407758Y-68640829D01*
X173362290Y-68665132D01*
X173322438Y-68697838D01*
X173289732Y-68737690D01*
X173265429Y-68783158D01*
X173250462Y-68832496D01*
X173245390Y-68883996D01*
X173244225Y-68885622D01*
X173242235Y-68885426D01*
X173241400Y-68883800D01*
X173241400Y-68801703D01*
X173241410Y-68801507D01*
X173245399Y-68761004D01*
X173245475Y-68760619D01*
X173255501Y-68727567D01*
X173255651Y-68727205D01*
X173271928Y-68696754D01*
X173272146Y-68696428D01*
X173294055Y-68669732D01*
X173294332Y-68669455D01*
X173321028Y-68647546D01*
X173321354Y-68647328D01*
X173351805Y-68631051D01*
X173352167Y-68630901D01*
X173385219Y-68620875D01*
X173385604Y-68620799D01*
X173426107Y-68616810D01*
X173426303Y-68616800D01*
X173508400Y-68616800D01*
X173510132Y-68617800D01*
G37*
G36*
X175112693Y-68616810D02*
G01*
X175153196Y-68620799D01*
X175153581Y-68620875D01*
X175186633Y-68630901D01*
X175186995Y-68631051D01*
X175217446Y-68647328D01*
X175217772Y-68647546D01*
X175244468Y-68669455D01*
X175244745Y-68669732D01*
X175266654Y-68696428D01*
X175266872Y-68696754D01*
X175283149Y-68727205D01*
X175283299Y-68727567D01*
X175293325Y-68760619D01*
X175293401Y-68761004D01*
X175297390Y-68801507D01*
X175297400Y-68801703D01*
X175297400Y-68883800D01*
X175296400Y-68885532D01*
X175294400Y-68885532D01*
X175293410Y-68883996D01*
X175288338Y-68832496D01*
X175273371Y-68783158D01*
X175249068Y-68737690D01*
X175216362Y-68697838D01*
X175176510Y-68665132D01*
X175131042Y-68640829D01*
X175081704Y-68625862D01*
X175030204Y-68620790D01*
X175028578Y-68619625D01*
X175028774Y-68617635D01*
X175030400Y-68616800D01*
X175112497Y-68616800D01*
X175112693Y-68616810D01*
G37*
G36*
X225211790Y-62050604D02*
G01*
X225216862Y-62102104D01*
X225231829Y-62151442D01*
X225256132Y-62196910D01*
X225288838Y-62236762D01*
X225328690Y-62269468D01*
X225374158Y-62293771D01*
X225423496Y-62308738D01*
X225474996Y-62313810D01*
X225476622Y-62314975D01*
X225476426Y-62316965D01*
X225474800Y-62317800D01*
X225392703Y-62317800D01*
X225392507Y-62317790D01*
X225352004Y-62313801D01*
X225351619Y-62313725D01*
X225318567Y-62303699D01*
X225318205Y-62303549D01*
X225287754Y-62287272D01*
X225287428Y-62287054D01*
X225260732Y-62265145D01*
X225260455Y-62264868D01*
X225238546Y-62238172D01*
X225238328Y-62237846D01*
X225222051Y-62207395D01*
X225221901Y-62207033D01*
X225211875Y-62173981D01*
X225211799Y-62173596D01*
X225207810Y-62133093D01*
X225207800Y-62132897D01*
X225207800Y-62050800D01*
X225208800Y-62049068D01*
X225210800Y-62049068D01*
X225211790Y-62050604D01*
G37*
G36*
X227012965Y-62049174D02*
G01*
X227013800Y-62050800D01*
X227013800Y-62132897D01*
X227013790Y-62133093D01*
X227009801Y-62173596D01*
X227009725Y-62173981D01*
X226999699Y-62207033D01*
X226999549Y-62207395D01*
X226983272Y-62237846D01*
X226983054Y-62238172D01*
X226961145Y-62264868D01*
X226960868Y-62265145D01*
X226934172Y-62287054D01*
X226933846Y-62287272D01*
X226903395Y-62303549D01*
X226903033Y-62303699D01*
X226869981Y-62313725D01*
X226869596Y-62313801D01*
X226829093Y-62317790D01*
X226828897Y-62317800D01*
X226746800Y-62317800D01*
X226745068Y-62316800D01*
X226745068Y-62314800D01*
X226746604Y-62313810D01*
X226798104Y-62308738D01*
X226847442Y-62293771D01*
X226892910Y-62269468D01*
X226932762Y-62236762D01*
X226965468Y-62196910D01*
X226989771Y-62151442D01*
X227004738Y-62102104D01*
X227009810Y-62050604D01*
X227010975Y-62048978D01*
X227012965Y-62049174D01*
G37*
G36*
X225476532Y-60212800D02*
G01*
X225476532Y-60214800D01*
X225474996Y-60215790D01*
X225423496Y-60220862D01*
X225374158Y-60235829D01*
X225328690Y-60260132D01*
X225288838Y-60292838D01*
X225256132Y-60332690D01*
X225231829Y-60378158D01*
X225216862Y-60427496D01*
X225211790Y-60478996D01*
X225210625Y-60480622D01*
X225208635Y-60480426D01*
X225207800Y-60478800D01*
X225207800Y-60396703D01*
X225207810Y-60396507D01*
X225211799Y-60356004D01*
X225211875Y-60355619D01*
X225221901Y-60322567D01*
X225222051Y-60322205D01*
X225238328Y-60291754D01*
X225238546Y-60291428D01*
X225260455Y-60264732D01*
X225260732Y-60264455D01*
X225287428Y-60242546D01*
X225287754Y-60242328D01*
X225318205Y-60226051D01*
X225318567Y-60225901D01*
X225351619Y-60215875D01*
X225352004Y-60215799D01*
X225392507Y-60211810D01*
X225392703Y-60211800D01*
X225474800Y-60211800D01*
X225476532Y-60212800D01*
G37*
G36*
X226829093Y-60211810D02*
G01*
X226869596Y-60215799D01*
X226869981Y-60215875D01*
X226903033Y-60225901D01*
X226903395Y-60226051D01*
X226933846Y-60242328D01*
X226934172Y-60242546D01*
X226960868Y-60264455D01*
X226961145Y-60264732D01*
X226983054Y-60291428D01*
X226983272Y-60291754D01*
X226999549Y-60322205D01*
X226999699Y-60322567D01*
X227009725Y-60355619D01*
X227009801Y-60356004D01*
X227013790Y-60396507D01*
X227013800Y-60396703D01*
X227013800Y-60478800D01*
X227012800Y-60480532D01*
X227010800Y-60480532D01*
X227009810Y-60478996D01*
X227004738Y-60427496D01*
X226989771Y-60378158D01*
X226965468Y-60332690D01*
X226932762Y-60292838D01*
X226892910Y-60260132D01*
X226847442Y-60235829D01*
X226798104Y-60220862D01*
X226746604Y-60215790D01*
X226744978Y-60214625D01*
X226745174Y-60212635D01*
X226746800Y-60211800D01*
X226828897Y-60211800D01*
X226829093Y-60211810D01*
G37*
G36*
X215715990Y-41151465D02*
G01*
X215718372Y-41175652D01*
X215725372Y-41198727D01*
X215736737Y-41219991D01*
X215752032Y-41238628D01*
X215770669Y-41253923D01*
X215791933Y-41265288D01*
X215815008Y-41272288D01*
X215838999Y-41274651D01*
X215862990Y-41272288D01*
X215886065Y-41265288D01*
X215907329Y-41253923D01*
X215926005Y-41238596D01*
X215927339Y-41237124D01*
X215929243Y-41236512D01*
X215930725Y-41237855D01*
X215930585Y-41239410D01*
X215877702Y-41338344D01*
X215845038Y-41446024D01*
X215834000Y-41558094D01*
X215834000Y-42007906D01*
X215845038Y-42119977D01*
X215877702Y-42227657D01*
X215930746Y-42326892D01*
X215932836Y-42329438D01*
X215933162Y-42331412D01*
X215931616Y-42332680D01*
X215929876Y-42332121D01*
X215917023Y-42319268D01*
X215896976Y-42305873D01*
X215874702Y-42296647D01*
X215851051Y-42291943D01*
X215826945Y-42291943D01*
X215803295Y-42296648D01*
X215781021Y-42305874D01*
X215760974Y-42319269D01*
X215743927Y-42336316D01*
X215730532Y-42356363D01*
X215721323Y-42378594D01*
X215715978Y-42414633D01*
X215714735Y-42416200D01*
X215712757Y-42415907D01*
X215712000Y-42414340D01*
X215712000Y-41151661D01*
X215713000Y-41149929D01*
X215715000Y-41149929D01*
X215715990Y-41151465D01*
G37*
G36*
X217151621Y-41329240D02*
G01*
X217151591Y-41331068D01*
X217147702Y-41338344D01*
X217115038Y-41446024D01*
X217104000Y-41558094D01*
X217104000Y-42007906D01*
X217115038Y-42119977D01*
X217147702Y-42227657D01*
X217151591Y-42234933D01*
X217151525Y-42236932D01*
X217149762Y-42237875D01*
X217148164Y-42236987D01*
X217138071Y-42221882D01*
X217121024Y-42204835D01*
X217100976Y-42191440D01*
X217078702Y-42182214D01*
X217055052Y-42177510D01*
X217030946Y-42177510D01*
X217007296Y-42182215D01*
X216985022Y-42191441D01*
X216964975Y-42204836D01*
X216947928Y-42221883D01*
X216937836Y-42236987D01*
X216936042Y-42237872D01*
X216934379Y-42236761D01*
X216934409Y-42234933D01*
X216938298Y-42227657D01*
X216970962Y-42119977D01*
X216982000Y-42007905D01*
X216982000Y-41558094D01*
X216970962Y-41446023D01*
X216938298Y-41338343D01*
X216934411Y-41331072D01*
X216934477Y-41329073D01*
X216936240Y-41328130D01*
X216937838Y-41329018D01*
X216947929Y-41344119D01*
X216964976Y-41361166D01*
X216985023Y-41374561D01*
X217007297Y-41383787D01*
X217030947Y-41388491D01*
X217055054Y-41388491D01*
X217078704Y-41383786D01*
X217100978Y-41374560D01*
X217121025Y-41361165D01*
X217138072Y-41344118D01*
X217148164Y-41329014D01*
X217149958Y-41328129D01*
X217151621Y-41329240D01*
G37*
M02*
