G04 #@! TF.GenerationSoftware,KiCad,Pcbnew,5.1.10*
G04 #@! TF.CreationDate,2021-06-10T23:09:58+02:00*
G04 #@! TF.ProjectId,PlantCtrlESP32,506c616e-7443-4747-926c-45535033322e,rev?*
G04 #@! TF.SameCoordinates,Original*
G04 #@! TF.FileFunction,Legend,Bot*
G04 #@! TF.FilePolarity,Positive*
%FSLAX46Y46*%
G04 Gerber Fmt 4.6, Leading zero omitted, Abs format (unit mm)*
G04 Created by KiCad (PCBNEW 5.1.10) date 2021-06-10 23:09:58*
%MOMM*%
%LPD*%
G01*
G04 APERTURE LIST*
%ADD10C,0.500000*%
%ADD11C,0.120000*%
%ADD12C,0.150000*%
G04 APERTURE END LIST*
D10*
X237963476Y-80549523D02*
X237963476Y-76549523D01*
X236439666Y-76549523D01*
X236058714Y-76740000D01*
X235868238Y-76930476D01*
X235677761Y-77311428D01*
X235677761Y-77882857D01*
X235868238Y-78263809D01*
X236058714Y-78454285D01*
X236439666Y-78644761D01*
X237963476Y-78644761D01*
X233392047Y-80549523D02*
X233773000Y-80359047D01*
X233963476Y-79978095D01*
X233963476Y-76549523D01*
X230153952Y-80549523D02*
X230153952Y-78454285D01*
X230344428Y-78073333D01*
X230725380Y-77882857D01*
X231487285Y-77882857D01*
X231868238Y-78073333D01*
X230153952Y-80359047D02*
X230534904Y-80549523D01*
X231487285Y-80549523D01*
X231868238Y-80359047D01*
X232058714Y-79978095D01*
X232058714Y-79597142D01*
X231868238Y-79216190D01*
X231487285Y-79025714D01*
X230534904Y-79025714D01*
X230153952Y-78835238D01*
X228249190Y-77882857D02*
X228249190Y-80549523D01*
X228249190Y-78263809D02*
X228058714Y-78073333D01*
X227677761Y-77882857D01*
X227106333Y-77882857D01*
X226725380Y-78073333D01*
X226534904Y-78454285D01*
X226534904Y-80549523D01*
X225201571Y-77882857D02*
X223677761Y-77882857D01*
X224630142Y-76549523D02*
X224630142Y-79978095D01*
X224439666Y-80359047D01*
X224058714Y-80549523D01*
X223677761Y-80549523D01*
X220058714Y-80168571D02*
X220249190Y-80359047D01*
X220820619Y-80549523D01*
X221201571Y-80549523D01*
X221773000Y-80359047D01*
X222153952Y-79978095D01*
X222344428Y-79597142D01*
X222534904Y-78835238D01*
X222534904Y-78263809D01*
X222344428Y-77501904D01*
X222153952Y-77120952D01*
X221773000Y-76740000D01*
X221201571Y-76549523D01*
X220820619Y-76549523D01*
X220249190Y-76740000D01*
X220058714Y-76930476D01*
X218915857Y-77882857D02*
X217392047Y-77882857D01*
X218344428Y-76549523D02*
X218344428Y-79978095D01*
X218153952Y-80359047D01*
X217773000Y-80549523D01*
X217392047Y-80549523D01*
X216058714Y-80549523D02*
X216058714Y-77882857D01*
X216058714Y-78644761D02*
X215868238Y-78263809D01*
X215677761Y-78073333D01*
X215296809Y-77882857D01*
X214915857Y-77882857D01*
X213011095Y-80549523D02*
X213392047Y-80359047D01*
X213582523Y-79978095D01*
X213582523Y-76549523D01*
X209011095Y-76549523D02*
X207677761Y-80549523D01*
X206344428Y-76549523D01*
X204249190Y-76549523D02*
X203868238Y-76549523D01*
X203487285Y-76740000D01*
X203296809Y-76930476D01*
X203106333Y-77311428D01*
X202915857Y-78073333D01*
X202915857Y-79025714D01*
X203106333Y-79787619D01*
X203296809Y-80168571D01*
X203487285Y-80359047D01*
X203868238Y-80549523D01*
X204249190Y-80549523D01*
X204630142Y-80359047D01*
X204820619Y-80168571D01*
X205011095Y-79787619D01*
X205201571Y-79025714D01*
X205201571Y-78073333D01*
X205011095Y-77311428D01*
X204820619Y-76930476D01*
X204630142Y-76740000D01*
X204249190Y-76549523D01*
X201201571Y-80168571D02*
X201011095Y-80359047D01*
X201201571Y-80549523D01*
X201392047Y-80359047D01*
X201201571Y-80168571D01*
X201201571Y-80549523D01*
X197201571Y-80549523D02*
X199487285Y-80549523D01*
X198344428Y-80549523D02*
X198344428Y-76549523D01*
X198725380Y-77120952D01*
X199106333Y-77501904D01*
X199487285Y-77692380D01*
X194725380Y-76549523D02*
X194344428Y-76549523D01*
X193963476Y-76740000D01*
X193773000Y-76930476D01*
X193582523Y-77311428D01*
X193392047Y-78073333D01*
X193392047Y-79025714D01*
X193582523Y-79787619D01*
X193773000Y-80168571D01*
X193963476Y-80359047D01*
X194344428Y-80549523D01*
X194725380Y-80549523D01*
X195106333Y-80359047D01*
X195296809Y-80168571D01*
X195487285Y-79787619D01*
X195677761Y-79025714D01*
X195677761Y-78073333D01*
X195487285Y-77311428D01*
X195296809Y-76930476D01*
X195106333Y-76740000D01*
X194725380Y-76549523D01*
D11*
X223260800Y-64014800D02*
X223260800Y-62764800D01*
X224510800Y-64014800D02*
X223260800Y-64014800D01*
X230410800Y-58514800D02*
X227360800Y-58514800D01*
X230410800Y-61464800D02*
X230410800Y-58514800D01*
X231160800Y-61464800D02*
X230410800Y-61464800D01*
X224310800Y-58514800D02*
X227360800Y-58514800D01*
X224310800Y-61464800D02*
X224310800Y-58514800D01*
X223560800Y-61464800D02*
X224310800Y-61464800D01*
X231160800Y-63714800D02*
X229360800Y-63714800D01*
X231160800Y-62964800D02*
X231160800Y-63714800D01*
X229360800Y-62964800D02*
X231160800Y-62964800D01*
X229360800Y-63714800D02*
X229360800Y-62964800D01*
X225360800Y-63714800D02*
X223560800Y-63714800D01*
X225360800Y-62964800D02*
X225360800Y-63714800D01*
X223560800Y-62964800D02*
X225360800Y-62964800D01*
X223560800Y-63714800D02*
X223560800Y-62964800D01*
X227860800Y-63714800D02*
X226860800Y-63714800D01*
X227860800Y-62964800D02*
X227860800Y-63714800D01*
X226860800Y-62964800D02*
X227860800Y-62964800D01*
X226860800Y-63714800D02*
X226860800Y-62964800D01*
X231170800Y-63724800D02*
X223550800Y-63724800D01*
X231170800Y-57754800D02*
X231170800Y-63724800D01*
X223550800Y-57754800D02*
X231170800Y-57754800D01*
X223550800Y-63724800D02*
X223550800Y-57754800D01*
D12*
X185356285Y-137866380D02*
X185689619Y-137390190D01*
X185927714Y-137866380D02*
X185927714Y-136866380D01*
X185546761Y-136866380D01*
X185451523Y-136914000D01*
X185403904Y-136961619D01*
X185356285Y-137056857D01*
X185356285Y-137199714D01*
X185403904Y-137294952D01*
X185451523Y-137342571D01*
X185546761Y-137390190D01*
X185927714Y-137390190D01*
X184546761Y-137818761D02*
X184642000Y-137866380D01*
X184832476Y-137866380D01*
X184927714Y-137818761D01*
X184975333Y-137723523D01*
X184975333Y-137342571D01*
X184927714Y-137247333D01*
X184832476Y-137199714D01*
X184642000Y-137199714D01*
X184546761Y-137247333D01*
X184499142Y-137342571D01*
X184499142Y-137437809D01*
X184975333Y-137533047D01*
X184118190Y-137818761D02*
X184022952Y-137866380D01*
X183832476Y-137866380D01*
X183737238Y-137818761D01*
X183689619Y-137723523D01*
X183689619Y-137675904D01*
X183737238Y-137580666D01*
X183832476Y-137533047D01*
X183975333Y-137533047D01*
X184070571Y-137485428D01*
X184118190Y-137390190D01*
X184118190Y-137342571D01*
X184070571Y-137247333D01*
X183975333Y-137199714D01*
X183832476Y-137199714D01*
X183737238Y-137247333D01*
X182880095Y-137818761D02*
X182975333Y-137866380D01*
X183165809Y-137866380D01*
X183261047Y-137818761D01*
X183308666Y-137723523D01*
X183308666Y-137342571D01*
X183261047Y-137247333D01*
X183165809Y-137199714D01*
X182975333Y-137199714D01*
X182880095Y-137247333D01*
X182832476Y-137342571D01*
X182832476Y-137437809D01*
X183308666Y-137533047D01*
X182546761Y-137199714D02*
X182165809Y-137199714D01*
X182403904Y-136866380D02*
X182403904Y-137723523D01*
X182356285Y-137818761D01*
X182261047Y-137866380D01*
X182165809Y-137866380D01*
X181308666Y-137866380D02*
X181880095Y-137866380D01*
X181594380Y-137866380D02*
X181594380Y-136866380D01*
X181689619Y-137009238D01*
X181784857Y-137104476D01*
X181880095Y-137152095D01*
X197683238Y-137596571D02*
X197540380Y-137644190D01*
X197492761Y-137691809D01*
X197445142Y-137787047D01*
X197445142Y-137929904D01*
X197492761Y-138025142D01*
X197540380Y-138072761D01*
X197635619Y-138120380D01*
X198016571Y-138120380D01*
X198016571Y-137120380D01*
X197683238Y-137120380D01*
X197588000Y-137168000D01*
X197540380Y-137215619D01*
X197492761Y-137310857D01*
X197492761Y-137406095D01*
X197540380Y-137501333D01*
X197588000Y-137548952D01*
X197683238Y-137596571D01*
X198016571Y-137596571D01*
X196873714Y-138120380D02*
X196968952Y-138072761D01*
X197016571Y-138025142D01*
X197064190Y-137929904D01*
X197064190Y-137644190D01*
X197016571Y-137548952D01*
X196968952Y-137501333D01*
X196873714Y-137453714D01*
X196730857Y-137453714D01*
X196635619Y-137501333D01*
X196588000Y-137548952D01*
X196540380Y-137644190D01*
X196540380Y-137929904D01*
X196588000Y-138025142D01*
X196635619Y-138072761D01*
X196730857Y-138120380D01*
X196873714Y-138120380D01*
X195968952Y-138120380D02*
X196064190Y-138072761D01*
X196111809Y-138025142D01*
X196159428Y-137929904D01*
X196159428Y-137644190D01*
X196111809Y-137548952D01*
X196064190Y-137501333D01*
X195968952Y-137453714D01*
X195826095Y-137453714D01*
X195730857Y-137501333D01*
X195683238Y-137548952D01*
X195635619Y-137644190D01*
X195635619Y-137929904D01*
X195683238Y-138025142D01*
X195730857Y-138072761D01*
X195826095Y-138120380D01*
X195968952Y-138120380D01*
X195349904Y-137453714D02*
X194968952Y-137453714D01*
X195207047Y-137120380D02*
X195207047Y-137977523D01*
X195159428Y-138072761D01*
X195064190Y-138120380D01*
X194968952Y-138120380D01*
X194111809Y-138120380D02*
X194683238Y-138120380D01*
X194397523Y-138120380D02*
X194397523Y-137120380D01*
X194492761Y-137263238D01*
X194588000Y-137358476D01*
X194683238Y-137406095D01*
X243336819Y-57486371D02*
X243336819Y-57962561D01*
X244336819Y-57962561D01*
X243336819Y-57153038D02*
X244336819Y-57153038D01*
X243336819Y-56676847D02*
X244336819Y-56676847D01*
X244336819Y-56295895D01*
X244289200Y-56200657D01*
X244241580Y-56153038D01*
X244146342Y-56105419D01*
X244003485Y-56105419D01*
X243908247Y-56153038D01*
X243860628Y-56200657D01*
X243813009Y-56295895D01*
X243813009Y-56676847D01*
X244336819Y-55486371D02*
X244336819Y-55295895D01*
X244289200Y-55200657D01*
X244193961Y-55105419D01*
X244003485Y-55057800D01*
X243670152Y-55057800D01*
X243479676Y-55105419D01*
X243384438Y-55200657D01*
X243336819Y-55295895D01*
X243336819Y-55486371D01*
X243384438Y-55581609D01*
X243479676Y-55676847D01*
X243670152Y-55724466D01*
X244003485Y-55724466D01*
X244193961Y-55676847D01*
X244289200Y-55581609D01*
X244336819Y-55486371D01*
X243336819Y-54105419D02*
X243336819Y-54676847D01*
X243336819Y-54391133D02*
X244336819Y-54391133D01*
X244193961Y-54486371D01*
X244098723Y-54581609D01*
X244051104Y-54676847D01*
X230860800Y-64743371D02*
X230527466Y-64743371D01*
X230384609Y-65267180D02*
X230860800Y-65267180D01*
X230860800Y-64267180D01*
X230384609Y-64267180D01*
X230051276Y-64267180D02*
X229384609Y-65267180D01*
X229384609Y-64267180D02*
X230051276Y-65267180D01*
X229146514Y-64267180D02*
X228575085Y-64267180D01*
X228860800Y-65267180D02*
X228860800Y-64267180D01*
X228479847Y-65362419D02*
X227717942Y-65362419D01*
X227479847Y-65267180D02*
X227479847Y-64267180D01*
X227098895Y-64267180D01*
X227003657Y-64314800D01*
X226956038Y-64362419D01*
X226908419Y-64457657D01*
X226908419Y-64600514D01*
X226956038Y-64695752D01*
X227003657Y-64743371D01*
X227098895Y-64790990D01*
X227479847Y-64790990D01*
X226575085Y-64267180D02*
X226336990Y-65267180D01*
X226146514Y-64552895D01*
X225956038Y-65267180D01*
X225717942Y-64267180D01*
X224765561Y-65267180D02*
X225098895Y-64790990D01*
X225336990Y-65267180D02*
X225336990Y-64267180D01*
X224956038Y-64267180D01*
X224860800Y-64314800D01*
X224813180Y-64362419D01*
X224765561Y-64457657D01*
X224765561Y-64600514D01*
X224813180Y-64695752D01*
X224860800Y-64743371D01*
X224956038Y-64790990D01*
X225336990Y-64790990D01*
X223813180Y-65267180D02*
X224384609Y-65267180D01*
X224098895Y-65267180D02*
X224098895Y-64267180D01*
X224194133Y-64410038D01*
X224289371Y-64505276D01*
X224384609Y-64552895D01*
M02*
