<?xml version="1.0" encoding="utf-8"?>
<!-- Generator: Adobe Illustrator 13.0.1, SVG Export Plug-In . SVG Version: 6.00 Build 14948)  -->
<!DOCTYPE svg PUBLIC "-//W3C//DTD SVG 1.1//EN" "http://www.w3.org/Graphics/SVG/1.1/DTD/svg11.dtd">
<svg version="1.1" xmlns="http://www.w3.org/2000/svg" xmlns:xlink="http://www.w3.org/1999/xlink" x="0px" y="0px" width="1325px"
	 height="675px" viewBox="0 0 1325 675" enable-background="new 0 0 1325 675" xml:space="preserve">
<g id="back">
	<rect width="1325" height="675"/>
</g>
<g id="logo">
	<g>
		<path fill="#FFFFFF" d="M109.818,477.621H75.827v34.299h33.992v-11.638l12.612,2.614v6.409c0,4.956-0.932,8.331-2.794,10.126
			c-1.864,1.794-5.409,2.691-10.639,2.691H76.647c-5.264,0-8.818-0.897-10.664-2.691c-1.846-1.795-2.769-5.17-2.769-10.126v-28.558
			c0-4.922,0.923-8.287,2.769-10.1c1.846-1.812,5.4-2.717,10.664-2.717h32.351c5.229,0,8.775,0.905,10.639,2.717
			c1.862,1.813,2.794,5.178,2.794,10.1v5.127l-12.612,2V477.621z"/>
		<path fill="#FFFFFF" d="M148.424,522.123v-54.191h12.612v21.02h39.375v-21.02h12.715v54.191h-12.715v-23.328h-39.375v23.328
			H148.424z"/>
		<path fill="#FFFFFF" d="M230.456,522.123l30.659-54.191h12.151l31.069,54.191h-14.15l-6.511-11.844h-34.351l-6.306,11.844H230.456
			z M254.706,500.487h23.738l-11.689-22.046L254.706,500.487z"/>
		<path fill="#FFFFFF" d="M318.793,480.748c0-4.922,0.923-8.287,2.769-10.1c1.846-1.812,5.4-2.717,10.664-2.717h39.888
			c5.263,0,8.818,0.905,10.664,2.717c1.846,1.813,2.769,5.178,2.769,10.1v28.558c0,4.956-0.923,8.331-2.769,10.126
			c-1.846,1.794-5.401,2.691-10.664,2.691h-39.888c-5.264,0-8.818-0.897-10.664-2.691c-1.846-1.795-2.769-5.17-2.769-10.126V480.748
			z M331.405,511.92h41.58v-34.299h-41.58V511.92z"/>
		<path fill="#FFFFFF" d="M459.066,477.416h-35.479v11.639h33.787c5.297,0,8.877,0.905,10.741,2.717
			c1.863,1.813,2.794,5.178,2.794,10.1v7.435c0,4.922-0.932,8.289-2.794,10.101c-1.863,1.812-5.443,2.717-10.741,2.717h-33.479
			c-5.298,0-8.878-0.905-10.741-2.717c-1.863-1.812-2.794-5.179-2.794-10.101v-1.487l11.125-2.307v6.408h38.298v-12.355h-33.787
			c-5.264,0-8.818-0.905-10.664-2.717s-2.769-5.179-2.769-10.101v-5.999c0-4.922,0.923-8.287,2.769-10.1
			c1.846-1.812,5.4-2.717,10.664-2.717h30.762c5.092,0,8.604,0.871,10.536,2.614c1.931,1.743,2.897,4.837,2.897,9.28v1.127
			l-11.125,2.615V477.416z"/>
		<path fill="#FFFFFF" d="M537.714,522.123v-54.191h12.612v54.191H537.714z"/>
		<path fill="#FFFFFF" d="M577.909,522.123v-54.191h10.203l25.532,32.761l24.968-32.761h10.1v54.191h-11.689v-33.479
			c0-0.649,0.042-1.47,0.128-2.461c0.084-0.991,0.196-2.103,0.333-3.333c-0.684,1.402-1.282,2.556-1.794,3.461
			c-0.513,0.906-0.974,1.649-1.384,2.229l-20.354,27.07h-2.512l-20.405-27.172c-0.752-1.025-1.393-1.991-1.923-2.897
			c-0.53-0.905-0.966-1.785-1.307-2.64c0.103,1.127,0.179,2.152,0.231,3.076c0.051,0.922,0.077,1.812,0.077,2.666v33.479H577.909z"
			/>
		<path fill="#FFFFFF" d="M714.748,480.748c0-4.922,0.923-8.287,2.769-10.1c1.846-1.812,5.4-2.717,10.664-2.717h39.888
			c5.263,0,8.818,0.905,10.664,2.717c1.846,1.813,2.769,5.178,2.769,10.1v28.558c0,4.956-0.923,8.331-2.769,10.126
			c-1.846,1.794-5.401,2.691-10.664,2.691h-5.845l6.819,13.945h-12.51l-6.102-13.945h-22.251c-5.264,0-8.818-0.897-10.664-2.691
			c-1.846-1.795-2.769-5.17-2.769-10.126V480.748z M727.36,511.92h18.56l-5.024-11.74l9.126-3.691l7.332,15.432h11.586v-34.299
			H727.36V511.92z"/>
		<path fill="#FFFFFF" d="M820.67,467.932v43.988h35.939v-43.988h12.562v41.374c0,4.956-0.923,8.331-2.769,10.126
			c-1.846,1.794-5.401,2.691-10.664,2.691H821.49c-5.229,0-8.776-0.897-10.639-2.691c-1.863-1.795-2.794-5.17-2.794-10.126v-41.374
			H820.67z"/>
		<path fill="#FFFFFF" d="M884.244,522.123l30.659-54.191h12.151l31.068,54.191h-14.15l-6.511-11.844h-34.351l-6.307,11.844H884.244
			z M908.494,500.487h23.738l-11.689-22.046L908.494,500.487z"/>
		<path fill="#FFFFFF" d="M975.556,522.123v-54.191h34.863c9.946,0,17.594,2.324,22.943,6.973
			c5.349,4.648,8.023,11.245,8.023,19.789c0,5.06-1.043,9.613-3.128,13.664c-2.085,4.05-5.023,7.237-8.818,9.562
			c-2.357,1.47-5.289,2.538-8.792,3.204c-3.504,0.667-7.99,1-13.458,1H975.556z M988.168,511.92h16.304
			c8.682,0,14.834-1.35,18.457-4.05c3.622-2.699,5.435-7.16,5.435-13.382c0-5.537-1.505-9.731-4.512-12.586
			c-3.008-2.854-7.452-4.281-13.33-4.281h-22.354V511.92z"/>
		<path fill="#FFFFFF" d="M1064.509,522.123v-54.191h46.348c4.307,0,7.425,0.829,9.356,2.486c1.931,1.658,2.896,4.332,2.896,8.023
			v12.715c0,3.658-0.966,6.324-2.896,7.998c-1.932,1.675-5.05,2.512-9.356,2.512h-7.075l25.02,20.457h-18.098l-21.842-20.457
			h-11.945v20.457H1064.509z M1105.268,477.313h-28.352v15.073h28.352c2.188,0,3.683-0.315,4.486-0.948
			c0.803-0.632,1.205-1.751,1.205-3.358v-6.512c0-1.571-0.402-2.674-1.205-3.307C1108.95,477.63,1107.455,477.313,1105.268,477.313z
			"/>
		<path fill="#FFFFFF" d="M1134.594,522.123l30.659-54.191h12.151l31.068,54.191h-14.15l-6.511-11.844h-34.351l-6.307,11.844
			H1134.594z M1158.844,500.487h23.738l-11.689-22.046L1158.844,500.487z"/>
		<path fill="#FFFFFF" d="M1244.003,477.621v44.502h-12.612v-44.502h-24.865v-9.689h62.445v9.689H1244.003z"/>
		<path fill="#FFFFFF" d="M71.188,626.523l-17.29-44.902h10.79l11.385,30.119l11.937-30.119h7.307l12.149,30.119l10.875-30.119
			h9.346l-17.332,44.902h-7.052l-12.362-31.053l-12.532,31.053H71.188z"/>
		<path fill="#FFFFFF" d="M151.73,626.523l-17.29-44.902h10.79l11.385,30.119l11.937-30.119h7.307l12.149,30.119l10.875-30.119
			h9.346l-17.332,44.902h-7.052l-12.362-31.053l-12.532,31.053H151.73z"/>
		<path fill="#FFFFFF" d="M232.273,626.523l-17.29-44.902h10.79l11.385,30.119l11.937-30.119h7.307l12.149,30.119l10.875-30.119
			h9.346l-17.332,44.902h-7.052l-12.362-31.053l-12.532,31.053H232.273z"/>
		<path fill="#FFFFFF" d="M303.301,613.057h1.572c0.765,0,1.302,0.22,1.614,0.659c0.312,0.439,0.467,1.281,0.467,2.527v7.052
			c0,1.359-0.17,2.237-0.51,2.634s-1.388,0.595-3.144,0.595h-7.774c-0.765,0-1.303-0.227-1.614-0.68
			c-0.312-0.453-0.467-1.303-0.467-2.549v-7.052c0-1.331,0.17-2.194,0.51-2.591s1.387-0.596,3.144-0.596H303.301z"/>
		<path fill="#FFFFFF" d="M363.75,589.65h-28.165v28.42h28.165v-9.644l10.45,2.167v5.31c0,4.106-0.772,6.903-2.315,8.39
			c-1.544,1.487-4.482,2.23-8.815,2.23h-26.805c-4.361,0-7.307-0.743-8.836-2.23c-1.529-1.486-2.294-4.283-2.294-8.39v-23.661
			c0-4.078,0.765-6.868,2.294-8.369s4.475-2.252,8.836-2.252h26.805c4.333,0,7.271,0.751,8.815,2.252
			c1.543,1.501,2.315,4.291,2.315,8.369v4.248l-10.45,1.656V589.65z"/>
		<path fill="#FFFFFF" d="M433.418,589.65h-28.165v28.42h28.165v-9.644l10.45,2.167v5.31c0,4.106-0.772,6.903-2.315,8.39
			c-1.544,1.487-4.482,2.23-8.815,2.23h-26.805c-4.361,0-7.307-0.743-8.836-2.23c-1.529-1.486-2.294-4.283-2.294-8.39v-23.661
			c0-4.078,0.765-6.868,2.294-8.369s4.475-2.252,8.836-2.252h26.805c4.333,0,7.271,0.751,8.815,2.252
			c1.543,1.501,2.315,4.291,2.315,8.369v4.248l-10.45,1.656V589.65z"/>
		<path fill="#FFFFFF" d="M503.086,589.65h-28.165v28.42h28.165v-9.644l10.45,2.167v5.31c0,4.106-0.772,6.903-2.315,8.39
			c-1.544,1.487-4.482,2.23-8.815,2.23h-26.805c-4.361,0-7.307-0.743-8.836-2.23c-1.529-1.486-2.294-4.283-2.294-8.39v-23.661
			c0-4.078,0.765-6.868,2.294-8.369s4.475-2.252,8.836-2.252h26.805c4.333,0,7.271,0.751,8.815,2.252
			c1.543,1.501,2.315,4.291,2.315,8.369v4.248l-10.45,1.656V589.65z"/>
		<path fill="#FFFFFF" d="M527.768,607.832v-8.963h20.263v8.963H527.768z"/>
		<path fill="#FFFFFF" d="M563.706,626.523v-44.902h8.454l21.155,27.146l20.688-27.146h8.369v44.902h-9.686v-27.74
			c0-0.537,0.035-1.217,0.106-2.039c0.071-0.82,0.163-1.741,0.276-2.761c-0.567,1.161-1.062,2.117-1.487,2.867
			c-0.425,0.751-0.807,1.367-1.147,1.849l-16.865,22.43h-2.082l-16.907-22.516c-0.623-0.85-1.154-1.649-1.593-2.399
			c-0.439-0.75-0.801-1.479-1.083-2.188c0.085,0.936,0.149,1.785,0.191,2.549c0.043,0.766,0.064,1.502,0.064,2.209v27.74H563.706z"
			/>
		<path fill="#FFFFFF" d="M635.753,626.523l25.403-44.902h10.068l25.742,44.902h-11.725l-5.395-9.813h-28.462l-5.225,9.813H635.753z
			 M655.846,608.597h19.668l-9.686-18.267L655.846,608.597z"/>
		<path fill="#FFFFFF" d="M711.326,626.523v-44.902h7.137l31.605,26.466c1.076,0.878,2.024,1.706,2.846,2.485s1.572,1.579,2.252,2.4
			c-0.17-2.521-0.283-4.305-0.34-5.354c-0.057-1.047-0.085-1.854-0.085-2.421v-23.577h9.388v44.902h-7.137l-32.965-27.74
			c-0.793-0.707-1.486-1.345-2.081-1.911s-1.147-1.147-1.657-1.741c0.142,1.388,0.248,2.697,0.319,3.929
			c0.07,1.232,0.106,2.302,0.106,3.208v24.256H711.326z"/>
		<path fill="#FFFFFF" d="M786.941,626.523v-44.902h7.137l31.605,26.466c1.076,0.878,2.024,1.706,2.846,2.485s1.572,1.579,2.252,2.4
			c-0.17-2.521-0.283-4.305-0.34-5.354c-0.057-1.047-0.085-1.854-0.085-2.421v-23.577h9.388v44.902h-7.137l-32.965-27.74
			c-0.793-0.707-1.486-1.345-2.081-1.911s-1.147-1.147-1.657-1.741c0.142,1.388,0.248,2.697,0.319,3.929
			c0.07,1.232,0.106,2.302,0.106,3.208v24.256H786.941z"/>
		<path fill="#FFFFFF" d="M862.642,626.523v-44.902h10.45v17.418h32.625v-17.418h10.535v44.902h-10.535v-19.328h-32.625v19.328
			H862.642z"/>
		<path fill="#FFFFFF" d="M939.19,626.523v-44.902h45.964v7.646h-35.514v10.025h20.73v7.646h-20.73v11.131h35.938v8.453H939.19z"/>
		<path fill="#FFFFFF" d="M1004.866,626.523v-44.902h10.45v44.902H1004.866z"/>
		<path fill="#FFFFFF" d="M1038.17,626.523v-44.902h8.453l21.156,27.146l20.688-27.146h8.369v44.902h-9.686v-27.74
			c0-0.537,0.035-1.217,0.105-2.039c0.07-0.82,0.163-1.741,0.276-2.761c-0.566,1.161-1.062,2.117-1.487,2.867
			c-0.424,0.751-0.807,1.367-1.146,1.849l-16.865,22.43h-2.081l-16.907-22.516c-0.623-0.85-1.154-1.649-1.593-2.399
			c-0.439-0.75-0.801-1.479-1.083-2.188c0.084,0.936,0.148,1.785,0.19,2.549c0.043,0.766,0.063,1.502,0.063,2.209v27.74H1038.17z"/>
		<path fill="#FFFFFF" d="M1124.83,613.057h1.572c0.764,0,1.302,0.22,1.613,0.659s0.468,1.281,0.468,2.527v7.052
			c0,1.359-0.17,2.237-0.51,2.634s-1.388,0.595-3.144,0.595h-7.773c-0.766,0-1.304-0.227-1.615-0.68s-0.467-1.303-0.467-2.549
			v-7.052c0-1.331,0.17-2.194,0.51-2.591s1.388-0.596,3.144-0.596H1124.83z"/>
		<path fill="#FFFFFF" d="M1147.601,626.523v-44.902h28.887c8.241,0,14.577,1.927,19.01,5.777c4.433,3.853,6.648,9.318,6.648,16.398
			c0,4.191-0.864,7.965-2.591,11.32c-1.729,3.356-4.164,5.997-7.307,7.923c-1.955,1.218-4.383,2.103-7.286,2.655
			c-2.903,0.552-6.62,0.828-11.151,0.828H1147.601z M1158.051,618.07h13.509c7.193,0,12.291-1.119,15.293-3.356
			s4.503-5.933,4.503-11.087c0-4.588-1.246-8.064-3.738-10.43c-2.492-2.364-6.174-3.547-11.045-3.547h-18.521V618.07z"/>
		<path fill="#FFFFFF" d="M1221.304,626.523v-44.902h45.964v7.646h-35.514v10.025h20.73v7.646h-20.73v11.131h35.938v8.453H1221.304z
			"/>
	</g>
	<g>
		<polygon fill="#FFFFFF" points="1050.25,150.292 1050.25,100.292 1000.25,100.292 1000.25,49.792 799.75,49.792 799.75,100.25 
			749.75,100.25 749.75,349.791 799.75,349.791 799.75,400.292 1000.25,400.292 1000.25,349.791 1050.25,349.791 1050.25,300.292 
			950.25,300.292 950.25,349.791 849.75,349.791 849.75,100.292 950.25,100.292 950.25,150.292 		"/>
	</g>
	<g>
		<path fill="#FFFFFF" d="M1100.25,49.792v174.75h175V49.792H1100.25z M1251,124.042h-24.75v25h-50.75v24.75h75.5v25.125h-125.75
			v-25.125h25.25v-24.75h25v-25h50.75v-25h-75.75v25h-25.25v-25h25.25v-25.25h75.75v25.25H1251V124.042z"/>
	</g>
	<g>
		<polygon fill="#FFFFFF" points="700.25,150.292 700.25,100.292 650.25,100.292 650.25,49.792 449.75,49.792 449.75,100.25 
			399.75,100.25 399.75,349.791 449.75,349.791 449.75,400.292 650.25,400.292 650.25,349.791 700.25,349.791 700.25,300.292 
			600.25,300.292 600.25,349.791 499.75,349.791 499.75,100.292 600.25,100.292 600.25,150.292 		"/>
	</g>
	<g>
		<polygon fill="#FFFFFF" points="350.25,150.292 350.25,100.292 300.25,100.292 300.25,49.792 99.75,49.792 99.75,100.25 
			49.75,100.25 49.75,349.791 99.75,349.791 99.75,400.292 300.25,400.292 300.25,349.791 350.25,349.791 350.25,300.292 
			250.25,300.292 250.25,349.791 149.75,349.791 149.75,100.292 250.25,100.292 250.25,150.292 		"/>
	</g>
</g>
</svg>
