G04 #@! TF.GenerationSoftware,KiCad,Pcbnew,(5.1.5)-3*
G04 #@! TF.CreationDate,2020-11-29T03:44:08+01:00*
G04 #@! TF.ProjectId,PlantCtrlESP32,506c616e-7443-4747-926c-45535033322e,rev?*
G04 #@! TF.SameCoordinates,Original*
G04 #@! TF.FileFunction,Legend,Bot*
G04 #@! TF.FilePolarity,Positive*
%FSLAX46Y46*%
G04 Gerber Fmt 4.6, Leading zero omitted, Abs format (unit mm)*
G04 Created by KiCad (PCBNEW (5.1.5)-3) date 2020-11-29 03:44:08*
%MOMM*%
%LPD*%
G04 APERTURE LIST*
%ADD10C,0.500000*%
%ADD11C,0.120000*%
%ADD12C,0.150000*%
G04 APERTURE END LIST*
D10*
X235779314Y-50323523D02*
X235779314Y-46323523D01*
X234255504Y-46323523D01*
X233874552Y-46514000D01*
X233684076Y-46704476D01*
X233493600Y-47085428D01*
X233493600Y-47656857D01*
X233684076Y-48037809D01*
X233874552Y-48228285D01*
X234255504Y-48418761D01*
X235779314Y-48418761D01*
X231207885Y-50323523D02*
X231588838Y-50133047D01*
X231779314Y-49752095D01*
X231779314Y-46323523D01*
X227969790Y-50323523D02*
X227969790Y-48228285D01*
X228160266Y-47847333D01*
X228541219Y-47656857D01*
X229303123Y-47656857D01*
X229684076Y-47847333D01*
X227969790Y-50133047D02*
X228350742Y-50323523D01*
X229303123Y-50323523D01*
X229684076Y-50133047D01*
X229874552Y-49752095D01*
X229874552Y-49371142D01*
X229684076Y-48990190D01*
X229303123Y-48799714D01*
X228350742Y-48799714D01*
X227969790Y-48609238D01*
X226065028Y-47656857D02*
X226065028Y-50323523D01*
X226065028Y-48037809D02*
X225874552Y-47847333D01*
X225493600Y-47656857D01*
X224922171Y-47656857D01*
X224541219Y-47847333D01*
X224350742Y-48228285D01*
X224350742Y-50323523D01*
X223017409Y-47656857D02*
X221493600Y-47656857D01*
X222445980Y-46323523D02*
X222445980Y-49752095D01*
X222255504Y-50133047D01*
X221874552Y-50323523D01*
X221493600Y-50323523D01*
X217874552Y-49942571D02*
X218065028Y-50133047D01*
X218636457Y-50323523D01*
X219017409Y-50323523D01*
X219588838Y-50133047D01*
X219969790Y-49752095D01*
X220160266Y-49371142D01*
X220350742Y-48609238D01*
X220350742Y-48037809D01*
X220160266Y-47275904D01*
X219969790Y-46894952D01*
X219588838Y-46514000D01*
X219017409Y-46323523D01*
X218636457Y-46323523D01*
X218065028Y-46514000D01*
X217874552Y-46704476D01*
X216731695Y-47656857D02*
X215207885Y-47656857D01*
X216160266Y-46323523D02*
X216160266Y-49752095D01*
X215969790Y-50133047D01*
X215588838Y-50323523D01*
X215207885Y-50323523D01*
X213874552Y-50323523D02*
X213874552Y-47656857D01*
X213874552Y-48418761D02*
X213684076Y-48037809D01*
X213493600Y-47847333D01*
X213112647Y-47656857D01*
X212731695Y-47656857D01*
X210826933Y-50323523D02*
X211207885Y-50133047D01*
X211398361Y-49752095D01*
X211398361Y-46323523D01*
X206826933Y-46323523D02*
X205493600Y-50323523D01*
X204160266Y-46323523D01*
X202065028Y-46323523D02*
X201684076Y-46323523D01*
X201303123Y-46514000D01*
X201112647Y-46704476D01*
X200922171Y-47085428D01*
X200731695Y-47847333D01*
X200731695Y-48799714D01*
X200922171Y-49561619D01*
X201112647Y-49942571D01*
X201303123Y-50133047D01*
X201684076Y-50323523D01*
X202065028Y-50323523D01*
X202445980Y-50133047D01*
X202636457Y-49942571D01*
X202826933Y-49561619D01*
X203017409Y-48799714D01*
X203017409Y-47847333D01*
X202826933Y-47085428D01*
X202636457Y-46704476D01*
X202445980Y-46514000D01*
X202065028Y-46323523D01*
X199017409Y-49942571D02*
X198826933Y-50133047D01*
X199017409Y-50323523D01*
X199207885Y-50133047D01*
X199017409Y-49942571D01*
X199017409Y-50323523D01*
X195398361Y-47656857D02*
X195398361Y-50323523D01*
X196350742Y-46133047D02*
X197303123Y-48990190D01*
X194826933Y-48990190D01*
D11*
X239720000Y-64472000D02*
X239720000Y-63222000D01*
X240970000Y-64472000D02*
X239720000Y-64472000D01*
X246870000Y-58972000D02*
X243820000Y-58972000D01*
X246870000Y-61922000D02*
X246870000Y-58972000D01*
X247620000Y-61922000D02*
X246870000Y-61922000D01*
X240770000Y-58972000D02*
X243820000Y-58972000D01*
X240770000Y-61922000D02*
X240770000Y-58972000D01*
X240020000Y-61922000D02*
X240770000Y-61922000D01*
X247620000Y-64172000D02*
X245820000Y-64172000D01*
X247620000Y-63422000D02*
X247620000Y-64172000D01*
X245820000Y-63422000D02*
X247620000Y-63422000D01*
X245820000Y-64172000D02*
X245820000Y-63422000D01*
X241820000Y-64172000D02*
X240020000Y-64172000D01*
X241820000Y-63422000D02*
X241820000Y-64172000D01*
X240020000Y-63422000D02*
X241820000Y-63422000D01*
X240020000Y-64172000D02*
X240020000Y-63422000D01*
X244320000Y-64172000D02*
X243320000Y-64172000D01*
X244320000Y-63422000D02*
X244320000Y-64172000D01*
X243320000Y-63422000D02*
X244320000Y-63422000D01*
X243320000Y-64172000D02*
X243320000Y-63422000D01*
X247630000Y-64182000D02*
X240010000Y-64182000D01*
X247630000Y-58212000D02*
X247630000Y-64182000D01*
X240010000Y-58212000D02*
X247630000Y-58212000D01*
X240010000Y-64182000D02*
X240010000Y-58212000D01*
D12*
X244153333Y-64724380D02*
X244153333Y-65438666D01*
X244200952Y-65581523D01*
X244296190Y-65676761D01*
X244439047Y-65724380D01*
X244534285Y-65724380D01*
X243772380Y-64724380D02*
X243105714Y-64724380D01*
X243534285Y-65724380D01*
M02*
