G04 #@! TF.GenerationSoftware,KiCad,Pcbnew,(5.1.5)-3*
G04 #@! TF.CreationDate,2020-11-29T03:44:09+01:00*
G04 #@! TF.ProjectId,PlantCtrlESP32,506c616e-7443-4747-926c-45535033322e,rev?*
G04 #@! TF.SameCoordinates,Original*
G04 #@! TF.FileFunction,Other,Fab,Bot*
%FSLAX46Y46*%
G04 Gerber Fmt 4.6, Leading zero omitted, Abs format (unit mm)*
G04 Created by KiCad (PCBNEW (5.1.5)-3) date 2020-11-29 03:44:09*
%MOMM*%
%LPD*%
G04 APERTURE LIST*
%ADD10C,0.100000*%
%ADD11C,0.150000*%
G04 APERTURE END LIST*
D10*
X242570000Y-63072000D02*
X243195000Y-64072000D01*
X241945000Y-64072000D02*
X242570000Y-63072000D01*
X247520000Y-64072000D02*
X240120000Y-64072000D01*
X247520000Y-58322000D02*
X247520000Y-64072000D01*
X240120000Y-58322000D02*
X247520000Y-58322000D01*
X240120000Y-64072000D02*
X240120000Y-58322000D01*
D11*
X247558095Y-57479142D02*
X247605714Y-57526761D01*
X247748571Y-57574380D01*
X247843809Y-57574380D01*
X247986666Y-57526761D01*
X248081904Y-57431523D01*
X248129523Y-57336285D01*
X248177142Y-57145809D01*
X248177142Y-57002952D01*
X248129523Y-56812476D01*
X248081904Y-56717238D01*
X247986666Y-56622000D01*
X247843809Y-56574380D01*
X247748571Y-56574380D01*
X247605714Y-56622000D01*
X247558095Y-56669619D01*
X246986666Y-57574380D02*
X247081904Y-57526761D01*
X247129523Y-57479142D01*
X247177142Y-57383904D01*
X247177142Y-57098190D01*
X247129523Y-57002952D01*
X247081904Y-56955333D01*
X246986666Y-56907714D01*
X246843809Y-56907714D01*
X246748571Y-56955333D01*
X246700952Y-57002952D01*
X246653333Y-57098190D01*
X246653333Y-57383904D01*
X246700952Y-57479142D01*
X246748571Y-57526761D01*
X246843809Y-57574380D01*
X246986666Y-57574380D01*
X246224761Y-56907714D02*
X246224761Y-57574380D01*
X246224761Y-57002952D02*
X246177142Y-56955333D01*
X246081904Y-56907714D01*
X245939047Y-56907714D01*
X245843809Y-56955333D01*
X245796190Y-57050571D01*
X245796190Y-57574380D01*
X245320000Y-56907714D02*
X245320000Y-57574380D01*
X245320000Y-57002952D02*
X245272380Y-56955333D01*
X245177142Y-56907714D01*
X245034285Y-56907714D01*
X244939047Y-56955333D01*
X244891428Y-57050571D01*
X244891428Y-57574380D01*
X244653333Y-57669619D02*
X243891428Y-57669619D01*
X243462857Y-56574380D02*
X243367619Y-56574380D01*
X243272380Y-56622000D01*
X243224761Y-56669619D01*
X243177142Y-56764857D01*
X243129523Y-56955333D01*
X243129523Y-57193428D01*
X243177142Y-57383904D01*
X243224761Y-57479142D01*
X243272380Y-57526761D01*
X243367619Y-57574380D01*
X243462857Y-57574380D01*
X243558095Y-57526761D01*
X243605714Y-57479142D01*
X243653333Y-57383904D01*
X243700952Y-57193428D01*
X243700952Y-56955333D01*
X243653333Y-56764857D01*
X243605714Y-56669619D01*
X243558095Y-56622000D01*
X243462857Y-56574380D01*
X242177142Y-57574380D02*
X242748571Y-57574380D01*
X242462857Y-57574380D02*
X242462857Y-56574380D01*
X242558095Y-56717238D01*
X242653333Y-56812476D01*
X242748571Y-56860095D01*
X241843809Y-57574380D02*
X241320000Y-56907714D01*
X241843809Y-56907714D02*
X241320000Y-57574380D01*
X240748571Y-56574380D02*
X240653333Y-56574380D01*
X240558095Y-56622000D01*
X240510476Y-56669619D01*
X240462857Y-56764857D01*
X240415238Y-56955333D01*
X240415238Y-57193428D01*
X240462857Y-57383904D01*
X240510476Y-57479142D01*
X240558095Y-57526761D01*
X240653333Y-57574380D01*
X240748571Y-57574380D01*
X240843809Y-57526761D01*
X240891428Y-57479142D01*
X240939047Y-57383904D01*
X240986666Y-57193428D01*
X240986666Y-56955333D01*
X240939047Y-56764857D01*
X240891428Y-56669619D01*
X240843809Y-56622000D01*
X240748571Y-56574380D01*
X240034285Y-56669619D02*
X239986666Y-56622000D01*
X239891428Y-56574380D01*
X239653333Y-56574380D01*
X239558095Y-56622000D01*
X239510476Y-56669619D01*
X239462857Y-56764857D01*
X239462857Y-56860095D01*
X239510476Y-57002952D01*
X240081904Y-57574380D01*
X239462857Y-57574380D01*
X244153333Y-58474380D02*
X244153333Y-59188666D01*
X244200952Y-59331523D01*
X244296190Y-59426761D01*
X244439047Y-59474380D01*
X244534285Y-59474380D01*
X243772380Y-58474380D02*
X243105714Y-58474380D01*
X243534285Y-59474380D01*
M02*
