G04 #@! TF.GenerationSoftware,KiCad,Pcbnew,(5.1.5)-3*
G04 #@! TF.CreationDate,2020-11-29T03:44:09+01:00*
G04 #@! TF.ProjectId,PlantCtrlESP32,506c616e-7443-4747-926c-45535033322e,rev?*
G04 #@! TF.SameCoordinates,Original*
G04 #@! TF.FileFunction,Other,User*
%FSLAX46Y46*%
G04 Gerber Fmt 4.6, Leading zero omitted, Abs format (unit mm)*
G04 Created by KiCad (PCBNEW (5.1.5)-3) date 2020-11-29 03:44:09*
%MOMM*%
%LPD*%
G04 APERTURE LIST*
%ADD10C,0.050000*%
G04 APERTURE END LIST*
D10*
X212024000Y-125658000D02*
X212024000Y-129358000D01*
X210124000Y-125658000D02*
X212024000Y-125658000D01*
X210124000Y-129358000D02*
X210124000Y-125658000D01*
X212024000Y-129358000D02*
X210124000Y-129358000D01*
X211770000Y-109656000D02*
X211770000Y-113356000D01*
X209870000Y-109656000D02*
X211770000Y-109656000D01*
X209870000Y-113356000D02*
X209870000Y-109656000D01*
X211770000Y-113356000D02*
X209870000Y-113356000D01*
X263586000Y-103052000D02*
X263586000Y-106752000D01*
X261686000Y-103052000D02*
X263586000Y-103052000D01*
X261686000Y-106752000D02*
X261686000Y-103052000D01*
X263586000Y-106752000D02*
X261686000Y-106752000D01*
X240726000Y-103015500D02*
X240726000Y-106715500D01*
X238826000Y-103015500D02*
X240726000Y-103015500D01*
X238826000Y-106715500D02*
X238826000Y-103015500D01*
X240726000Y-106715500D02*
X238826000Y-106715500D01*
X256220000Y-103052000D02*
X256220000Y-106752000D01*
X254320000Y-103052000D02*
X256220000Y-103052000D01*
X254320000Y-106752000D02*
X254320000Y-103052000D01*
X256220000Y-106752000D02*
X254320000Y-106752000D01*
X232852000Y-103015500D02*
X232852000Y-106715500D01*
X230952000Y-103015500D02*
X232852000Y-103015500D01*
X230952000Y-106715500D02*
X230952000Y-103015500D01*
X232852000Y-106715500D02*
X230952000Y-106715500D01*
X248346000Y-103052000D02*
X248346000Y-106752000D01*
X246446000Y-103052000D02*
X248346000Y-103052000D01*
X246446000Y-106752000D02*
X246446000Y-103052000D01*
X248346000Y-106752000D02*
X246446000Y-106752000D01*
X225232000Y-103015500D02*
X225232000Y-106715500D01*
X223332000Y-103015500D02*
X225232000Y-103015500D01*
X223332000Y-106715500D02*
X223332000Y-103015500D01*
X225232000Y-106715500D02*
X223332000Y-106715500D01*
X217866000Y-103052000D02*
X217866000Y-106752000D01*
X215966000Y-103052000D02*
X217866000Y-103052000D01*
X215966000Y-106752000D02*
X215966000Y-103052000D01*
X217866000Y-106752000D02*
X215966000Y-106752000D01*
X187132000Y-71810000D02*
X187132000Y-75510000D01*
X185232000Y-71810000D02*
X187132000Y-71810000D01*
X185232000Y-75510000D02*
X185232000Y-71810000D01*
X187132000Y-75510000D02*
X185232000Y-75510000D01*
X243260000Y-74488000D02*
X246960000Y-74488000D01*
X243260000Y-76388000D02*
X243260000Y-74488000D01*
X246960000Y-76388000D02*
X243260000Y-76388000D01*
X246960000Y-74488000D02*
X246960000Y-76388000D01*
X241880000Y-72832000D02*
X238180000Y-72832000D01*
X241880000Y-70932000D02*
X241880000Y-72832000D01*
X238180000Y-70932000D02*
X241880000Y-70932000D01*
X238180000Y-72832000D02*
X238180000Y-70932000D01*
X235811000Y-78281000D02*
X232311000Y-78281000D01*
X235811000Y-74881000D02*
X235811000Y-78281000D01*
X232311000Y-74881000D02*
X235811000Y-74881000D01*
X232311000Y-78281000D02*
X232311000Y-74881000D01*
X209028000Y-130434000D02*
X212328000Y-130434000D01*
X209028000Y-130434000D02*
X209028000Y-132934000D01*
X212328000Y-132934000D02*
X212328000Y-130434000D01*
X212328000Y-132934000D02*
X209028000Y-132934000D01*
X182154000Y-89785500D02*
X182154000Y-86025500D01*
X184114000Y-89785500D02*
X182154000Y-89785500D01*
X184114000Y-86025500D02*
X184114000Y-89785500D01*
X182154000Y-86025500D02*
X184114000Y-86025500D01*
X258042000Y-69574000D02*
X261592000Y-69574000D01*
X261592000Y-69574000D02*
X261592000Y-80774000D01*
X261592000Y-80774000D02*
X258042000Y-80774000D01*
X258042000Y-80774000D02*
X258042000Y-69574000D01*
X195475000Y-135785000D02*
X195475000Y-132185000D01*
X184275000Y-135785000D02*
X195475000Y-135785000D01*
X184275000Y-132185000D02*
X184275000Y-135785000D01*
X195475000Y-132185000D02*
X184275000Y-132185000D01*
X194877000Y-79729000D02*
X187647000Y-79729000D01*
X194877000Y-68099000D02*
X194877000Y-79729000D01*
X187647000Y-68099000D02*
X194877000Y-68099000D01*
X187647000Y-79729000D02*
X187647000Y-68099000D01*
X228020000Y-73980000D02*
X231720000Y-73980000D01*
X228020000Y-75880000D02*
X228020000Y-73980000D01*
X231720000Y-75880000D02*
X228020000Y-75880000D01*
X231720000Y-73980000D02*
X231720000Y-75880000D01*
X181046000Y-109286000D02*
X184746000Y-109286000D01*
X181046000Y-111186000D02*
X181046000Y-109286000D01*
X184746000Y-111186000D02*
X181046000Y-111186000D01*
X184746000Y-109286000D02*
X184746000Y-111186000D01*
X265237000Y-124388000D02*
X265237000Y-128088000D01*
X263337000Y-124388000D02*
X265237000Y-124388000D01*
X263337000Y-128088000D02*
X263337000Y-124388000D01*
X265237000Y-128088000D02*
X263337000Y-128088000D01*
X193228000Y-90860000D02*
X193228000Y-94560000D01*
X191328000Y-90860000D02*
X193228000Y-90860000D01*
X191328000Y-94560000D02*
X191328000Y-90860000D01*
X193228000Y-94560000D02*
X191328000Y-94560000D01*
X261686000Y-97100000D02*
X261686000Y-93400000D01*
X263586000Y-97100000D02*
X261686000Y-97100000D01*
X263586000Y-93400000D02*
X263586000Y-97100000D01*
X261686000Y-93400000D02*
X263586000Y-93400000D01*
X197424000Y-98624000D02*
X197424000Y-94924000D01*
X199324000Y-98624000D02*
X197424000Y-98624000D01*
X199324000Y-94924000D02*
X199324000Y-98624000D01*
X197424000Y-94924000D02*
X199324000Y-94924000D01*
X257744000Y-124515000D02*
X257744000Y-128215000D01*
X255844000Y-124515000D02*
X257744000Y-124515000D01*
X255844000Y-128215000D02*
X255844000Y-124515000D01*
X257744000Y-128215000D02*
X255844000Y-128215000D01*
X254320000Y-97100000D02*
X254320000Y-93400000D01*
X256220000Y-97100000D02*
X254320000Y-97100000D01*
X256220000Y-93400000D02*
X256220000Y-97100000D01*
X254320000Y-93400000D02*
X256220000Y-93400000D01*
X250124000Y-124515000D02*
X250124000Y-128215000D01*
X248224000Y-124515000D02*
X250124000Y-124515000D01*
X248224000Y-128215000D02*
X248224000Y-124515000D01*
X250124000Y-128215000D02*
X248224000Y-128215000D01*
X246446000Y-97100000D02*
X246446000Y-93400000D01*
X248346000Y-97100000D02*
X246446000Y-97100000D01*
X248346000Y-93400000D02*
X248346000Y-97100000D01*
X246446000Y-93400000D02*
X248346000Y-93400000D01*
X242504000Y-124515000D02*
X242504000Y-128215000D01*
X240604000Y-124515000D02*
X242504000Y-124515000D01*
X240604000Y-128215000D02*
X240604000Y-124515000D01*
X242504000Y-128215000D02*
X240604000Y-128215000D01*
X238826000Y-97116000D02*
X238826000Y-93416000D01*
X240726000Y-97116000D02*
X238826000Y-97116000D01*
X240726000Y-93416000D02*
X240726000Y-97116000D01*
X238826000Y-93416000D02*
X240726000Y-93416000D01*
X235011000Y-124515000D02*
X235011000Y-128215000D01*
X233111000Y-124515000D02*
X235011000Y-124515000D01*
X233111000Y-128215000D02*
X233111000Y-124515000D01*
X235011000Y-128215000D02*
X233111000Y-128215000D01*
X230952000Y-97116000D02*
X230952000Y-93416000D01*
X232852000Y-97116000D02*
X230952000Y-97116000D01*
X232852000Y-93416000D02*
X232852000Y-97116000D01*
X230952000Y-93416000D02*
X232852000Y-93416000D01*
X227391000Y-124499000D02*
X227391000Y-128199000D01*
X225491000Y-124499000D02*
X227391000Y-124499000D01*
X225491000Y-128199000D02*
X225491000Y-124499000D01*
X227391000Y-128199000D02*
X225491000Y-128199000D01*
X223332000Y-97116000D02*
X223332000Y-93416000D01*
X225232000Y-97116000D02*
X223332000Y-97116000D01*
X225232000Y-93416000D02*
X225232000Y-97116000D01*
X223332000Y-93416000D02*
X225232000Y-93416000D01*
X219644000Y-124499000D02*
X219644000Y-128199000D01*
X217744000Y-124499000D02*
X219644000Y-124499000D01*
X217744000Y-128199000D02*
X217744000Y-124499000D01*
X219644000Y-128199000D02*
X217744000Y-128199000D01*
X215966000Y-97100000D02*
X215966000Y-93400000D01*
X217866000Y-97100000D02*
X215966000Y-97100000D01*
X217866000Y-93400000D02*
X217866000Y-97100000D01*
X215966000Y-93400000D02*
X217866000Y-93400000D01*
X207838000Y-129612000D02*
X207838000Y-125912000D01*
X209738000Y-129612000D02*
X207838000Y-129612000D01*
X209738000Y-125912000D02*
X209738000Y-129612000D01*
X207838000Y-125912000D02*
X209738000Y-125912000D01*
X209870000Y-108784000D02*
X209870000Y-105084000D01*
X211770000Y-108784000D02*
X209870000Y-108784000D01*
X211770000Y-105084000D02*
X211770000Y-108784000D01*
X209870000Y-105084000D02*
X211770000Y-105084000D01*
X235784000Y-86548000D02*
X232084000Y-86548000D01*
X235784000Y-84648000D02*
X235784000Y-86548000D01*
X232084000Y-84648000D02*
X235784000Y-84648000D01*
X232084000Y-86548000D02*
X232084000Y-84648000D01*
X240102000Y-88072000D02*
X236402000Y-88072000D01*
X240102000Y-86172000D02*
X240102000Y-88072000D01*
X236402000Y-86172000D02*
X240102000Y-86172000D01*
X236402000Y-88072000D02*
X236402000Y-86172000D01*
X206320000Y-127950000D02*
X202620000Y-127950000D01*
X206320000Y-126050000D02*
X206320000Y-127950000D01*
X202620000Y-126050000D02*
X206320000Y-126050000D01*
X202620000Y-127950000D02*
X202620000Y-126050000D01*
X228020000Y-84648000D02*
X231720000Y-84648000D01*
X228020000Y-86548000D02*
X228020000Y-84648000D01*
X231720000Y-86548000D02*
X228020000Y-86548000D01*
X231720000Y-84648000D02*
X231720000Y-86548000D01*
X244166000Y-82484000D02*
X240466000Y-82484000D01*
X244166000Y-80584000D02*
X244166000Y-82484000D01*
X240466000Y-80584000D02*
X244166000Y-80584000D01*
X240466000Y-82484000D02*
X240466000Y-80584000D01*
X228020000Y-76266000D02*
X231720000Y-76266000D01*
X228020000Y-78166000D02*
X228020000Y-76266000D01*
X231720000Y-78166000D02*
X228020000Y-78166000D01*
X231720000Y-76266000D02*
X231720000Y-78166000D01*
X240466000Y-83886000D02*
X244166000Y-83886000D01*
X240466000Y-85786000D02*
X240466000Y-83886000D01*
X244166000Y-85786000D02*
X240466000Y-85786000D01*
X244166000Y-83886000D02*
X244166000Y-85786000D01*
X257722000Y-95316000D02*
X261422000Y-95316000D01*
X257722000Y-97216000D02*
X257722000Y-95316000D01*
X261422000Y-97216000D02*
X257722000Y-97216000D01*
X261422000Y-95316000D02*
X261422000Y-97216000D01*
X261686000Y-102164000D02*
X261686000Y-98464000D01*
X263586000Y-102164000D02*
X261686000Y-102164000D01*
X263586000Y-98464000D02*
X263586000Y-102164000D01*
X261686000Y-98464000D02*
X263586000Y-98464000D01*
X234862000Y-95316000D02*
X238562000Y-95316000D01*
X234862000Y-97216000D02*
X234862000Y-95316000D01*
X238562000Y-97216000D02*
X234862000Y-97216000D01*
X238562000Y-95316000D02*
X238562000Y-97216000D01*
X201610000Y-90860000D02*
X201610000Y-94560000D01*
X199710000Y-90860000D02*
X201610000Y-90860000D01*
X199710000Y-94560000D02*
X199710000Y-90860000D01*
X201610000Y-94560000D02*
X199710000Y-94560000D01*
X238826000Y-102196000D02*
X238826000Y-98496000D01*
X240726000Y-102196000D02*
X238826000Y-102196000D01*
X240726000Y-98496000D02*
X240726000Y-102196000D01*
X238826000Y-98496000D02*
X240726000Y-98496000D01*
X250372000Y-95316000D02*
X254072000Y-95316000D01*
X250372000Y-97216000D02*
X250372000Y-95316000D01*
X254072000Y-97216000D02*
X250372000Y-97216000D01*
X254072000Y-95316000D02*
X254072000Y-97216000D01*
X254320000Y-102180000D02*
X254320000Y-98480000D01*
X256220000Y-102180000D02*
X254320000Y-102180000D01*
X256220000Y-98480000D02*
X256220000Y-102180000D01*
X254320000Y-98480000D02*
X256220000Y-98480000D01*
X226988000Y-95316000D02*
X230688000Y-95316000D01*
X226988000Y-97216000D02*
X226988000Y-95316000D01*
X230688000Y-97216000D02*
X226988000Y-97216000D01*
X230688000Y-95316000D02*
X230688000Y-97216000D01*
X230952000Y-102196000D02*
X230952000Y-98496000D01*
X232852000Y-102196000D02*
X230952000Y-102196000D01*
X232852000Y-98496000D02*
X232852000Y-102196000D01*
X230952000Y-98496000D02*
X232852000Y-98496000D01*
X242498000Y-95316000D02*
X246198000Y-95316000D01*
X242498000Y-97216000D02*
X242498000Y-95316000D01*
X246198000Y-97216000D02*
X242498000Y-97216000D01*
X246198000Y-95316000D02*
X246198000Y-97216000D01*
X246446000Y-102180000D02*
X246446000Y-98480000D01*
X248346000Y-102180000D02*
X246446000Y-102180000D01*
X248346000Y-98480000D02*
X248346000Y-102180000D01*
X246446000Y-98480000D02*
X248346000Y-98480000D01*
X223084000Y-97216000D02*
X219384000Y-97216000D01*
X223084000Y-95316000D02*
X223084000Y-97216000D01*
X219384000Y-95316000D02*
X223084000Y-95316000D01*
X219384000Y-97216000D02*
X219384000Y-95316000D01*
X223332000Y-102180000D02*
X223332000Y-98480000D01*
X225232000Y-102180000D02*
X223332000Y-102180000D01*
X225232000Y-98480000D02*
X225232000Y-102180000D01*
X223332000Y-98480000D02*
X225232000Y-98480000D01*
X212018000Y-95316000D02*
X215718000Y-95316000D01*
X212018000Y-97216000D02*
X212018000Y-95316000D01*
X215718000Y-97216000D02*
X212018000Y-97216000D01*
X215718000Y-95316000D02*
X215718000Y-97216000D01*
X215966000Y-102180000D02*
X215966000Y-98480000D01*
X217866000Y-102180000D02*
X215966000Y-102180000D01*
X217866000Y-98480000D02*
X217866000Y-102180000D01*
X215966000Y-98480000D02*
X217866000Y-98480000D01*
X185232000Y-85670000D02*
X185232000Y-81970000D01*
X187132000Y-85670000D02*
X185232000Y-85670000D01*
X187132000Y-81970000D02*
X187132000Y-85670000D01*
X185232000Y-81970000D02*
X187132000Y-81970000D01*
X189926000Y-81970000D02*
X189926000Y-85670000D01*
X188026000Y-81970000D02*
X189926000Y-81970000D01*
X188026000Y-85670000D02*
X188026000Y-81970000D01*
X189926000Y-85670000D02*
X188026000Y-85670000D01*
X266888000Y-72826000D02*
X266888000Y-76526000D01*
X264988000Y-72826000D02*
X266888000Y-72826000D01*
X264988000Y-76526000D02*
X264988000Y-72826000D01*
X266888000Y-76526000D02*
X264988000Y-76526000D01*
X266888000Y-76890000D02*
X266888000Y-80590000D01*
X264988000Y-76890000D02*
X266888000Y-76890000D01*
X264988000Y-80590000D02*
X264988000Y-76890000D01*
X266888000Y-80590000D02*
X264988000Y-80590000D01*
X235684000Y-84488000D02*
X232184000Y-84488000D01*
X235684000Y-79088000D02*
X235684000Y-84488000D01*
X232184000Y-79088000D02*
X235684000Y-79088000D01*
X232184000Y-84488000D02*
X232184000Y-79088000D01*
X240002000Y-86012000D02*
X236502000Y-86012000D01*
X240002000Y-80612000D02*
X240002000Y-86012000D01*
X236502000Y-80612000D02*
X240002000Y-80612000D01*
X236502000Y-86012000D02*
X236502000Y-80612000D01*
X228120000Y-78580000D02*
X231620000Y-78580000D01*
X228120000Y-83980000D02*
X228120000Y-78580000D01*
X231620000Y-83980000D02*
X228120000Y-83980000D01*
X231620000Y-78580000D02*
X231620000Y-83980000D01*
X247876000Y-86012000D02*
X244376000Y-86012000D01*
X247876000Y-80612000D02*
X247876000Y-86012000D01*
X244376000Y-80612000D02*
X247876000Y-80612000D01*
X244376000Y-86012000D02*
X244376000Y-80612000D01*
X257838000Y-97376000D02*
X261338000Y-97376000D01*
X257838000Y-102776000D02*
X257838000Y-97376000D01*
X261338000Y-102776000D02*
X257838000Y-102776000D01*
X261338000Y-97376000D02*
X261338000Y-102776000D01*
X234978000Y-97376000D02*
X238478000Y-97376000D01*
X234978000Y-102776000D02*
X234978000Y-97376000D01*
X238478000Y-102776000D02*
X234978000Y-102776000D01*
X238478000Y-97376000D02*
X238478000Y-102776000D01*
X199296000Y-90960000D02*
X199296000Y-94460000D01*
X193896000Y-90960000D02*
X199296000Y-90960000D01*
X193896000Y-94460000D02*
X193896000Y-90960000D01*
X199296000Y-94460000D02*
X193896000Y-94460000D01*
X250472000Y-97376000D02*
X253972000Y-97376000D01*
X250472000Y-102776000D02*
X250472000Y-97376000D01*
X253972000Y-102776000D02*
X250472000Y-102776000D01*
X253972000Y-97376000D02*
X253972000Y-102776000D01*
X227104000Y-97376000D02*
X230604000Y-97376000D01*
X227104000Y-102776000D02*
X227104000Y-97376000D01*
X230604000Y-102776000D02*
X227104000Y-102776000D01*
X230604000Y-97376000D02*
X230604000Y-102776000D01*
X242598000Y-97376000D02*
X246098000Y-97376000D01*
X242598000Y-102776000D02*
X242598000Y-97376000D01*
X246098000Y-102776000D02*
X242598000Y-102776000D01*
X246098000Y-97376000D02*
X246098000Y-102776000D01*
X219484000Y-97376000D02*
X222984000Y-97376000D01*
X219484000Y-102776000D02*
X219484000Y-97376000D01*
X222984000Y-102776000D02*
X219484000Y-102776000D01*
X222984000Y-97376000D02*
X222984000Y-102776000D01*
X212118000Y-97376000D02*
X215618000Y-97376000D01*
X212118000Y-102776000D02*
X212118000Y-97376000D01*
X215618000Y-102776000D02*
X212118000Y-102776000D01*
X215618000Y-97376000D02*
X215618000Y-102776000D01*
X175836000Y-121792000D02*
X175836000Y-110792000D01*
X171036000Y-121792000D02*
X175836000Y-121792000D01*
X171036000Y-110792000D02*
X171036000Y-121792000D01*
X175836000Y-110792000D02*
X171036000Y-110792000D01*
X255980000Y-66634000D02*
X255980000Y-87134000D01*
X255980000Y-66634000D02*
X249480000Y-66634000D01*
X249480000Y-87134000D02*
X255980000Y-87134000D01*
X249480000Y-87134000D02*
X249480000Y-66634000D01*
X198156000Y-121514000D02*
X198156000Y-117754000D01*
X200116000Y-121514000D02*
X198156000Y-121514000D01*
X200116000Y-117754000D02*
X200116000Y-121514000D01*
X198156000Y-117754000D02*
X200116000Y-117754000D01*
X195870000Y-121514000D02*
X195870000Y-117754000D01*
X197830000Y-121514000D02*
X195870000Y-121514000D01*
X197830000Y-117754000D02*
X197830000Y-121514000D01*
X195870000Y-117754000D02*
X197830000Y-117754000D01*
X193584000Y-121514000D02*
X193584000Y-117754000D01*
X195544000Y-121514000D02*
X193584000Y-121514000D01*
X195544000Y-117754000D02*
X195544000Y-121514000D01*
X193584000Y-117754000D02*
X195544000Y-117754000D01*
X191298000Y-121514000D02*
X191298000Y-117754000D01*
X193258000Y-121514000D02*
X191298000Y-121514000D01*
X193258000Y-117754000D02*
X193258000Y-121514000D01*
X191298000Y-117754000D02*
X193258000Y-117754000D01*
X189012000Y-121514000D02*
X189012000Y-117754000D01*
X190972000Y-121514000D02*
X189012000Y-121514000D01*
X190972000Y-117754000D02*
X190972000Y-121514000D01*
X189012000Y-117754000D02*
X190972000Y-117754000D01*
X186726000Y-121514000D02*
X186726000Y-117754000D01*
X188686000Y-121514000D02*
X186726000Y-121514000D01*
X188686000Y-117754000D02*
X188686000Y-121514000D01*
X186726000Y-117754000D02*
X188686000Y-117754000D01*
X184440000Y-121514000D02*
X184440000Y-117754000D01*
X186400000Y-121514000D02*
X184440000Y-121514000D01*
X186400000Y-117754000D02*
X186400000Y-121514000D01*
X184440000Y-117754000D02*
X186400000Y-117754000D01*
X184114000Y-81940000D02*
X184114000Y-85700000D01*
X182154000Y-81940000D02*
X184114000Y-81940000D01*
X182154000Y-85700000D02*
X182154000Y-81940000D01*
X184114000Y-85700000D02*
X182154000Y-85700000D01*
X175326000Y-72208000D02*
X175326000Y-68508000D01*
X177226000Y-72208000D02*
X175326000Y-72208000D01*
X177226000Y-68508000D02*
X177226000Y-72208000D01*
X175326000Y-68508000D02*
X177226000Y-68508000D01*
X171886000Y-77790000D02*
X175586000Y-77790000D01*
X171886000Y-79690000D02*
X171886000Y-77790000D01*
X175586000Y-79690000D02*
X171886000Y-79690000D01*
X175586000Y-77790000D02*
X175586000Y-79690000D01*
X243144000Y-73986000D02*
X243144000Y-70286000D01*
X245044000Y-73986000D02*
X243144000Y-73986000D01*
X245044000Y-70286000D02*
X245044000Y-73986000D01*
X243144000Y-70286000D02*
X245044000Y-70286000D01*
X247330000Y-70286000D02*
X247330000Y-73986000D01*
X245430000Y-70286000D02*
X247330000Y-70286000D01*
X245430000Y-73986000D02*
X245430000Y-70286000D01*
X247330000Y-73986000D02*
X245430000Y-73986000D01*
X191958000Y-128452000D02*
X191958000Y-132152000D01*
X190058000Y-128452000D02*
X191958000Y-128452000D01*
X190058000Y-132152000D02*
X190058000Y-128452000D01*
X191958000Y-132152000D02*
X190058000Y-132152000D01*
X242443500Y-80320000D02*
X237543500Y-80320000D01*
X242443500Y-77160000D02*
X242443500Y-80320000D01*
X237543500Y-77160000D02*
X242443500Y-77160000D01*
X237543500Y-80320000D02*
X237543500Y-77160000D01*
X193420000Y-82784000D02*
X190120000Y-82784000D01*
X193420000Y-82784000D02*
X193420000Y-80284000D01*
X190120000Y-80284000D02*
X190120000Y-82784000D01*
X190120000Y-80284000D02*
X193420000Y-80284000D01*
X187472000Y-131952000D02*
X187472000Y-128652000D01*
X187472000Y-131952000D02*
X189972000Y-131952000D01*
X189972000Y-128652000D02*
X187472000Y-128652000D01*
X189972000Y-128652000D02*
X189972000Y-131952000D01*
X183516000Y-96032000D02*
X186816000Y-96032000D01*
X183516000Y-96032000D02*
X183516000Y-98532000D01*
X186816000Y-98532000D02*
X186816000Y-96032000D01*
X186816000Y-98532000D02*
X183516000Y-98532000D01*
X183516000Y-92984000D02*
X186816000Y-92984000D01*
X183516000Y-92984000D02*
X183516000Y-95484000D01*
X186816000Y-95484000D02*
X186816000Y-92984000D01*
X186816000Y-95484000D02*
X183516000Y-95484000D01*
X177820000Y-63118000D02*
X177820000Y-59818000D01*
X177820000Y-63118000D02*
X180320000Y-63118000D01*
X180320000Y-59818000D02*
X177820000Y-59818000D01*
X180320000Y-59818000D02*
X180320000Y-63118000D01*
X248160000Y-69364000D02*
X236960000Y-69364000D01*
X248160000Y-65814000D02*
X248160000Y-69364000D01*
X236960000Y-65814000D02*
X248160000Y-65814000D01*
X236960000Y-69364000D02*
X236960000Y-65814000D01*
X176090000Y-109600000D02*
X176090000Y-98600000D01*
X171290000Y-109600000D02*
X176090000Y-109600000D01*
X171290000Y-98600000D02*
X171290000Y-109600000D01*
X176090000Y-98600000D02*
X171290000Y-98600000D01*
X259031000Y-136878000D02*
X259031000Y-133378000D01*
X262431000Y-136878000D02*
X259031000Y-136878000D01*
X262431000Y-133378000D02*
X262431000Y-136878000D01*
X259031000Y-133378000D02*
X262431000Y-133378000D01*
X191036000Y-101170000D02*
X194536000Y-101170000D01*
X191036000Y-104570000D02*
X191036000Y-101170000D01*
X194536000Y-104570000D02*
X191036000Y-104570000D01*
X194536000Y-101170000D02*
X194536000Y-104570000D01*
X187226000Y-91010000D02*
X190726000Y-91010000D01*
X187226000Y-94410000D02*
X187226000Y-91010000D01*
X190726000Y-94410000D02*
X187226000Y-94410000D01*
X190726000Y-91010000D02*
X190726000Y-94410000D01*
X251919000Y-136878000D02*
X251919000Y-133378000D01*
X255319000Y-136878000D02*
X251919000Y-136878000D01*
X255319000Y-133378000D02*
X255319000Y-136878000D01*
X251919000Y-133378000D02*
X255319000Y-133378000D01*
X244299000Y-136878000D02*
X244299000Y-133378000D01*
X247699000Y-136878000D02*
X244299000Y-136878000D01*
X247699000Y-133378000D02*
X247699000Y-136878000D01*
X244299000Y-133378000D02*
X247699000Y-133378000D01*
X236806000Y-136878000D02*
X236806000Y-133378000D01*
X240206000Y-136878000D02*
X236806000Y-136878000D01*
X240206000Y-133378000D02*
X240206000Y-136878000D01*
X236806000Y-133378000D02*
X240206000Y-133378000D01*
X229186000Y-136878000D02*
X229186000Y-133378000D01*
X232586000Y-136878000D02*
X229186000Y-136878000D01*
X232586000Y-133378000D02*
X232586000Y-136878000D01*
X229186000Y-133378000D02*
X232586000Y-133378000D01*
X221566000Y-136878000D02*
X221566000Y-133378000D01*
X224966000Y-136878000D02*
X221566000Y-136878000D01*
X224966000Y-133378000D02*
X224966000Y-136878000D01*
X221566000Y-133378000D02*
X224966000Y-133378000D01*
X213946000Y-136878000D02*
X213946000Y-133378000D01*
X217346000Y-136878000D02*
X213946000Y-136878000D01*
X217346000Y-133378000D02*
X217346000Y-136878000D01*
X213946000Y-133378000D02*
X217346000Y-133378000D01*
X247310000Y-79636000D02*
X247310000Y-77336000D01*
X242910000Y-77336000D02*
X247310000Y-77336000D01*
X242910000Y-79636000D02*
X242910000Y-77336000D01*
X247310000Y-79636000D02*
X242910000Y-79636000D01*
X172400000Y-50930000D02*
X172400000Y-58290000D01*
X176870000Y-43780000D02*
X176870000Y-50930000D01*
X254930000Y-43780000D02*
X176870000Y-43780000D01*
X254930000Y-65440000D02*
X176870000Y-65440000D01*
X176870000Y-65440000D02*
X176870000Y-58290000D01*
X254930000Y-43780000D02*
X254930000Y-50930000D01*
X254930000Y-65440000D02*
X254930000Y-58290000D01*
X176870000Y-50930000D02*
X172400000Y-50930000D01*
X172400000Y-58290000D02*
X176870000Y-58290000D01*
X259400000Y-58290000D02*
X254930000Y-58290000D01*
X259400000Y-50930000D02*
X259400000Y-58290000D01*
X254930000Y-50930000D02*
X259400000Y-50930000D01*
X178205000Y-67215000D02*
X206605000Y-67215000D01*
X206605000Y-67215000D02*
X206605000Y-122115000D01*
X206605000Y-122115000D02*
X178205000Y-122115000D01*
X178205000Y-122115000D02*
X178205000Y-67215000D01*
X219138000Y-43793000D02*
X213678000Y-43793000D01*
X219138000Y-43793000D02*
X219138000Y-39053000D01*
X213678000Y-39053000D02*
X213678000Y-43793000D01*
X213678000Y-39053000D02*
X219138000Y-39053000D01*
X258250000Y-121540000D02*
X258250000Y-132540000D01*
X263050000Y-121540000D02*
X258250000Y-121540000D01*
X263050000Y-132540000D02*
X263050000Y-121540000D01*
X258250000Y-132540000D02*
X263050000Y-132540000D01*
X250630000Y-121540000D02*
X250630000Y-132540000D01*
X255430000Y-121540000D02*
X250630000Y-121540000D01*
X255430000Y-132540000D02*
X255430000Y-121540000D01*
X250630000Y-132540000D02*
X255430000Y-132540000D01*
X243010000Y-121540000D02*
X243010000Y-132540000D01*
X247810000Y-121540000D02*
X243010000Y-121540000D01*
X247810000Y-132540000D02*
X247810000Y-121540000D01*
X243010000Y-132540000D02*
X247810000Y-132540000D01*
X235390000Y-121540000D02*
X235390000Y-132540000D01*
X240190000Y-121540000D02*
X235390000Y-121540000D01*
X240190000Y-132540000D02*
X240190000Y-121540000D01*
X235390000Y-132540000D02*
X240190000Y-132540000D01*
X227770000Y-121540000D02*
X227770000Y-132540000D01*
X232570000Y-121540000D02*
X227770000Y-121540000D01*
X232570000Y-132540000D02*
X232570000Y-121540000D01*
X227770000Y-132540000D02*
X232570000Y-132540000D01*
X220150000Y-121540000D02*
X220150000Y-132540000D01*
X224950000Y-121540000D02*
X220150000Y-121540000D01*
X224950000Y-132540000D02*
X224950000Y-121540000D01*
X220150000Y-132540000D02*
X224950000Y-132540000D01*
X212530000Y-121540000D02*
X212530000Y-132540000D01*
X217330000Y-121540000D02*
X212530000Y-121540000D01*
X217330000Y-132540000D02*
X217330000Y-121540000D01*
X212530000Y-132540000D02*
X217330000Y-132540000D01*
X258250000Y-107530000D02*
X258250000Y-116030000D01*
X263050000Y-107530000D02*
X258250000Y-107530000D01*
X263050000Y-116030000D02*
X263050000Y-107530000D01*
X258250000Y-116030000D02*
X263050000Y-116030000D01*
X250630000Y-107530000D02*
X250630000Y-116030000D01*
X255430000Y-107530000D02*
X250630000Y-107530000D01*
X255430000Y-116030000D02*
X255430000Y-107530000D01*
X250630000Y-116030000D02*
X255430000Y-116030000D01*
X243010000Y-107530000D02*
X243010000Y-116030000D01*
X247810000Y-107530000D02*
X243010000Y-107530000D01*
X247810000Y-116030000D02*
X247810000Y-107530000D01*
X243010000Y-116030000D02*
X247810000Y-116030000D01*
X235390000Y-107530000D02*
X235390000Y-116030000D01*
X240190000Y-107530000D02*
X235390000Y-107530000D01*
X240190000Y-116030000D02*
X240190000Y-107530000D01*
X235390000Y-116030000D02*
X240190000Y-116030000D01*
X227770000Y-107530000D02*
X227770000Y-116030000D01*
X232570000Y-107530000D02*
X227770000Y-107530000D01*
X232570000Y-116030000D02*
X232570000Y-107530000D01*
X227770000Y-116030000D02*
X232570000Y-116030000D01*
X220150000Y-107530000D02*
X220150000Y-116030000D01*
X224950000Y-107530000D02*
X220150000Y-107530000D01*
X224950000Y-116030000D02*
X224950000Y-107530000D01*
X220150000Y-116030000D02*
X224950000Y-116030000D01*
X212530000Y-107530000D02*
X212530000Y-116030000D01*
X217330000Y-107530000D02*
X212530000Y-107530000D01*
X217330000Y-116030000D02*
X217330000Y-107530000D01*
X212530000Y-116030000D02*
X217330000Y-116030000D01*
X176090000Y-96860000D02*
X176090000Y-83360000D01*
X171290000Y-96860000D02*
X176090000Y-96860000D01*
X171290000Y-83360000D02*
X171290000Y-96860000D01*
X176090000Y-83360000D02*
X171290000Y-83360000D01*
X174854000Y-72354000D02*
X171094000Y-72354000D01*
X174854000Y-70394000D02*
X174854000Y-72354000D01*
X171094000Y-70394000D02*
X174854000Y-70394000D01*
X171094000Y-72354000D02*
X171094000Y-70394000D01*
X172494000Y-58768000D02*
X175994000Y-58768000D01*
X172494000Y-64168000D02*
X172494000Y-58768000D01*
X175994000Y-64168000D02*
X172494000Y-64168000D01*
X175994000Y-58768000D02*
X175994000Y-64168000D01*
X174978000Y-70010000D02*
X171478000Y-70010000D01*
X174978000Y-64610000D02*
X174978000Y-70010000D01*
X171478000Y-64610000D02*
X174978000Y-64610000D01*
X171478000Y-70010000D02*
X171478000Y-64610000D01*
X212168000Y-103152000D02*
X215568000Y-103152000D01*
X215568000Y-103152000D02*
X215568000Y-106652000D01*
X215568000Y-106652000D02*
X212168000Y-106652000D01*
X212168000Y-106652000D02*
X212168000Y-103152000D01*
X219534000Y-106652000D02*
X219534000Y-103152000D01*
X222934000Y-106652000D02*
X219534000Y-106652000D01*
X222934000Y-103152000D02*
X222934000Y-106652000D01*
X219534000Y-103152000D02*
X222934000Y-103152000D01*
X227154000Y-103152000D02*
X230554000Y-103152000D01*
X230554000Y-103152000D02*
X230554000Y-106652000D01*
X230554000Y-106652000D02*
X227154000Y-106652000D01*
X227154000Y-106652000D02*
X227154000Y-103152000D01*
X235028000Y-103152000D02*
X238428000Y-103152000D01*
X238428000Y-103152000D02*
X238428000Y-106652000D01*
X238428000Y-106652000D02*
X235028000Y-106652000D01*
X235028000Y-106652000D02*
X235028000Y-103152000D01*
X242648000Y-106652000D02*
X242648000Y-103152000D01*
X246048000Y-106652000D02*
X242648000Y-106652000D01*
X246048000Y-103152000D02*
X246048000Y-106652000D01*
X242648000Y-103152000D02*
X246048000Y-103152000D01*
X250522000Y-106652000D02*
X250522000Y-103152000D01*
X253922000Y-106652000D02*
X250522000Y-106652000D01*
X253922000Y-103152000D02*
X253922000Y-106652000D01*
X250522000Y-103152000D02*
X253922000Y-103152000D01*
X257888000Y-106652000D02*
X257888000Y-103152000D01*
X261288000Y-106652000D02*
X257888000Y-106652000D01*
X261288000Y-103152000D02*
X261288000Y-106652000D01*
X257888000Y-103152000D02*
X261288000Y-103152000D01*
M02*
