M48
; DRILL file {KiCad (5.1.5)-3} date 11/29/20 03:44:10
; FORMAT={-:-/ absolute / metric / decimal}
; #@! TF.CreationDate,2020-11-29T03:44:10+01:00
; #@! TF.GenerationSoftware,Kicad,Pcbnew,(5.1.5)-3
; #@! TF.FileFunction,Plated,1,2,PTH
FMAT,2
METRIC
T1C0.400
T2C0.750
T3C0.950
T4C1.000
T5C1.040
T6C2.000
T7C3.000
%
G90
G05
T1
X171.45Y-77.724
X175.26Y-76.454
X176.276Y-66.548
X176.784Y-59.944
X184.404Y-99.568
X185.42Y-122.428
X187.706Y-122.428
X188.976Y-95.504
X188.976Y-98.552
X189.794Y-80.208
X189.992Y-122.428
X191.008Y-54.61
X191.262Y-66.548
X192.024Y-99.822
X192.278Y-88.9
X192.278Y-122.428
X194.564Y-122.428
X195.834Y-77.47
X196.85Y-122.428
X196.88Y-78.77
X197.612Y-135.636
X199.136Y-122.428
X200.214Y-128.016
X200.914Y-129.286
X201.93Y-127.0
X202.438Y-98.044
X208.28Y-65.024
X210.12Y-102.616
X210.82Y-104.14
X211.455Y-59.817
X212.32Y-85.598
X212.344Y-87.122
X213.106Y-92.202
X214.122Y-54.356
X216.916Y-98.044
X220.284Y-92.268
X221.234Y-54.61
X224.282Y-98.044
X226.822Y-85.09
X227.396Y-92.268
X227.584Y-87.376
X231.902Y-98.044
X235.016Y-92.268
X235.204Y-87.63
X236.474Y-80.01
X237.38Y-76.344
X239.776Y-98.044
X241.3Y-87.122
X242.25Y-92.268
X242.316Y-83.058
X247.396Y-98.044
X250.886Y-92.268
X255.27Y-98.044
X257.744Y-92.268
X262.636Y-98.044
X263.398Y-59.436
T2
X215.138Y-41.783
X216.408Y-41.783
X217.678Y-41.783
T3
X237.49Y-124.54
X237.49Y-127.04
X237.49Y-129.54
X214.63Y-124.54
X214.63Y-127.04
X214.63Y-129.54
X252.73Y-124.54
X252.73Y-127.04
X252.73Y-129.54
X173.99Y-101.6
X173.99Y-104.1
X173.99Y-106.6
X245.11Y-124.54
X245.11Y-127.04
X245.11Y-129.54
X173.99Y-86.36
X173.99Y-88.86
X173.99Y-91.36
X173.99Y-93.86
X173.736Y-113.792
X173.736Y-116.292
X173.736Y-118.792
X229.87Y-124.54
X229.87Y-127.04
X229.87Y-129.54
X260.35Y-124.54
X260.35Y-127.04
X260.35Y-129.54
X222.25Y-124.54
X222.25Y-127.04
X222.25Y-129.54
T4
X214.63Y-110.53
X214.63Y-113.03
X229.87Y-110.53
X229.87Y-113.03
X259.842Y-71.374
X259.842Y-73.914
X259.842Y-76.454
X259.842Y-78.994
X237.49Y-110.53
X237.49Y-113.03
X238.76Y-67.564
X241.3Y-67.564
X243.84Y-67.564
X246.38Y-67.564
X186.055Y-133.985
X188.595Y-133.985
X191.135Y-133.985
X193.675Y-133.985
X222.25Y-110.53
X222.25Y-113.03
X252.73Y-110.53
X252.73Y-113.03
X242.57Y-61.722
X245.07Y-61.722
X245.11Y-110.53
X245.11Y-113.03
X260.35Y-110.53
X260.35Y-113.03
T5
X179.705Y-74.855
X179.705Y-77.395
X179.705Y-79.935
X179.705Y-82.475
X179.705Y-85.015
X179.705Y-87.555
X179.705Y-90.095
X179.705Y-92.635
X179.705Y-95.175
X179.705Y-97.715
X179.705Y-100.255
X179.705Y-102.795
X179.705Y-105.335
X179.705Y-107.875
X179.705Y-110.415
X179.705Y-112.955
X179.705Y-115.495
X179.705Y-118.035
X179.705Y-120.575
X205.105Y-74.855
X205.105Y-77.395
X205.105Y-79.935
X205.105Y-82.475
X205.105Y-85.015
X205.105Y-87.555
X205.105Y-90.095
X205.105Y-92.635
X205.105Y-95.175
X205.105Y-97.715
X205.105Y-100.255
X205.105Y-102.795
X205.105Y-105.335
X205.105Y-107.875
X205.105Y-110.415
X205.105Y-112.955
X205.105Y-115.495
X205.105Y-118.035
X205.105Y-120.575
T6
X176.57Y-54.61
X255.23Y-54.61
T7
X173.99Y-44.45
X173.99Y-135.636
X265.43Y-44.45
X265.43Y-135.636
T6
G00X252.73Y-74.234
M15
G01X252.73Y-70.234
M16
G05
G00X252.73Y-83.534
M15
G01X252.73Y-79.534
M16
G05
T0
M30
